<?xml version="1.0" encoding="UTF-8"?>
<svg width="60px" height="49px" viewBox="0 0 60 49" version="1.1" xmlns="http://www.w3.org/2000/svg" xmlns:xlink="http://www.w3.org/1999/xlink">
    <!-- Generator: Sketch 54.1 (76490) - https://sketchapp.com -->
    <title>Group</title>
    <desc>Created with Sketch.</desc>
    <g id="Symbols" stroke="none" stroke-width="1" fill="none" fill-rule="evenodd">
        <g id="Icons/Condos" fill="#6295BA">
            <g id="Group">
                <path d="M9.19435897,46.183776 L15.6446154,46.183776 L15.6446154,21.604151 L9.19435897,21.604151 L9.19435897,46.183776 Z M41.3902564,2.86879688 L41.3902564,46.1842865 L32.7379487,46.1842865 L32.7379487,40.334401 L27.1805128,40.334401 L27.1805128,46.1842865 L18.5276923,46.1842865 L18.5276923,2.86879688 L41.3902564,2.86879688 Z M44.2728205,46.1842865 L50.7235897,46.1842865 L50.7235897,21.6046615 L44.2728205,21.6046615 L44.2728205,46.1842865 Z M58.8153846,46.1842865 L53.6061538,46.1842865 L53.6061538,18.735099 L44.2728205,18.735099 L44.2728205,-0.000255208333 L15.6451282,-0.000255208333 L15.6451282,18.735099 L6.31179487,18.735099 L6.31179487,46.1842865 L1.1025641,46.1842865 C0.495897436,46.1842865 0,46.6778594 0,47.2811719 L0,48.6404115 L59.9184615,48.6404115 L59.9184615,47.2811719 C59.9184615,46.6778594 59.4220513,46.1842865 58.8153846,46.1842865 L58.8153846,46.1842865 Z" id="Fill-1"></path>
                <polygon id="Fill-3" points="21.4020513 30.8023698 28.8235897 30.8023698 28.8235897 26.7425156 21.4020513 26.7425156"></polygon>
                <polygon id="Fill-4" points="21.4020513 37.716474 28.8235897 37.716474 28.8235897 33.6566198 21.4020513 33.6566198"></polygon>
                <polygon id="Fill-5" points="10.8969231 37.716474 13.8789744 37.716474 13.8789744 33.6566198 10.8969231 33.6566198"></polygon>
                <polygon id="Fill-6" points="10.8969231 30.8023698 13.8789744 30.8023698 13.8789744 26.7425156 10.8969231 26.7425156"></polygon>
                <polygon id="Fill-7" points="45.8594872 37.716474 48.8415385 37.716474 48.8415385 33.6566198 45.8594872 33.6566198"></polygon>
                <polygon id="Fill-8" points="45.8594872 30.8023698 48.8415385 30.8023698 48.8415385 26.7425156 45.8594872 26.7425156"></polygon>
                <polygon id="Fill-9" points="21.4087179 23.8877552 28.8169231 23.8877552 28.8169231 19.827901 21.4087179 19.827901"></polygon>
                <polygon id="Fill-10" points="21.4087179 16.9731406 28.8169231 16.9731406 28.8169231 12.9132865 21.4087179 12.9132865"></polygon>
                <polygon id="Fill-11" points="21.4087179 10.058526 28.8169231 10.058526 28.8169231 5.99867187 21.4087179 5.99867187"></polygon>
                <polygon id="Fill-12" points="30.9148718 30.8023698 38.3364103 30.8023698 38.3364103 26.7425156 30.9148718 26.7425156"></polygon>
                <polygon id="Fill-13" points="30.9148718 37.716474 38.3364103 37.716474 38.3364103 33.6566198 30.9148718 33.6566198"></polygon>
                <polygon id="Fill-14" points="30.9215385 23.8877552 38.3297436 23.8877552 38.3297436 19.827901 30.9215385 19.827901"></polygon>
                <polygon id="Fill-15" points="30.9215385 16.9731406 38.3297436 16.9731406 38.3297436 12.9132865 30.9215385 12.9132865"></polygon>
                <polygon id="Fill-16" points="30.9215385 10.058526 38.3297436 10.058526 38.3297436 5.99867187 30.9215385 5.99867187"></polygon>
            </g>
        </g>
    </g>
</svg>