<?xml version="1.0" encoding="UTF-8"?>
<svg width="50px" height="37px" viewBox="0 0 50 37" version="1.1" xmlns="http://www.w3.org/2000/svg" xmlns:xlink="http://www.w3.org/1999/xlink">
    <!-- Generator: Sketch 54.1 (76490) - https://sketchapp.com -->
    <title>Group 11</title>
    <desc>Created with Sketch.</desc>
    <g id="Symbols" stroke="none" stroke-width="1" fill="none" fill-rule="evenodd">
        <g id="Icons/SFH/Color" fill="#6295BA">
            <g id="Group-11">
                <polygon id="Fill-1" points="23.0056522 30.1135071 26.8682609 30.1135071 26.8682609 25.7915548 23.0056522 25.7915548"></polygon>
                <polygon id="Fill-2" points="30.0769565 30.1135071 33.9395652 30.1135071 33.9395652 25.7915548 30.0769565 25.7915548"></polygon>
                <polygon id="Fill-3" points="37.1478261 30.1135071 41.0104348 30.1135071 41.0104348 25.7915548 37.1478261 25.7915548"></polygon>
                <polygon id="Fill-4" points="10.1108696 30.1130667 13.973913 30.1130667 13.973913 25.7911143 10.1108696 25.7911143"></polygon>
                <polygon id="Fill-5" points="16.5578261 20.256531 20.4208696 20.256531 20.4208696 15.9341381 16.5578261 15.9341381"></polygon>
                <polygon id="Fill-6" points="10.1108696 20.256531 13.973913 20.256531 13.973913 15.9341381 10.1108696 15.9341381"></polygon>
                <polygon id="Fill-7" points="23.0056522 20.256531 26.8682609 20.256531 26.8682609 15.9341381 23.0056522 15.9341381"></polygon>
                <path d="M16.558087,25.5532131 L16.558087,34.4984036 L7.55504348,34.4984036 L7.55504348,12.3213083 L18.4893913,4.7777131 L29.4246087,12.3217488 L29.4246087,23.6745821 L43.7885217,23.6745821 L43.7885217,34.4984036 L20.4211304,34.4984036 L20.4211304,25.5532131 L16.558087,25.5532131 Z M48.8476522,34.4984036 L46.1185217,34.4984036 L46.1185217,21.3145107 L31.7541739,21.3145107 L31.7541739,20.3939155 L46.102,20.3939155 L46.102,18.0334036 L31.7541739,18.0334036 L31.7541739,13.928606 L34.798087,16.0287964 L36.9793913,12.7842488 L19.5798261,0.780832143 C18.922,0.32670119 18.0567826,0.32670119 17.3989565,0.780832143 L-0.000173913043,12.7842488 L2.18113043,16.0287964 L5.22504348,13.928606 L5.22504348,34.4984036 L2.44895652,34.4984036 C1.88678261,34.4984036 1.42547826,34.9648679 1.42547826,35.5344036 L1.42547826,36.8188321 L49.8706957,36.8188321 L49.8706957,35.5344036 C49.8706957,34.9648679 49.4106957,34.4984036 48.8476522,34.4984036 L48.8476522,34.4984036 Z" id="Fill-8"></path>
            </g>
        </g>
    </g>
</svg>