
<svg width="37px" height="38px" viewBox="0 0 37 38" version="1.1" xmlns="http://www.w3.org/2000/svg" xmlns:xlink="http://www.w3.org/1999/xlink">
    <g id="Desktop" stroke="none" stroke-width="1" fill="none" fill-rule="evenodd">
        <g id="FMH---Compare-Communities" transform="translate(-105.000000, -1110.000000)" fill="#6295BA" stroke="#6295BA">
            <g id="Amenities" transform="translate(0.000000, 1052.000000)">
                <g id="icon/picnic/nobox" transform="translate(106.000000, 59.000000)">
                    <g id="Group-16">
                        <path d="M27.3,1.5 L27.2986,1.5 L27.3,10.5 C27.3,11.85825 26.4341,12.573 25.6697,13.20375 C25.4856,13.356 25.2987,13.50975 25.1202,13.67625 C24.0961,14.634 23.8,15.60375 23.8,18 L23.8,33.75 C23.8,34.164 24.1136,34.5 24.5,34.5 L32.9,34.5 C33.2864,34.5 33.6,34.164 33.6,33.75 L33.6,18 C33.6,15.60375 33.3039,14.634 32.2805,13.677 C32.1013,13.50975 31.9144,13.356 31.7303,13.20375 C30.9659,12.573 30.1,11.85825 30.1,10.5 L30.1,1.5 L27.3,1.5 Z M32.9,36 L24.5,36 C23.3422,36 22.4,34.9905 22.4,33.75 L22.4,18 C22.4,15.49875 22.6779,13.968 24.199,12.54675 C24.3992,12.35925 24.6092,12.18525 24.815,12.01575 C25.5073,11.4435 25.9,11.091 25.9,10.5 L25.9,1.5 C25.9,0.67275 26.5279,0 27.3,0 L30.1,0 C30.8721,0 31.5,0.67275 31.5,1.5 L31.5,10.5 C31.5,11.091 31.8927,11.4435 32.585,12.01575 C32.7908,12.18525 33.0008,12.35925 33.2017,12.54675 C34.7221,13.968 35,15.49875 35,18 L35,33.75 C35,34.9905 34.0578,36 32.9,36 L32.9,36 Z" id="Fill-1" stroke-width="0.25"></path>
                        <polygon id="Fill-3" stroke-width="0.25" points="33.6 30.4615385 25.2 30.4615385 25.2 19.3846154 33.6 19.3846154 33.6 20.8615385 26.6 20.8615385 26.6 28.9846154 33.6 28.9846154"></polygon>
                        <polygon id="Fill-5" stroke-width="0.25" points="26.6 9.69230769 30.8 9.69230769 30.8 8.30769231 26.6 8.30769231"></polygon>
                        <path d="M5.6,19.3846154 L2.1,19.3846154 C0.9422,19.3846154 0,18.4527692 0,17.3076923 L0,15.9230769 C0,14.778 0.9422,13.8461538 2.1,13.8461538 L8.4,13.8461538 L8.4,15.2307692 L2.1,15.2307692 C1.7136,15.2307692 1.4,15.5409231 1.4,15.9230769 L1.4,17.3076923 C1.4,17.6898462 1.7136,18 2.1,18 L5.6,18 L5.6,19.3846154 Z" id="Fill-7" stroke-width="0.25"></path>
                        <polygon id="Fill-8" stroke-width="0.25" points="15.4 15.2307692 19.6 15.2307692 19.6 13.8461538 15.4 13.8461538"></polygon>
                        <path d="M21,33.2307692 L8.17977339,33.2307692 C6.80404372,33.2307692 5.6337991,32.3027448 5.33431557,30.9741135 L2.8,19.6973193 L4.22382192,19.3846154 L6.75740882,30.6614096 C6.90678624,31.3250047 7.49190856,31.7897375 8.17977339,31.7897375 L21,31.7897375 L21,33.2307692 Z" id="Fill-9" stroke-width="0.25"></path>
                        <polygon id="Fill-10" stroke-width="0.25" points="11.2 24.9230769 12.6 24.9230769 12.6 23.5384615 11.2 23.5384615"></polygon>
                        <polygon id="Fill-11" stroke-width="0.25" points="14 24.9230769 15.4 24.9230769 15.4 23.5384615 14 23.5384615"></polygon>
                        <polygon id="Fill-12" stroke-width="0.25" points="16.8 24.9230769 18.2 24.9230769 18.2 23.5384615 16.8 23.5384615"></polygon>
                        <polygon id="Fill-13" stroke-width="0.25" points="16.8 27.6923077 18.2 27.6923077 18.2 26.3076923 16.8 26.3076923"></polygon>
                        <polygon id="Fill-14" stroke-width="0.25" points="14 27.6923077 15.4 27.6923077 15.4 26.3076923 14 26.3076923"></polygon>
                        <path d="M6.99608377,7.0595033 C6.63732907,7.0595033 6.2792737,7.2070997 6.00653621,7.50381412 C5.46176056,8.09724294 5.46176056,9.06270599 6.00653621,9.65613482 L14.4131448,18.801786 C14.941836,19.3761946 15.8628495,19.3761946 16.3915406,18.801786 C16.6558862,18.5142012 16.8013462,18.1322765 16.8013462,17.726006 C16.8013462,17.3189747 16.6558862,16.93705 16.3915406,16.6494653 L7.984932,7.50381412 C7.71219451,7.2070997 7.35413914,7.0595033 6.99608377,7.0595033 M15.4026924,20.7692308 C14.6544126,20.7692308 13.9522884,20.4527354 13.4242966,19.8775659 L5.01768798,10.7319148 C3.92743734,9.54581792 3.92743734,7.61413101 5.01768798,6.42803417 C6.10723928,5.24193733 7.88283028,5.24193733 8.97378024,6.42803417 L17.3803889,15.5736853 C17.9083807,16.1488548 18.2,16.9127042 18.2,17.726006 C18.2,18.538547 17.9083807,19.3023964 17.3803889,19.8775659 C16.8516977,20.4527354 16.1495735,20.7692308 15.4026924,20.7692308" id="Fill-15" stroke-width="0.25"></path>
                    </g>
                </g>
            </g>
        </g>
    </g>
</svg>
