
<svg width="33px" height="36px" viewBox="0 0 33 36" version="1.1" xmlns="http://www.w3.org/2000/svg" xmlns:xlink="http://www.w3.org/1999/xlink">
    <g id="Desktop" stroke="none" stroke-width="1" fill="none" fill-rule="evenodd">
        <g id="FMH---Compare-Communities" transform="translate(-25.000000, -1111.000000)" fill="#6295BA">
            <g id="Amenities" transform="translate(0.000000, 1052.000000)">
                <g id="icon/playground/nobox" transform="translate(25.000000, 59.000000)">
                    <g id="icon">
                        <path d="M11.7551023,23.6666198 L20.4399847,23.6666198 L20.4399847,4.94502417 L11.7551023,4.94502417 L11.7551023,23.6666198 Z M23.5635379,26.4643098 L23.5635379,26.9050174 C23.5635379,27.3653516 23.1902048,27.7400422 22.7315385,27.7400422 L9.46354846,27.7400422 C9.00488213,27.7400422 8.63154908,27.3653516 8.63154908,26.9050174 L8.63154908,26.4643098 C8.63154908,26.0035296 9.00488213,25.629285 9.46354846,25.629285 L22.7315385,25.629285 C23.1902048,25.629285 23.5635379,26.0035296 23.5635379,26.4643098 L23.5635379,26.4643098 Z M29.1008671,2.98191291 L22.3955388,2.98191291 L22.3955388,0.981332597 C22.3955388,0.439369367 21.9573169,0 21.4173173,0 C20.8777621,0 20.4399847,0.439369367 20.4399847,0.981332597 L20.4399847,2.98191291 L11.7551023,2.98191291 L11.7551023,0.981332597 C11.7551023,0.439369367 11.3168804,0 10.7768808,0 C10.2373257,0 9.79910376,0.439369367 9.79910376,0.981332597 L9.79910376,2.98191291 L3.0942199,2.98191291 C1.38799896,2.98191291 0,4.3754052 0,6.08827664 L0,34.7565703 C0,35.2985335 0.437777449,35.7379029 0.977777044,35.7379029 C1.51777664,35.7379029 1.95555409,35.2985335 1.95555409,34.7565703 L1.95555409,6.08827664 C1.95555409,5.45754742 2.46666482,4.94502417 3.0942199,4.94502417 L9.79910376,4.94502417 L9.79910376,23.6666198 L9.46354846,23.6666198 C7.92621628,23.6666198 6.67599499,24.9218334 6.67599499,26.4643098 L6.67599499,26.9050174 C6.67599499,28.4474938 7.92621628,29.7027074 9.46354846,29.7027074 L22.7315385,29.7027074 C24.2688707,29.7027074 25.519092,28.4474938 25.519092,26.9050174 L25.519092,26.4643098 C25.519092,24.9218334 24.2688707,23.6666198 22.7315385,23.6666198 L22.3955388,23.6666198 L22.3955388,4.94502417 L29.1008671,4.94502417 C29.7288666,4.94502417 30.2395329,5.45754742 30.2395329,6.08827664 L30.2395329,34.7565703 C30.2395329,35.2985335 30.6773103,35.7379029 31.2173099,35.7379029 C31.7573095,35.7379029 32.195087,35.2985335 32.195087,34.7565703 L32.195087,6.08827664 C32.195087,4.3754052 30.807088,2.98191291 29.1008671,2.98191291 L29.1008671,2.98191291 Z" id="Fill-1"></path>
                    </g>
                </g>
            </g>
        </g>
    </g>
</svg>
