<svg width="450" height="123" xmlns="http://www.w3.org/2000/svg"><g fill="none" fill-rule="evenodd"><path d="M202.566 27.32h-21.194c-.562 0-.883.322-.883.883v1.024c0 .561.32.883.883.883h19.093v4.197c-.69 7.915-7.195 15.9-20.164 15.9-13.916 0-24.014-9.963-24.014-23.685 0-13.503 10.113-23.684 23.525-23.684 8.968 0 16.887 4.987 20.176 12.713.2.43.538.643 1.003.643h1.37c.308 0 .552-.105.687-.296.094-.137.178-.378.039-.753C199.51 6.085 190.159 0 179.812 0c-7.358 0-14.116 2.755-19.024 7.763-4.828 4.923-7.486 11.585-7.486 18.758 0 7.219 2.655 13.879 7.475 18.757 4.946 5.01 11.881 7.766 19.524 7.766 8.996 0 16.655-4.024 20.164-10.544v8.88c0 .561.322.883.883.883h1.218c.562 0 .883-.322.883-.883V28.203c0-.561-.32-.884-.883-.884m47.36 22.155h-24.208V27.698h22.016c.545 0 .882-.34.882-.885V25.79c0-.544-.337-.883-.882-.883h-22.016V3.569h23.842c.546 0 .883-.337.883-.883V1.664c0-.548-.337-.884-.883-.884h-25.943c-.546 0-.883.336-.883.884V51.38c0 .545.337.885.883.885h26.31c.543 0 .882-.34.882-.885v-1.023c0-.543-.34-.883-.883-.883M295.238.78h-31.182c-.545 0-.883.338-.883.884v1.022c0 .546.338.884.883.884h14.099v47.81c0 .548.337.885.883.885h1.218c.545 0 .883-.337.883-.885V3.57h14.099c.545 0 .882-.338.882-.884V1.663c0-.546-.337-.884-.882-.884" fill="#5890B8"/><path d="M27.193 119.586H2.984V97.809H25c.545 0 .883-.34.883-.885v-1.022c0-.546-.338-.884-.883-.884H2.984v-21.34h23.842c.546 0 .883-.337.883-.882v-1.023c0-.545-.337-.883-.883-.883H.883c-.545 0-.883.338-.883.883v49.718c0 .546.338.886.883.886h26.31c.543 0 .882-.34.882-.886v-1.022c0-.546-.339-.883-.882-.883m63.339-48.697H88.44c-.477 0-.782.197-.986.624l-19.09 37.894-19.091-37.89c-.206-.431-.51-.628-.986-.628h-2.094c-.56 0-.883.32-.883.883v49.719c0 .562.323.885.883.885h1.219c.56 0 .883-.323.883-.885V75.933l18.377 36.483c.208.43.511.627.986.627h1.409c.475 0 .78-.196.984-.623l18.38-36.487v45.558c0 .562.322.885.882.885h1.219c.562 0 .882-.323.882-.885V71.772c0-.562-.32-.883-.882-.883m50.497 15.02c0 6.743-5.397 12.228-12.03 12.228h-13.977V73.678H129c6.633 0 12.03 5.487 12.03 12.23m-12.03-15.019H112.92c-.546 0-.883.34-.883.884v49.718c0 .545.337.885.883.885h1.218c.546 0 .883-.34.883-.885v-20.563H129c8.277 0 15.012-6.738 15.012-15.02 0-8.28-6.735-15.019-15.012-15.019m127.164 0l-1.132.002c-.483 0-.824.256-.957.72l-15.258 47.314-15.258-47.311c-.136-.467-.477-.723-.96-.723h-1.128c-.386 0-.584.156-.681.286-.1.134-.193.37-.078.748l5.137 15.948-10.028 31.052-15.258-47.313c-.138-.465-.477-.723-.957-.723h-1.133c-.385 0-.582.157-.679.286-.099.136-.192.37-.08.75l16.019 49.724c.135.47.477.725.959.725h2.26c.48 0 .821-.256.955-.721l9.417-29.201 9.407 29.195c.135.471.474.727.957.727h2.26c.482 0 .823-.256.956-.721l16.021-49.732c.113-.376.02-.612-.08-.746-.097-.13-.295-.286-.68-.286m41.313 48.697h-24.209V97.809h22.016c.545 0 .883-.34.883-.885v-1.022c0-.546-.338-.884-.883-.884h-22.016v-21.34h23.843c.545 0 .882-.337.882-.882v-1.023c0-.545-.337-.883-.882-.883h-25.944c-.545 0-.883.338-.883.883v49.718c0 .546.338.886.883.886h26.31c.545 0 .883-.34.883-.886v-1.022c0-.546-.338-.883-.883-.883m47.109-33.677c0 6.743-5.396 12.228-12.028 12.228H318.58V73.68h13.977c6.632 0 12.028 5.485 12.028 12.229m9.006 35.351l-18.187-20.605a14.994 14.994 0 0 0 12.165-14.746c0-8.282-6.735-15.02-15.012-15.02H316.48c-.545 0-.883.34-.883.884v49.718c0 .545.338.885.883.885h1.218c.544 0 .883-.34.883-.885v-20.563h13.37l18.498 20.992c.277.315.591.456 1.022.456h1.566c.356 0 .621-.132.726-.357.1-.221.038-.496-.171-.759" fill="#001D34"/><path d="M158.158 114.734a.665.665 0 1 0-1.081.777c1.218 1.7 2.6 3.18 4.109 4.397.122.1.27.147.418.147a.665.665 0 0 0 .418-1.183c-1.414-1.143-2.714-2.533-3.864-4.138m-3.7-7.52a.663.663 0 0 0-.813-.474.663.663 0 0 0-.475.811c.027.103.688 2.602 2.435 5.66a.66.66 0 0 0 .906.246c.32-.179.43-.587.248-.906-1.652-2.896-2.296-5.31-2.302-5.338" fill="#5890B8"/><path d="M154.896 87.572c1.87-9.454 8.279-14.52 17.595-13.91 8.346.556 14.625 6.243 16.38 14.793a31.01 31.01 0 0 1 .251 3.932.665.665 0 1 0 1.331 0c0-1.372-.09-2.755-.272-4.15-1.886-9.211-8.63-15.306-17.6-15.902-9.906-.656-17.005 4.943-18.991 14.978-.447 2.258-3.848 22.415 14.077 34.691a.67.67 0 0 0 .376.116c.212 0 .421-.099.55-.29a.663.663 0 0 0-.172-.923c-17.223-11.797-13.954-31.164-13.525-33.335" fill="#5890B8"/><path d="M160.04 109.872a.669.669 0 0 0 .58-.992c-1.553-2.781-2.647-5.862-3.254-9.16a.666.666 0 1 0-1.308.24c.631 3.441 1.775 6.661 3.4 9.57.122.22.349.342.582.342m1.951 1.217a.665.665 0 1 0-1.096.755c1.89 2.745 4.275 5.189 7.091 7.263a.665.665 0 0 0 .79-1.07c-2.697-1.987-4.98-4.325-6.785-6.948m-3.769-26.114c1.27-3.224 3.318-5.59 6.085-7.026a.662.662 0 0 0 .284-.895.662.662 0 0 0-.896-.284c-3.019 1.566-5.34 4.235-6.71 7.717a.666.666 0 1 0 1.237.488m28.228 5.377l.005.131c.117 2.751 1.097 4.894 2.914 6.366a.666.666 0 0 0 .936-.097.666.666 0 0 0-.099-.937c-1.506-1.22-2.32-3.037-2.42-5.387-.005-.114-.01-.195-.017-.24a19.944 19.944 0 0 0-.68-3.179.662.662 0 0 0-.83-.44.663.663 0 0 0-.444.828c.29.954.503 1.951.635 2.955m-12.634 30.765a37.305 37.305 0 0 1-2.88-1.62.666.666 0 1 0-.704 1.131c.947.592 1.95 1.155 2.984 1.677a.665.665 0 0 0 .6-1.188m-1.452-45.977c-2.18-.143-4.222.058-6.08.597a.666.666 0 0 0 .371 1.279c1.708-.494 3.602-.68 5.621-.55 1.327.09 2.614.334 3.827.727a.628.628 0 0 0 .204.034.667.667 0 0 0 .204-1.303 17.178 17.178 0 0 0-4.147-.784m-14.91 12.285a.666.666 0 0 0-1.294-.313c-.078.322-.15.653-.215.988-.109.555-.46 2.583-.46 5.493 0 1.226.065 2.464.19 3.678a.667.667 0 0 0 .66.597c.024 0 .047 0 .07-.004a.665.665 0 0 0 .593-.73 34.692 34.692 0 0 1-.182-3.541c0-2.79.332-4.714.435-5.239.061-.315.128-.626.202-.929m28.64-2.988c-1.548-3.247-3.98-5.817-7.026-7.433a.667.667 0 0 0-.624 1.177c2.794 1.48 5.024 3.843 6.449 6.828a.665.665 0 1 0 1.201-.572" fill="#5890B8"/><path d="M190.025 98.428c-3.978-1.513-4.87-4.94-4.92-7.545a2.343 2.343 0 0 0-.011-.24c-.849-7.135-6.052-12.236-12.947-12.696-7.278-.475-12.455 3.61-13.849 10.942-.172.899-3.94 22.116 17.258 31.678.57.26 1.131.53 1.688.803a.667.667 0 0 0 .587-1.196 68.709 68.709 0 0 0-1.726-.819c-20.253-9.138-16.663-29.361-16.499-30.218 1.255-6.606 5.911-10.294 12.453-9.862 6.235.415 10.943 5.045 11.714 11.509l.001.124c.082 4.265 2.132 7.377 5.778 8.762a.661.661 0 0 0 .858-.384.666.666 0 0 0-.385-.858" fill="#5890B8"/><path d="M182.42 91.099c-.315-3.083-1.705-5.824-3.915-7.719a.665.665 0 0 0-.866 1.01c1.95 1.67 3.177 4.103 3.456 6.863v.193c0 .18 0 .723.074 1.414a.665.665 0 1 0 1.324-.145c-.07-.62-.07-1.109-.07-1.269l.003-.193a1.58 1.58 0 0 0-.006-.154m7.61 9.853a70.706 70.706 0 0 1-2.506-1.072c-2.162-.958-3.667-2.55-4.47-4.733a.665.665 0 1 0-1.248.46c.932 2.531 2.675 4.38 5.178 5.49a78.55 78.55 0 0 0 2.548 1.09.668.668 0 0 0 .498-1.234m-9.368 17.83c-.814-.365-1.777-.853-2.799-1.372-.631-.32-1.268-.645-1.878-.94a31.5 31.5 0 0 1-1.365-.706.664.664 0 1 0-.64 1.164c.458.255.931.501 1.423.74.603.291 1.234.612 1.86.929 1.035.526 2.013 1.022 2.858 1.4a.665.665 0 0 0 .877-.336.665.665 0 0 0-.336-.88M166.21 83.19a.66.66 0 0 0 .313-.079c1.521-.81 3.321-1.16 5.321-1.03 1.327.09 2.578.41 3.719.958a.666.666 0 0 0 .575-1.202 11.402 11.402 0 0 0-4.206-1.084c-2.263-.148-4.294.252-6.037 1.183a.663.663 0 0 0-.272.899c.12.227.348.355.587.355m-2.438 23.058a.667.667 0 0 0 .595-.961c-1.4-2.83-2.258-5.974-2.551-9.34a.663.663 0 0 0-.72-.61.67.67 0 0 0-.607.724c.309 3.535 1.212 6.839 2.686 9.817.117.234.351.37.597.37m-2.73-12.242a.665.665 0 0 0 .665-.664c.008-2.02.229-3.283.254-3.422.404-2.202 1.277-3.997 2.6-5.342a.668.668 0 0 0-.007-.942.669.669 0 0 0-.942.007c-1.512 1.538-2.508 3.57-2.96 6.036-.028.151-.266 1.52-.276 3.66a.665.665 0 0 0 .664.667h.002zm10.617 21.504a.662.662 0 0 0 .925-.18.666.666 0 0 0-.177-.922c-2.77-1.88-5.046-4.191-6.766-6.872a.663.663 0 0 0-.919-.198.663.663 0 0 0-.2.917c1.817 2.833 4.218 5.273 7.137 7.255" fill="#5890B8"/><path d="M189.815 103.672c-1.577-.536-3.129-1.276-5.192-2.474-4.555-2.65-4.929-7.484-4.88-9.441a2.07 2.07 0 0 0 0-.197c-.337-4.418-3.64-7.713-8.029-8.003-4.523-.297-7.94 2.417-8.71 6.914-.027.162-2.614 16.318 12.238 24.29.663.36 1.325.727 1.987 1.101 1.691.948 3.441 1.929 5.215 2.646a.666.666 0 0 0 .498-1.232c-1.694-.687-3.408-1.647-5.063-2.576-.67-.375-1.339-.75-2.008-1.11-14.017-7.524-11.582-22.74-11.555-22.894.658-3.836 3.46-6.065 7.31-5.81 3.711.247 6.505 3.034 6.79 6.748l-.001.086c-.058 2.196.368 7.622 5.54 10.63 2.144 1.244 3.769 2.016 5.433 2.583a.664.664 0 0 0 .843-.418.664.664 0 0 0-.416-.843" fill="#5890B8"/><path d="M165.265 92.513a20.9 20.9 0 0 0-.012.727c0 2.256.319 5.707 1.834 9.311a.668.668 0 0 0 .872.355.668.668 0 0 0 .356-.872c-1.506-3.577-1.73-7.045-1.73-8.794 0-.25.003-.477.01-.685a.666.666 0 0 0-.642-.685.66.66 0 0 0-.688.643m19.543 22.879a63.514 63.514 0 0 1-6.258-3.045.668.668 0 0 0-.905.258.67.67 0 0 0 .259.908 64.872 64.872 0 0 0 6.388 3.107.668.668 0 0 0 .871-.357.665.665 0 0 0-.355-.871m-7.74-23.356a5.982 5.982 0 0 0-.234-1.473.666.666 0 1 0-1.278.374c.11.366.17.752.18 1.175-.004.11-.012.302-.012.569 0 1.675.307 4.937 2.384 7.966a.668.668 0 0 0 .924.172.668.668 0 0 0 .172-.927c-1.872-2.732-2.15-5.69-2.149-7.211 0-.243.008-.418.012-.515l.002-.13zm12.253 14.18c-2.906-.756-5.177-1.861-7.595-3.69-.307-.231-.602-.48-.882-.737a.666.666 0 0 0-.902.979c.31.286.642.563.982.82 2.53 1.913 5.016 3.123 8.06 3.917a.663.663 0 0 0 .812-.475.666.666 0 0 0-.475-.813m-14.25 5.633l.51.311a.667.667 0 0 0 .69-1.139l-.504-.307c-2.646-1.623-4.767-3.771-6.3-6.38a.668.668 0 0 0-.911-.237.664.664 0 0 0-.237.91c1.646 2.802 3.917 5.103 6.752 6.842m-8.652-21.249c.256 0 .5-.147.61-.398.734-1.685 2.412-2.635 4.382-2.511 1.15.078 2.174.519 2.963 1.282a.666.666 0 0 0 .925-.958c-1.005-.969-2.353-1.556-3.802-1.654-2.58-.166-4.721 1.1-5.688 3.308a.668.668 0 0 0 .345.878.714.714 0 0 0 .265.053" fill="#5890B8"/><path d="M188.59 108.668c-4.367-1.037-7.561-2.605-9.762-4.8-4.808-4.786-4.454-11.054-4.439-11.314a3.037 3.037 0 0 0-.753-2.234 3.434 3.434 0 0 0-2.355-1.152c-1.834-.114-3.443 1.198-3.577 2.936-.032.443-.719 10.885 7.177 16.82 3.688 2.77 7.239 4.384 10.72 5.967l.277-.608.225-.628c-3.368-1.53-6.851-3.115-10.423-5.797-7.32-5.502-6.68-15.24-6.649-15.655.079-1.01 1.055-1.778 2.163-1.703.564.034 1.089.29 1.44.694.31.357.463.807.428 1.269-.019.288-.404 7.142 4.828 12.35 2.38 2.371 5.78 4.054 10.392 5.15a.67.67 0 0 0 .801-.493.664.664 0 0 0-.494-.802m-12.861-37.105c4.752 1.067 7.835 3.58 7.964 3.686a.663.663 0 0 0 .936-.09.666.666 0 0 0-.089-.936c-.14-.115-3.46-2.824-8.52-3.959a.666.666 0 0 0-.292 1.3m-12.244 1.063a.696.696 0 0 0 .305-.072c.028-.017 2.921-1.49 7.406-1.49.658 0 1.327.03 1.989.095a.674.674 0 0 0 .726-.599.668.668 0 0 0-.599-.727 21.888 21.888 0 0 0-2.116-.1c-4.805 0-7.889 1.571-8.018 1.638a.665.665 0 1 0 .307 1.255" fill="#5890B8"/><path d="M171.123 91.907a.665.665 0 0 0-.736.584 9.35 9.35 0 0 0-.042.979c0 1.766.33 5.284 2.538 8.985a.668.668 0 0 0 .913.23.667.667 0 0 0 .229-.913c-2.044-3.426-2.35-6.673-2.35-8.302 0-.521.033-.824.033-.826a.664.664 0 0 0-.585-.737m4.376 11.957a.665.665 0 1 0-1.028.845c2.042 2.486 4.794 4.53 8.176 6.076a.664.664 0 0 0 .88-.328.665.665 0 0 0-.327-.883c-3.198-1.46-5.789-3.38-7.701-5.71m11.873 7.26a34.62 34.62 0 0 1-1.76-.574.667.667 0 0 0-.448 1.255c.59.21 1.205.41 1.83.595a.666.666 0 0 0 .378-1.276m258.992-14.52c0 13.052-9.145 22.89-21.272 22.89h-17.327V73.712h17.327c12.127 0 21.272 9.841 21.272 22.892M425.092 70.8h-19.49c-.581 0-.943.36-.943.945v49.718c0 .582.362.944.944.944h19.489c13.87 0 24.33-11.093 24.33-25.803 0-14.712-10.46-25.804-24.33-25.804m-33.874 48.786H367.01V97.809h22.015c.546 0 .883-.34.883-.885v-1.022c0-.546-.337-.884-.883-.884H367.01v-21.34h23.842c.545 0 .883-.337.883-.882v-1.023c0-.545-.338-.883-.883-.883h-25.944c-.545 0-.883.338-.883.883v49.718c0 .546.338.886.883.886h26.31c.545 0 .883-.34.883-.886v-1.022c0-.546-.338-.883-.883-.883" fill="#5890B8"/></g></svg>