<?xml version="1.0" encoding="UTF-8"?>
<svg width="450px" height="123px" viewBox="0 0 450 123" version="1.1" xmlns="http://www.w3.org/2000/svg" xmlns:xlink="http://www.w3.org/1999/xlink">
    <!-- Generator: Sketch 54.1 (76490) - https://sketchapp.com -->
    <title>Get Empowered</title>
    <desc>Created with Sketch.</desc>
    <g id="Desktop" stroke="none" stroke-width="1" fill="none" fill-rule="evenodd">
        <g id="FMH---Community-Microsite" transform="translate(-271.000000, -2108.000000)">
            <g id="Empower-Features" transform="translate(0.000000, 2068.000000)">
                <g id="Logos/GetEmpowered" transform="translate(271.000000, 40.000000)">
                    <g id="Group-88">
                        <path d="M202.565975,27.3194892 L181.372119,27.3194892 C180.809619,27.3194892 180.48928,27.6418892 180.48928,28.2027508 L180.48928,29.2271815 C180.48928,29.7880431 180.809619,30.1104431 181.372119,30.1104431 L200.464703,30.1104431 L200.464703,34.3073662 C199.774449,42.2223815 193.270424,50.2060738 180.300508,50.2060738 C166.384831,50.2060738 156.286525,40.2441046 156.286525,26.5220738 C156.286525,13.0194277 166.400085,2.83807385 179.812373,2.83807385 C188.779958,2.83807385 196.698814,7.82478154 199.988008,15.5509354 C200.18822,15.9801662 200.52572,16.1938277 200.990975,16.1938277 L202.361949,16.1938277 C202.668941,16.1938277 202.913008,16.0889046 203.04839,15.8981354 C203.141822,15.7607815 203.22572,15.5204123 203.086525,15.1445969 C199.511314,6.08496615 190.158559,0.00133538462 179.812373,0.00133538462 C172.45411,0.00133538462 165.696483,2.75604308 160.788432,7.76373538 C155.960466,12.6874892 153.302415,19.3491508 153.302415,26.5220738 C153.302415,33.7407815 155.956653,40.4005354 160.776992,45.2785046 C165.723178,50.2881046 172.658136,53.04472 180.300508,53.04472 C189.296695,53.04472 196.956229,49.0213969 200.464703,42.5009046 L200.464703,51.3812123 C200.464703,51.9420738 200.786949,52.2644738 201.347542,52.2644738 L202.565975,52.2644738 C203.128475,52.2644738 203.448814,51.9420738 203.448814,51.3812123 L203.448814,28.2027508 C203.448814,27.6418892 203.128475,27.3194892 202.565975,27.3194892" id="Fill-1" fill="#5890B8"></path>
                        <path d="M249.926377,49.4740923 L225.717903,49.4740923 L225.717903,27.6977846 L247.733581,27.6977846 C248.278919,27.6977846 248.616419,27.3582154 248.616419,26.8126154 L248.616419,25.7900923 C248.616419,25.2464 248.278919,24.9068308 247.733581,24.9068308 L225.717903,24.9068308 L225.717903,3.56929231 L249.560275,3.56929231 C250.105614,3.56929231 250.443114,3.23163077 250.443114,2.68603077 L250.443114,1.66350769 C250.443114,1.116 250.105614,0.780246154 249.560275,0.780246154 L223.616631,0.780246154 C223.071292,0.780246154 222.733792,1.116 222.733792,1.66350769 L222.733792,51.3798769 C222.733792,51.9254769 223.071292,52.2650462 223.616631,52.2650462 L249.926377,52.2650462 C250.469809,52.2650462 250.809216,51.9254769 250.809216,51.3798769 L250.809216,50.3573538 C250.809216,49.8136615 250.469809,49.4740923 249.926377,49.4740923" id="Fill-3" fill="#5890B8"></path>
                        <path d="M295.237564,0.779483077 L264.055996,0.779483077 C263.510657,0.779483077 263.173157,1.11714462 263.173157,1.66274462 L263.173157,2.68526769 C263.173157,3.23086769 263.510657,3.56852923 264.055996,3.56852923 L278.154725,3.56852923 L278.154725,51.3791138 C278.154725,51.9266215 278.492225,52.2642831 279.037564,52.2642831 L280.255996,52.2642831 C280.801335,52.2642831 281.138835,51.9266215 281.138835,51.3791138 L281.138835,3.56852923 L295.237564,3.56852923 C295.782903,3.56852923 296.120403,3.23086769 296.120403,2.68526769 L296.120403,1.66274462 C296.120403,1.11714462 295.782903,0.779483077 295.237564,0.779483077" id="Fill-5" fill="#5890B8"></path>
                        <path d="M27.1925847,119.5856 L2.98411017,119.5856 L2.98411017,97.8092923 L24.9997881,97.8092923 C25.5451271,97.8092923 25.8826271,97.4697231 25.8826271,96.9241231 L25.8826271,95.9016 C25.8826271,95.356 25.5451271,95.0183385 24.9997881,95.0183385 L2.98411017,95.0183385 L2.98411017,73.6788923 L26.8264831,73.6788923 C27.371822,73.6788923 27.709322,73.3412308 27.709322,72.7956308 L27.709322,71.7731077 C27.709322,71.2275077 27.371822,70.8898462 26.8264831,70.8898462 L0.882838983,70.8898462 C0.3375,70.8898462 0,71.2275077 0,71.7731077 L0,121.491385 C0,122.036985 0.3375,122.376554 0.882838983,122.376554 L27.1925847,122.376554 C27.7360169,122.376554 28.0754237,122.036985 28.0754237,121.491385 L28.0754237,120.468862 C28.0754237,119.923262 27.7360169,119.5856 27.1925847,119.5856" id="Fill-7" fill="#001D34"></path>
                        <path d="M90.5316102,70.8890831 L88.4398729,70.8890831 C87.963178,70.8890831 87.6580932,71.0855754 87.4540678,71.5128985 L68.3633898,109.407298 L49.2727119,71.5167138 C49.0667797,71.0855754 48.7636017,70.8890831 48.2869068,70.8890831 L46.1932627,70.8890831 C45.6326695,70.8890831 45.3104237,71.2095754 45.3104237,71.7723446 L45.3104237,121.490622 C45.3104237,122.053391 45.6326695,122.375791 46.1932627,122.375791 L47.4116949,122.375791 C47.9722881,122.375791 48.2945339,122.053391 48.2945339,121.490622 L48.2945339,75.9330215 L66.6720763,112.415729 C66.8799153,112.846868 67.1830932,113.04336 67.6578814,113.04336 L69.0669915,113.04336 C69.5417797,113.04336 69.8468644,112.846868 70.0508898,112.419545 L88.430339,75.9330215 L88.430339,121.490622 C88.430339,122.053391 88.7525847,122.375791 89.313178,122.375791 L90.5316102,122.375791 C91.0941102,122.375791 91.4144492,122.053391 91.4144492,121.490622 L91.4144492,71.7723446 C91.4144492,71.2095754 91.0941102,70.8890831 90.5316102,70.8890831" id="Fill-9" fill="#001D34"></path>
                        <path d="M141.028665,85.9085354 C141.028665,92.6522277 135.632479,98.1368431 128.998792,98.1368431 L115.022097,98.1368431 L115.022097,73.67832 L128.998792,73.67832 C135.632479,73.67832 141.028665,79.1648431 141.028665,85.9085354 M128.998792,70.8892738 L112.920826,70.8892738 C112.375487,70.8892738 112.037987,71.2288431 112.037987,71.7725354 L112.037987,121.490812 C112.037987,122.036412 112.375487,122.375982 112.920826,122.375982 L114.139258,122.375982 C114.684597,122.375982 115.022097,122.036412 115.022097,121.490812 L115.022097,100.927797 L128.998792,100.927797 C137.276123,100.927797 144.010869,94.1898277 144.010869,85.9085354 C144.010869,77.6272431 137.276123,70.8892738 128.998792,70.8892738" id="Fill-11" fill="#001D34"></path>
                        <path d="M256.163453,70.8890831 L255.030826,70.8909908 C254.548411,70.8909908 254.207097,71.1466215 254.073623,71.6101908 L238.815572,118.924775 L223.557521,71.6140062 C223.42214,71.1466215 223.080826,70.8909908 222.598411,70.8909908 L221.469597,70.8909908 C221.084428,70.8909908 220.886123,71.0474215 220.788877,71.1771446 C220.689725,71.3106831 220.596292,71.5472369 220.710699,71.92496 L225.847564,87.8732677 L215.819809,118.924775 L200.561758,71.6120985 C200.42447,71.1466215 200.085064,70.8890831 199.604555,70.8890831 L198.471928,70.8890831 C198.086758,70.8890831 197.89036,71.0455138 197.793114,71.1752369 C197.693962,71.3106831 197.60053,71.5453292 197.71303,71.92496 L213.731886,121.64896 C213.867267,122.118252 214.208581,122.373883 214.690996,122.373883 L216.95053,122.373883 C217.431038,122.373883 217.772352,122.118252 217.905826,121.652775 L227.323411,92.4517292 L236.729555,121.647052 C236.864936,122.118252 237.204343,122.373883 237.686758,122.373883 L239.946292,122.373883 C240.428708,122.373883 240.770021,122.118252 240.903496,121.652775 L256.924258,71.9211446 C257.036758,71.5453292 256.943326,71.3087754 256.844174,71.1752369 C256.746928,71.0455138 256.548623,70.8890831 256.163453,70.8890831" id="Fill-13" fill="#001D34"></path>
                        <path d="M297.476695,119.5856 L273.26822,119.5856 L273.26822,97.8092923 L295.283898,97.8092923 C295.829237,97.8092923 296.166737,97.4697231 296.166737,96.9241231 L296.166737,95.9016 C296.166737,95.356 295.829237,95.0183385 295.283898,95.0183385 L273.26822,95.0183385 L273.26822,73.6788923 L297.110593,73.6788923 C297.655932,73.6788923 297.993432,73.3412308 297.993432,72.7956308 L297.993432,71.7731077 C297.993432,71.2275077 297.655932,70.8898462 297.110593,70.8898462 L271.166949,70.8898462 C270.62161,70.8898462 270.28411,71.2275077 270.28411,71.7731077 L270.28411,121.491385 C270.28411,122.036985 270.62161,122.376554 271.166949,122.376554 L297.476695,122.376554 C298.022034,122.376554 298.359534,122.036985 298.359534,121.491385 L298.359534,120.468862 C298.359534,119.923262 298.022034,119.5856 297.476695,119.5856" id="Fill-15" fill="#001D34"></path>
                        <path d="M344.585784,85.9085354 C344.585784,92.6522277 339.189597,98.1368431 332.557818,98.1368431 L318.581123,98.1368431 L318.581123,73.6802277 L332.557818,73.6802277 C339.189597,73.6802277 344.585784,79.1648431 344.585784,85.9085354 M353.591504,121.259982 L335.40464,100.654997 C342.469258,99.2909969 347.569894,93.1310585 347.569894,85.9085354 C347.569894,77.6272431 340.835148,70.8892738 332.557818,70.8892738 L316.479852,70.8892738 C315.934513,70.8892738 315.597013,71.2288431 315.597013,71.7725354 L315.597013,121.490812 C315.597013,122.036412 315.934513,122.375982 316.479852,122.375982 L317.698284,122.375982 C318.241716,122.375982 318.581123,122.036412 318.581123,121.490812 L318.581123,100.927797 L331.951462,100.927797 L350.449131,121.920043 C350.725614,122.234812 351.040233,122.375982 351.471165,122.375982 L353.036631,122.375982 C353.393199,122.375982 353.658242,122.244351 353.763114,122.019243 C353.862267,121.797951 353.80125,121.523243 353.591504,121.259982" id="Fill-17" fill="#001D34"></path>
                        <path d="M158.15803,114.734338 C157.94447,114.436738 157.528792,114.366154 157.229428,114.581723 C156.930064,114.795385 156.863326,115.211262 157.076886,115.510769 C158.295318,117.210523 159.677733,118.690892 161.185996,119.908 C161.30803,120.0072 161.456758,120.054892 161.603581,120.054892 C161.798072,120.054892 161.990657,119.970954 162.122225,119.806892 C162.352945,119.522646 162.307182,119.102954 162.021165,118.872123 C160.608242,117.729415 159.307818,116.338708 158.15803,114.734338" id="Fill-19" fill="#5890B8"></path>
                        <path d="M154.457161,107.213452 C154.363729,106.858622 154.003347,106.646868 153.644873,106.740345 C153.290212,106.831914 153.076653,107.194375 153.170085,107.551114 C153.19678,107.654129 153.858432,110.153206 155.605042,113.211237 C155.727076,113.426806 155.952076,113.545083 156.182797,113.545083 C156.29339,113.545083 156.407797,113.518375 156.510763,113.457329 C156.831102,113.278006 156.941695,112.86976 156.758644,112.551175 C155.107373,109.655298 154.462881,107.24016 154.457161,107.213452" id="Fill-21" fill="#5890B8"></path>
                        <path d="M154.89572,87.5720431 C156.766271,78.11752 163.174958,73.0525969 172.491483,73.6611508 C180.837458,74.2181969 187.116483,79.9050277 188.87072,88.4553046 C189.03661,89.74872 189.122415,91.0707508 189.122415,92.3870585 C189.122415,92.7552431 189.419873,93.0528431 189.787881,93.0528431 C190.15589,93.0528431 190.453347,92.7552431 190.453347,92.3870585 C190.453347,91.0154277 190.363729,89.6323508 190.180678,88.2378277 C188.294873,79.0255815 181.550593,72.9305046 172.581102,72.3353046 C162.675381,71.6790585 155.576441,77.2781354 153.589576,87.3125969 C153.14339,89.5713046 149.741695,109.727982 167.667331,122.003982 C167.783644,122.082197 167.913305,122.120351 168.042966,122.120351 C168.254619,122.120351 168.464364,122.021151 168.592119,121.830382 C168.799958,121.527058 168.723686,121.113089 168.420508,120.907058 C151.198475,109.109889 154.466695,89.7429969 154.89572,87.5720431" id="Fill-23" fill="#5890B8"></path>
                        <path d="M160.03964,109.872012 C160.150233,109.872012 160.260826,109.845305 160.363792,109.788074 C160.684131,109.608751 160.798538,109.200505 160.619301,108.880012 C159.067182,106.098597 157.972691,103.017674 157.366335,99.7192738 C157.301504,99.35872 156.956377,99.1183508 156.592182,99.1832123 C156.231801,99.2499815 155.991547,99.5971815 156.058284,99.9596431 C156.689428,103.40112 157.833496,106.621305 159.458072,109.530535 C159.580106,109.74992 159.807013,109.872012 160.03964,109.872012" id="Fill-25" fill="#5890B8"></path>
                        <path d="M161.991229,111.088548 C161.78339,110.785225 161.367712,110.708917 161.066441,110.916855 C160.763263,111.128609 160.686992,111.540671 160.894831,111.843994 C162.784449,114.589163 165.169831,117.032917 167.986144,119.106578 C168.106271,119.194332 168.243559,119.236302 168.380847,119.236302 C168.584873,119.236302 168.786992,119.144732 168.916653,118.965409 C169.135932,118.671625 169.071102,118.251932 168.775551,118.036363 C166.079364,116.050455 163.796949,113.711625 161.991229,111.088548" id="Fill-27" fill="#5890B8"></path>
                        <path d="M158.222288,84.9751015 C159.492203,81.7511015 161.540085,79.3855631 164.306822,77.9490708 C164.632881,77.7811938 164.760636,77.3805785 164.590932,77.0543631 C164.423136,76.7281477 164.020805,76.5984246 163.694746,76.7701169 C160.676314,78.3363323 158.355763,81.0051938 156.984788,84.4867323 C156.849407,84.8282092 157.017203,85.2154708 157.360424,85.3509169 C157.440508,85.38144 157.5225,85.3967015 157.602585,85.3967015 C157.867627,85.3967015 158.119322,85.2364554 158.222288,84.9751015" id="Fill-29" fill="#5890B8"></path>
                        <path d="M186.449682,90.3517415 C186.451589,90.3822646 186.453496,90.4242338 186.455403,90.4833723 C186.571716,93.2342646 187.551801,95.3766031 189.368962,96.8493415 C189.492903,96.9485415 189.639725,96.9981415 189.786547,96.9981415 C189.981038,96.9981415 190.173623,96.9142031 190.305191,96.7520492 C190.535911,96.4658954 190.492055,96.0462031 190.206038,95.8153723 C188.699682,94.5944492 187.885487,92.7783262 187.786335,90.4280492 C187.780614,90.3135877 187.776801,90.2334646 187.769174,90.18768 C187.628072,89.1041108 187.397352,88.0319877 187.088453,87.0094646 C186.981674,86.6584492 186.611758,86.4600492 186.259004,86.5687877 C185.90625,86.6737108 185.707945,87.0476185 185.814725,87.3967262 C186.104555,88.3505723 186.318114,89.3482954 186.449682,90.3517415" id="Fill-31" fill="#5890B8"></path>
                        <path d="M173.816314,121.116905 C172.819068,120.611366 171.848517,120.067674 170.935169,119.497274 C170.622458,119.304597 170.2125,119.399982 170.018008,119.710935 C169.823517,120.023797 169.918856,120.433951 170.231568,120.628535 C171.179237,121.21992 172.182203,121.782689 173.215678,122.305397 C173.312924,122.353089 173.413983,122.375982 173.515042,122.375982 C173.75911,122.375982 173.993644,122.242443 174.109958,122.011612 C174.275847,121.683489 174.14428,121.282874 173.816314,121.116905" id="Fill-33" fill="#5890B8"></path>
                        <path d="M172.363919,75.1403754 C170.18447,74.9972985 168.142309,75.1976062 166.283199,75.7374831 C165.930445,75.8404985 165.726419,76.2105908 165.829386,76.5616062 C165.932352,76.9164369 166.30036,77.1186523 166.655021,77.0156369 C168.363496,76.5215446 170.256928,76.3364985 172.276208,76.4662215 C173.603326,76.5558831 174.890403,76.8000677 176.103114,77.1930523 C176.169852,77.2159446 176.238496,77.2273908 176.30714,77.2273908 C176.587436,77.2273908 176.848665,77.0480677 176.940191,76.7657292 C177.052691,76.4166215 176.862013,76.0408062 176.511165,75.9244369 C175.195487,75.4990215 173.801631,75.23576 172.363919,75.1403754" id="Fill-35" fill="#5890B8"></path>
                        <path d="M157.453284,87.42496 C157.539089,87.0682215 157.319809,86.7076677 156.963242,86.6218215 C156.606674,86.53216 156.246292,86.7534523 156.160487,87.1120985 C156.082309,87.4344985 156.009852,87.7645292 155.945021,88.1002831 C155.836335,88.6554215 155.485487,90.6832985 155.485487,93.5925292 C155.485487,94.8191754 155.550318,96.0572677 155.674258,97.27056 C155.710487,97.6120369 155.998411,97.8676677 156.335911,97.8676677 C156.358792,97.8676677 156.381674,97.8676677 156.404555,97.8638523 C156.770657,97.8256985 157.035699,97.4994831 156.997564,97.1332062 C156.877436,95.9676062 156.816419,94.7752985 156.816419,93.5925292 C156.816419,90.8034831 157.148199,88.8786215 157.251165,88.3540062 C157.312182,88.0392369 157.378919,87.7282831 157.453284,87.42496" id="Fill-37" fill="#5890B8"></path>
                        <path d="M186.093114,84.4367508 C184.544809,81.1898585 182.113665,78.6201969 179.066631,77.0043815 C178.740572,76.8326892 178.338242,76.9585969 178.166631,77.2829046 C177.995021,77.6072123 178.118962,78.0097354 178.443114,78.1814277 C181.236547,79.6617969 183.467479,82.02352 184.891843,85.0090585 C185.00625,85.2494277 185.244597,85.3886892 185.494386,85.3886892 C185.589725,85.3886892 185.68697,85.3677046 185.778496,85.3238277 C186.112182,85.1654892 186.251377,84.7686892 186.093114,84.4367508" id="Fill-39" fill="#5890B8"></path>
                        <path d="M190.024894,98.4277662 C186.047352,96.9149662 185.154979,93.4887508 185.105403,90.8828431 C185.103496,90.7626585 185.099682,90.6806277 185.093962,90.6424738 C184.245445,83.5077046 179.041843,78.4065354 172.146928,77.9467815 C164.86875,77.4717662 159.691843,81.5561354 158.297987,88.8893046 C158.126377,89.7878277 154.358581,111.005182 175.55625,120.566535 C176.126377,120.827889 176.68697,121.096874 177.24375,121.369674 C177.337182,121.417366 177.436335,121.438351 177.535487,121.438351 C177.781462,121.438351 178.017903,121.302905 178.134216,121.068258 C178.296292,120.73632 178.159004,120.337612 177.831038,120.173551 C177.262818,119.896935 176.690784,119.62032 176.105403,119.355151 C155.851589,110.217305 159.442055,89.9938585 159.606038,89.1373046 C160.860699,82.5309662 165.517055,78.8433969 172.059216,79.2745354 C178.294386,79.6904123 183.002225,84.3203815 183.772564,90.7836431 L183.77447,90.9076431 C183.856462,95.1732431 185.90625,98.2846892 189.552013,99.6696738 C189.895233,99.8032123 190.280403,99.6296123 190.410064,99.2862277 C190.539725,98.9428431 190.368114,98.5574892 190.024894,98.4277662" id="Fill-41" fill="#5890B8"></path>
                        <path d="M182.420085,91.0987938 C182.105466,88.0159631 180.715424,85.2746092 178.505466,83.3802708 C178.227076,83.1399015 177.805678,83.1723323 177.569237,83.4508554 C177.328983,83.7312862 177.361398,84.1509785 177.639788,84.38944 C179.588517,86.0605785 180.816483,88.4928862 181.094873,91.2533169 L181.094873,91.4459938 C181.094873,91.6253169 181.094873,92.1690092 181.169237,92.8595938 C181.205466,93.2010708 181.495297,93.4528862 181.83089,93.4528862 C181.853771,93.4528862 181.878559,93.4509785 181.903347,93.4471631 C182.269449,93.4090092 182.532585,93.0808862 182.492542,92.7146092 C182.423898,92.0946092 182.423898,91.60624 182.423898,91.4459938 L182.425805,91.2533169 C182.425805,91.18464 182.423898,91.1369477 182.420085,91.0987938" id="Fill-43" fill="#5890B8"></path>
                        <path d="M190.02947,100.952025 C189.337309,100.673502 188.565064,100.345378 187.523962,99.8799015 C185.361674,98.92224 183.857225,97.3293169 183.05447,95.1469169 C182.926716,94.7997169 182.54536,94.6261169 182.200233,94.7520246 C181.855106,94.8779323 181.679682,95.2632862 181.80553,95.6066708 C182.737945,98.1381785 184.480742,99.9867323 186.984343,101.097009 C188.040699,101.566302 188.826292,101.902055 189.531801,102.186302 C189.613792,102.218732 189.697691,102.235902 189.779682,102.235902 C190.042818,102.235902 190.292606,102.077563 190.397479,101.818117 C190.534767,101.47664 190.370784,101.089378 190.02947,100.952025" id="Fill-45" fill="#5890B8"></path>
                        <path d="M180.662225,118.782652 C179.84803,118.418283 178.885106,117.929914 177.863072,117.411022 C177.231928,117.090529 176.595064,116.766222 175.984894,116.470529 C175.515826,116.241606 175.060106,116.00696 174.61964,115.764683 C174.299301,115.587268 173.895064,115.703637 173.715826,116.026037 C173.538496,116.346529 173.656716,116.752868 173.978962,116.928375 C174.438496,117.184006 174.911377,117.430098 175.403326,117.66856 C176.005869,117.960437 176.637013,118.280929 177.262436,118.597606 C178.297818,119.124129 179.275996,119.620129 180.120699,119.997852 C180.208411,120.036006 180.299936,120.056991 180.389555,120.056991 C180.645064,120.056991 180.887225,119.910098 180.997818,119.662098 C181.148453,119.326345 180.997818,118.93336 180.662225,118.782652" id="Fill-47" fill="#5890B8"></path>
                        <path d="M166.208835,83.1885477 C166.313708,83.1885477 166.422394,83.1637477 166.521547,83.1103323 C168.043157,82.2995631 169.843157,81.9504554 171.843369,82.0801785 C173.170487,82.16984 174.421335,82.4903323 175.561589,83.03784 C175.895275,83.1961785 176.291886,83.0550092 176.450148,82.7230708 C176.608411,82.39304 176.467309,81.9943323 176.137436,81.8359938 C174.842733,81.2159938 173.427903,80.8497169 171.931081,80.7524246 C169.667733,80.6036246 167.637013,81.00424 165.894216,81.9351938 C165.570064,82.1087938 165.44803,82.5113169 165.621547,82.8337169 C165.741674,83.0607323 165.970487,83.1885477 166.208835,83.1885477" id="Fill-49" fill="#5890B8"></path>
                        <path d="M163.771208,106.246634 C163.87036,106.246634 163.971419,106.221834 164.066758,106.177957 C164.394725,106.013895 164.530106,105.615188 164.366123,105.285157 C162.966547,102.456049 162.108496,99.3121723 161.814852,95.9450954 C161.782436,95.5769108 161.465911,95.3041108 161.094089,95.3365415 C160.727987,95.37088 160.457225,95.69328 160.487733,96.0595569 C160.796631,99.5945108 161.700445,102.898634 163.174386,105.876542 C163.290699,106.111188 163.525233,106.246634 163.771208,106.246634" id="Fill-51" fill="#5890B8"></path>
                        <path d="M161.040508,94.0049723 C161.40661,94.0049723 161.704068,93.7111877 161.705975,93.3410954 C161.713602,91.3208492 161.934788,90.0579569 161.959576,89.9186954 C162.363814,87.7172185 163.237119,85.92208 164.560424,84.5771569 C164.817839,84.3138954 164.814025,83.8922954 164.552797,83.6347569 C164.289661,83.3791262 163.870169,83.3810338 163.610847,83.6423877 C162.098771,85.1799877 161.103432,87.21168 160.651525,89.6783262 C160.622924,89.8290338 160.384576,91.1987569 160.375042,93.33728 C160.373136,93.7054646 160.670593,94.0030646 161.038602,94.0049723 L161.040508,94.0049723 Z" id="Fill-53" fill="#5890B8"></path>
                        <path d="M171.65822,115.509434 C171.772627,115.587649 171.902288,115.623895 172.031949,115.623895 C172.243602,115.623895 172.453347,115.522788 172.583008,115.330111 C172.788941,115.028695 172.708856,114.612818 172.405678,114.406788 C169.635127,112.527711 167.360339,110.215588 165.640424,107.53528 C165.442119,107.226234 165.030254,107.136572 164.721356,107.33688 C164.412458,107.533372 164.322839,107.945434 164.521144,108.25448 C166.338305,111.087403 168.738941,113.527342 171.65822,115.509434" id="Fill-55" fill="#5890B8"></path>
                        <path d="M189.815339,103.672012 C188.238432,103.135951 186.686314,102.395766 184.623178,101.197735 C180.067881,98.5479508 179.694153,93.7138585 179.743729,91.7565662 C179.747542,91.6554585 179.745636,91.5867815 179.743729,91.5600738 C179.406229,87.1418585 176.103686,83.8472738 171.71428,83.5573046 C167.191398,83.2597046 163.774449,85.9743508 163.00411,90.4707815 C162.977415,90.6329354 160.389915,106.789182 175.241822,114.761428 C175.905381,115.120074 176.567034,115.488258 177.228686,115.862166 C178.92,116.810289 180.670424,117.790843 182.443729,118.508135 C182.523814,118.542474 182.609619,118.557735 182.69161,118.557735 C182.954746,118.557735 183.204534,118.401305 183.309407,118.141858 C183.446695,117.800382 183.282712,117.41312 182.941398,117.275766 C181.248178,116.588997 179.533983,115.629428 177.878898,114.700382 C177.209619,114.324566 176.540339,113.950658 175.871059,113.590105 C161.854322,106.066166 164.28928,90.8504123 164.315975,90.6958892 C164.973814,86.85952 167.77678,84.6313354 171.626568,84.8850585 C175.337161,85.1330585 178.130593,87.9201969 178.41661,91.6344738 L178.414703,91.72032 C178.3575,93.9160738 178.782712,99.3415508 183.955805,102.349982 C186.099025,103.593797 187.723602,104.366412 189.38822,104.932997 C189.737161,105.051274 190.112797,104.86432 190.231017,104.515212 C190.349237,104.168012 190.16428,103.790289 189.815339,103.672012" id="Fill-57" fill="#5890B8"></path>
                        <path d="M165.264597,92.5127754 C165.25697,92.7302523 165.253157,92.9725292 165.253157,93.2396062 C165.253157,95.4964062 165.571589,98.9474215 167.087479,102.551052 C167.196165,102.804775 167.44214,102.957391 167.701462,102.957391 C167.787267,102.957391 167.874979,102.940222 167.958877,102.905883 C168.298284,102.762806 168.456547,102.371729 168.315445,102.034068 C166.809089,98.4571446 166.584089,94.98896 166.584089,93.2396062 C166.584089,92.9896985 166.587903,92.7626831 166.59553,92.5547446 C166.60697,92.1903754 166.319047,91.8813292 165.952945,91.8698831 C165.584936,91.8469908 165.277945,92.1445908 165.264597,92.5127754" id="Fill-59" fill="#5890B8"></path>
                        <path d="M184.808326,115.39192 C182.588835,114.453335 180.600064,113.486135 178.550275,112.347243 C178.22803,112.169828 177.823792,112.284289 177.644555,112.604782 C177.467225,112.927182 177.581631,113.331612 177.903877,113.512843 C179.995614,114.674628 182.026335,115.662812 184.291589,116.620474 C184.375487,116.654812 184.463199,116.671982 184.549004,116.671982 C184.808326,116.671982 185.056208,116.517458 185.162987,116.263735 C185.305996,115.926074 185.147733,115.534997 184.808326,115.39192" id="Fill-61" fill="#5890B8"></path>
                        <path d="M177.068517,92.0358523 C177.051356,91.5341292 176.973178,91.0400369 176.833983,90.5631138 C176.731017,90.2082831 176.363008,90.0079754 176.008347,90.1090831 C175.655593,90.2120985 175.453475,90.5821908 175.556441,90.9370215 C175.665127,91.3032985 175.726144,91.6886523 175.735678,92.11216 C175.731864,92.2228062 175.724237,92.4135754 175.724237,92.6806523 C175.724237,94.3556062 176.031229,97.61776 178.107712,100.647175 C178.235466,100.832222 178.445212,100.933329 178.656864,100.933329 C178.786525,100.933329 178.918093,100.898991 179.0325,100.818868 C179.335678,100.609022 179.411949,100.195052 179.20411,99.8917292 C177.331653,97.1599138 177.053263,94.2010831 177.055169,92.6806523 C177.055169,92.4383754 177.062797,92.2628677 177.06661,92.1655754 L177.068517,92.0358523 Z" id="Fill-63" fill="#5890B8"></path>
                        <path d="M189.321102,106.216874 C186.415169,105.45952 184.144195,104.354966 181.726398,102.525489 C181.419407,102.294658 181.123856,102.046658 180.843559,101.78912 C180.572797,101.539212 180.153305,101.558289 179.903517,101.827274 C179.655636,102.096258 179.67089,102.519766 179.941653,102.767766 C180.252458,103.05392 180.584237,103.330535 180.923644,103.588074 C183.453941,105.501489 185.940381,106.710966 188.983602,107.504566 C189.040805,107.521735 189.098008,107.527458 189.153305,107.527458 C189.448856,107.527458 189.719619,107.329058 189.79589,107.029551 C189.889322,106.672812 189.675763,106.310351 189.321102,106.216874" id="Fill-65" fill="#5890B8"></path>
                        <path d="M175.071356,111.85048 L175.580466,112.161434 C175.689153,112.226295 175.807373,112.258726 175.923686,112.258726 C176.150593,112.258726 176.367966,112.142357 176.493814,111.936326 C176.684492,111.623465 176.585339,111.213311 176.27072,111.022542 L175.767331,110.715403 C173.12072,109.091957 171.000381,106.943895 169.467331,104.334172 C169.280466,104.017495 168.872415,103.912572 168.55589,104.097618 C168.239364,104.282665 168.132585,104.690911 168.319449,105.007588 C169.965,107.809988 172.235975,110.110665 175.071356,111.85048" id="Fill-67" fill="#5890B8"></path>
                        <path d="M166.419153,90.6012677 C166.674661,90.6012677 166.918729,90.4543754 167.029322,90.20256 C167.763432,88.5180677 169.441398,87.5680369 171.411102,87.6920369 C172.56089,87.7702523 173.584831,88.2109292 174.374237,88.9740062 C174.63928,89.2277292 175.060678,89.2220062 175.316186,88.9587446 C175.571695,88.6916677 175.564068,88.2700677 175.299025,88.0163446 C174.294153,87.0472369 172.946059,86.4596677 171.496907,86.3623754 C168.917034,86.1964062 166.77572,87.4612062 165.808983,89.6703138 C165.662161,90.0060677 165.81661,90.3990523 166.15411,90.5478523 C166.239915,90.5821908 166.329534,90.6012677 166.419153,90.6012677" id="Fill-69" fill="#5890B8"></path>
                        <path d="M188.58928,108.668449 C184.222754,107.630665 181.028898,106.062542 178.828475,103.868695 C174.019576,99.0822954 174.374237,92.8136185 174.389492,92.5541723 C174.450508,91.7434031 174.183559,90.9478954 173.636314,90.3202646 C173.054746,89.6487569 172.196695,89.2309723 171.281441,89.1680185 C169.447119,89.0535569 167.837797,90.3660492 167.704322,92.1039569 C167.671907,92.5465415 166.985466,102.989249 174.881441,108.92408 C178.569153,111.694049 182.119576,113.307957 185.601356,114.891342 L185.877839,114.282788 L186.102839,113.655157 C182.735466,112.125188 179.25178,110.539895 175.680381,107.85768 C168.360254,102.355895 169.000932,92.6171262 169.031441,92.2031569 C169.109619,91.19208 170.08589,90.4251877 171.193729,90.4995877 C171.758136,90.5339262 172.2825,90.7895569 172.633347,91.1939877 C172.944153,91.5507262 173.096695,92.0009415 173.062373,92.4626031 C173.043305,92.7506646 172.658136,99.6050031 177.890339,104.813003 C180.27,107.184265 183.669788,108.866849 188.282288,109.963772 C188.636949,110.045803 188.999237,109.824511 189.083136,109.46968 C189.168941,109.111034 188.947754,108.754295 188.58928,108.668449" id="Fill-71" fill="#5890B8"></path>
                        <path d="M175.72786,71.5634523 C180.479555,72.6298523 183.562818,75.1422831 183.692479,75.2491138 C183.816419,75.3521292 183.965148,75.4017292 184.113877,75.4017292 C184.306462,75.4017292 184.49714,75.3196985 184.628708,75.1594523 C184.863242,74.8752062 184.821292,74.4555138 184.539089,74.2227754 C184.399894,74.1083138 181.078284,71.3993908 176.019597,70.2643138 C175.66303,70.1860985 175.304555,70.4112062 175.22447,70.7679446 C175.144386,71.1265908 175.369386,71.4833292 175.72786,71.5634523" id="Fill-73" fill="#5890B8"></path>
                        <path d="M163.482712,72.6271815 C163.585678,72.6271815 163.690551,72.6023815 163.787797,72.5546892 C163.816398,72.53752 166.708983,71.0647815 171.193729,71.0647815 C171.851568,71.0647815 172.520847,71.0953046 173.1825,71.1601662 C173.539068,71.1945046 173.872754,70.92552 173.908983,70.5611508 C173.943305,70.1967815 173.676356,69.8705662 173.310254,69.83432 C172.606653,69.7656431 171.893517,69.7332123 171.193729,69.7332123 C166.388644,69.7332123 163.305381,71.3051508 163.17572,71.37192 C162.849661,71.5417046 162.721907,71.9442277 162.89161,72.2704431 C163.009831,72.4974585 163.242458,72.6271815 163.482712,72.6271815" id="Fill-75" fill="#5890B8"></path>
                        <path d="M171.122797,91.9072738 C170.756695,91.8672123 170.428729,92.1266585 170.38678,92.4910277 C170.384873,92.5043815 170.344831,92.8649354 170.344831,93.4696738 C170.344831,95.2361969 170.674703,98.7539815 172.882754,102.454905 C173.008602,102.662843 173.227881,102.779212 173.454788,102.779212 C173.571102,102.779212 173.687415,102.748689 173.796102,102.685735 C174.11072,102.496874 174.213686,102.088628 174.024915,101.771951 C171.980847,98.3457354 171.675763,95.0988431 171.675763,93.4696738 C171.675763,92.9488738 171.708178,92.6455508 171.708178,92.6436431 C171.750127,92.2773662 171.486992,91.9473354 171.122797,91.9072738" id="Fill-77" fill="#5890B8"></path>
                        <path d="M175.498665,103.863926 C175.266038,103.581588 174.846547,103.537711 174.562436,103.772357 C174.278326,104.005095 174.238284,104.424788 174.470911,104.709034 C176.513072,107.194757 179.264555,109.239803 182.647182,110.785034 C182.736801,110.827003 182.830233,110.84608 182.923665,110.84608 C183.17536,110.84608 183.417521,110.701095 183.528114,110.456911 C183.680657,110.121157 183.535742,109.726265 183.200148,109.573649 C180.002479,108.114265 177.411165,106.193218 175.498665,103.863926" id="Fill-79" fill="#5890B8"></path>
                        <path d="M187.372373,111.12384 C186.769831,110.944517 186.178729,110.75184 185.612415,110.549625 C185.263475,110.425625 184.885932,110.606855 184.760085,110.954055 C184.638051,111.299348 184.819195,111.680886 185.164322,111.804886 C185.753517,112.014732 186.369407,112.21504 186.994831,112.400086 C187.057754,112.419163 187.120678,112.428702 187.183602,112.428702 C187.469619,112.428702 187.736568,112.23984 187.820466,111.951778 C187.925339,111.598855 187.725127,111.228763 187.372373,111.12384" id="Fill-81" fill="#5890B8"></path>
                        <path d="M446.363771,96.6038215 C446.363771,109.656252 437.218856,119.494222 425.091737,119.494222 L407.764831,119.494222 L407.764831,73.7115138 L425.091737,73.7115138 C437.218856,73.7115138 446.363771,83.5532985 446.363771,96.6038215 M425.091737,70.8003754 L405.602542,70.8003754 C405.020975,70.8003754 404.658686,71.1609292 404.658686,71.7446831 L404.658686,121.46296 C404.658686,122.044806 405.020975,122.407268 405.602542,122.407268 L425.091737,122.407268 C438.961653,122.407268 449.422246,111.314037 449.422246,96.6038215 C449.422246,81.8916985 438.961653,70.8003754 425.091737,70.8003754" id="Fill-83" fill="#5890B8"></path>
                        <path d="M391.217987,119.5856 L367.009513,119.5856 L367.009513,97.8092923 L389.025191,97.8092923 C389.57053,97.8092923 389.90803,97.4697231 389.90803,96.9241231 L389.90803,95.9016 C389.90803,95.356 389.57053,95.0183385 389.025191,95.0183385 L367.009513,95.0183385 L367.009513,73.6788923 L390.851886,73.6788923 C391.397225,73.6788923 391.734725,73.3412308 391.734725,72.7956308 L391.734725,71.7731077 C391.734725,71.2275077 391.397225,70.8898462 390.851886,70.8898462 L364.908242,70.8898462 C364.362903,70.8898462 364.025403,71.2275077 364.025403,71.7731077 L364.025403,121.491385 C364.025403,122.036985 364.362903,122.376554 364.908242,122.376554 L391.217987,122.376554 C391.763326,122.376554 392.100826,122.036985 392.100826,121.491385 L392.100826,120.468862 C392.100826,119.923262 391.763326,119.5856 391.217987,119.5856" id="Fill-86" fill="#5890B8"></path>
                    </g>
                </g>
            </g>
        </g>
    </g>
</svg>