<?xml version="1.0" encoding="UTF-8"?>
<svg width="181px" height="53px" viewBox="0 0 181 53" version="1.1" xmlns="http://www.w3.org/2000/svg" xmlns:xlink="http://www.w3.org/1999/xlink">
    <!-- Generator: Sketch 55.1 (78136) - https://sketchapp.com -->
    <title>Brookfield Logo</title>
    <desc>Created with Sketch.</desc>
    <g id="Symbols" stroke="none" stroke-width="1" fill="none" fill-rule="evenodd">
        <g id="Logos/Brookfield/Color">
            <g id="Brookfield-Logo">
                <path d="M-0.000193520795,0.387307692 L10.0416006,0.387307692 C12.7663734,0.387307692 15.2279579,0.507576923 16.810958,1.04573077 C20.0156624,2.12815385 21.2987052,4.80873077 21.2987052,7.39553846 C21.2987052,8.87342308 20.9271453,9.76015385 20.8226441,10.0333077 C19.6421672,12.8219231 17.1418785,13.3661923 15.7446584,13.6760385 C17.3257233,13.9471538 19.4254239,14.2916538 20.8555426,15.9998846 C21.7747664,17.0456154 22.2934021,18.5601923 22.2934021,20.1073846 C22.2934021,22.2355385 21.2251673,25.2239231 17.9894996,26.7283077 C16.0349396,27.6231923 13.944915,27.7373462 10.96663,27.7373462 L-0.000193520795,27.7373462 L-0.000193520795,0.387307692 Z M6.17892548,5.50180769 L6.17892548,11.2013462 L11.0730664,11.2013462 C12.5457596,11.1585385 14.9318711,11.077 14.9318711,8.25373077 C14.9318711,5.61188462 12.7663734,5.50180769 11.5123586,5.50180769 L6.17892548,5.50180769 Z M6.17892548,16.1568462 L6.17892548,22.7777692 L10.7015065,22.7777692 C12.8728098,22.737 15.7098247,22.6636154 15.7098247,19.5243846 C15.7098247,16.2302308 13.1359981,16.1935385 11.8103806,16.1568462 L6.17892548,16.1568462 Z" id="Fill-1" fill="#002A4E"></path>
                <path d="M31.477125,9.61012308 C32.7330749,8.48285385 34.0973966,7.59408462 37.033107,7.28627692 L37.033107,12.5516231 L35.1636961,12.8614692 C32.4408585,13.3670077 31.6319416,13.7910077 31.6319416,16.3513154 L31.6319416,27.7361231 L25.9617823,27.7361231 L25.9617823,7.47585385 L31.477125,7.47585385 L31.477125,9.61012308 Z" id="Fill-4" fill="#002A4E"></path>
                <path d="M59.1426644,17.5868269 C59.1426644,22.7033654 56.3424185,28.3193269 48.8434877,28.3193269 C43.4365166,28.3193269 38.507542,25.0700192 38.507542,17.5868269 C38.507542,11.3858269 42.2231412,6.46701923 49.5769315,6.89713462 C57.4087181,7.35782692 59.1426644,13.9094423 59.1426644,17.5868269 M45.1646573,13.6016346 C44.4679825,14.7594808 44.2086646,16.1578654 44.2086646,17.5501346 C44.2086646,20.7647885 45.6813579,23.5921346 48.8434877,23.5921346 C51.8933754,23.5921346 53.397032,20.9992115 53.397032,17.8171731 C53.397032,15.5707885 52.8861371,13.8279038 51.8237079,12.7454808 C50.6412958,11.5835577 49.3195488,11.5489038 48.5106319,11.62025 C46.8889276,11.7425577 45.9368053,12.3214808 45.1646573,13.6016346" id="Fill-6" fill="#002A4E"></path>
                <path d="M82.1232588,17.5868269 C82.1232588,22.7033654 79.3307538,28.3193269 71.8279525,28.3193269 C66.4248519,28.3193269 61.4881364,25.0700192 61.4881364,17.5868269 C61.4881364,11.3858269 65.2076061,6.46701923 72.5633316,6.89713462 C80.3951181,7.35782692 82.1232588,13.9094423 82.1232588,17.5868269 M68.1491222,13.6016346 C67.4505121,14.7594808 67.1911943,16.1578654 67.1911943,17.5501346 C67.1911943,20.7647885 68.6619523,23.5921346 71.8279525,23.5921346 C74.8778403,23.5921346 76.3911729,20.9992115 76.3911729,17.8171731 C76.3911729,15.5707885 75.8764076,13.8279038 74.8081728,12.7454808 C73.6257607,11.5835577 72.3078841,11.5489038 71.4931616,11.62025 C69.8772629,11.7425577 68.9251406,12.3214808 68.1491222,13.6016346" id="Fill-8" fill="#002A4E"></path>
                <polygon id="Fill-10" fill="#002A4E" points="85.7707388 0.385269231 85.7707388 27.7353077 91.2860815 27.7353077 91.2860815 21.4181154 93.7089618 19.0188462 98.6360013 27.7353077 105.184745 27.7353077 97.7187127 14.7217692 104.339059 7.51580769 97.5329327 7.51580769 91.31898 14.4465769 91.31898 0.385269231"></polygon>
                <path d="M108.15974,5.5014 C108.15974,4.4944 108.233278,3.13882308 108.970592,2.0564 C109.673073,1.04532308 111.252203,-0.000407692308 113.897632,-0.000407692308 C115.037469,-0.000407692308 116.181177,0.195284615 117.27844,0.350207692 L117.27844,4.80628462 L115.921859,4.80628462 C113.78539,4.80628462 113.677018,5.26697692 113.711852,7.98016923 L117.506795,7.98016923 L117.506795,11.6208615 L113.754426,11.6208615 L113.754426,27.7349 L108.122971,27.7349 L108.122971,11.6208615 L105.111788,11.6208615 L105.111788,7.98016923 L108.15974,7.98016923 L108.15974,5.5014 Z" id="Fill-12" fill="#002A4E"></path>
                <path d="M120.337036,4.95305385 L125.929787,4.95305385 L125.929787,0.346130769 L120.337036,0.346130769 L120.337036,4.95305385 Z M120.337036,27.7369385 L125.929787,27.7369385 L125.929787,7.47463077 L120.337036,7.47463077 L120.337036,27.7369385 Z" id="Fill-14" fill="#002A4E"></path>
                <path d="M148.9427,22.5814654 C148.282794,23.6292346 147.619017,24.6403115 146.628191,25.6085808 C144.973588,27.2332346 142.473299,28.4787346 139.386643,28.4787346 C133.687455,28.4787346 129.673834,24.6403115 129.673834,18.0153115 C129.673834,13.1331962 131.953509,6.85677308 139.531783,6.85677308 C140.671621,6.85677308 143.982762,6.97500385 146.446281,9.75954231 C148.9427,12.5868885 149.093646,16.5435423 149.163313,18.8245808 L135.446559,18.8245808 C135.413661,21.3481962 136.770242,23.8677346 139.820129,23.8677346 C142.914527,23.8677346 143.982762,21.7314269 144.675566,20.3004269 L148.9427,22.5814654 Z M143.322856,15.1105038 C143.206743,14.2584269 143.059667,13.1331962 142.254621,12.2444269 C141.55214,11.5044654 140.489711,11.1191962 139.493079,11.1191962 C138.134563,11.1191962 137.172765,11.8204269 136.628971,12.4319654 C135.854888,13.3227731 135.669108,14.2584269 135.483328,15.1105038 L143.322856,15.1105038 Z" id="Fill-16" fill="#002A4E"></path>
                <polygon id="Fill-17" fill="#002A4E" points="152.438266 27.7369385 158.102619 27.7369385 158.102619 0.3869 152.438266 0.3869"></polygon>
                <path d="M180.391764,0.387307692 L180.391764,27.7373462 L175.242176,27.7373462 L175.242176,25.8354615 C174.359721,26.7690769 172.883157,28.2816154 170.053883,28.2816154 C168.141898,28.2816154 166.152504,27.5049615 164.646912,25.9577692 C161.852472,23.1243077 161.852472,19.0616538 161.852472,17.7448077 C161.852472,10.1128077 165.97253,6.97153846 169.829399,6.97153846 C172.370327,6.97153846 173.877854,8.21703846 174.90932,9.02630769 L174.90932,0.387307692 L180.391764,0.387307692 Z M175.019627,17.6265769 C175.019627,16.6990769 175.019627,14.1815769 173.806251,12.6303077 C173.548869,12.2817308 172.741887,11.4255769 171.598179,11.4255769 C167.588428,11.4255769 167.588428,16.7337308 167.588428,17.6265769 C167.588428,20.4600385 168.321872,23.9070769 171.195656,23.9070769 C171.820728,23.9070769 172.480634,23.6726538 173.034103,23.2792308 C175.019627,21.8482308 175.019627,18.7538462 175.019627,17.6265769 L175.019627,17.6265769 Z" id="Fill-18" fill="#002A4E"></path>
                <path d="M59.4015952,33.5938462 L65.085301,33.5938462 C67.4617363,33.6162692 69.0486069,33.6162692 70.6141901,34.9535 C71.721129,35.9095385 72.5842318,37.3955769 72.5842318,39.5787692 C72.5842318,43.1705385 70.0858783,44.4221538 69.0698942,44.7401538 L73.0390057,52.3721538 L69.2208404,52.3721538 L65.6910211,45.4046923 L62.7108008,45.4046923 L62.7108008,52.3721538 L59.4015952,52.3721538 L59.4015952,33.5938462 Z M62.7108008,36.623 L62.7108008,42.5019231 L63.875796,42.5019231 C65.0098279,42.5019231 65.4336384,42.4795 66.0683866,42.4509615 C66.8018304,42.4265 69.1976179,42.2919615 69.1976179,39.5543077 C69.1976179,39.1527308 69.1724602,37.7665769 67.7810457,37.0266154 C67.0824356,36.6556154 66.2232033,36.623 64.2512263,36.623 L62.7108008,36.623 Z" id="Fill-19" fill="#DFA726"></path>
                <path d="M86.9235422,49.3919231 C85.3579589,51.5995769 83.3434075,52.7716923 80.7657105,52.7716923 C77.4565049,52.7716923 74.2769582,50.5579231 74.2769582,45.6696923 C74.2769582,41.2013846 77.001731,38.6716538 80.566384,38.6716538 C83.8988121,38.6716538 85.284421,40.7753462 85.5340629,41.1728462 C86.5713343,42.7118846 86.8016241,45.0316538 86.8248466,46.3566538 L77.4816626,46.3566538 C77.8319352,48.4623846 79.0724035,49.6630385 81.0714733,49.6630385 C83.1382754,49.6630385 83.9742853,48.3808462 84.3516508,47.8223077 L86.9235422,49.3919231 Z M83.4943537,44.0185385 C83.2137485,41.9454231 82.0003731,41.2299231 80.6650797,41.2299231 C79.049181,41.2299231 77.9364364,42.2104231 77.5822934,44.0185385 L83.4943537,44.0185385 Z" id="Fill-20" fill="#DFA726"></path>
                <path d="M90.4065295,48.4383308 C91.1728718,49.4167923 92.3069037,50.1363692 94.050526,50.1363692 C95.790278,50.1363692 96.5488795,49.2374077 96.5488795,48.5687923 C96.5488795,47.7167154 95.6373966,47.5087923 95.2368085,47.4231769 C94.8033219,47.3171769 92.7345846,46.9217154 92.2798108,46.7831 C89.2744328,46.0390615 88.7209633,44.2064846 88.7209633,43.0099077 C88.7209633,40.7472154 90.6600417,38.6741 94.1259991,38.6741 C96.0399198,38.6741 97.4332695,39.3101 98.2866962,39.9481385 C98.9214445,40.3741769 99.3278381,40.8328308 99.57748,41.1487923 L97.4332695,43.2484077 C97.0810617,42.5308692 96.2198942,41.2303308 93.9963402,41.2303308 C92.5584807,41.2303308 91.90051,41.8948692 91.90051,42.5818308 C91.90051,43.5439846 92.8371506,43.8008308 94.4530493,44.0964077 C97.0810617,44.6019462 97.8106351,44.7405615 98.619552,45.4030615 C99.3936352,46.0390615 99.9064653,47.1072154 99.9064653,48.2263308 C99.9064653,50.2933308 98.13575,52.7741385 94.2227595,52.7741385 C91.9779183,52.7741385 89.7582348,52.0239846 88.1636234,50.4074846 L90.4065295,48.4383308 Z" id="Fill-21" fill="#DFA726"></path>
                <path d="M101.90418,37.0017462 L104.909558,37.0017462 L104.909558,33.7789385 L101.90418,33.7789385 L101.90418,37.0017462 Z M101.90418,52.3717462 L104.909558,52.3717462 L104.909558,39.0748615 L101.90418,39.0748615 L101.90418,52.3717462 Z" id="Fill-22" fill="#DFA726"></path>
                <path d="M119.222937,33.5938462 L119.222937,52.3721538 L116.219494,52.3721538 L116.219494,51.0981154 C115.282854,52.2946923 114.021098,52.7716923 112.712897,52.7716923 C109.703649,52.7716923 107.100794,50.4070769 107.100794,46.0141923 C107.100794,42.0514231 109.219847,38.6716538 112.83288,38.6716538 C114.073349,38.6716538 115.255761,39.0446923 116.219494,40.1658462 L116.219494,33.5938462 L119.222937,33.5938462 Z M115.513143,42.8525385 C115.056434,42.1309231 114.299768,41.6253846 113.29346,41.6253846 C111.247945,41.6253846 110.255183,43.566 110.255183,45.6696923 C110.255183,45.9102308 110.290017,49.8974615 113.243144,49.8974615 C114.802922,49.8974615 116.219494,48.6723462 116.196272,45.8001538 C116.173049,44.9460385 116.064678,43.7331538 115.513143,42.8525385 L115.513143,42.8525385 Z" id="Fill-23" fill="#DFA726"></path>
                <path d="M134.048759,49.3919231 C132.47737,51.5995769 130.462818,52.7716923 127.879316,52.7716923 C124.579786,52.7716923 121.396369,50.5579231 121.396369,45.6696923 C121.396369,41.2013846 124.121142,38.6716538 127.681925,38.6716538 C131.018223,38.6716538 132.405767,40.7753462 132.653474,41.1728462 C133.694616,42.7118846 133.921035,45.0316538 133.944257,46.3566538 L124.597203,46.3566538 C124.959087,48.4623846 126.191814,49.6630385 128.190884,49.6630385 C130.263492,49.6630385 131.091761,48.3808462 131.469126,47.8223077 L134.048759,49.3919231 Z M130.609894,44.0185385 C130.331224,41.9454231 129.123654,41.2299231 127.788361,41.2299231 C126.168592,41.2299231 125.059718,42.2104231 124.701704,44.0185385 L130.609894,44.0185385 Z" id="Fill-24" fill="#DFA726"></path>
                <path d="M135.938683,39.0762885 L138.992441,39.0762885 L138.992441,40.6397885 C139.145322,40.39925 139.44915,39.9732115 139.981332,39.60425 C140.736063,39.0232885 141.902994,38.6747115 142.884144,38.6747115 C144.323939,38.6747115 145.558602,39.36575 146.19335,40.2687885 C146.975174,41.3879038 146.975174,42.8250192 146.975174,44.5556731 L146.975174,52.3690962 L143.969796,52.3690962 L143.969796,45.5871346 C143.969796,44.6045962 143.969796,43.9400577 143.873035,43.5649808 C143.594365,42.3969423 142.785449,41.7894808 141.796557,41.7894808 C140.815407,41.7894808 139.903924,42.3969423 139.476243,43.2775577 C138.992441,44.2621346 138.992441,45.6156731 138.992441,46.5941346 L138.992441,52.3690962 L135.938683,52.3690962 L135.938683,39.0762885 Z" id="Fill-25" fill="#DFA726"></path>
                <path d="M153.385744,41.3575308 L153.385744,47.3730308 C153.385744,49.0221462 153.385744,49.7376462 154.825538,49.7376462 C155.288053,49.7376462 155.661548,49.7131846 156.095035,49.5806846 L156.095035,52.2633 C155.181617,52.4223 154.579767,52.4793769 153.894703,52.4793769 C153.265761,52.4793769 151.142838,52.4793769 150.568081,50.8547231 C150.359078,50.3186077 150.359078,49.4706077 150.359078,48.1456077 L150.359078,41.3575308 L148.518696,41.3575308 L148.518696,39.0764923 L150.359078,39.0764923 L150.359078,34.3635692 L153.385744,34.3635692 L153.385744,39.0764923 L156.095035,39.0764923 L156.095035,41.3575308 L153.385744,41.3575308 Z" id="Fill-26" fill="#DFA726"></path>
                <path d="M158.462568,37.0017462 L161.471817,37.0017462 L161.471817,33.7789385 L158.462568,33.7789385 L158.462568,37.0017462 Z M158.462568,52.3717462 L161.471817,52.3717462 L161.471817,39.0748615 L158.462568,39.0748615 L158.462568,52.3717462 Z" id="Fill-27" fill="#DFA726"></path>
                <path d="M164.252517,42.9819808 C164.297027,42.3174423 164.349277,41.7629808 164.755671,40.9863269 C165.965176,38.6726731 168.968619,38.6726731 169.783341,38.6726731 C170.992846,38.6726731 172.451993,38.8316731 173.566673,39.5227115 C175.054848,40.4848654 175.081941,41.7303654 175.081941,43.1715577 L175.081941,50.2164808 C175.081941,51.2275577 175.081941,51.5720577 175.629604,52.3711346 L172.047534,52.3711346 C172.028182,52.0490577 171.975932,51.5210962 171.975932,51.3274423 C171.319896,51.9185962 169.980732,52.6870962 168.239045,52.6870962 C165.384613,52.6870962 163.666149,50.8280192 163.666149,48.5429038 C163.666149,47.8742885 163.817095,47.2647885 164.068672,46.7307115 C164.98209,44.8206731 166.921169,44.3905577 168.14035,44.1520577 C170.741269,43.5914808 170.93866,43.5425577 172.047534,43.1715577 C172.047534,42.5049808 172.001089,41.1494038 169.907194,41.1494038 C168.645439,41.1494038 167.96231,41.5713654 167.660418,42.0035192 C167.323692,42.4275192 167.350785,42.7964808 167.350785,43.1715577 L164.252517,42.9819808 Z M172.047534,45.7461346 C171.449555,46.0682115 170.762556,46.3107885 169.402105,46.5452115 C168.316454,46.7082885 166.872788,46.9732885 166.872788,48.3798269 C166.872788,49.4174038 167.704928,49.9494423 168.922174,49.9494423 C170.464534,49.9494423 171.550186,49.2115192 171.873366,48.4104038 C172.047534,48.0088269 172.047534,47.6092885 172.047534,47.2056731 L172.047534,45.7461346 Z" id="Fill-28" fill="#DFA726"></path>
                <polygon id="Fill-29" fill="#DFA726" points="177.330846 52.3717462 180.386539 52.3717462 180.386539 33.5914 177.330846 33.5914"></polygon>
            </g>
        </g>
    </g>
</svg>