
<svg width="199px" height="50px" viewBox="0 0 199 50" version="1.1" xmlns="http://www.w3.org/2000/svg" xmlns:xlink="http://www.w3.org/1999/xlink">
    <g id="Desktop" stroke="none" stroke-width="1" fill="none" fill-rule="evenodd">
        <g id="My-Time-or-Sales-Manager-Tour" transform="translate(-397.000000, -130.000000)">
            <rect fill="#F0F3F5" x="0" y="0" width="992" height="878"></rect>
            <g id="Header-Content" transform="translate(137.000000, 130.000000)">
                <g id="Logos/MyTimeHorz/Full-Color" transform="translate(260.000000, 0.000000)">
                    <g id="My-Time">
                        <polygon id="Fill-1" fill="#0F2D4F" points="63.7934069 48.2080769 63.7934069 38.1365385 65.7157931 38.1365385 65.7157931 42.155 68.4341792 42.155 68.4341792 38.1365385 70.3557969 38.1365385 70.3557969 48.2080769 68.4341792 48.2080769 68.4341792 43.8557692 65.7157931 43.8557692 65.7157931 48.2080769"></polygon>
                        <path d="M74.8199278,41.3721538 C74.8199278,38.8906154 76.1307154,37.9975385 77.9977811,37.9975385 C79.8640784,37.9975385 81.1740977,38.8906154 81.1740977,41.3721538 L81.1740977,44.9721538 C81.1740977,47.456 79.8640784,48.3483077 77.9977811,48.3483077 C76.1307154,48.3483077 74.8199278,47.456 74.8199278,44.9721538 L74.8199278,41.3721538 Z M76.7438506,45.2236923 C76.7438506,46.3390769 77.2317463,46.6452308 77.9977811,46.6452308 C78.7638158,46.6452308 79.2517116,46.3390769 79.2517116,45.2236923 L79.2517116,41.1221538 C79.2517116,40.006 78.7638158,39.6983077 77.9977811,39.6983077 C77.2317463,39.6983077 76.7438506,40.006 76.7438506,41.1221538 L76.7438506,45.2236923 Z" id="Fill-2" fill="#0F2D4F"></path>
                        <polygon id="Fill-4" fill="#0F2D4F" points="85.6396884 48.2080769 85.6396884 38.1365385 88.3288776 38.1365385 90.0699355 44.7496154 90.0991324 44.7496154 91.8401903 38.1365385 94.5293795 38.1365385 94.5293795 48.2080769 92.8866691 48.2080769 92.8866691 40.285 92.8574722 40.285 90.8098467 48.2080769 89.3592212 48.2080769 87.3115958 40.285 87.2823988 40.285 87.2823988 48.2080769"></polygon>
                        <polygon id="Fill-6" fill="#0F2D4F" points="99.162161 48.2080769 99.162161 38.1365385 104.42913 38.1365385 104.42913 39.8388462 101.086084 39.8388462 101.086084 42.155 103.635435 42.155 103.635435 43.8557692 101.086084 43.8557692 101.086084 46.5073077 104.568968 46.5073077 104.568968 48.2080769"></polygon>
                        <polygon id="Fill-8" fill="#0F2D4F" points="121.410284 38.1366923 121.410284 39.839 119.166732 39.839 119.166732 48.209 117.244346 48.209 117.244346 39.839 115.000794 39.839 115.000794 38.1366923"></polygon>
                        <path d="M125.177685,41.3721538 C125.177685,38.8906154 126.487704,37.9975385 128.354001,37.9975385 C130.221067,37.9975385 131.531854,38.8906154 131.531854,41.3721538 L131.531854,44.9721538 C131.531854,47.456 130.221067,48.3483077 128.354001,48.3483077 C126.487704,48.3483077 125.177685,47.456 125.177685,44.9721538 L125.177685,41.3721538 Z M127.100071,45.2236923 C127.100071,46.3390769 127.588735,46.6452308 128.354001,46.6452308 C129.120036,46.6452308 129.607932,46.3390769 129.607932,45.2236923 L129.607932,41.1221538 C129.607932,40.006 129.120036,39.6983077 128.354001,39.6983077 C127.588735,39.6983077 127.100071,40.006 127.100071,41.1221538 L127.100071,45.2236923 Z" id="Fill-10" fill="#0F2D4F"></path>
                        <path d="M137.918295,38.1366923 L137.918295,45.1813077 C137.918295,46.1443846 138.33704,46.6459231 139.270573,46.6459231 C140.204105,46.6459231 140.635912,46.1443846 140.635912,45.1813077 L140.635912,38.1366923 L142.559835,38.1366923 L142.559835,45.1959231 C142.559835,47.4143846 141.249816,48.3474615 139.270573,48.3474615 C137.292866,48.3474615 135.995908,47.4143846 135.995908,45.1959231 L135.995908,38.1366923 L137.918295,38.1366923 Z" id="Fill-12" fill="#0F2D4F"></path>
                        <path d="M151.706075,48.2080769 L150.034168,44.1073077 L149.112928,44.1073077 L149.112928,48.2080769 L147.192079,48.2080769 L147.192079,38.1365385 L149.978079,38.1365385 C152.290781,38.1365385 153.392581,39.2526923 153.392581,41.1503846 C153.392581,42.4057692 152.946944,43.3126923 151.872805,43.7165385 L153.766762,48.2080769 L151.706075,48.2080769 Z M149.112928,42.5180769 L150.104086,42.5180769 C150.953102,42.5180769 151.469426,42.0996154 151.469426,41.1219231 C151.469426,40.1457692 150.953102,39.7273077 150.104086,39.7273077 L149.112928,39.7273077 L149.112928,42.5180769 Z" id="Fill-14" fill="#0F2D4F"></path>
                        <path d="M161.981467,40.9402308 C161.661069,39.9917692 161.241556,39.5863846 160.573868,39.5863846 C159.891583,39.5863846 159.515096,40.0048462 159.515096,40.6902308 C159.515096,42.2094615 163.805505,42.321 163.805505,45.4748462 C163.805505,47.2033077 162.622262,48.3494615 160.603065,48.3494615 C159.040262,48.3494615 157.82859,47.4963846 157.313034,45.5163846 L159.208529,45.111 C159.432115,46.3256154 160.128231,46.7579231 160.699108,46.7579231 C161.367563,46.7579231 161.883119,46.311 161.883119,45.5586923 C161.883119,43.661 157.591942,43.6325385 157.591942,40.8156154 C157.591942,39.0856154 158.622285,37.9971538 160.616127,37.9971538 C162.329525,37.9971538 163.374467,39.0156154 163.709463,40.4394615 L161.981467,40.9402308 Z" id="Fill-16" fill="#0F2D4F"></path>
                        <path d="M24.8834517,10.1784615 C24.1358571,10.1784615 23.5288687,10.7869231 23.5288687,11.5361538 L23.5288687,24.9130769 C23.5288687,25.6607692 24.1358571,26.2707692 24.8834517,26.2707692 L33.753166,26.2730769 C34.5007606,26.2730769 35.1092857,25.6653846 35.1092857,24.9161538 C35.1092857,24.1684615 34.5030656,23.5592308 33.7547027,23.5592308 L26.2395714,23.5561538 L26.2395714,11.5361538 C26.2395714,10.7869231 25.630278,10.1784615 24.8834517,10.1784615" id="Fill-18" fill="#70AA8E"></path>
                        <path d="M52.8678459,21.1152308 C52.5543633,20.9329231 52.1870969,20.8875385 51.841344,20.9783077 C51.4894444,21.0713846 51.1974753,21.296 51.0146104,21.6121538 L49.7430081,23.8144615 C49.1667533,10.5852308 38.2371201,-0.000153846154 24.8833749,-0.000153846154 C11.1623633,-0.000153846154 -7.68339768e-05,11.176 -7.68339768e-05,24.9129231 C-7.68339768e-05,38.6513846 11.1623633,49.8267692 24.8833749,49.8267692 C33.3766027,49.8267692 41.1990699,45.5544615 45.8098768,38.3998462 C46.0058035,38.0944615 46.070344,37.7329231 45.9950467,37.3783077 C45.9189811,37.0236923 45.7092243,36.7213846 45.4049618,36.5244615 C45.1014676,36.3290769 44.7365062,36.2629231 44.3838382,36.3375385 C44.0304019,36.4136923 43.7276761,36.6236923 43.5317494,36.9283077 C39.4226683,43.3052308 32.4515216,47.1136923 24.8833749,47.1136923 C12.6567842,47.1136923 2.71062587,37.1544615 2.71062587,24.9129231 C2.71062587,12.6721538 12.6567842,2.71369231 24.8833749,2.71369231 C36.6896838,2.71369231 46.3715332,12.0013846 47.0207803,23.7075385 L45.8098768,21.6098462 C45.4341587,20.9636923 44.6051201,20.7413846 43.9589463,21.1136923 C43.3127726,21.4898462 43.0899541,22.3206154 43.4618305,22.9683077 L47.2374521,29.516 C47.4787108,29.9344615 47.9297263,30.196 48.4122436,30.196 C48.8955293,30.196 49.3457764,29.9344615 49.5862668,29.516 L53.3641934,22.9683077 C53.7360699,22.3206154 53.5140197,21.4898462 52.8678459,21.1152308" id="Fill-20" fill="#70AA8E"></path>
                        <path d="M85.2754185,3.76623077 L84.3134571,3.76623077 C83.8393915,3.76623077 83.4513799,4.01007692 83.2485382,4.43007692 L75.0795498,20.6485385 L66.9197815,4.44546154 C66.7115614,4.00776923 66.3304649,3.76623077 65.8479475,3.76623077 L64.8844494,3.76623077 C64.2528741,3.76623077 63.7926386,4.22623077 63.7926386,4.85853846 L63.7926386,27.7300769 C63.7926386,28.3746923 64.2421174,28.8246923 64.8844494,28.8246923 L65.4453375,28.8246923 C66.0876695,28.8246923 66.5371483,28.3746923 66.5371483,27.7300769 L66.5371483,9.65853846 L73.6850131,23.8462308 C73.8916965,24.2862308 74.2727931,24.5300769 74.7560788,24.5300769 L75.4037892,24.5300769 C75.8855382,24.5300769 76.2658664,24.2923846 76.4687081,23.8654615 L83.6227197,9.65853846 L83.6227197,27.7300769 C83.6227197,28.3746923 84.0721985,28.8246923 84.7145305,28.8246923 L85.2754185,28.8246923 C85.9177506,28.8246923 86.3672293,28.3746923 86.3672293,27.7300769 L86.3672293,4.85853846 C86.3672293,4.21623077 85.9177506,3.76623077 85.2754185,3.76623077" id="Fill-23" fill="#0F2D4F"></path>
                        <path d="M110.86436,4.29276923 C110.68841,3.95815385 110.347267,3.76584615 109.926217,3.76584615 L109.303093,3.76584615 C108.872823,3.76584615 108.515545,3.95815385 108.271213,4.32276923 L101.473711,14.5289231 L94.6762093,4.31738462 C94.4349506,3.96276923 94.0692208,3.76584615 93.6435606,3.76584615 L93.0189004,3.76584615 C92.5986185,3.76584615 92.258244,3.95815385 92.0853676,4.28969231 C91.9094178,4.61584615 91.9439931,5.01276923 92.1737266,5.34507692 L100.094541,17.2412308 L100.094541,27.732 C100.094541,28.3750769 100.544788,28.8250769 101.188657,28.8250769 L101.748777,28.8250769 C102.38112,28.8250769 102.842124,28.3643077 102.842124,27.732 L102.842124,17.2581538 L110.769086,5.352 C111.000356,5.01353846 111.0357,4.61815385 110.86436,4.29276923" id="Fill-25" fill="#0F2D4F"></path>
                        <path d="M135.867673,4.00130769 L121.653387,4.00130769 C121.110939,4.00130769 120.718317,4.39592308 120.718317,4.93823077 L120.718317,5.40361538 C120.718317,5.94746154 121.110939,6.34207692 121.653387,6.34207692 L127.548858,6.34207692 L127.548858,27.6528462 C127.548858,28.1951538 127.940711,28.5897692 128.481622,28.5897692 L129.037132,28.5897692 C129.578812,28.5897692 129.972202,28.1951538 129.972202,27.6528462 L129.972202,6.34207692 L135.867673,6.34207692 C136.407815,6.34207692 136.799669,5.94746154 136.799669,5.40361538 L136.799669,4.93823077 C136.799669,4.39592308 136.407815,4.00130769 135.867673,4.00130769" id="Fill-27" fill="#70AA8E"></path>
                        <path d="M144.476997,4.00130769 L143.937622,4.00130769 C143.408236,4.00130769 143.024834,4.39592308 143.024834,4.93823077 L143.024834,27.6528462 C143.024834,28.1951538 143.408236,28.5897692 143.937622,28.5897692 L144.476997,28.5897692 C145.004846,28.5897692 145.387479,28.1951538 145.387479,27.6528462 L145.387479,4.93823077 C145.387479,4.39592308 145.004846,4.00130769 144.476997,4.00130769" id="Fill-29" fill="#70AA8E"></path>
                        <path d="M175.002367,4.00130769 L174.048858,4.00130769 C173.631649,4.00130769 173.302031,4.20746154 173.123776,4.579 L164.885637,20.9474615 L156.654414,4.59053846 C156.472317,4.20976923 156.142699,4.00130769 155.723954,4.00130769 L154.767371,4.00130769 C154.224923,4.00130769 153.832302,4.39592308 153.832302,4.93823077 L153.832302,27.6528462 C153.832302,28.2051538 154.21724,28.5897692 154.767371,28.5897692 L155.324417,28.5897692 C155.87378,28.5897692 156.258719,28.2051538 156.258719,27.6528462 L156.258719,9.08053846 L163.632475,23.7313077 C163.81534,24.1143846 164.145726,24.3259231 164.563703,24.3259231 L165.206803,24.3259231 C165.625549,24.3259231 165.954398,24.1182308 166.130348,23.7466923 L173.51102,9.08130769 L173.51102,27.6528462 C173.51102,28.2051538 173.896726,28.5897692 174.447626,28.5897692 L175.002367,28.5897692 C175.553267,28.5897692 175.938205,28.2051538 175.938205,27.6528462 L175.938205,4.93823077 C175.938205,4.38592308 175.553267,4.00130769 175.002367,4.00130769" id="Fill-31" fill="#70AA8E"></path>
                        <path d="M197.299587,26.2474615 L186.804066,26.2474615 L186.804066,17.3666923 L196.299977,17.3666923 C196.841657,17.3666923 197.235047,16.9713077 197.235047,16.429 L197.235047,15.9620769 C197.235047,15.4197692 196.841657,15.0243846 196.299977,15.0243846 L186.804066,15.0243846 L186.804066,6.34207692 L197.132858,6.34207692 C197.673769,6.34207692 198.065622,5.94746154 198.065622,5.40361538 L198.065622,4.93669231 C198.065622,4.39438462 197.673769,4.00130769 197.132858,4.00130769 L185.315024,4.00130769 C184.774112,4.00130769 184.381491,4.39438462 184.381491,4.93669231 L184.381491,27.6520769 C184.381491,28.1951538 184.774112,28.5897692 185.315024,28.5897692 L197.299587,28.5897692 C197.840498,28.5897692 198.23312,28.1951538 198.23312,27.6520769 L198.23312,27.1859231 C198.23312,26.6420769 197.840498,26.2474615 197.299587,26.2474615" id="Fill-33" fill="#70AA8E"></path>
                    </g>
                </g>
            </g>
        </g>
    </g>
</svg>
