<?xml version="1.0" encoding="UTF-8"?>
<svg width="258px" height="65px" viewBox="0 0 258 65" version="1.1" xmlns="http://www.w3.org/2000/svg" xmlns:xlink="http://www.w3.org/1999/xlink">
    <!-- Generator: Sketch 54.1 (76490) - https://sketchapp.com -->
    <title>My Time</title>
    <desc>Created with Sketch.</desc>
    <g id="Symbols" stroke="none" stroke-width="1" fill="none" fill-rule="evenodd">
        <g id="Logos/MyTimeHorz/White" fill="#FFFFFF">
            <g id="My-Time">
                <polygon id="Fill-1" points="83.0276 62.6705 83.0276 49.5775 85.5296 49.5775 85.5296 54.8015 89.0676 54.8015 89.0676 49.5775 91.5686 49.5775 91.5686 62.6705 89.0676 62.6705 89.0676 57.0125 85.5296 57.0125 85.5296 62.6705"></polygon>
                <path d="M97.3787,53.7838 C97.3787,50.5578 99.0847,49.3968 101.5147,49.3968 C103.9437,49.3968 105.6487,50.5578 105.6487,53.7838 L105.6487,58.4638 C105.6487,61.6928 103.9437,62.8528 101.5147,62.8528 C99.0847,62.8528 97.3787,61.6928 97.3787,58.4638 L97.3787,53.7838 Z M99.8827,58.7908 C99.8827,60.2408 100.5177,60.6388 101.5147,60.6388 C102.5117,60.6388 103.1467,60.2408 103.1467,58.7908 L103.1467,53.4588 C103.1467,52.0078 102.5117,51.6078 101.5147,51.6078 C100.5177,51.6078 99.8827,52.0078 99.8827,53.4588 L99.8827,58.7908 Z" id="Fill-2"></path>
                <polygon id="Fill-4" points="111.4607 62.6705 111.4607 49.5775 114.9607 49.5775 117.2267 58.1745 117.2647 58.1745 119.5307 49.5775 123.0307 49.5775 123.0307 62.6705 120.8927 62.6705 120.8927 52.3705 120.8547 52.3705 118.1897 62.6705 116.3017 62.6705 113.6367 52.3705 113.5987 52.3705 113.5987 62.6705"></polygon>
                <polygon id="Fill-6" points="129.0603 62.6705 129.0603 49.5775 135.9153 49.5775 135.9153 51.7905 131.5643 51.7905 131.5643 54.8015 134.8823 54.8015 134.8823 57.0125 131.5643 57.0125 131.5643 60.4595 136.0973 60.4595 136.0973 62.6705"></polygon>
                <polygon id="Fill-8" points="158.0164 49.5777 158.0164 51.7907 155.0964 51.7907 155.0964 62.6717 152.5944 62.6717 152.5944 51.7907 149.6744 51.7907 149.6744 49.5777"></polygon>
                <path d="M162.9197,53.7838 C162.9197,50.5578 164.6247,49.3968 167.0537,49.3968 C169.4837,49.3968 171.1897,50.5578 171.1897,53.7838 L171.1897,58.4638 C171.1897,61.6928 169.4837,62.8528 167.0537,62.8528 C164.6247,62.8528 162.9197,61.6928 162.9197,58.4638 L162.9197,53.7838 Z M165.4217,58.7908 C165.4217,60.2408 166.0577,60.6388 167.0537,60.6388 C168.0507,60.6388 168.6857,60.2408 168.6857,58.7908 L168.6857,53.4588 C168.6857,52.0078 168.0507,51.6078 167.0537,51.6078 C166.0577,51.6078 165.4217,52.0078 165.4217,53.4588 L165.4217,58.7908 Z" id="Fill-10"></path>
                <path d="M179.5017,49.5777 L179.5017,58.7357 C179.5017,59.9877 180.0467,60.6397 181.2617,60.6397 C182.4767,60.6397 183.0387,59.9877 183.0387,58.7357 L183.0387,49.5777 L185.5427,49.5777 L185.5427,58.7547 C185.5427,61.6387 183.8377,62.8517 181.2617,62.8517 C178.6877,62.8517 176.9997,61.6387 176.9997,58.7547 L176.9997,49.5777 L179.5017,49.5777 Z" id="Fill-12"></path>
                <path d="M197.4466,62.6705 L195.2706,57.3395 L194.0716,57.3395 L194.0716,62.6705 L191.5716,62.6705 L191.5716,49.5775 L195.1976,49.5775 C198.2076,49.5775 199.6416,51.0285 199.6416,53.4955 C199.6416,55.1275 199.0616,56.3065 197.6636,56.8315 L200.1286,62.6705 L197.4466,62.6705 Z M194.0716,55.2735 L195.3616,55.2735 C196.4666,55.2735 197.1386,54.7295 197.1386,53.4585 C197.1386,52.1895 196.4666,51.6455 195.3616,51.6455 L194.0716,51.6455 L194.0716,55.2735 Z" id="Fill-14"></path>
                <path d="M210.8201,53.2223 C210.4031,51.9893 209.8571,51.4623 208.9881,51.4623 C208.1001,51.4623 207.6101,52.0063 207.6101,52.8973 C207.6101,54.8723 213.1941,55.0173 213.1941,59.1173 C213.1941,61.3643 211.6541,62.8543 209.0261,62.8543 C206.9921,62.8543 205.4151,61.7453 204.7441,59.1713 L207.2111,58.6443 C207.5021,60.2233 208.4081,60.7853 209.1511,60.7853 C210.0211,60.7853 210.6921,60.2043 210.6921,59.2263 C210.6921,56.7593 205.1071,56.7223 205.1071,53.0603 C205.1071,50.8113 206.4481,49.3963 209.0431,49.3963 C211.2731,49.3963 212.6331,50.7203 213.0691,52.5713 L210.8201,53.2223 Z" id="Fill-16"></path>
                <path d="M32.386,13.232 C31.413,13.232 30.623,14.023 30.623,14.997 L30.623,32.387 C30.623,33.359 31.413,34.152 32.386,34.152 L43.93,34.155 C44.903,34.155 45.695,33.365 45.695,32.391 C45.695,31.419 44.906,30.627 43.932,30.627 L34.151,30.623 L34.151,14.997 C34.151,14.023 33.358,13.232 32.386,13.232" id="Fill-18"></path>
                <path d="M68.8079,27.4498 C68.3999,27.2128 67.9219,27.1538 67.4719,27.2718 C67.0139,27.3928 66.6339,27.6848 66.3959,28.0958 L64.7409,30.9588 C63.9909,13.7608 49.7659,-0.0002 32.3859,-0.0002 C14.5279,-0.0002 -0.0001,14.5288 -0.0001,32.3868 C-0.0001,50.2468 14.5279,64.7748 32.3859,64.7748 C43.4399,64.7748 53.6209,59.2208 59.6219,49.9198 C59.8769,49.5228 59.9609,49.0528 59.8629,48.5918 C59.7639,48.1308 59.4909,47.7378 59.0949,47.4818 C58.6999,47.2278 58.2249,47.1418 57.7659,47.2388 C57.3059,47.3378 56.9119,47.6108 56.6569,48.0068 C51.3089,56.2968 42.2359,61.2478 32.3859,61.2478 C16.4729,61.2478 3.5279,48.3008 3.5279,32.3868 C3.5279,16.4738 16.4729,3.5278 32.3859,3.5278 C47.7519,3.5278 60.3529,15.6018 61.1979,30.8198 L59.6219,28.0928 C59.1329,27.2528 58.0539,26.9638 57.2129,27.4478 C56.3719,27.9368 56.0819,29.0168 56.5659,29.8588 L61.4799,38.3708 C61.7939,38.9148 62.3809,39.2548 63.0089,39.2548 C63.6379,39.2548 64.2239,38.9148 64.5369,38.3708 L69.4539,29.8588 C69.9379,29.0168 69.6489,27.9368 68.8079,27.4498" id="Fill-20"></path>
                <path d="M110.9866,4.8961 L109.7346,4.8961 C109.1176,4.8961 108.6126,5.2131 108.3486,5.7591 L97.7166,26.8431 L87.0966,5.7791 C86.8256,5.2101 86.3296,4.8961 85.7016,4.8961 L84.4476,4.8961 C83.6256,4.8961 83.0266,5.4941 83.0266,6.3161 L83.0266,36.0491 C83.0266,36.8871 83.6116,37.4721 84.4476,37.4721 L85.1776,37.4721 C86.0136,37.4721 86.5986,36.8871 86.5986,36.0491 L86.5986,12.5561 L95.9016,31.0001 C96.1706,31.5721 96.6666,31.8891 97.2956,31.8891 L98.1386,31.8891 C98.7656,31.8891 99.2606,31.5801 99.5246,31.0251 L108.8356,12.5561 L108.8356,36.0491 C108.8356,36.8871 109.4206,37.4721 110.2566,37.4721 L110.9866,37.4721 C111.8226,37.4721 112.4076,36.8871 112.4076,36.0491 L112.4076,6.3161 C112.4076,5.4811 111.8226,4.8961 110.9866,4.8961" id="Fill-23"></path>
                <path d="M144.2908,5.5806 C144.0618,5.1456 143.6178,4.8956 143.0698,4.8956 L142.2588,4.8956 C141.6988,4.8956 141.2338,5.1456 140.9158,5.6196 L132.0688,18.8876 L123.2218,5.6126 C122.9078,5.1516 122.4318,4.8956 121.8778,4.8956 L121.0648,4.8956 C120.5178,4.8956 120.0748,5.1456 119.8498,5.5766 C119.6208,6.0006 119.6658,6.5166 119.9648,6.9486 L130.2738,22.4136 L130.2738,36.0516 C130.2738,36.8876 130.8598,37.4726 131.6978,37.4726 L132.4268,37.4726 C133.2498,37.4726 133.8498,36.8736 133.8498,36.0516 L133.8498,22.4356 L144.1668,6.9576 C144.4678,6.5176 144.5138,6.0036 144.2908,5.5806" id="Fill-25"></path>
                <path d="M176.8328,5.2017 L158.3328,5.2017 C157.6268,5.2017 157.1158,5.7147 157.1158,6.4197 L157.1158,7.0247 C157.1158,7.7317 157.6268,8.2447 158.3328,8.2447 L166.0058,8.2447 L166.0058,35.9487 C166.0058,36.6537 166.5158,37.1667 167.2198,37.1667 L167.9428,37.1667 C168.6478,37.1667 169.1598,36.6537 169.1598,35.9487 L169.1598,8.2447 L176.8328,8.2447 C177.5358,8.2447 178.0458,7.7317 178.0458,7.0247 L178.0458,6.4197 C178.0458,5.7147 177.5358,5.2017 176.8328,5.2017" id="Fill-27"></path>
                <path d="M188.0379,5.2017 L187.3359,5.2017 C186.6469,5.2017 186.1479,5.7147 186.1479,6.4197 L186.1479,35.9487 C186.1479,36.6537 186.6469,37.1667 187.3359,37.1667 L188.0379,37.1667 C188.7249,37.1667 189.2229,36.6537 189.2229,35.9487 L189.2229,6.4197 C189.2229,5.7147 188.7249,5.2017 188.0379,5.2017" id="Fill-29"></path>
                <path d="M227.7669,5.2017 L226.5259,5.2017 C225.9829,5.2017 225.5539,5.4697 225.3219,5.9527 L214.5999,27.2317 L203.8869,5.9677 C203.6499,5.4727 203.2209,5.2017 202.6759,5.2017 L201.4309,5.2017 C200.7249,5.2017 200.2139,5.7147 200.2139,6.4197 L200.2139,35.9487 C200.2139,36.6667 200.7149,37.1667 201.4309,37.1667 L202.1559,37.1667 C202.8709,37.1667 203.3719,36.6667 203.3719,35.9487 L203.3719,11.8047 L212.9689,30.8507 C213.2069,31.3487 213.6369,31.6237 214.1809,31.6237 L215.0179,31.6237 C215.5629,31.6237 215.9909,31.3537 216.2199,30.8707 L225.8259,11.8057 L225.8259,35.9487 C225.8259,36.6667 226.3279,37.1667 227.0449,37.1667 L227.7669,37.1667 C228.4839,37.1667 228.9849,36.6667 228.9849,35.9487 L228.9849,6.4197 C228.9849,5.7017 228.4839,5.2017 227.7669,5.2017" id="Fill-31"></path>
                <path d="M256.7869,34.1217 L243.1269,34.1217 L243.1269,22.5767 L255.4859,22.5767 C256.1909,22.5767 256.7029,22.0627 256.7029,21.3577 L256.7029,20.7507 C256.7029,20.0457 256.1909,19.5317 255.4859,19.5317 L243.1269,19.5317 L243.1269,8.2447 L256.5699,8.2447 C257.2739,8.2447 257.7839,7.7317 257.7839,7.0247 L257.7839,6.4177 C257.7839,5.7127 257.2739,5.2017 256.5699,5.2017 L241.1889,5.2017 C240.4849,5.2017 239.9739,5.7127 239.9739,6.4177 L239.9739,35.9477 C239.9739,36.6537 240.4849,37.1667 241.1889,37.1667 L256.7869,37.1667 C257.4909,37.1667 258.0019,36.6537 258.0019,35.9477 L258.0019,35.3417 C258.0019,34.6347 257.4909,34.1217 256.7869,34.1217" id="Fill-33"></path>
            </g>
        </g>
    </g>
</svg>