<?xml version="1.0" encoding="UTF-8"?>
<svg width="234px" height="76px" viewBox="0 0 234 76" version="1.1" xmlns="http://www.w3.org/2000/svg" xmlns:xlink="http://www.w3.org/1999/xlink">
    <!-- Generator: Sketch 54.1 (76490) - https://sketchapp.com -->
    <title>Brookfield Logo</title>
    <desc>Created with Sketch.</desc>
    <g id="Symbols" stroke="none" stroke-width="1" fill="none" fill-rule="evenodd">
        <g id="Navigation/Desktop/Home" transform="translate(-12.000000, -42.000000)" fill="#FFFFFF">
            <g id="Nav">
                <g id="Main-Nav" transform="translate(20.000000, 50.000000)">
                    <g id="Logos/Brookfield/White">
                        <g id="Brookfield-Logo">
                            <path d="M-0.000233080295,0.438461538 L12.0943034,0.438461538 C15.376074,0.438461538 18.3408553,0.574615385 20.2474522,1.18384615 C24.1072618,2.40923077 25.6525842,5.44384615 25.6525842,8.37230769 C25.6525842,10.0453846 25.20507,11.0492308 25.0792067,11.3584615 C23.6574169,14.5153846 20.6460195,15.1315385 18.9631797,15.4823077 C20.8674457,15.7892308 23.3963669,16.1792308 25.1188303,18.1130769 C26.2259617,19.2969231 26.8506169,21.0115385 26.8506169,22.7630769 C26.8506169,25.1723077 25.5640137,28.5553846 21.6669112,30.2584615 C19.3128002,31.2715385 16.795533,31.4007692 13.2084272,31.4007692 L-0.000233080295,31.4007692 L-0.000233080295,0.438461538 Z M7.44202074,6.22846154 L7.44202074,12.6807692 L13.3366214,12.6807692 C15.1103625,12.6323077 17.9842425,12.54 17.9842425,9.34384615 C17.9842425,6.35307692 15.376074,6.22846154 13.8657137,6.22846154 L7.44202074,6.22846154 Z M7.44202074,18.2907692 L7.44202074,25.7861538 L12.8891072,25.7861538 C15.5042681,25.74 18.9212253,25.6569231 18.9212253,22.1030769 C18.9212253,18.3738462 15.8212574,18.3323077 14.2246573,18.2907692 L7.44202074,18.2907692 Z" id="Fill-1"></path>
                            <path d="M37.9116754,10.8793846 C39.4243665,9.60323077 41.0675826,8.59707692 44.6034107,8.24861538 L44.6034107,14.2093846 L42.351855,14.5601538 C39.0724153,15.1324615 38.0981396,15.6124615 38.0981396,18.5109231 L38.0981396,31.3993846 L31.268887,31.3993846 L31.268887,8.46323077 L37.9116754,8.46323077 L37.9116754,10.8793846 Z" id="Fill-4"></path>
                            <path d="M71.2326013,19.9096154 C71.2326013,25.7019231 67.8599294,32.0596154 58.828068,32.0596154 C52.3158046,32.0596154 46.3792494,28.3811538 46.3792494,19.9096154 C46.3792494,12.8896154 50.8543911,7.32115385 59.7114423,7.80807692 C69.1442019,8.32961538 71.2326013,15.7465385 71.2326013,19.9096154 M54.3972116,15.3980769 C53.5581225,16.7088462 53.2457949,18.2919231 53.2457949,19.8680769 C53.2457949,23.5073077 55.019536,26.7080769 58.828068,26.7080769 C62.5014135,26.7080769 64.3124473,23.7726923 64.3124473,20.1703846 C64.3124473,17.6273077 63.6971154,15.6542308 62.4175045,14.4288462 C60.9933839,13.1134615 59.4014455,13.0742308 58.4271699,13.155 C56.473957,13.2934615 55.327202,13.9488462 54.3972116,15.3980769" id="Fill-6"></path>
                            <path d="M98.9108863,19.9096154 C98.9108863,25.7019231 95.5475377,32.0596154 86.5110146,32.0596154 C80.0034128,32.0596154 74.0575345,28.3811538 74.0575345,19.9096154 C74.0575345,12.8896154 78.5373378,7.32115385 87.3967198,7.80807692 C96.8294793,8.32961538 98.9108863,15.7465385 98.9108863,19.9096154 M82.0801582,15.3980769 C81.2387384,16.7088462 80.9264108,18.2919231 80.9264108,19.8680769 C80.9264108,23.5073077 82.697821,26.7080769 86.5110146,26.7080769 C90.1843601,26.7080769 92.007048,23.7726923 92.007048,20.1703846 C92.007048,17.6273077 91.3870544,15.6542308 90.1004512,14.4288462 C88.6763306,13.1134615 87.0890538,13.0742308 86.1077857,13.155 C84.1615653,13.2934615 83.0148102,13.9488462 82.0801582,15.3980769" id="Fill-8"></path>
                            <polygon id="Fill-10" points="103.303984 0.436153846 103.303984 31.3984615 109.946772 31.3984615 109.946772 24.2469231 112.864937 21.5307692 118.799162 31.3984615 126.686599 31.3984615 117.694361 16.6661538 125.668038 8.50846154 117.470604 8.50846154 109.986396 16.3546154 109.986396 0.436153846"></polygon>
                            <path d="M130.269742,6.228 C130.269742,5.088 130.358313,3.55338462 131.246349,2.328 C132.09243,1.18338462 133.994365,-0.000461538461 137.180573,-0.000461538461 C138.553416,-0.000461538461 139.930921,0.221076923 141.252486,0.396461538 L141.252486,5.44107692 L139.618593,5.44107692 C137.045387,5.44107692 136.914862,5.96261538 136.956816,9.03415385 L141.527521,9.03415385 L141.527521,13.1556923 L137.008094,13.1556923 L137.008094,31.398 L130.225457,31.398 L130.225457,13.1556923 L126.598728,13.1556923 L126.598728,9.03415385 L130.269742,9.03415385 L130.269742,6.228 Z" id="Fill-12"></path>
                            <path d="M144.93632,5.60723077 L151.67234,5.60723077 L151.67234,0.391846154 L144.93632,0.391846154 L144.93632,5.60723077 Z M144.93632,31.4003077 L151.67234,31.4003077 L151.67234,8.46184615 L144.93632,8.46184615 L144.93632,31.4003077 Z" id="Fill-14"></path>
                            <path d="M179.38955,25.5639231 C178.594746,26.7500769 177.795281,27.8946923 176.60191,28.9908462 C174.609073,30.8300769 171.597676,32.2400769 167.880045,32.2400769 C161.01583,32.2400769 156.181745,27.8946923 156.181745,20.3946923 C156.181745,14.8677692 158.927431,7.76238462 168.054855,7.76238462 C169.427698,7.76238462 173.415702,7.89623077 176.382814,11.0485385 C179.38955,14.2493077 179.571353,18.7285385 179.655261,21.3108462 L163.13453,21.3108462 C163.094906,24.1677692 164.728799,27.0200769 168.402145,27.0200769 C172.129099,27.0200769 173.415702,24.6016154 174.250129,22.9816154 L179.38955,25.5639231 Z M172.620898,17.1062308 C172.48105,16.1416154 172.303909,14.8677692 171.334295,13.8616154 C170.488213,13.0239231 169.208603,12.5877692 168.008239,12.5877692 C166.372015,12.5877692 165.213606,13.3816154 164.558651,14.0739231 C163.62633,15.0823846 163.402572,16.1416154 163.178815,17.1062308 L172.620898,17.1062308 Z" id="Fill-16"></path>
                            <polygon id="Fill-17" points="183.599679 31.4003077 190.421939 31.4003077 190.421939 0.438 183.599679 0.438"></polygon>
                            <path d="M217.267429,0.438461538 L217.267429,31.4007692 L211.065162,31.4007692 L211.065162,29.2476923 C210.002316,30.3046154 208.223913,32.0169231 204.816279,32.0169231 C202.513446,32.0169231 200.117381,31.1376923 198.304016,29.3861538 C194.938336,26.1784615 194.938336,21.5792308 194.938336,20.0884615 C194.938336,11.4484615 199.900616,7.89230769 204.545906,7.89230769 C207.60625,7.89230769 209.421946,9.30230769 210.664264,10.2184615 L210.664264,0.438461538 L217.267429,0.438461538 Z M210.79712,19.9546154 C210.79712,18.9046154 210.79712,16.0546154 209.335706,14.2984615 C209.025709,13.9038462 208.053765,12.9346154 206.67626,12.9346154 C201.846836,12.9346154 201.846836,18.9438462 201.846836,19.9546154 C201.846836,23.1623077 202.730211,27.0646154 206.191453,27.0646154 C206.944302,27.0646154 207.739106,26.7992308 208.405716,26.3538462 C210.79712,24.7338462 210.79712,21.2307692 210.79712,19.9546154 L210.79712,19.9546154 Z" id="Fill-18"></path>
                            <path d="M71.5444627,38.0307692 L78.390031,38.0307692 C81.252257,38.0561538 83.1635154,38.0561538 85.049135,39.57 C86.3823543,40.6523077 87.4218924,42.3346154 87.4218924,44.8061538 C87.4218924,48.8723077 84.4128258,50.2892308 83.1891543,50.6492308 L87.9696311,59.2892308 L83.3709569,59.2892308 L79.1195723,51.4015385 L75.5301358,51.4015385 L75.5301358,59.2892308 L71.5444627,59.2892308 L71.5444627,38.0307692 Z M75.5301358,41.46 L75.5301358,48.1153846 L76.9332792,48.1153846 C78.2991297,48.1153846 78.8095755,48.09 79.5740789,48.0576923 C80.4574532,48.03 83.3429873,47.8776923 83.3429873,44.7784615 C83.3429873,44.3238462 83.3126868,42.7546154 81.6368395,41.9169231 C80.7954197,41.4969231 79.7605431,41.46 77.3854549,41.46 L75.5301358,41.46 Z" id="Fill-19"></path>
                            <path d="M104.692443,55.9153846 C102.806823,58.4146154 100.380458,59.7415385 97.2758281,59.7415385 C93.290155,59.7415385 89.4606458,57.2353846 89.4606458,51.7015385 C89.4606458,46.6430769 92.7424163,43.7792308 97.0357554,43.7792308 C101.049398,43.7792308 102.718253,46.1607692 103.018927,46.6107692 C104.268237,48.3530769 104.545602,50.9792308 104.573572,52.4792308 L93.3204555,52.4792308 C93.7423308,54.8630769 95.2363755,56.2223077 97.6440949,56.2223077 C100.133392,56.2223077 101.140299,54.7707692 101.594806,54.1384615 L104.692443,55.9153846 Z M100.56226,49.8323077 C100.224294,47.4853846 98.7628804,46.6753846 97.1546263,46.6753846 C95.2084059,46.6753846 93.8681942,47.7853846 93.4416572,49.8323077 L100.56226,49.8323077 Z" id="Fill-20"></path>
                            <path d="M108.887422,54.8358462 C109.81042,55.9435385 111.176271,56.7581538 113.276324,56.7581538 C115.371716,56.7581538 116.285391,55.7404615 116.285391,54.9835385 C116.285391,54.0189231 115.187583,53.7835385 114.705106,53.6866154 C114.183007,53.5666154 111.691378,53.1189231 111.143639,52.962 C107.523902,52.1196923 106.857293,50.0450769 106.857293,48.6904615 C106.857293,46.1289231 109.192757,43.782 113.367225,43.782 C115.67239,43.782 117.350568,44.502 118.378452,45.2243077 C119.142955,45.7066154 119.632424,46.2258462 119.933097,46.5835385 L117.350568,48.9604615 C116.926362,48.1481538 115.889154,46.6758462 113.211062,46.6758462 C111.479275,46.6758462 110.686802,47.4281538 110.686802,48.2058462 C110.686802,49.2950769 111.814911,49.5858462 113.761131,49.9204615 C116.926362,50.4927692 117.805074,50.6496923 118.77935,51.3996923 C119.711671,52.1196923 120.329334,53.3289231 120.329334,54.5958462 C120.329334,56.9358462 118.196649,59.7443077 113.483766,59.7443077 C110.780034,59.7443077 108.106603,58.8950769 106.186022,57.0650769 L108.887422,54.8358462 Z" id="Fill-21"></path>
                            <path d="M122.735422,41.8887692 L126.355159,41.8887692 L126.355159,38.2403077 L122.735422,38.2403077 L122.735422,41.8887692 Z M122.735422,59.2887692 L126.355159,59.2887692 L126.355159,44.2356923 L122.735422,44.2356923 L122.735422,59.2887692 Z" id="Fill-22"></path>
                            <path d="M143.594477,38.0307692 L143.594477,59.2892308 L139.97707,59.2892308 L139.97707,57.8469231 C138.848962,59.2015385 137.329278,59.7415385 135.753656,59.7415385 C132.129257,59.7415385 128.994327,57.0646154 128.994327,52.0915385 C128.994327,47.6053846 131.546556,43.7792308 135.898165,43.7792308 C137.39221,43.7792308 138.816331,44.2015385 139.97707,45.4707692 L139.97707,38.0307692 L143.594477,38.0307692 Z M139.126327,48.5123077 C138.576258,47.6953846 137.664914,47.1230769 136.452896,47.1230769 C133.989238,47.1230769 132.793536,49.32 132.793536,51.7015385 C132.793536,51.9738462 132.83549,56.4876923 136.392296,56.4876923 C138.270923,56.4876923 139.97707,55.1007692 139.949101,51.8492308 C139.921131,50.8823077 139.790606,49.5092308 139.126327,48.5123077 L139.126327,48.5123077 Z" id="Fill-23"></path>
                            <path d="M161.450991,55.9153846 C159.558379,58.4146154 157.132013,59.7415385 154.020391,59.7415385 C150.046372,59.7415385 146.212201,57.2353846 146.212201,51.7015385 C146.212201,46.6430769 149.493972,43.7792308 153.782649,43.7792308 C157.800954,43.7792308 159.472139,46.1607692 159.770482,46.6107692 C161.024454,48.3530769 161.297158,50.9792308 161.325128,52.4792308 L150.06735,52.4792308 C150.50321,54.8630769 151.987931,56.2223077 154.395651,56.2223077 C156.891941,56.2223077 157.889524,54.7707692 158.344031,54.1384615 L161.450991,55.9153846 Z M157.309154,49.8323077 C156.973519,47.4853846 155.519098,46.6753846 153.910844,46.6753846 C151.959962,46.6753846 150.624411,47.7853846 150.193213,49.8323077 L157.309154,49.8323077 Z" id="Fill-24"></path>
                            <path d="M163.727253,44.2373077 L167.40526,44.2373077 L167.40526,46.0073077 C167.589394,45.735 167.95533,45.2526923 168.596301,44.835 C169.505314,44.1773077 170.910788,43.7826923 172.092505,43.7826923 C173.826622,43.7826923 175.313675,44.565 176.078178,45.5873077 C177.019823,46.8542308 177.019823,48.4811538 177.019823,50.4403846 L177.019823,59.2857692 L173.400086,59.2857692 L173.400086,51.6080769 C173.400086,50.4957692 173.400086,49.7434615 173.283545,49.3188462 C172.94791,47.9965385 171.973634,47.3088462 170.782594,47.3088462 C169.600877,47.3088462 168.503069,47.9965385 167.987961,48.9934615 C167.40526,50.1080769 167.40526,51.6403846 167.40526,52.7480769 L167.40526,59.2857692 L163.727253,59.2857692 L163.727253,44.2373077 Z" id="Fill-25"></path>
                            <path d="M184.74084,46.8198462 L184.74084,53.6298462 C184.74084,55.4967692 184.74084,56.3067692 186.474958,56.3067692 C187.03202,56.3067692 187.481865,56.2790769 188.003965,56.1290769 L188.003965,59.166 C186.903826,59.346 186.178946,59.4106154 185.353842,59.4106154 C184.596331,59.4106154 182.03944,59.4106154 181.347191,57.5713846 C181.095465,56.9644615 181.095465,56.0044615 181.095465,54.5044615 L181.095465,46.8198462 L178.878871,46.8198462 L178.878871,44.2375385 L181.095465,44.2375385 L181.095465,38.9021538 L184.74084,38.9021538 L184.74084,44.2375385 L188.003965,44.2375385 L188.003965,46.8198462 L184.74084,46.8198462 Z" id="Fill-26"></path>
                            <path d="M190.855469,41.8887692 L194.479867,41.8887692 L194.479867,38.2403077 L190.855469,38.2403077 L190.855469,41.8887692 Z M190.855469,59.2887692 L194.479867,59.2887692 L194.479867,44.2356923 L190.855469,44.2356923 L190.855469,59.2887692 Z" id="Fill-27"></path>
                            <path d="M197.828998,48.6588462 C197.882607,47.9065385 197.945538,47.2788462 198.435007,46.3996154 C199.891759,43.7803846 203.509165,43.7803846 204.490433,43.7803846 C205.947185,43.7803846 207.70461,43.9603846 209.047153,44.7426923 C210.83954,45.8319231 210.872171,47.2419231 210.872171,48.8734615 L210.872171,56.8488462 C210.872171,57.9934615 210.872171,58.3834615 211.531789,59.2880769 L207.217472,59.2880769 C207.194164,58.9234615 207.131233,58.3257692 207.131233,58.1065385 C206.341091,58.7757692 204.728175,59.6457692 202.630452,59.6457692 C199.192518,59.6457692 197.122765,57.5411538 197.122765,54.9542308 C197.122765,54.1973077 197.304568,53.5073077 197.607572,52.9026923 C198.707711,50.7403846 201.043175,50.2534615 202.511581,49.9834615 C205.64418,49.3488462 205.881922,49.2934615 207.217472,48.8734615 C207.217472,48.1188462 207.161533,46.5842308 204.639604,46.5842308 C203.119921,46.5842308 202.297147,47.0619231 201.933542,47.5511538 C201.527982,48.0311538 201.560614,48.4488462 201.560614,48.8734615 L197.828998,48.6588462 Z M207.217472,51.7880769 C206.497254,52.1526923 205.669819,52.4273077 204.031265,52.6926923 C202.723684,52.8773077 200.984905,53.1773077 200.984905,54.7696154 C200.984905,55.9442308 201.987151,56.5465385 203.453226,56.5465385 C205.310876,56.5465385 206.618456,55.7111538 207.0077,54.8042308 C207.217472,54.3496154 207.217472,53.8973077 207.217472,53.4403846 L207.217472,51.7880769 Z" id="Fill-28"></path>
                            <polygon id="Fill-29" points="213.580798 59.2887692 217.261135 59.2887692 217.261135 38.028 213.580798 38.028"></polygon>
                        </g>
                    </g>
                </g>
            </g>
        </g>
    </g>
</svg>