<?xml version="1.0" encoding="UTF-8"?>
<svg width="181px" height="50px" viewBox="0 0 181 50" version="1.1" xmlns="http://www.w3.org/2000/svg" xmlns:xlink="http://www.w3.org/1999/xlink">
    <!-- Generator: Sketch 55.1 (78136) - https://sketchapp.com -->
    <title>Brookfield Logo</title>
    <desc>Created with Sketch.</desc>
    <g id="Symbols" stroke="none" stroke-width="1" fill="none" fill-rule="evenodd">
        <g id="Logos/Brookfield/White" fill="#FFFFFF">
            <g id="Brookfield-Logo">
                <path d="M-0.000193520795,0.365384615 L10.0416006,0.365384615 C12.7663734,0.365384615 15.2279579,0.478846154 16.810958,0.986538462 C20.0156624,2.00769231 21.2987052,4.53653846 21.2987052,6.97692308 C21.2987052,8.37115385 20.9271453,9.20769231 20.8226441,9.46538462 C19.6421672,12.0961538 17.1418785,12.6096154 15.7446584,12.9019231 C17.3257233,13.1576923 19.4254239,13.4826923 20.8555426,15.0942308 C21.7747664,16.0807692 22.2934021,17.5096154 22.2934021,18.9692308 C22.2934021,20.9769231 21.2251673,23.7961538 17.9894996,25.2153846 C16.0349396,26.0596154 13.944915,26.1673077 10.96663,26.1673077 L-0.000193520795,26.1673077 L-0.000193520795,0.365384615 Z M6.17892548,5.19038462 L6.17892548,10.5673077 L11.0730664,10.5673077 C12.5457596,10.5269231 14.9318711,10.45 14.9318711,7.78653846 C14.9318711,5.29423077 12.7663734,5.19038462 11.5123586,5.19038462 L6.17892548,5.19038462 Z M6.17892548,15.2423077 L6.17892548,21.4884615 L10.7015065,21.4884615 C12.8728098,21.45 15.7098247,21.3807692 15.7098247,18.4192308 C15.7098247,15.3115385 13.1359981,15.2769231 11.8103806,15.2423077 L6.17892548,15.2423077 Z" id="Fill-1"></path>
                <path d="M31.477125,9.06615385 C32.7330749,8.00269231 34.0973966,7.16423077 37.033107,6.87384615 L37.033107,11.8411538 L35.1636961,12.1334615 C32.4408585,12.6103846 31.6319416,13.0103846 31.6319416,15.4257692 L31.6319416,26.1661538 L25.9617823,26.1661538 L25.9617823,7.05269231 L31.477125,7.05269231 L31.477125,9.06615385 Z" id="Fill-4"></path>
                <path d="M59.1426644,16.5913462 C59.1426644,21.4182692 56.3424185,26.7163462 48.8434877,26.7163462 C43.4365166,26.7163462 38.507542,23.6509615 38.507542,16.5913462 C38.507542,10.7413462 42.2231412,6.10096154 49.5769315,6.50673077 C57.4087181,6.94134615 59.1426644,13.1221154 59.1426644,16.5913462 M45.1646573,12.8317308 C44.4679825,13.9240385 44.2086646,15.2432692 44.2086646,16.5567308 C44.2086646,19.5894231 45.6813579,22.2567308 48.8434877,22.2567308 C51.8933754,22.2567308 53.397032,19.8105769 53.397032,16.8086538 C53.397032,14.6894231 52.8861371,13.0451923 51.8237079,12.0240385 C50.6412958,10.9278846 49.3195488,10.8951923 48.5106319,10.9625 C46.8889276,11.0778846 45.9368053,11.6240385 45.1646573,12.8317308" id="Fill-6"></path>
                <path d="M82.1232588,16.5913462 C82.1232588,21.4182692 79.3307538,26.7163462 71.8279525,26.7163462 C66.4248519,26.7163462 61.4881364,23.6509615 61.4881364,16.5913462 C61.4881364,10.7413462 65.2076061,6.10096154 72.5633316,6.50673077 C80.3951181,6.94134615 82.1232588,13.1221154 82.1232588,16.5913462 M68.1491222,12.8317308 C67.4505121,13.9240385 67.1911943,15.2432692 67.1911943,16.5567308 C67.1911943,19.5894231 68.6619523,22.2567308 71.8279525,22.2567308 C74.8778403,22.2567308 76.3911729,19.8105769 76.3911729,16.8086538 C76.3911729,14.6894231 75.8764076,13.0451923 74.8081728,12.0240385 C73.6257607,10.9278846 72.3078841,10.8951923 71.4931616,10.9625 C69.8772629,11.0778846 68.9251406,11.6240385 68.1491222,12.8317308" id="Fill-8"></path>
                <polygon id="Fill-10" points="85.7707388 0.363461538 85.7707388 26.1653846 91.2860815 26.1653846 91.2860815 20.2057692 93.7089618 17.9423077 98.6360013 26.1653846 105.184745 26.1653846 97.7187127 13.8884615 104.339059 7.09038462 97.5329327 7.09038462 91.31898 13.6288462 91.31898 0.363461538"></polygon>
                <path d="M108.15974,5.19 C108.15974,4.24 108.233278,2.96115385 108.970592,1.94 C109.673073,0.986153846 111.252203,-0.000384615385 113.897632,-0.000384615385 C115.037469,-0.000384615385 116.181177,0.184230769 117.27844,0.330384615 L117.27844,4.53423077 L115.921859,4.53423077 C113.78539,4.53423077 113.677018,4.96884615 113.711852,7.52846154 L117.506795,7.52846154 L117.506795,10.9630769 L113.754426,10.9630769 L113.754426,26.165 L108.122971,26.165 L108.122971,10.9630769 L105.111788,10.9630769 L105.111788,7.52846154 L108.15974,7.52846154 L108.15974,5.19 Z" id="Fill-12"></path>
                <path d="M120.337036,4.67269231 L125.929787,4.67269231 L125.929787,0.326538462 L120.337036,0.326538462 L120.337036,4.67269231 Z M120.337036,26.1669231 L125.929787,26.1669231 L125.929787,7.05153846 L120.337036,7.05153846 L120.337036,26.1669231 Z" id="Fill-14"></path>
                <path d="M148.9427,21.3032692 C148.282794,22.2917308 147.619017,23.2455769 146.628191,24.1590385 C144.973588,25.6917308 142.473299,26.8667308 139.386643,26.8667308 C133.687455,26.8667308 129.673834,23.2455769 129.673834,16.9955769 C129.673834,12.3898077 131.953509,6.46865385 139.531783,6.46865385 C140.671621,6.46865385 143.982762,6.58019231 146.446281,9.20711538 C148.9427,11.8744231 149.093646,15.6071154 149.163313,17.7590385 L135.446559,17.7590385 C135.413661,20.1398077 136.770242,22.5167308 139.820129,22.5167308 C142.914527,22.5167308 143.982762,20.5013462 144.675566,19.1513462 L148.9427,21.3032692 Z M143.322856,14.2551923 C143.206743,13.4513462 143.059667,12.3898077 142.254621,11.5513462 C141.55214,10.8532692 140.489711,10.4898077 139.493079,10.4898077 C138.134563,10.4898077 137.172765,11.1513462 136.628971,11.7282692 C135.854888,12.5686538 135.669108,13.4513462 135.483328,14.2551923 L143.322856,14.2551923 Z" id="Fill-16"></path>
                <polygon id="Fill-17" points="152.438266 26.1669231 158.102619 26.1669231 158.102619 0.365 152.438266 0.365"></polygon>
                <path d="M180.391764,0.365384615 L180.391764,26.1673077 L175.242176,26.1673077 L175.242176,24.3730769 C174.359721,25.2538462 172.883157,26.6807692 170.053883,26.6807692 C168.141898,26.6807692 166.152504,25.9480769 164.646912,24.4884615 C161.852472,21.8153846 161.852472,17.9826923 161.852472,16.7403846 C161.852472,9.54038462 165.97253,6.57692308 169.829399,6.57692308 C172.370327,6.57692308 173.877854,7.75192308 174.90932,8.51538462 L174.90932,0.365384615 L180.391764,0.365384615 Z M175.019627,16.6288462 C175.019627,15.7538462 175.019627,13.3788462 173.806251,11.9153846 C173.548869,11.5865385 172.741887,10.7788462 171.598179,10.7788462 C167.588428,10.7788462 167.588428,15.7865385 167.588428,16.6288462 C167.588428,19.3019231 168.321872,22.5538462 171.195656,22.5538462 C171.820728,22.5538462 172.480634,22.3326923 173.034103,21.9615385 C175.019627,20.6115385 175.019627,17.6923077 175.019627,16.6288462 L175.019627,16.6288462 Z" id="Fill-18"></path>
                <path d="M59.4015952,31.6923077 L65.085301,31.6923077 C67.4617363,31.7134615 69.0486069,31.7134615 70.6141901,32.975 C71.721129,33.8769231 72.5842318,35.2788462 72.5842318,37.3384615 C72.5842318,40.7269231 70.0858783,41.9076923 69.0698942,42.2076923 L73.0390057,49.4076923 L69.2208404,49.4076923 L65.6910211,42.8346154 L62.7108008,42.8346154 L62.7108008,49.4076923 L59.4015952,49.4076923 L59.4015952,31.6923077 Z M62.7108008,34.55 L62.7108008,40.0961538 L63.875796,40.0961538 C65.0098279,40.0961538 65.4336384,40.075 66.0683866,40.0480769 C66.8018304,40.025 69.1976179,39.8980769 69.1976179,37.3153846 C69.1976179,36.9365385 69.1724602,35.6288462 67.7810457,34.9307692 C67.0824356,34.5807692 66.2232033,34.55 64.2512263,34.55 L62.7108008,34.55 Z" id="Fill-19"></path>
                <path d="M86.9235422,46.5961538 C85.3579589,48.6788462 83.3434075,49.7846154 80.7657105,49.7846154 C77.4565049,49.7846154 74.2769582,47.6961538 74.2769582,43.0846154 C74.2769582,38.8692308 77.001731,36.4826923 80.566384,36.4826923 C83.8988121,36.4826923 85.284421,38.4673077 85.5340629,38.8423077 C86.5713343,40.2942308 86.8016241,42.4826923 86.8248466,43.7326923 L77.4816626,43.7326923 C77.8319352,45.7192308 79.0724035,46.8519231 81.0714733,46.8519231 C83.1382754,46.8519231 83.9742853,45.6423077 84.3516508,45.1153846 L86.9235422,46.5961538 Z M83.4943537,41.5269231 C83.2137485,39.5711538 82.0003731,38.8961538 80.6650797,38.8961538 C79.049181,38.8961538 77.9364364,39.8211538 77.5822934,41.5269231 L83.4943537,41.5269231 Z" id="Fill-20"></path>
                <path d="M90.4065295,45.6965385 C91.1728718,46.6196154 92.3069037,47.2984615 94.050526,47.2984615 C95.790278,47.2984615 96.5488795,46.4503846 96.5488795,45.8196154 C96.5488795,45.0157692 95.6373966,44.8196154 95.2368085,44.7388462 C94.8033219,44.6388462 92.7345846,44.2657692 92.2798108,44.135 C89.2744328,43.4330769 88.7209633,41.7042308 88.7209633,40.5753846 C88.7209633,38.4407692 90.6600417,36.485 94.1259991,36.485 C96.0399198,36.485 97.4332695,37.085 98.2866962,37.6869231 C98.9214445,38.0888462 99.3278381,38.5215385 99.57748,38.8196154 L97.4332695,40.8003846 C97.0810617,40.1234615 96.2198942,38.8965385 93.9963402,38.8965385 C92.5584807,38.8965385 91.90051,39.5234615 91.90051,40.1715385 C91.90051,41.0792308 92.8371506,41.3215385 94.4530493,41.6003846 C97.0810617,42.0773077 97.8106351,42.2080769 98.619552,42.8330769 C99.3936352,43.4330769 99.9064653,44.4407692 99.9064653,45.4965385 C99.9064653,47.4465385 98.13575,49.7869231 94.2227595,49.7869231 C91.9779183,49.7869231 89.7582348,49.0792308 88.1636234,47.5542308 L90.4065295,45.6965385 Z" id="Fill-21"></path>
                <path d="M101.90418,34.9073077 L104.909558,34.9073077 L104.909558,31.8669231 L101.90418,31.8669231 L101.90418,34.9073077 Z M101.90418,49.4073077 L104.909558,49.4073077 L104.909558,36.8630769 L101.90418,36.8630769 L101.90418,49.4073077 Z" id="Fill-22"></path>
                <path d="M119.222937,31.6923077 L119.222937,49.4076923 L116.219494,49.4076923 L116.219494,48.2057692 C115.282854,49.3346154 114.021098,49.7846154 112.712897,49.7846154 C109.703649,49.7846154 107.100794,47.5538462 107.100794,43.4096154 C107.100794,39.6711538 109.219847,36.4826923 112.83288,36.4826923 C114.073349,36.4826923 115.255761,36.8346154 116.219494,37.8923077 L116.219494,31.6923077 L119.222937,31.6923077 Z M115.513143,40.4269231 C115.056434,39.7461538 114.299768,39.2692308 113.29346,39.2692308 C111.247945,39.2692308 110.255183,41.1 110.255183,43.0846154 C110.255183,43.3115385 110.290017,47.0730769 113.243144,47.0730769 C114.802922,47.0730769 116.219494,45.9173077 116.196272,43.2076923 C116.173049,42.4019231 116.064678,41.2576923 115.513143,40.4269231 L115.513143,40.4269231 Z" id="Fill-23"></path>
                <path d="M134.048759,46.5961538 C132.47737,48.6788462 130.462818,49.7846154 127.879316,49.7846154 C124.579786,49.7846154 121.396369,47.6961538 121.396369,43.0846154 C121.396369,38.8692308 124.121142,36.4826923 127.681925,36.4826923 C131.018223,36.4826923 132.405767,38.4673077 132.653474,38.8423077 C133.694616,40.2942308 133.921035,42.4826923 133.944257,43.7326923 L124.597203,43.7326923 C124.959087,45.7192308 126.191814,46.8519231 128.190884,46.8519231 C130.263492,46.8519231 131.091761,45.6423077 131.469126,45.1153846 L134.048759,46.5961538 Z M130.609894,41.5269231 C130.331224,39.5711538 129.123654,38.8961538 127.788361,38.8961538 C126.168592,38.8961538 125.059718,39.8211538 124.701704,41.5269231 L130.609894,41.5269231 Z" id="Fill-24"></path>
                <path d="M135.938683,36.8644231 L138.992441,36.8644231 L138.992441,38.3394231 C139.145322,38.1125 139.44915,37.7105769 139.981332,37.3625 C140.736063,36.8144231 141.902994,36.4855769 142.884144,36.4855769 C144.323939,36.4855769 145.558602,37.1375 146.19335,37.9894231 C146.975174,39.0451923 146.975174,40.4009615 146.975174,42.0336538 L146.975174,49.4048077 L143.969796,49.4048077 L143.969796,43.0067308 C143.969796,42.0798077 143.969796,41.4528846 143.873035,41.0990385 C143.594365,39.9971154 142.785449,39.4240385 141.796557,39.4240385 C140.815407,39.4240385 139.903924,39.9971154 139.476243,40.8278846 C138.992441,41.7567308 138.992441,43.0336538 138.992441,43.9567308 L138.992441,49.4048077 L135.938683,49.4048077 L135.938683,36.8644231 Z" id="Fill-25"></path>
                <path d="M153.385744,39.0165385 L153.385744,44.6915385 C153.385744,46.2473077 153.385744,46.9223077 154.825538,46.9223077 C155.288053,46.9223077 155.661548,46.8992308 156.095035,46.7742308 L156.095035,49.305 C155.181617,49.455 154.579767,49.5088462 153.894703,49.5088462 C153.265761,49.5088462 151.142838,49.5088462 150.568081,47.9761538 C150.359078,47.4703846 150.359078,46.6703846 150.359078,45.4203846 L150.359078,39.0165385 L148.518696,39.0165385 L148.518696,36.8646154 L150.359078,36.8646154 L150.359078,32.4184615 L153.385744,32.4184615 L153.385744,36.8646154 L156.095035,36.8646154 L156.095035,39.0165385 L153.385744,39.0165385 Z" id="Fill-26"></path>
                <path d="M158.462568,34.9073077 L161.471817,34.9073077 L161.471817,31.8669231 L158.462568,31.8669231 L158.462568,34.9073077 Z M158.462568,49.4073077 L161.471817,49.4073077 L161.471817,36.8630769 L158.462568,36.8630769 L158.462568,49.4073077 Z" id="Fill-27"></path>
                <path d="M164.252517,40.5490385 C164.297027,39.9221154 164.349277,39.3990385 164.755671,38.6663462 C165.965176,36.4836538 168.968619,36.4836538 169.783341,36.4836538 C170.992846,36.4836538 172.451993,36.6336538 173.566673,37.2855769 C175.054848,38.1932692 175.081941,39.3682692 175.081941,40.7278846 L175.081941,47.3740385 C175.081941,48.3278846 175.081941,48.6528846 175.629604,49.4067308 L172.047534,49.4067308 C172.028182,49.1028846 171.975932,48.6048077 171.975932,48.4221154 C171.319896,48.9798077 169.980732,49.7048077 168.239045,49.7048077 C165.384613,49.7048077 163.666149,47.9509615 163.666149,45.7951923 C163.666149,45.1644231 163.817095,44.5894231 164.068672,44.0855769 C164.98209,42.2836538 166.921169,41.8778846 168.14035,41.6528846 C170.741269,41.1240385 170.93866,41.0778846 172.047534,40.7278846 C172.047534,40.0990385 172.001089,38.8201923 169.907194,38.8201923 C168.645439,38.8201923 167.96231,39.2182692 167.660418,39.6259615 C167.323692,40.0259615 167.350785,40.3740385 167.350785,40.7278846 L164.252517,40.5490385 Z M172.047534,43.1567308 C171.449555,43.4605769 170.762556,43.6894231 169.402105,43.9105769 C168.316454,44.0644231 166.872788,44.3144231 166.872788,45.6413462 C166.872788,46.6201923 167.704928,47.1221154 168.922174,47.1221154 C170.464534,47.1221154 171.550186,46.4259615 171.873366,45.6701923 C172.047534,45.2913462 172.047534,44.9144231 172.047534,44.5336538 L172.047534,43.1567308 Z" id="Fill-28"></path>
                <polygon id="Fill-29" points="177.330846 49.4073077 180.386539 49.4073077 180.386539 31.69 177.330846 31.69"></polygon>
            </g>
        </g>
    </g>
</svg>