<?xml version="1.0" encoding="UTF-8"?>
<svg width="56px" height="50px" viewBox="0 0 56 50" version="1.1" xmlns="http://www.w3.org/2000/svg" xmlns:xlink="http://www.w3.org/1999/xlink">
    <!-- Generator: Sketch 54.1 (76490) - https://sketchapp.com -->
    <title>Heart</title>
    <desc>Created with Sketch.</desc>
    <g id="Desktop" stroke="none" stroke-width="1" fill="none" fill-rule="evenodd">
        <g id="My-Account---My-Favs---Communities" transform="translate(-177.000000, -141.000000)" fill="#6295BA">
            <g id="my-accounts-nav" transform="translate(146.000000, 140.000000)">
                <g id="my-favorites" transform="translate(0.000000, 1.000000)">
                    <g id="Heart" transform="translate(31.000000, 0.000000)">
                        <path d="M14.7615063,3.11004785 C8.31799163,3.11004785 3.0460251,8.49282297 3.0460251,15.0717703 C3.0460251,23.8038278 8.43514644,29.5454545 28,45.9330144 C47.5648536,29.5454545 52.9539749,23.8038278 52.9539749,15.0717703 C52.9539749,8.49282297 47.6820084,3.11004785 41.2384937,3.11004785 C35.3807531,3.11004785 32.2164017,6.69856459 29.7573222,9.56937799 L28,11.6028708 L26.2426778,9.56937799 C23.7824268,6.69856459 20.6192469,3.11004785 14.7615063,3.11004785 L14.7615063,3.11004785 Z M28,50 L27.0627615,49.1626794 C5.74058577,31.4593301 0,25.2392344 0,15.0717703 C0,6.69856459 6.67782427,0 14.7615063,0 C21.5564854,0 25.4225941,3.94736842 28,6.93779904 C30.5774059,3.94736842 34.4435146,0 41.2384937,0 C49.4393305,0 56,6.81818182 56,15.0717703 C56,25.2392344 50.2594142,31.4593301 28.9372385,49.1626794 L28,50 Z" id="Fill-1"></path>
                    </g>
                </g>
            </g>
        </g>
    </g>
</svg>