
<svg width="32px" height="33px" viewBox="0 0 32 33" version="1.1" xmlns="http://www.w3.org/2000/svg" xmlns:xlink="http://www.w3.org/1999/xlink">
    <defs>
        <filter x="-1.7%" y="-3.1%" width="103.4%" height="106.2%" filterUnits="objectBoundingBox" id="filter-1">
            <feOffset dx="0" dy="0" in="SourceAlpha" result="shadowOffsetOuter1"></feOffset>
            <feGaussianBlur stdDeviation="2" in="shadowOffsetOuter1" result="shadowBlurOuter1"></feGaussianBlur>
            <feColorMatrix values="0 0 0 0 0   0 0 0 0 0   0 0 0 0 0  0 0 0 0.2 0" type="matrix" in="shadowBlurOuter1" result="shadowMatrixOuter1"></feColorMatrix>
            <feMerge>
                <feMergeNode in="shadowMatrixOuter1"></feMergeNode>
                <feMergeNode in="SourceGraphic"></feMergeNode>
            </feMerge>
        </filter>
    </defs>
    <g id="Symbols" stroke="none" stroke-width="1" fill="none" fill-rule="evenodd">
        <g id="Listings/DesktopCom/wMIN" transform="translate(-347.000000, -130.000000)" fill="#6295BA" stroke="#6295BA">
            <g id="Community-Listing" filter="url(#filter-1)">
                <g id="Baths-Copy" transform="translate(352.000000, 130.000000)">
                    <g id="Icons/Bath" transform="translate(0.000000, 5.000000)">
                        <g id="Group-14">
                            <path d="M21.0648172,18.08992 C20.8512347,19.5592533 19.3973559,20.7997867 17.8892684,20.7997867 L4.87916734,20.7997867 C3.37053771,20.7997867 1.91665892,19.5592533 1.70307643,18.08992 L1.16749394,14.3997867 L21.6003997,14.3997867 L21.0648172,18.08992 Z M14.5440461,4.79978667 L11.4769148,4.79978667 C11.700797,4.17898667 12.3035983,3.73312 13.0104805,3.73312 C13.7168205,3.73312 14.320164,4.17898667 14.5440461,4.79978667 L14.5440461,4.79978667 Z M22.6352448,13.51712 C22.5322481,13.40032 22.3831741,13.33312 22.2259687,13.33312 L21.6838811,13.33312 L21.6838811,4.79978667 C21.6838811,2.15338667 19.4949316,-0.000213333333 16.8050933,-0.000213333333 C15.0622818,-0.000213333333 13.4403559,0.924053333 12.5713896,2.41205333 L12.375696,2.74805333 C11.1874401,3.03125333 10.3000428,4.07872 10.3000428,5.33312 C10.3000428,5.62805333 10.5423559,5.86645333 10.8421303,5.86645333 L15.1788306,5.86645333 C15.478063,5.86645333 15.7209182,5.62805333 15.7209182,5.33312 C15.7209182,4.07872 14.8324367,3.03072 13.6447229,2.74752 C14.3440158,1.70858667 15.5301034,1.06645333 16.8050933,1.06645333 C18.8970091,1.06645333 20.5997061,2.74165333 20.5997061,4.79978667 L20.5997061,13.33312 L0.542467003,13.33312 C0.385261616,13.33312 0.235645455,13.40032 0.132648822,13.51712 C0.0296521886,13.6344533 -0.0169673401,13.78912 0.00525824916,13.9421867 L0.629743098,18.2408533 C0.836278451,19.6616533 1.86028182,20.89152 3.17213367,21.48512 L2.73846364,22.7645867 C2.6441404,23.0440533 2.79755118,23.34592 3.08106296,23.4392533 C3.13852424,23.45792 3.19598552,23.4669867 3.25290471,23.4669867 C3.48003939,23.4669867 3.69091145,23.32512 3.7668037,23.1016533 L4.20589461,21.8056533 C4.42760842,21.84352 4.65203266,21.8664533 4.87916734,21.8664533 L17.8892684,21.8664533 C18.116403,21.8664533 18.3408273,21.84352 18.561999,21.8056533 L19.0010899,23.1016533 C19.0769822,23.32512 19.2883963,23.4669867 19.515531,23.4669867 C19.5719081,23.4669867 19.6299114,23.45792 19.6868306,23.4392533 C19.9703424,23.34592 20.1242953,23.0440533 20.02943,22.7645867 L19.5957599,21.48512 C20.9076118,20.89152 21.9321572,19.6616533 22.1381505,18.2408533 L22.7626354,13.9421867 C22.7848609,13.78912 22.7382414,13.6344533 22.6352448,13.51712 L22.6352448,13.51712 Z" id="Fill-1" stroke-width="0.5"></path>
                        </g>
                    </g>
                </g>
            </g>
        </g>
    </g>
</svg>
