<?xml version="1.0" encoding="UTF-8"?>
<svg width="34px" height="36px" viewBox="0 0 34 36" version="1.1" xmlns="http://www.w3.org/2000/svg" xmlns:xlink="http://www.w3.org/1999/xlink">
    <!-- Generator: Sketch 54.1 (76490) - https://sketchapp.com -->
    <title>Group 14</title>
    <desc>Created with Sketch.</desc>
    <g id="Symbols" stroke="none" stroke-width="1" fill="none" fill-rule="evenodd">
        <g id="Icons/Bath" transform="translate(1.000000, 1.000000)" fill="#6295BA" stroke="#6295BA" stroke-width="0.5">
            <g id="Group-14">
                <path d="M30.2234333,26.3811333 C29.9169889,28.5239111 27.8309889,30.3330222 25.6672111,30.3330222 L7.00054444,30.3330222 C4.83598889,30.3330222 2.74998889,28.5239111 2.44354444,26.3811333 L1.6751,20.9996889 L30.9918778,20.9996889 L30.2234333,26.3811333 Z M20.8675444,6.99968889 L16.4668778,6.99968889 C16.7881,6.09435556 17.6529889,5.44413333 18.6672111,5.44413333 C19.6806556,5.44413333 20.5463222,6.09435556 20.8675444,6.99968889 L20.8675444,6.99968889 Z M32.4766556,19.7124667 C32.3288778,19.5421333 32.1149889,19.4441333 31.8894333,19.4441333 L31.1116556,19.4441333 L31.1116556,6.99968889 C31.1116556,3.14035556 27.9709889,-0.000311111111 24.1116556,-0.000311111111 C21.6111,-0.000311111111 19.2839889,1.34757778 18.0372111,3.51757778 L17.7564333,4.00757778 C16.0515444,4.42057778 14.7783222,5.94813333 14.7783222,7.77746667 C14.7783222,8.20757778 15.1259889,8.55524444 15.5561,8.55524444 L21.7783222,8.55524444 C22.2076556,8.55524444 22.5561,8.20757778 22.5561,7.77746667 C22.5561,5.94813333 21.2813222,4.4198 19.5772111,4.0068 C20.5805444,2.49168889 22.2823222,1.55524444 24.1116556,1.55524444 C27.1131,1.55524444 29.5561,3.99824444 29.5561,6.99968889 L29.5561,19.4441333 L0.778322222,19.4441333 C0.552766667,19.4441333 0.3381,19.5421333 0.190322222,19.7124667 C0.0425444444,19.8835778 -0.0243444444,20.1091333 0.00754444444,20.3323556 L0.903544444,26.6012444 C1.19987778,28.6732444 2.6691,30.4668 4.55132222,31.3324667 L3.9291,33.1983556 C3.79376667,33.6059111 4.01387778,34.0461333 4.42065556,34.1822444 C4.5031,34.2094667 4.58554444,34.2226889 4.66721111,34.2226889 C4.9931,34.2226889 5.29565556,34.0158 5.40454444,33.6899111 L6.03454444,31.7999111 C6.35265556,31.8551333 6.67465556,31.8885778 7.00054444,31.8885778 L25.6672111,31.8885778 C25.9931,31.8885778 26.3151,31.8551333 26.6324333,31.7999111 L27.2624333,33.6899111 C27.3713222,34.0158 27.6746556,34.2226889 28.0005444,34.2226889 C28.0814333,34.2226889 28.1646556,34.2094667 28.2463222,34.1822444 C28.6531,34.0461333 28.8739889,33.6059111 28.7378778,33.1983556 L28.1156556,31.3324667 C29.9978778,30.4668 31.4678778,28.6732444 31.7634333,26.6012444 L32.6594333,20.3323556 C32.6913222,20.1091333 32.6244333,19.8835778 32.4766556,19.7124667 L32.4766556,19.7124667 Z" id="Fill-1"></path>
            </g>
        </g>
    </g>
</svg>