<?xml version="1.0" encoding="UTF-8"?>
<svg width="50px" height="35px" viewBox="0 0 50 35" version="1.1" xmlns="http://www.w3.org/2000/svg" xmlns:xlink="http://www.w3.org/1999/xlink">
    <!-- Generator: Sketch 54.1 (76490) - https://sketchapp.com -->
    <title>Bed</title>
    <desc>Created with Sketch.</desc>
    <g id="Symbols" stroke="none" stroke-width="1" fill="none" fill-rule="evenodd">
        <g id="Icons/Bed" fill="#6295BA">
            <g id="Bed">
                <path d="M47.826087,32.8125 L46.323913,32.8125 L44.451087,29.0423437 C44.2673913,28.6715625 43.8902174,28.4375 43.4782609,28.4375 L6.52173913,28.4375 C6.10978261,28.4375 5.73369565,28.6715625 5.54891304,29.0423437 L3.67608696,32.8125 L2.17391304,32.8125 L2.17391304,25.15625 L47.826087,25.15625 L47.826087,32.8125 Z M8.15217391,16.40625 L9.7826087,16.40625 L9.7826087,17.5 C9.7826087,18.10375 10.2695652,18.59375 10.8695652,18.59375 L22.826087,18.59375 C23.4271739,18.59375 23.9130435,18.10375 23.9130435,17.5 L23.9130435,16.40625 L26.0869565,16.40625 L26.0869565,17.5 C26.0869565,18.10375 26.573913,18.59375 27.173913,18.59375 L39.1304348,18.59375 C39.7315217,18.59375 40.2173913,18.10375 40.2173913,17.5 L40.2173913,16.40625 L41.8478261,16.40625 L46.7391304,22.96875 L3.26086957,22.96875 L8.15217391,16.40625 Z M11.9565217,16.40625 L21.7391304,16.40625 L21.7391304,8.75 L11.9565217,8.75 L11.9565217,16.40625 Z M28.2608696,16.40625 L38.0434783,16.40625 L38.0434783,8.75 L28.2608696,8.75 L28.2608696,16.40625 Z M8.69565217,3.28125 C8.69565217,2.67859375 9.18369565,2.1875 9.7826087,2.1875 L22.826087,2.1875 L40.2173913,2.1875 C40.8173913,2.1875 41.3043478,2.67859375 41.3043478,3.28125 L41.3043478,14.21875 L40.2173913,14.21875 L40.2173913,7.65625 C40.2173913,7.0525 39.7315217,6.5625 39.1304348,6.5625 L27.173913,6.5625 C26.573913,6.5625 26.0869565,7.0525 26.0869565,7.65625 L26.0869565,14.21875 L23.9130435,14.21875 L23.9130435,7.65625 C23.9130435,7.0525 23.4271739,6.5625 22.826087,6.5625 L10.8695652,6.5625 C10.2695652,6.5625 9.7826087,7.0525 9.7826087,7.65625 L9.7826087,14.21875 L8.69565217,14.21875 L8.69565217,3.28125 Z M49.976087,23.9378125 C49.9673913,23.8634375 49.9554348,23.7923437 49.9315217,23.7201562 C49.9076087,23.6479687 49.875,23.5834375 49.8369565,23.5189062 C49.8152174,23.4828125 49.8086957,23.44125 49.7826087,23.4051562 L43.4782609,14.9482812 L43.4782609,3.28125 C43.4782609,1.4721875 42.0152174,0 40.2173913,0 L27.173913,0 L9.7826087,0 C7.98478261,0 6.52173913,1.4721875 6.52173913,3.28125 L6.52173913,14.9482812 L0.217391304,23.4051562 C0.192391304,23.44125 0.185869565,23.4828125 0.163043478,23.5189062 C0.126086957,23.5845312 0.0923913043,23.6479687 0.0684782609,23.7201562 C0.0445652174,23.7923437 0.0336956522,23.8634375 0.025,23.9378125 C0.0206521739,23.9804687 0,24.0176562 0,24.0625 L0,33.90625 C0,34.51 0.486956522,35 1.08695652,35 L4.34782609,35 C4.75978261,35 5.13695652,34.7659375 5.32065217,34.3951562 L7.19347826,30.625 L42.8065217,30.625 L44.6793478,34.3951562 C44.8641304,34.7659375 45.2402174,35 45.6521739,35 L48.9130435,35 C49.5141304,35 50,34.51 50,33.90625 L50,24.0625 C50,24.0176562 49.9804348,23.9804687 49.976087,23.9378125 L49.976087,23.9378125 Z" id="Fill-1"></path>
            </g>
        </g>
    </g>
</svg>