
<svg width="42px" height="32px" viewBox="0 0 42 32" version="1.1" xmlns="http://www.w3.org/2000/svg" xmlns:xlink="http://www.w3.org/1999/xlink">
    <defs>
        <filter x="-1.7%" y="-3.1%" width="103.4%" height="106.2%" filterUnits="objectBoundingBox" id="filter-1">
            <feOffset dx="0" dy="0" in="SourceAlpha" result="shadowOffsetOuter1"></feOffset>
            <feGaussianBlur stdDeviation="2" in="shadowOffsetOuter1" result="shadowBlurOuter1"></feGaussianBlur>
            <feColorMatrix values="0 0 0 0 0   0 0 0 0 0   0 0 0 0 0  0 0 0 0.2 0" type="matrix" in="shadowBlurOuter1" result="shadowMatrixOuter1"></feColorMatrix>
            <feMerge>
                <feMergeNode in="shadowMatrixOuter1"></feMergeNode>
                <feMergeNode in="SourceGraphic"></feMergeNode>
            </feMerge>
        </filter>
    </defs>
    <g id="Symbols" stroke="none" stroke-width="1" fill="none" fill-rule="evenodd">
        <g id="Listings/DesktopCom/NOmin" transform="translate(-233.000000, -132.000000)" fill="#6295BA">
            <g id="Community-Listing" filter="url(#filter-1)">
                <g id="Beds-Copy" transform="translate(237.000000, 131.000000)">
                    <g id="Icons/Bed" transform="translate(0.000000, 5.000000)">
                        <g id="Bed">
                            <path d="M32.5217391,22.5 L31.5002609,22.5 L30.2267391,19.91475 C30.1018261,19.6605 29.8453478,19.5 29.5652174,19.5 L4.43478261,19.5 C4.15465217,19.5 3.89891304,19.6605 3.77326087,19.91475 L2.49973913,22.5 L1.47826087,22.5 L1.47826087,17.25 L32.5217391,17.25 L32.5217391,22.5 Z M5.54347826,11.25 L6.65217391,11.25 L6.65217391,12 C6.65217391,12.414 6.98330435,12.75 7.39130435,12.75 L15.5217391,12.75 C15.9304783,12.75 16.2608696,12.414 16.2608696,12 L16.2608696,11.25 L17.7391304,11.25 L17.7391304,12 C17.7391304,12.414 18.0702609,12.75 18.4782609,12.75 L26.6086957,12.75 C27.0174348,12.75 27.3478261,12.414 27.3478261,12 L27.3478261,11.25 L28.4565217,11.25 L31.7826087,15.75 L2.2173913,15.75 L5.54347826,11.25 Z M8.13043478,11.25 L14.7826087,11.25 L14.7826087,6 L8.13043478,6 L8.13043478,11.25 Z M19.2173913,11.25 L25.8695652,11.25 L25.8695652,6 L19.2173913,6 L19.2173913,11.25 Z M5.91304348,2.25 C5.91304348,1.83675 6.24491304,1.5 6.65217391,1.5 L15.5217391,1.5 L27.3478261,1.5 C27.7558261,1.5 28.0869565,1.83675 28.0869565,2.25 L28.0869565,9.75 L27.3478261,9.75 L27.3478261,5.25 C27.3478261,4.836 27.0174348,4.5 26.6086957,4.5 L18.4782609,4.5 C18.0702609,4.5 17.7391304,4.836 17.7391304,5.25 L17.7391304,9.75 L16.2608696,9.75 L16.2608696,5.25 C16.2608696,4.836 15.9304783,4.5 15.5217391,4.5 L7.39130435,4.5 C6.98330435,4.5 6.65217391,4.836 6.65217391,5.25 L6.65217391,9.75 L5.91304348,9.75 L5.91304348,2.25 Z M33.9837391,16.4145 C33.9778261,16.3635 33.9696957,16.31475 33.9534348,16.26525 C33.9371739,16.21575 33.915,16.1715 33.8891304,16.12725 C33.8743478,16.1025 33.869913,16.074 33.8521739,16.04925 L29.5652174,10.25025 L29.5652174,2.25 C29.5652174,1.0095 28.5703478,0 27.3478261,0 L18.4782609,0 L6.65217391,0 C5.42965217,0 4.43478261,1.0095 4.43478261,2.25 L4.43478261,10.25025 L0.147826087,16.04925 C0.130826087,16.074 0.126391304,16.1025 0.110869565,16.12725 C0.0857391304,16.17225 0.062826087,16.21575 0.0465652174,16.26525 C0.0303043478,16.31475 0.0229130435,16.3635 0.017,16.4145 C0.0140434783,16.44375 0,16.46925 0,16.5 L0,23.25 C0,23.664 0.331130435,24 0.739130435,24 L2.95652174,24 C3.23665217,24 3.49313043,23.8395 3.61804348,23.58525 L4.89156522,21 L29.1084348,21 L30.3819565,23.58525 C30.5076087,23.8395 30.7633478,24 31.0434783,24 L33.2608696,24 C33.6696087,24 34,23.664 34,23.25 L34,16.5 C34,16.46925 33.9866957,16.44375 33.9837391,16.4145 L33.9837391,16.4145 Z" id="Fill-1"></path>
                        </g>
                    </g>
                </g>
            </g>
        </g>
    </g>
</svg>
