<?xml version="1.0" encoding="UTF-8"?>
<svg width="44px" height="44px" viewBox="0 0 44 44" version="1.1" xmlns="http://www.w3.org/2000/svg" xmlns:xlink="http://www.w3.org/1999/xlink">
    <!-- Generator: Sketch 54.1 (76490) - https://sketchapp.com -->
    <title>Blog</title>
    <desc>Created with Sketch.</desc>
    <g id="Symbols" stroke="none" stroke-width="1" fill="none" fill-rule="evenodd">
        <g id="Footer/Desktop/NOMHBRnPRICING" transform="translate(-850.000000, -106.000000)" fill="#FFFFFF">
            <g id="Footer">
                <g id="Social-Media" transform="translate(684.000000, 106.000000)">
                    <g id="Icons/Social-Media/Blog" transform="translate(166.000000, 0.000000)">
                        <path d="M34.6121369,25.9725658 C34.6121369,17.7033955 28.0544563,10.9802114 19.9955906,10.9802114 L19.9955906,7.42568023 C29.9776222,7.42568023 38.0971173,15.7467956 38.0971173,25.9725658 L34.6121369,25.9725658 Z M28.4546106,25.9676186 C28.4546106,23.6449292 27.5766962,21.4607601 25.9760789,19.8207781 C24.3754616,18.180796 22.2510059,17.2804138 19.9907402,17.2804138 L19.9907402,13.7258826 C26.5799482,13.7258826 31.9420162,19.2172251 31.9420162,25.9676186 L28.4546106,25.9676186 Z M23.3908394,33.4477176 C21.9090558,35.0332809 20.1192747,35.8272993 18.0287714,35.8272993 C15.9188668,35.8272993 14.1218101,35.0407016 12.6376013,33.462559 C11.1533925,31.8844165 10.4112881,29.9748145 10.4112881,27.7312795 L10.4112881,16.3256128 C10.4112881,15.5588037 10.6368296,14.9700922 11.0879127,14.5471104 C11.5365706,14.1290758 12.0676845,13.9188217 12.6788293,13.9188217 C13.2899741,13.9188217 13.8235132,14.1290758 14.2697459,14.549584 C14.7184038,14.9700922 14.9463705,15.5637508 14.9463705,16.3305599 L14.9463705,27.7535417 C14.9463705,28.6860805 15.2495177,29.4751518 15.853387,30.1232291 C16.4596814,30.7737801 17.1872347,31.0953452 18.0433225,31.0953452 C18.8800088,31.0953452 19.605137,30.7713065 20.2187069,30.1207556 C20.8322769,29.4702046 21.1378493,28.6786598 21.1378493,27.746121 C21.1378493,26.8111086 20.8565287,26.0863503 20.2963126,25.5743198 C19.7312462,25.0622892 18.9673152,24.8050371 18.0020945,24.8050371 C17.3036433,24.8050371 16.7507028,24.5601529 16.3384225,24.0654374 C15.9649452,23.6474027 15.7757813,23.1180571 15.7757813,22.4798741 C15.7757813,21.8614796 15.9722207,21.3172926 16.3699498,20.85226 C16.7604035,20.3897009 17.3036433,20.154711 18.0020945,20.154711 C20.2187069,20.154711 22.0400154,20.8621543 23.4732955,22.2745671 C24.9017252,23.6894536 25.6171526,25.5050596 25.6171526,27.7312795 C25.6171526,29.9574994 24.8750482,31.8621543 23.3908394,33.4477176 L23.3908394,33.4477176 Z M21.9987874,0 C9.84864686,0 0,9.84978637 0,22 C0,34.1526872 9.84864686,44 21.9987874,44 C34.1537783,44 44,34.1526872 44,22 C44,9.84978637 34.1537783,0 21.9987874,0 L21.9987874,0 Z" id="Fill-1"></path>
                    </g>
                </g>
            </g>
        </g>
    </g>
</svg>