<?xml version="1.0" encoding="UTF-8"?>
<svg width="77px" height="79px" viewBox="0 0 77 79" version="1.1" xmlns="http://www.w3.org/2000/svg" xmlns:xlink="http://www.w3.org/1999/xlink">
    <!-- Generator: Sketch 54.1 (76490) - https://sketchapp.com -->
    <title>Schools</title>
    <desc>Created with Sketch.</desc>
    <g id="Desktop" stroke="none" stroke-width="1" fill="none" fill-rule="evenodd">
        <g id="FMH---Community-Microsite" transform="translate(-540.000000, -1591.000000)" fill="#6295ba">
            <g id="Area-Amenities" transform="translate(0.000000, 1455.000000)">
                <g id="Schools" transform="translate(526.000000, 136.000000)">
                    <text font-family="HelveticaNeue-Bold, Helvetica Neue" font-size="18" font-weight="bold" line-spacing="22">
                        <tspan x="17.503" y="78">Schools</tspan>
                    </text>
                    <path d="M88.5854126,46.9872092 L85.3740113,46.9872092 L85.3740113,41.0746823 C85.3740113,40.4095832 84.834351,39.8719714 84.1667176,39.8719714 C83.4990841,39.8719714 82.9594238,40.4095832 82.9594238,41.0746823 L82.9594238,46.9872092 L79.7480226,46.9872092 L79.7480226,39.6626997 C79.7480226,37.2368318 81.7291916,35.2607778 84.1667176,35.2607778 C86.6030363,35.2607778 88.5854126,37.2368318 88.5854126,39.6626997 L88.5854126,46.9872092 Z M75.9184869,30.6664221 C71.7376288,31.8643222 59.6441676,36.0858375 49.6852017,46.9848037 C39.7250286,36.0858375 27.633982,31.8643222 23.4507093,30.6664221 L28.4802949,20.6730972 L49.259027,28.4498259 C49.3954512,28.5015425 49.5391192,28.5267994 49.6827871,28.5267994 C49.8264551,28.5267994 49.9713303,28.5015425 50.1077545,28.4498259 L70.8889013,20.6718945 L75.9184869,30.6664221 Z M52.8374456,14.2638507 C52.8374456,14.6318803 51.6398103,15.4677643 49.6695069,15.4677643 C47.6979963,15.4677643 46.5003609,14.6318803 46.5003609,14.2638507 C46.5003609,13.8970239 47.6979963,13.0611398 49.6695069,13.0611398 C51.6398103,13.0611398 52.8374456,13.8970239 52.8374456,14.2638507 L52.8374456,14.2638507 Z M49.6852017,2.49051362 L77.2585829,13.0611398 L54.9321002,13.0611398 C54.1968583,11.6347247 52.1903362,10.655718 49.6695069,10.655718 C46.4858734,10.655718 44.0857735,12.2072151 44.0857735,14.2638507 C44.0857735,16.3216891 46.4858734,17.8731862 49.6695069,17.8731862 C52.1903362,17.8731862 54.1968583,16.8941795 54.9321002,15.4665616 L77.9298382,15.4653589 L49.6827871,26.0395932 L18.603425,14.4057706 L49.6852017,2.49051362 Z M85.3740113,32.9684108 L85.3740113,14.4238113 C85.3740113,14.3925408 85.3583165,14.3672839 85.3559019,14.3384188 C85.3486581,14.2241613 85.3281341,14.1135119 85.290708,14.008876 C85.2725986,13.9619703 85.2484527,13.9198754 85.2255142,13.8765778 C85.1808443,13.7887799 85.1277234,13.7106037 85.0637368,13.6372383 C85.0347617,13.6047651 85.0082013,13.5722919 84.9768116,13.5434269 C84.8874719,13.4604398 84.7848519,13.3906826 84.670159,13.3377633 C84.6544642,13.3305471 84.6423913,13.3197227 84.6279038,13.3137091 C84.6158308,13.3088983 84.6073798,13.3004793 84.5953068,13.2956684 L50.1198275,0.0802809533 C49.8409426,-0.0267603178 49.5294608,-0.0267603178 49.2517833,0.0802809533 L14.772682,13.2968711 C14.3066667,13.4760751 13.9975995,13.9246862 14.000014,14.4238113 C14.0024286,14.9229363 14.3127031,15.369142 14.7823404,15.5447378 L26.2069608,19.8215778 L20.625642,30.9141806 C20.4578281,31.2461288 20.452999,31.6346044 20.613569,31.9701607 C20.7741391,32.3045144 21.0807917,32.547462 21.4441871,32.6280436 C21.599928,32.6617195 37.1691878,36.2121221 48.7724877,49.5826593 C49.0018735,49.8484584 49.3338793,50 49.6852017,50 C50.0365242,50 50.3697373,49.8484584 50.5979158,49.5826593 C62.1770698,36.2385818 77.7704755,32.6617195 77.9262163,32.6280436 C78.2896118,32.547462 78.5962644,32.3045144 78.7556271,31.968958 C78.9149899,31.6346044 78.911368,31.2449261 78.7447615,30.9141806 L73.161028,19.8203751 L82.9594238,16.1521068 L82.9594238,32.9684108 C79.766132,33.5384958 77.3334351,36.3203661 77.3334351,39.6626997 L77.3334351,48.1899201 C77.3334351,48.8550192 77.8730954,49.392631 78.5407288,49.392631 L89.7927063,49.392631 C90.4603397,49.392631 91,48.8550192 91,48.1899201 L91,39.6626997 C91,36.3203661 88.5660959,33.5384958 85.3740113,32.9684108 L85.3740113,32.9684108 Z" id="Fill-1"></path>
                </g>
            </g>
        </g>
    </g>
</svg>