<?xml version="1.0" encoding="UTF-8"?>
<svg width="81px" height="92px" viewBox="0 0 81 92" version="1.1" xmlns="http://www.w3.org/2000/svg" xmlns:xlink="http://www.w3.org/1999/xlink">
    <!-- Generator: Sketch 54.1 (76490) - https://sketchapp.com -->
    <title>Shopping</title>
    <desc>Created with Sketch.</desc>
    <g id="Desktop" stroke="none" stroke-width="1" fill="none" fill-rule="evenodd">
        <g id="FMH---Community-Microsite" transform="translate(-42.000000, -1581.000000)" fill="#6295ba">
            <g id="Area-Amenities" transform="translate(0.000000, 1455.000000)">
                <g id="Shopping" transform="translate(31.000000, 126.000000)">
                    <text font-family="HelveticaNeue-Bold, Helvetica Neue" font-size="18" font-weight="bold" line-spacing="22">
                        <tspan x="11.167" y="88">Shopping</tspan>
                    </text>
                    <path d="M32.3392252,17.1428571 L39.7944035,17.1428571 L39.7944035,19.9310204 C39.0681705,20.3559184 38.5738439,21.1371429 38.5738439,22.0408163 C38.5738439,23.3926531 39.6662447,24.4897959 41.0149632,24.4897959 C42.362461,24.4897959 43.4560825,23.3926531 43.4560825,22.0408163 C43.4560825,21.1371429 42.9617558,20.3559184 42.2355228,19.9310204 L42.2355228,17.1428571 L61.7644772,17.1428571 L61.7644772,19.9310204 C61.0370236,20.3559184 60.5439175,21.1371429 60.5439175,22.0408163 C60.5439175,23.3926531 61.6363184,24.4897959 62.9850368,24.4897959 C64.3325347,24.4897959 65.4261561,23.3926531 65.4261561,22.0408163 C65.4261561,21.1371429 64.93305,20.3559184 64.2055965,19.9310204 L64.2055965,17.1428571 L71.6595543,17.1428571 L76.2635053,57.5510204 L27.7364947,57.5510204 L32.3392252,17.1428571 Z M42.2355228,12.244898 C42.2355228,6.84367347 46.6161114,2.44897959 52,2.44897959 C57.3838886,2.44897959 61.7644772,6.84367347 61.7644772,12.244898 L61.7644772,14.6938776 L42.2355228,14.6938776 L42.2355228,12.244898 Z M73.8382532,14.6938776 L64.2055965,14.6938776 L64.2055965,12.244898 C64.2055965,5.49306122 58.7301659,0 52,0 C45.2698341,0 39.7944035,5.49306122 39.7944035,12.244898 L39.7944035,14.6938776 L30.1617468,14.6938776 L25,60 L79,60 L73.8382532,14.6938776 Z" id="Fill-1"></path>
                </g>
            </g>
        </g>
    </g>
</svg>