<?xml version="1.0" encoding="UTF-8"?>
<svg width="63px" height="91px" viewBox="0 0 63 91" version="1.1" xmlns="http://www.w3.org/2000/svg" xmlns:xlink="http://www.w3.org/1999/xlink">
    <!-- Generator: Sketch 54.1 (76490) - https://sketchapp.com -->
    <title>Dining</title>
    <desc>Created with Sketch.</desc>
    <g id="Desktop" stroke="none" stroke-width="1" fill="none" fill-rule="evenodd">
        <g id="FMH---Community-Microsite" transform="translate(-217.000000, -1582.000000)" fill="#6295ba">
            <g id="Area-Amenities" transform="translate(0.000000, 1455.000000)">
                <g id="Dining" transform="translate(196.000000, 127.000000)">
                    <text font-family="HelveticaNeue-Bold, Helvetica Neue" font-size="18" font-weight="bold" line-spacing="22">
                        <tspan x="24.514" y="87">Dining</tspan>
                    </text>
                    <g id="Group-12" transform="translate(21.000000, 0.000000)">
                        <path d="M51.6943203,5.33156499 C51.3384061,5.33156499 50.9824918,5.4668435 50.7123783,5.73899204 L38.0011551,18.4710875 C37.4577503,19.0137931 37.4577503,19.8970822 38.0011551,20.4397878 C38.5254931,20.9665782 39.4407011,20.9665782 39.9650391,20.4397878 L52.6762623,7.70769231 C53.2196671,7.16498674 53.2196671,6.28169761 52.6762623,5.73899204 C52.4061488,5.4668435 52.0502346,5.33156499 51.6943203,5.33156499" id="Fill-1"></path>
                        <path d="M56.461029,10.1061008 C56.1051148,10.1061008 55.7492005,10.2413793 55.479087,10.5135279 L42.7678638,23.2456233 C42.224459,23.7883289 42.224459,24.671618 42.7678638,25.2143236 C43.2922018,25.7411141 44.2074098,25.7411141 44.7317478,25.2143236 L57.442971,12.4822281 C57.9863758,11.9395225 57.9863758,11.0562334 57.442971,10.5135279 C57.1728575,10.2413793 56.8169433,10.1061008 56.461029,10.1061008" id="Fill-3"></path>
                        <path d="M62.1572459,15.2372944 C61.5900076,14.7248276 60.7097554,14.7709814 60.1949508,15.3407427 L50.14514,26.5242971 C48.2003228,28.6871618 44.6729584,29.9715119 42.5994401,29.2744297 C39.426401,28.2176658 34.8646608,29.8314589 32.2207264,32.9524138 L13.4398941,55.0839788 C12.5993644,56.0738992 11.4537654,56.6468435 10.217599,56.6977719 C8.95601009,56.7327851 7.78339975,56.2601061 6.87295839,55.3497613 L6.32478689,54.8022812 C5.41911223,53.8935279 4.9630971,52.7444562 5.04095334,51.5683289 C5.12198739,50.3890186 5.72735939,49.3131565 6.74902396,48.5364987 L30.0026179,30.7879576 C33.2805246,28.2861008 35.0124288,23.8139523 33.9478638,20.6070557 C33.2535132,18.5237666 34.5357579,14.9937931 36.6918991,13.0489655 L47.8571198,2.98424403 C48.1335889,2.73596817 48.295657,2.3937931 48.3147238,2.02137931 C48.3353796,1.65055703 48.2098562,1.29405836 47.9603985,1.01713528 C47.6886961,0.713156499 47.3089483,0.557188329 46.9276116,0.557188329 C46.5955309,0.557188329 46.2634502,0.674960212 45.9981034,0.913687003 L34.8328827,10.9784085 C31.8044338,13.709443 30.2568424,18.3248276 31.3071072,21.4871618 C31.9887465,23.5274801 30.5921009,26.8378249 28.3183808,28.5709814 L5.06319798,46.3195225 C3.39484994,47.5927321 2.40178562,49.3895491 2.26831778,51.3805305 C2.13326103,53.3715119 2.87527869,55.2861008 4.359314,56.7709814 L4.9074855,57.3184615 C6.37404288,58.7874271 8.32521564,59.576817 10.3288222,59.4797347 C12.3514956,59.3985676 14.2073342,58.4770822 15.5563127,56.8871618 L34.337145,34.7555968 C36.2056948,32.5529443 39.6567919,31.2288064 41.7223657,31.917931 C44.8747491,32.9699204 49.4889231,31.4166048 52.2123026,28.3879576 L62.2605246,17.2044032 C62.7737402,16.6330504 62.727662,15.7513528 62.1572459,15.2372944" id="Fill-5"></path>
                        <path d="M25.4602623,26.977878 L27.706971,25.2892838 L5.20175032,2.74870027 C4.04820681,1.59167109 3.08533165,1.27177719 2.37191425,1.27177719 C1.9635662,1.27177719 1.63625221,1.37681698 1.40268348,1.48822281 C0.285684741,2.03570292 -0.178274905,3.34233422 0.0616494325,5.26647215 L0.468408575,8.52429708 C0.824322825,11.4033422 2.54351576,15.4187268 4.37869861,17.6643501 L12.6457604,27.7847745 C13.9200605,29.3460477 16.5544615,31.9879576 18.3276772,31.9879576 L19.9165801,31.9879576 C20.6824313,31.9879576 21.3068701,31.3640849 21.3068701,30.5953846 C21.3068701,29.8282759 20.6824313,29.2028117 19.9165801,29.2028117 L18.4484338,29.2187268 L18.4198335,29.2107692 C17.8811955,29.0595756 16.2811702,27.8357029 14.7971349,26.0197878 L6.53166204,15.9009549 C5.03332661,14.0675332 3.51751324,10.5311936 3.22674401,8.17893899 L2.81998487,4.92270557 C2.81362926,4.87496021 2.80886255,4.82721485 2.80409584,4.78106101 L2.76596217,4.24790451 L3.23786633,4.71740053 L25.4602623,26.977878 Z" id="Fill-8"></path>
                        <path d="M31.812855,42.7266844 L30.0062724,44.9006897 L40.1673064,56.8847745 C41.5131072,58.4762865 43.3705347,59.3961804 45.3932081,59.4773475 C45.4917201,59.482122 45.5918209,59.4837135 45.688744,59.4837135 C47.6017831,59.4837135 49.4210769,58.7150133 50.8145448,57.3176658 L51.3611274,56.7717772 C52.8340404,55.2964456 53.6030694,53.3675332 53.5236242,51.3383554 C53.445768,49.3107692 52.5305599,47.4455172 50.9480126,46.0879576 L38.1382774,35.1065252 L36.3602951,37.2502918 L49.1382522,48.2046684 C50.1249609,49.0497613 50.695377,50.2004244 50.744633,51.4465782 C50.7923001,52.6895491 50.3156293,53.8815915 49.3956545,54.8014854 L48.8506608,55.3489655 C47.9020858,56.2975066 46.7612535,56.7510875 45.5028424,56.6953846 C44.2682648,56.6460477 43.1258436,56.0715119 42.2869029,55.0815915 L31.812855,42.7266844 Z" id="Fill-10"></path>
                    </g>
                </g>
            </g>
        </g>
    </g>
</svg>