<?xml version="1.0" encoding="UTF-8"?>
<svg width="50px" height="34px" viewBox="0 0 50 34" version="1.1" xmlns="http://www.w3.org/2000/svg" xmlns:xlink="http://www.w3.org/1999/xlink">
    <!-- Generator: Sketch 54.1 (76490) - https://sketchapp.com -->
    <title>Group 19</title>
    <desc>Created with Sketch.</desc>
    <g id="Symbols" stroke="none" stroke-width="1" fill="none" fill-rule="evenodd">
        <g id="Icons/TH" transform="translate(0.000000, -1.000000)" fill="#6295BA">
            <g id="Group-19" transform="translate(0.000000, 1.000000)">
                <polygon id="Fill-1" points="23.41756 21.3499047 26.5983564 21.3499047 26.5983564 17.806393 23.41756 17.806393"></polygon>
                <path d="M5.19471283,8.35589535 L11.6072611,3.95131395 L18.1997213,8.47924419 L18.1997213,31.9487326 L5.19471283,31.9487326 L5.19471283,8.35589535 Z M29.8967423,15.3867791 L29.8967423,31.9487326 L27.4598956,31.9487326 L27.4598956,24.1548256 L22.5556289,24.1548256 L22.5556289,31.9487326 L20.1183902,31.9487326 L20.1183902,15.3867791 L29.8967423,15.3867791 Z M38.2283515,3.95131395 L44.8212036,8.47924419 L44.8212036,31.9487326 L31.8158032,31.9487326 L31.8158032,8.35589535 L38.2283515,3.95131395 Z M47.7519263,31.9487326 L46.7394806,31.9487326 L46.7394806,9.79733721 L48.0404126,10.6904302 L49.8363965,8.03012791 L39.1263434,0.674267442 C38.5846477,0.302244186 37.8724472,0.302244186 37.3303595,0.674267442 L26.6210904,8.03012791 L28.4170743,10.6904302 L29.8967423,9.67398837 L29.8967423,13.4519419 L20.1183902,13.4519419 L20.1183902,9.79733721 L21.4189302,10.6904302 L23.2149141,8.03012791 L12.505253,0.674267442 C11.9639493,0.302244186 11.2509648,0.302244186 10.7092691,0.674267442 L0,8.03012791 L1.79598387,10.6904302 L3.27565194,9.67398837 L3.27565194,31.9487326 L2.26320621,31.9487326 C1.79990352,31.9487326 1.42087331,32.3314302 1.42087331,32.7983372 L1.42087331,33.8511512 L18.5215246,33.8511512 L31.4943919,33.8511512 L48.5950431,33.8511512 L48.5950431,32.7983372 C48.5950431,32.3314302 48.2160129,31.9487326 47.7519263,31.9487326 L47.7519263,31.9487326 Z" id="Fill-2"></path>
                <polygon id="Fill-5" points="7.58256392 13.1736953 10.7633603 13.1736953 10.7633603 9.63018372 7.58256392 9.63018372"></polygon>
                <polygon id="Fill-7" points="7.58256392 29.5257186 10.7633603 29.5257186 10.7633603 25.9826023 7.58256392 25.9826023"></polygon>
                <polygon id="Fill-8" points="7.58256392 21.3499047 10.7633603 21.3499047 10.7633603 17.806393 7.58256392 17.806393"></polygon>
                <polygon id="Fill-9" points="12.8995698 13.1736953 16.0803662 13.1736953 16.0803662 9.63018372 12.8995698 9.63018372"></polygon>
                <polygon id="Fill-10" points="12.8995698 29.5257186 16.0803662 29.5257186 16.0803662 25.9826023 12.8995698 25.9826023"></polygon>
                <polygon id="Fill-11" points="12.8995698 21.3499047 16.0803662 21.3499047 16.0803662 17.806393 12.8995698 17.806393"></polygon>
                <polygon id="Fill-12" points="34.2036543 13.1736953 37.3844507 13.1736953 37.3844507 9.63018372 34.2036543 9.63018372"></polygon>
                <polygon id="Fill-13" points="34.2036543 29.5257186 37.3844507 29.5257186 37.3844507 25.9826023 34.2036543 25.9826023"></polygon>
                <polygon id="Fill-14" points="34.2036543 21.3499047 37.3844507 21.3499047 37.3844507 17.806393 34.2036543 17.806393"></polygon>
                <polygon id="Fill-15" points="39.5206602 13.1736953 42.7014566 13.1736953 42.7014566 9.63018372 39.5206602 9.63018372"></polygon>
                <polygon id="Fill-16" points="39.5206602 29.5257186 42.7014566 29.5257186 42.7014566 25.9826023 39.5206602 25.9826023"></polygon>
                <polygon id="Fill-17" points="39.5206602 21.3499047 42.7014566 21.3499047 42.7014566 17.806393 39.5206602 17.806393"></polygon>
            </g>
        </g>
    </g>
</svg>