<svg height="32" viewBox="0 0 40 32" width="40" xmlns="http://www.w3.org/2000/svg" xmlns:xlink="http://www.w3.org/1999/xlink"><filter id="a" height="164%" width="103.2%" x="-1.6%" y="-32%"><feOffset dx="0" dy="2" in="SourceAlpha" result="shadowOffsetOuter1"/><feGaussianBlur in="shadowOffsetOuter1" result="shadowBlurOuter1" stdDeviation="3"/><feColorMatrix in="shadowBlurOuter1" result="shadowMatrixOuter1" type="matrix" values="0 0 0 0 0   0 0 0 0 0   0 0 0 0 0  0 0 0 0.3 0"/><feMerge><feMergeNode in="shadowMatrixOuter1"/><feMergeNode in="SourceGraphic"/></feMerge></filter><g fill="#fff" fill-rule="evenodd" filter="url(#a)" transform="translate(-263 -11)"><path d="m26 16h-24c-1.104 0-2 .896-2 2s.896 2 2 2h24c1.104 0 2-.896 2-2s-.896-2-2-2m0-8h-24c-1.104 0-2 .896-2 2s.896 2 2 2h24c1.104 0 2-.896 2-2s-.896-2-2-2m-24-4h24c1.104 0 2-.896 2-2s-.896-2-2-2h-24c-1.104 0-2 .896-2 2s.896 2 2 2" transform="translate(269 15)"/></g></svg>