
<svg width="31px" height="32px" viewBox="0 0 31 32" version="1.1" xmlns="http://www.w3.org/2000/svg" xmlns:xlink="http://www.w3.org/1999/xlink">
    <g id="Desktop" stroke="none" stroke-width="1" fill="none" fill-rule="evenodd">
        <g id="My-Time-Tour---2" transform="translate(-676.000000, -887.000000)" fill="#FFFFFF" stroke="#FFFFFF" stroke-width="0.5">
            <g id="Home" transform="translate(662.000000, 475.000000)">
                <g id="Date" transform="translate(15.000000, 413.000000)">
                    <g id="Icons/Calendar-White">
                        <g id="Icons/Calendar">
                            <g id="Calendar">
                                <path d="M7.75386585,5.145 L7.75386585,3.59809524 L21.2680793,3.59809524 L21.2680793,5.145 L22.4777927,5.145 L22.4777927,3.59809524 L26.5763598,3.59809524 C27.2574329,3.59809524 27.8115183,4.15595238 27.8115183,4.84190476 L27.8115183,8.97285714 L1.20971341,8.97285714 L1.20971341,4.84190476 C1.20971341,4.15595238 1.76427439,3.59809524 2.44582317,3.59809524 L6.54391463,3.59809524 L6.54391463,5.145 L7.75386585,5.145 Z M27.8115183,27.5309524 C27.8115183,28.2166667 27.2574329,28.7745238 26.5763598,28.7745238 L2.44582317,28.7745238 C1.76427439,28.7745238 1.20971341,28.2166667 1.20971341,27.5309524 L1.20971341,10.1983333 L27.8115183,10.1983333 L27.8115183,27.5309524 Z M0,4.84190476 L0,27.5309524 C0,28.892381 1.09723171,30 2.44582317,30 L26.5763598,30 C27.9244756,30 29.0219451,28.892381 29.0219451,27.5309524 L29.0219451,4.84190476 C29.0219451,3.4802381 27.9244756,2.37261905 26.5763598,2.37261905 L22.4777927,2.37261905 L22.4777927,0 L21.2680793,0 L21.2680793,2.37261905 L7.75386585,2.37261905 L7.75386585,0 L6.54391463,0 L6.54391463,2.37261905 L2.44582317,2.37261905 C1.09723171,2.37261905 0,3.4802381 0,4.84190476 L0,4.84190476 Z" id="Fill-1"></path>
                                <path d="M4.48143293,17.2235714 L8.1800122,17.2235714 L8.1800122,13.4980952 L4.48143293,13.4980952 L4.48143293,17.2235714 Z M3.27171951,17.372381 C3.27171951,17.9661905 3.74946951,18.4490476 4.33684756,18.4490476 L8.32412195,18.4490476 C8.9115,18.4490476 9.38925,17.9661905 9.38925,17.372381 L9.38925,13.3504762 C9.38925,12.7561905 8.9115,12.2728571 8.32412195,12.2728571 L4.33684756,12.2728571 C3.74946951,12.2728571 3.27171951,12.7561905 3.27171951,13.3504762 L3.27171951,17.372381 Z" id="Fill-4"></path>
                                <path d="M12.6607079,17.2507143 L16.3592872,17.2507143 L16.3592872,13.5252381 L12.6607079,13.5252381 L12.6607079,17.2507143 Z M11.4509945,17.3995238 C11.4509945,17.9933333 11.9287445,18.4761905 12.5161226,18.4761905 L16.503397,18.4761905 C17.090775,18.4761905 17.568525,17.9933333 17.568525,17.3995238 L17.568525,13.377619 C17.568525,12.7833333 17.090775,12.3 16.503397,12.3 L12.5161226,12.3 C11.9287445,12.3 11.4509945,12.7833333 11.4509945,13.377619 L11.4509945,17.3995238 Z" id="Fill-4"></path>
                                <path d="M20.8424085,17.2235714 L24.5402744,17.2235714 L24.5402744,13.4980952 L20.8424085,13.4980952 L20.8424085,17.2235714 Z M24.684622,12.2728571 L20.6966341,12.2728571 C20.1090183,12.2728571 19.6315061,12.7561905 19.6315061,13.3504762 L19.6315061,17.372381 C19.6315061,17.9661905 20.1090183,18.4490476 20.6966341,18.4490476 L24.684622,18.4490476 C25.2715244,18.4490476 25.7492744,17.9661905 25.7492744,17.372381 L25.7492744,13.3504762 C25.7492744,12.7561905 25.2715244,12.2728571 24.684622,12.2728571 L24.684622,12.2728571 Z" id="Fill-7"></path>
                                <path d="M4.48143293,25.4742857 L8.1800122,25.4742857 L8.1800122,21.7492857 L4.48143293,21.7492857 L4.48143293,25.4742857 Z M3.27171951,25.6230952 C3.27171951,26.2166667 3.74946951,26.7002381 4.33684756,26.7002381 L8.32412195,26.7002381 C8.9115,26.7002381 9.38925,26.2166667 9.38925,25.6230952 L9.38925,21.6009524 C9.38925,21.0069048 8.9115,20.5233333 8.32412195,20.5233333 L4.33684756,20.5233333 C3.74946951,20.5233333 3.27171951,21.0069048 3.27171951,21.6009524 L3.27171951,25.6230952 Z" id="Fill-8"></path>
                                <path d="M12.6616829,25.4742857 L16.3600244,25.4742857 L16.3600244,21.7492857 L12.6616829,21.7492857 L12.6616829,25.4742857 Z M16.5041341,20.5233333 L12.516622,20.5233333 C11.9292439,20.5233333 11.4510183,21.0069048 11.4510183,21.6009524 L11.4510183,25.6230952 C11.4510183,26.2166667 11.9292439,26.7002381 12.516622,26.7002381 L16.5041341,26.7002381 C17.09175,26.7002381 17.5697378,26.2166667 17.5697378,25.6230952 L17.5697378,21.6009524 C17.5697378,21.0069048 17.09175,20.5233333 16.5041341,20.5233333 L16.5041341,20.5233333 Z" id="Fill-9"></path>
                                <path d="M20.8424085,25.4742857 L24.5402744,25.4742857 L24.5402744,21.7492857 L20.8424085,21.7492857 L20.8424085,25.4742857 Z M24.684622,20.5233333 L20.6966341,20.5233333 C20.1090183,20.5233333 19.6315061,21.0069048 19.6315061,21.6009524 L19.6315061,25.6230952 C19.6315061,26.2166667 20.1090183,26.7002381 20.6966341,26.7002381 L24.684622,26.7002381 C25.2715244,26.7002381 25.7492744,26.2166667 25.7492744,25.6230952 L25.7492744,21.6009524 C25.7492744,21.0069048 25.2715244,20.5233333 24.684622,20.5233333 L24.684622,20.5233333 Z" id="Fill-10"></path>
                            </g>
                        </g>
                    </g>
                </g>
            </g>
        </g>
    </g>
</svg>
