<?xml version="1.0" encoding="UTF-8"?>
<svg width="29px" height="31px" viewBox="0 0 29 31" version="1.1" xmlns="http://www.w3.org/2000/svg" xmlns:xlink="http://www.w3.org/1999/xlink">
    <!-- Generator: Sketch 54.1 (76490) - https://sketchapp.com -->
    <title>Icons/Bath</title>
    <desc>Created with Sketch.</desc>
    <g id="Desktop" stroke="none" stroke-width="1" fill="none" fill-rule="evenodd">
        <g id="FMH---Community-Microsite" transform="translate(-428.000000, -791.000000)" fill="#6295BA" stroke="#6295BA">
            <g id="overview" transform="translate(0.000000, 790.000000)">
                <g id="Header" transform="translate(16.000000, 0.000000)">
                    <g id="Baths" transform="translate(413.000000, 2.000000)">
                        <g id="Icons/Bath">
                            <g id="Group-14">
                                <path d="M25.6441253,22.6124 C25.3841118,24.4490667 23.6141724,25.9997333 21.7782397,25.9997333 L5.93985589,25.9997333 C4.1032633,25.9997333 2.33332391,24.4490667 2.07331044,22.6124 L1.42129697,17.9997333 L26.2961387,17.9997333 L25.6441253,22.6124 Z M17.7057953,5.99973333 L13.9718963,5.99973333 C14.2444485,5.22373333 14.9782936,4.6664 15.8388458,4.6664 C16.698738,4.6664 17.4332431,5.22373333 17.7057953,5.99973333 L17.7057953,5.99973333 Z M27.5559502,16.8964 C27.430563,16.7504 27.2490815,16.6664 27.057701,16.6664 L26.3977684,16.6664 L26.3977684,5.99973333 C26.3977684,2.69173333 23.7329603,-0.000266666667 20.4583744,-0.000266666667 C18.3366909,-0.000266666667 16.3621724,1.15506667 15.3043003,3.01506667 L15.0660646,3.43506667 C13.6194923,3.78906667 12.5391825,5.0984 12.5391825,6.6664 C12.5391825,7.03506667 12.8341724,7.33306667 13.1991152,7.33306667 L18.4785764,7.33306667 C18.8428593,7.33306667 19.1385091,7.03506667 19.1385091,6.6664 C19.1385091,5.0984 18.0568795,3.7884 16.610967,3.4344 C17.4622801,2.13573333 18.9062128,1.33306667 20.4583744,1.33306667 C23.0050545,1.33306667 25.077903,3.42706667 25.077903,5.99973333 L25.077903,16.6664 L0.660394613,16.6664 C0.469014141,16.6664 0.286872727,16.7504 0.161485522,16.8964 C0.0360983165,17.0430667 -0.0206558923,17.2364 0.0064013468,17.4277333 L0.766643771,22.8010667 C1.01807811,24.5770667 2.26469091,26.1144 3.86172795,26.8564 L3.33378182,28.4557333 C3.21895354,28.8050667 3.40571448,29.1824 3.75085926,29.2990667 C3.82081212,29.3224 3.89076498,29.3337333 3.96005791,29.3337333 C4.2365697,29.3337333 4.4932835,29.1564 4.58567407,28.8770667 L5.12021953,27.2570667 C5.39013199,27.3044 5.66334411,27.3330667 5.93985589,27.3330667 L21.7782397,27.3330667 C22.0547515,27.3330667 22.3279636,27.3044 22.5972162,27.2570667 L23.1317616,28.8770667 C23.2241522,29.1564 23.4815259,29.3337333 23.7580377,29.3337333 C23.8266707,29.3337333 23.8972835,29.3224 23.9665764,29.2990667 C24.3117212,29.1824 24.4991421,28.8050667 24.3836539,28.4557333 L23.8557077,26.8564 C25.4527448,26.1144 26.7000175,24.5770667 26.9507919,22.8010667 L27.7110343,17.4277333 C27.7380916,17.2364 27.6813374,17.0430667 27.5559502,16.8964 L27.5559502,16.8964 Z" id="Fill-1" stroke-width="0.5"></path>
                            </g>
                        </g>
                    </g>
                </g>
            </g>
        </g>
    </g>
</svg>