<?xml version="1.0" encoding="UTF-8"?>
<svg width="43px" height="30px" viewBox="0 0 43 30" version="1.1" xmlns="http://www.w3.org/2000/svg" xmlns:xlink="http://www.w3.org/1999/xlink">
    <!-- Generator: Sketch 54.1 (76490) - https://sketchapp.com -->
    <title>Icons/Bed</title>
    <desc>Created with Sketch.</desc>
    <g id="Desktop" stroke="none" stroke-width="1" fill="none" fill-rule="evenodd">
        <g id="FMH---Community-Microsite" transform="translate(-263.000000, -792.000000)" fill="#6295BA">
            <g id="overview" transform="translate(0.000000, 790.000000)">
                <g id="Header" transform="translate(16.000000, 0.000000)">
                    <g id="Beds" transform="translate(247.000000, 2.000000)">
                        <g id="Icons/Bed">
                            <g id="Bed">
                                <path d="M41.1304348,28.125 L39.8385652,28.125 L38.2279348,24.8934375 C38.0699565,24.575625 37.745587,24.375 37.3913043,24.375 L5.60869565,24.375 C5.25441304,24.375 4.93097826,24.575625 4.77206522,24.8934375 L3.16143478,28.125 L1.86956522,28.125 L1.86956522,21.5625 L41.1304348,21.5625 L41.1304348,28.125 Z M7.01086957,14.0625 L8.41304348,14.0625 L8.41304348,15 C8.41304348,15.5175 8.83182609,15.9375 9.34782609,15.9375 L19.6304348,15.9375 C20.1473696,15.9375 20.5652174,15.5175 20.5652174,15 L20.5652174,14.0625 L22.4347826,14.0625 L22.4347826,15 C22.4347826,15.5175 22.8535652,15.9375 23.3695652,15.9375 L33.6521739,15.9375 C34.1691087,15.9375 34.5869565,15.5175 34.5869565,15 L34.5869565,14.0625 L35.9891304,14.0625 L40.1956522,19.6875 L2.80434783,19.6875 L7.01086957,14.0625 Z M10.2826087,14.0625 L18.6956522,14.0625 L18.6956522,7.5 L10.2826087,7.5 L10.2826087,14.0625 Z M24.3043478,14.0625 L32.7173913,14.0625 L32.7173913,7.5 L24.3043478,7.5 L24.3043478,14.0625 Z M7.47826087,2.8125 C7.47826087,2.2959375 7.89797826,1.875 8.41304348,1.875 L19.6304348,1.875 L34.5869565,1.875 C35.1029565,1.875 35.5217391,2.2959375 35.5217391,2.8125 L35.5217391,12.1875 L34.5869565,12.1875 L34.5869565,6.5625 C34.5869565,6.045 34.1691087,5.625 33.6521739,5.625 L23.3695652,5.625 C22.8535652,5.625 22.4347826,6.045 22.4347826,6.5625 L22.4347826,12.1875 L20.5652174,12.1875 L20.5652174,6.5625 C20.5652174,6.045 20.1473696,5.625 19.6304348,5.625 L9.34782609,5.625 C8.83182609,5.625 8.41304348,6.045 8.41304348,6.5625 L8.41304348,12.1875 L7.47826087,12.1875 L7.47826087,2.8125 Z M42.9794348,20.518125 C42.9719565,20.454375 42.9616739,20.3934375 42.9411087,20.3315625 C42.9205435,20.2696875 42.8925,20.214375 42.8597826,20.1590625 C42.841087,20.128125 42.8354783,20.0925 42.8130435,20.0615625 L37.3913043,12.8128125 L37.3913043,2.8125 C37.3913043,1.261875 36.133087,0 34.5869565,0 L23.3695652,0 L8.41304348,0 C6.86691304,0 5.60869565,1.261875 5.60869565,2.8125 L5.60869565,12.8128125 L0.186956522,20.0615625 C0.165456522,20.0925 0.159847826,20.128125 0.140217391,20.1590625 C0.108434783,20.2153125 0.0794565217,20.2696875 0.0588913043,20.3315625 C0.038326087,20.3934375 0.0289782609,20.454375 0.0215,20.518125 C0.0177608696,20.5546875 0,20.5865625 0,20.625 L0,29.0625 C0,29.58 0.418782609,30 0.934782609,30 L3.73913043,30 C4.09341304,30 4.41778261,29.799375 4.57576087,29.4815625 L6.1863913,26.25 L36.8136087,26.25 L38.4242391,29.4815625 C38.5831522,29.799375 38.906587,30 39.2608696,30 L42.0652174,30 C42.5821522,30 43,29.58 43,29.0625 L43,20.625 C43,20.5865625 42.9831739,20.5546875 42.9794348,20.518125 L42.9794348,20.518125 Z" id="Fill-1"></path>
                            </g>
                        </g>
                    </g>
                </g>
            </g>
        </g>
    </g>
</svg>