<?xml version="1.0" encoding="UTF-8"?>
<svg width="41px" height="30px" viewBox="0 0 41 30" version="1.1" xmlns="http://www.w3.org/2000/svg" xmlns:xlink="http://www.w3.org/1999/xlink">
    <!-- Generator: Sketch 54.1 (76490) - https://sketchapp.com -->
    <title>Icons/SFH</title>
    <desc>Created with Sketch.</desc>
    <g id="Desktop" stroke="none" stroke-width="1" fill="none" fill-rule="evenodd">
        <g id="FMH---Community-Microsite" transform="translate(-16.000000, -790.000000)" fill="#6295BA">
            <g id="overview" transform="translate(0.000000, 790.000000)">
                <g id="Header" transform="translate(16.000000, 0.000000)">
                    <g id="Home-Type">
                        <g id="Icons/SFH/Color">
                            <g id="Group-11">
                                <polygon id="Fill-1" points="18.8646348 24.4163571 22.0319739 24.4163571 22.0319739 20.9120714 18.8646348 20.9120714"></polygon>
                                <polygon id="Fill-2" points="24.6631043 24.4163571 27.8304435 24.4163571 27.8304435 20.9120714 24.6631043 20.9120714"></polygon>
                                <polygon id="Fill-3" points="30.4612174 24.4163571 33.6285565 24.4163571 33.6285565 20.9120714 30.4612174 20.9120714"></polygon>
                                <polygon id="Fill-4" points="8.29091304 24.416 11.4586087 24.416 11.4586087 20.9117143 8.29091304 20.9117143"></polygon>
                                <polygon id="Fill-5" points="13.5774174 16.4242143 16.745113 16.4242143 16.745113 12.9195714 13.5774174 12.9195714"></polygon>
                                <polygon id="Fill-6" points="8.29091304 16.4242143 11.4586087 16.4242143 11.4586087 12.9195714 8.29091304 12.9195714"></polygon>
                                <polygon id="Fill-7" points="18.8646348 16.4242143 22.0319739 16.4242143 22.0319739 12.9195714 18.8646348 12.9195714"></polygon>
                                <path d="M13.5776313,20.7188214 L13.5776313,27.9716786 L6.19513565,27.9716786 L6.19513565,9.99025 L15.1613009,3.87382143 L24.1281791,9.99060714 L24.1281791,19.1956071 L35.9065878,19.1956071 L35.9065878,27.9716786 L16.745327,27.9716786 L16.745327,20.7188214 L13.5776313,20.7188214 Z M40.0550748,27.9716786 L37.8171878,27.9716786 L37.8171878,17.2820357 L26.0384226,17.2820357 L26.0384226,16.5356071 L37.80364,16.5356071 L37.80364,14.6216786 L26.0384226,14.6216786 L26.0384226,11.2934643 L28.5344313,12.9963214 L30.3231009,10.3656071 L16.0554574,0.633107143 C15.51604,0.264892857 14.8065617,0.264892857 14.2671443,0.633107143 L-0.000142608696,10.3656071 L1.78852696,12.9963214 L4.28453565,11.2934643 L4.28453565,27.9716786 L2.00814435,27.9716786 C1.54716174,27.9716786 1.16889217,28.3498929 1.16889217,28.8116786 L1.16889217,29.8531071 L40.8939704,29.8531071 L40.8939704,28.8116786 C40.8939704,28.3498929 40.5167704,27.9716786 40.0550748,27.9716786 L40.0550748,27.9716786 Z" id="Fill-8"></path>
                            </g>
                        </g>
                    </g>
                </g>
            </g>
        </g>
    </g>
</svg>