<?xml version="1.0" encoding="UTF-8"?>
<svg width="44px" height="22px" viewBox="0 0 44 22" version="1.1" xmlns="http://www.w3.org/2000/svg" xmlns:xlink="http://www.w3.org/1999/xlink">
    <!-- Generator: Sketch 54.1 (76490) - https://sketchapp.com -->
    <title>Group 13</title>
    <desc>Created with Sketch.</desc>
    <g id="Desktop" stroke="none" stroke-width="1" fill="none" fill-rule="evenodd" stroke-linejoin="round">
        <g id="FMH---Community-Microsite" transform="translate(-594.000000, -796.000000)" stroke="#6295BA" stroke-width="2">
            <g id="overview" transform="translate(0.000000, 790.000000)">
                <g id="Header" transform="translate(16.000000, 0.000000)">
                    <g id="square-feet" transform="translate(579.000000, 7.000000)">
                        <g id="Group-13">
                            <path d="M27.4472681,9.93874113 L21.9550979,0.86072695 C21.6325021,0.327039007 21.0507574,-8.86524823e-05 20.4234383,-8.86524823e-05 L7.27922553,-8.86524823e-05 C6.65101277,-8.86524823e-05 6.06926809,0.327039007 5.74667234,0.86072695 L0.254502128,9.93874113 C0.0882893617,10.2144504 -0.000178723404,10.5300532 -0.000178723404,10.8509752 L-0.000178723404,17.7304078 C-0.000178723404,18.7100177 0.800502128,19.5034574 1.78705532,19.5034574 L25.9147149,19.5034574 C26.9021617,19.5034574 27.7019489,18.7100177 27.7019489,17.7304078 L27.7019489,10.8509752 C27.7019489,10.5300532 27.6143745,10.2144504 27.4472681,9.93874113 Z" id="Stroke-1"></path>
                            <path d="M19.6595745,6.20567376 C19.6595745,7.67464539 17.0591489,8.86524823 13.8510638,8.86524823 C10.6429787,8.86524823 8.04255319,7.67464539 8.04255319,6.20567376 C8.04255319,4.73670213 10.6429787,3.54609929 13.8510638,3.54609929 C17.0591489,3.54609929 19.6595745,4.73670213 19.6595745,6.20567376 Z" id="Stroke-3"></path>
                            <polyline id="Stroke-5" points="25.9148936 7.09219858 41.106383 7.09219858 41.106383 17.7304965 27.7021277 17.7304965"></polyline>
                            <path d="M36.6382979,11.5248227 L36.6382979,17.7304965" id="Stroke-7"></path>
                            <path d="M32.1702128,11.5248227 L32.1702128,17.7304965" id="Stroke-9"></path>
                            <path d="M41.106383,4.43262411 L41.106383,7.09219858" id="Stroke-11"></path>
                        </g>
                    </g>
                </g>
            </g>
        </g>
    </g>
</svg>