<?xml version="1.0" encoding="UTF-8"?>
<svg width="35px" height="35px" viewBox="0 0 35 35" version="1.1" xmlns="http://www.w3.org/2000/svg" xmlns:xlink="http://www.w3.org/1999/xlink">
    <!-- Generator: Sketch 54.1 (76490) - https://sketchapp.com -->
    <title>Group 6</title>
    <desc>Created with Sketch.</desc>
    <g id="Desktop" stroke="none" stroke-width="1" fill="none" fill-rule="evenodd">
        <g id="FMH---Community-Microsite" transform="translate(-20.000000, -5219.000000)" fill="#FFFFFF">
            <g id="Sales-Center" transform="translate(0.000000, 5012.000000)">
                <g id="content" transform="translate(20.000000, 80.000000)">
                    <g id="Hours" transform="translate(0.000000, 122.000000)">
                        <g id="Group-6" transform="translate(0.000000, 5.000000)">
                            <path d="M17.4139353,32.6186151 C9.03130935,32.6186151 2.21159712,25.7976439 2.21159712,17.4135072 C2.21159712,9.0293705 9.03130935,2.20839928 17.4139353,2.20839928 C25.7965612,2.20839928 32.6162734,9.0293705 32.6162734,17.4135072 C32.6162734,25.7976439 25.7965612,32.6186151 17.4139353,32.6186151 M17.4139353,-0.000125899281 C7.81184892,-0.000125899281 5.03597122e-05,7.81142086 5.03597122e-05,17.4135072 C5.03597122e-05,27.0153417 7.81184892,34.8271403 17.4139353,34.8271403 C27.015518,34.8271403 34.8273165,27.0153417 34.8273165,17.4135072 C34.8273165,7.81142086 27.015518,-0.000125899281 17.4139353,-0.000125899281" id="Fill-1"></path>
                            <path d="M17.4111151,6.79574101 C16.8005036,6.79574101 16.303705,7.29253957 16.303705,7.90264748 L16.303705,17.4168561 C16.303705,18.0274676 16.8005036,18.5242662 17.4111151,18.5242662 L26.9479856,18.5242662 C27.5457554,18.5242662 28.0317266,18.0297338 28.0317266,17.4221439 C28.0317266,16.814554 27.5452518,16.3202734 26.9472302,16.3202734 L18.5180216,16.3202734 L18.5180216,7.90289928 C18.5180216,7.29253957 18.0214748,6.79574101 17.4111151,6.79574101" id="Fill-4"></path>
                        </g>
                    </g>
                </g>
            </g>
        </g>
    </g>
</svg>