
<svg width="54px" height="40px" viewBox="0 0 54 40" version="1.1" xmlns="http://www.w3.org/2000/svg" xmlns:xlink="http://www.w3.org/1999/xlink">
    <g id="Desktop" stroke="none" stroke-width="1" fill="none" fill-rule="evenodd">
        <g id="My-Time-Tour---3" transform="translate(-676.000000, -476.000000)">
            <g id="Credit-Card" transform="translate(510.000000, 437.000000)">
                <g id="photo-id" transform="translate(45.000000, 40.000000)">
                    <g id="Group-24" transform="translate(122.000000, 0.000000)">
                        <path d="M5.2,8.63636364 L13,8.63636364 C13.4792667,8.63636364 13.8666667,8.24945455 13.8666667,7.77272727 C13.8666667,7.296 13.4792667,6.90909091 13,6.90909091 L5.2,6.90909091 C4.72073333,6.90909091 4.33333333,7.296 4.33333333,7.77272727 C4.33333333,8.24945455 4.72073333,8.63636364 5.2,8.63636364" id="Fill-4" fill="#6295BA"></path>
                        <path d="M24.2666667,6.90909091 L16.4666667,6.90909091 C15.9874,6.90909091 15.6,7.296 15.6,7.77272727 C15.6,8.24945455 15.9874,8.63636364 16.4666667,8.63636364 L24.2666667,8.63636364 C24.7459333,8.63636364 25.1333333,8.24945455 25.1333333,7.77272727 C25.1333333,7.296 24.7459333,6.90909091 24.2666667,6.90909091" id="Fill-6" fill="#6295BA"></path>
                        <path d="M5.2,12.9545455 L6.06666667,12.9545455 C6.54593333,12.9545455 6.93333333,12.5676364 6.93333333,12.0909091 C6.93333333,11.6141818 6.54593333,11.2272727 6.06666667,11.2272727 L5.2,11.2272727 C4.72073333,11.2272727 4.33333333,11.6141818 4.33333333,12.0909091 C4.33333333,12.5676364 4.72073333,12.9545455 5.2,12.9545455" id="Fill-8" fill="#6295BA"></path>
                        <path d="M9.53333333,11.2272727 C9.05406667,11.2272727 8.66666667,11.6141818 8.66666667,12.0909091 C8.66666667,12.5676364 9.05406667,12.9545455 9.53333333,12.9545455 L11.2666667,12.9545455 C11.7459333,12.9545455 12.1333333,12.5676364 12.1333333,12.0909091 C12.1333333,11.6141818 11.7459333,11.2272727 11.2666667,11.2272727 L9.53333333,11.2272727 Z" id="Fill-10" fill="#6295BA"></path>
                        <path d="M16.4666667,12.0909091 C16.4666667,11.6141818 16.0792667,11.2272727 15.6,11.2272727 L14.7333333,11.2272727 C14.2540667,11.2272727 13.8666667,11.6141818 13.8666667,12.0909091 C13.8666667,12.5676364 14.2540667,12.9545455 14.7333333,12.9545455 L15.6,12.9545455 C16.0792667,12.9545455 16.4666667,12.5676364 16.4666667,12.0909091" id="Fill-12" fill="#6295BA"></path>
                        <path d="M20.8,12.9545455 C21.2792667,12.9545455 21.6666667,12.5676364 21.6666667,12.0909091 C21.6666667,11.6141818 21.2792667,11.2272727 20.8,11.2272727 L19.0666667,11.2272727 C18.5874,11.2272727 18.2,11.6141818 18.2,12.0909091 C18.2,12.5676364 18.5874,12.9545455 19.0666667,12.9545455 L20.8,12.9545455 Z" id="Fill-14" fill="#6295BA"></path>
                        <path d="M23.6513333,11.4777273 C23.4944667,11.6418182 23.4,11.8663636 23.4,12.0909091 C23.4,12.3154545 23.4944667,12.54 23.6513333,12.7040909 C23.8151333,12.8595455 24.0413333,12.9545455 24.2666667,12.9545455 C24.5006667,12.9545455 24.7173333,12.8595455 24.882,12.7040909 C25.038,12.54 25.1333333,12.3154545 25.1333333,12.0909091 C25.1333333,11.8663636 25.038,11.6418182 24.882,11.4777273 C24.5526667,11.1581818 23.972,11.1581818 23.6513333,11.4777273" id="Fill-16" fill="#6295BA"></path>
                        <polyline id="Stroke-1" stroke="#6295BA" stroke-width="2" stroke-linecap="round" stroke-linejoin="round" points="13.671125 0 52 0 52 38 0 38 0 0 14.95 0"></polyline>
                        <path d="M33.8,14.6818182 L45.9333333,14.6818182 L45.9333333,7.77272727 L33.8,7.77272727 L33.8,14.6818182 Z M32.0666667,16.4090909 L47.6666667,16.4090909 L47.6666667,6.04545455 L32.0666667,6.04545455 L32.0666667,16.4090909 Z" id="Fill-18" fill="#6295BA"></path>
                        <path d="M6.06666667,30.2272727 L12.1333333,30.2272727 L12.1333333,26.7727273 L6.06666667,26.7727273 L6.06666667,30.2272727 Z M4.33333333,31.9545455 L13.8666667,31.9545455 L13.8666667,25.0454545 L4.33333333,25.0454545 L4.33333333,31.9545455 Z" id="Fill-20" fill="#6295BA"></path>
                        <path d="M17.3333333,30.2272727 L23.4,30.2272727 L23.4,26.7727273 L17.3333333,26.7727273 L17.3333333,30.2272727 Z M15.6,31.9545455 L25.1333333,31.9545455 L25.1333333,25.0454545 L15.6,25.0454545 L15.6,31.9545455 Z" id="Fill-21" fill="#6295BA"></path>
                        <path d="M28.6,30.2272727 L34.6666667,30.2272727 L34.6666667,26.7727273 L28.6,26.7727273 L28.6,30.2272727 Z M26.8666667,31.9545455 L36.4,31.9545455 L36.4,25.0454545 L26.8666667,25.0454545 L26.8666667,31.9545455 Z" id="Fill-22" fill="#6295BA"></path>
                        <path d="M39.8666667,30.2272727 L45.9333333,30.2272727 L45.9333333,26.7727273 L39.8666667,26.7727273 L39.8666667,30.2272727 Z M38.1333333,31.9545455 L47.6666667,31.9545455 L47.6666667,25.0454545 L38.1333333,25.0454545 L38.1333333,31.9545455 Z" id="Fill-23" fill="#6295BA"></path>
                    </g>
                </g>
            </g>
        </g>
    </g>
</svg>
