<?xml version="1.0" encoding="UTF-8"?>
<svg width="21px" height="24px" viewBox="0 0 21 24" version="1.1" xmlns="http://www.w3.org/2000/svg" xmlns:xlink="http://www.w3.org/1999/xlink">
    <!-- Generator: Sketch 54.1 (76490) - https://sketchapp.com -->
    <title>EHO</title>
    <desc>Created with Sketch.</desc>
    <g id="Symbols" stroke="none" stroke-width="1" fill="none" fill-rule="evenodd">
        <g id="Footer/Desktop/NOMHBRnPRICING" transform="translate(-956.000000, -223.000000)" fill="#FFFFFF">
            <g id="Footer">
                <g id="EHO" transform="translate(956.000000, 223.000000)">
                    <g>
                        <path d="M10.4727,0 L-0.000466666667,6.992 L-0.000466666667,8.85257143 L1.59086667,8.85257143 L1.59086667,17.4034286 L19.3580333,17.4034286 L19.3580333,8.80342857 L20.9995333,8.80342857 L20.9995333,6.94171429 L10.4727,0 Z M3.74803333,6.89142857 L10.5252,2.86742857 L17.2510333,6.94171429 L17.2510333,15.3417143 L3.74803333,15.3417143 L3.74803333,6.89142857 Z" id="Fill-1"></path>
                        <polygon id="Fill-2" points="6.41666667 9.70754286 14.8388333 9.70754286 14.8388333 7.79668571 6.41666667 7.79668571"></polygon>
                        <polygon id="Fill-3" points="6.41666667 12.9269714 14.8388333 12.9269714 14.8388333 11.0161143 6.41666667 11.0161143"></polygon>
                        <polygon id="Fill-4" points="1.52145 18.3507429 1.52145 20.4090286 2.57145 20.4090286 2.57145 20.1073143 1.89595 20.1073143 1.89595 19.4741714 2.51778333 19.4741714 2.51778333 19.1724571 1.89595 19.1724571 1.89595 18.6536 2.57145 18.6536 2.57145 18.3507429"></polygon>
                        <path d="M3.71,19.7261714 L3.8955,19.9056 C3.90833333,19.8450286 3.9165,19.7673143 3.9165,19.7021714 L3.91883333,19.1307429 C3.91883333,18.9707429 3.94216667,18.6107429 3.64933333,18.6107429 C3.3565,18.6107429 3.381,18.9707429 3.381,19.1307429 L3.381,19.7021714 C3.381,19.8701714 3.39383333,20.1467429 3.64933333,20.1467429 C3.68666667,20.1467429 3.71816667,20.1421714 3.745,20.1330286 L3.56766667,19.9433143 L3.71,19.7261714 Z M4.20933333,20.6050286 L4.0005,20.3947429 C3.91066667,20.4416 3.8045,20.4587429 3.64933333,20.4587429 C3.03566667,20.4587429 2.99483333,20.0576 2.99483333,19.5090286 L2.99483333,19.2153143 C3.01116667,18.6930286 3.05083333,18.3021714 3.64933333,18.3021714 C4.24666667,18.3021714 4.2875,18.6930286 4.30266667,19.2153143 L4.30266667,19.5090286 C4.30266667,19.7730286 4.28983333,20.0518857 4.19416667,20.2118857 L4.3995,20.4221714 L4.20933333,20.6050286 Z" id="Fill-5"></path>
                        <path d="M5.50783333,18.3512 L5.88116667,18.3512 L5.88116667,19.7866286 C5.88116667,20.2437714 5.73766667,20.4586286 5.25,20.4586286 C4.75533333,20.4586286 4.61183333,20.2437714 4.61183333,19.7866286 L4.61183333,18.3512 L4.98516667,18.3512 L4.98516667,19.7546286 C4.98516667,19.9500571 4.998,20.1489143 5.25116667,20.1489143 C5.495,20.1489143 5.50783333,19.9500571 5.50783333,19.7546286 L5.50783333,18.3512 Z" id="Fill-7"></path>
                        <path d="M6.64148333,19.5866286 L6.96115,19.5866286 L6.86081667,19.0026286 C6.84215,18.9066286 6.83398333,18.8117714 6.82348333,18.7180571 C6.81998333,18.6689143 6.81415,18.6220571 6.81181667,18.5786286 L6.80481667,18.5786286 C6.80015,18.6220571 6.79315,18.6689143 6.79081667,18.7180571 C6.78031667,18.8117714 6.77331667,18.9066286 6.75581667,19.0026286 L6.64148333,19.5866286 Z M6.08498333,20.4094857 L6.56331667,18.3512 L7.06615,18.3512 L7.51881667,20.4094857 L7.11748333,20.4094857 L7.02065,19.8883429 L6.58315,19.8883429 L6.48515,20.4094857 L6.08498333,20.4094857 Z" id="Fill-9"></path>
                        <polygon id="Fill-11" points="7.79788333 18.3512 7.79788333 20.4094857 8.86421667 20.4094857 8.86421667 20.1077714 8.17238333 20.1077714 8.17238333 18.3512"></polygon>
                        <polygon id="Fill-13" points="9.71191667 20.4092571 9.71191667 18.3509714 10.0864167 18.3509714 10.0864167 19.1646857 10.6090833 19.1646857 10.6090833 18.3509714 10.9800833 18.3509714 10.9800833 20.4092571 10.6090833 20.4092571 10.6090833 19.4675429 10.0864167 19.4675429 10.0864167 20.4092571"></polygon>
                        <path d="M11.7342167,19.7004571 C11.7342167,19.8707429 11.75055,20.1473143 12.0048833,20.1473143 C12.2743833,20.1473143 12.2778833,19.8661714 12.2778833,19.6684571 L12.2778833,19.1416 C12.2778833,18.9758857 12.2848833,18.6124571 12.0048833,18.6124571 C11.71205,18.6124571 11.7342167,18.9713143 11.7342167,19.1313143 L11.7342167,19.7004571 Z M11.3538833,19.2147429 C11.36905,18.6913143 11.4087167,18.3016 12.0048833,18.3016 C12.6022167,18.3016 12.6418833,18.6913143 12.66055,19.2147429 L12.66055,19.5084571 C12.66055,20.0581714 12.6197167,20.4581714 12.0048833,20.4581714 C11.3923833,20.4581714 11.3538833,20.0581714 11.3538833,19.5084571 L11.3538833,19.2147429 Z" id="Fill-15"></path>
                        <path d="M13.8829833,18.3512 L14.2574833,18.3512 L14.2574833,19.7866286 C14.2574833,20.2437714 14.11165,20.4586286 13.62515,20.4586286 C13.1304833,20.4586286 12.9858167,20.2437714 12.9858167,19.7866286 L12.9858167,18.3512 L13.3603167,18.3512 L13.3603167,19.7546286 C13.3603167,19.9500571 13.37315,20.1489143 13.6274833,20.1489143 C13.87015,20.1489143 13.8829833,19.9500571 13.8829833,19.7546286 L13.8829833,18.3512 Z" id="Fill-17"></path>
                        <path d="M15.4233333,18.9762286 C15.4256667,18.7922286 15.4105,18.6128 15.2051667,18.6128 C15.0803333,18.6128 14.9986667,18.6642286 14.9986667,18.8048 C14.9986667,18.9602286 15.0966667,19.0208 15.2121667,19.0973714 C15.3358333,19.1773714 15.5621667,19.3305143 15.666,19.4356571 C15.7955,19.5659429 15.8363333,19.6870857 15.8363333,19.8642286 C15.8363333,20.2562286 15.5843333,20.4585143 15.218,20.4585143 C14.7711667,20.4585143 14.6101667,20.2013714 14.6101667,19.8322286 L14.6101667,19.6813714 L14.9835,19.6813714 L14.9835,19.8036571 C14.9765,20.0025143 15.0336667,20.1476571 15.218,20.1476571 C15.3766667,20.1476571 15.4501667,20.0642286 15.4501667,19.9065143 C15.4501667,19.7865143 15.3988333,19.7053714 15.302,19.6345143 C15.1071667,19.4790857 14.8645,19.3682286 14.7105,19.1613714 C14.651,19.0665143 14.616,18.9556571 14.616,18.8459429 C14.616,18.4928 14.8073333,18.3008 15.2028333,18.3008 C15.7978333,18.3008 15.7826667,18.7728 15.7826667,18.9762286 L15.4233333,18.9762286 Z" id="Fill-19"></path>
                        <polygon id="Fill-21" points="15.9868333 20.4092571 16.359 20.4092571 16.359 18.3521143 15.9868333 18.3521143"></polygon>
                        <path d="M17.6211,18.3512 L17.9932667,18.3512 L17.9932667,20.4094857 L17.6036,20.4094857 L17.3131,19.6769143 C17.2139333,19.4334857 17.1357667,19.1832 17.0471,18.8586286 L17.0401,18.8586286 C17.0541,19.0300571 17.0692667,19.2369143 17.0809333,19.4460571 C17.0914333,19.6517714 17.1007667,19.8563429 17.1007667,20.0209143 L17.1007667,20.4094857 L16.7262667,20.4094857 L16.7262667,18.3512 L17.1124333,18.3512 L17.4029333,19.0997714 C17.4997667,19.3386286 17.5802667,19.5843429 17.6724333,19.9180571 L17.6771,19.9180571 C17.6631,19.7317714 17.6491,19.5329143 17.6397667,19.3340571 C17.6281,19.1363429 17.6211,18.9397714 17.6211,18.7546286 L17.6211,18.3512 Z" id="Fill-23"></path>
                        <path d="M18.3218,19.2149714 C18.3393,18.6915429 18.3789667,18.3018286 18.9763,18.3018286 C19.2959667,18.3041143 19.5176333,18.3898286 19.6028,18.7464 C19.6203,18.8286857 19.6191333,18.9144 19.6203,18.9978286 L19.2481333,18.9978286 C19.2423,18.7864 19.2283,18.6218286 18.9763,18.6126857 C18.6834667,18.6126857 18.7044667,18.9704 18.7044667,19.1315429 L18.7044667,19.7018286 C18.7044667,19.8698286 18.7208,20.1475429 18.9763,20.1475429 C19.1886333,20.1475429 19.2586333,19.9155429 19.2504667,19.6058286 L18.9914667,19.6058286 L18.9914667,19.3029714 L19.6121333,19.3029714 L19.6121333,20.4081143 L19.3321333,20.4081143 L19.3321333,20.1715429 L19.3274667,20.1715429 C19.2528,20.3864 19.1128,20.4481143 18.9763,20.4572571 C18.3626333,20.4572571 18.3218,20.0572571 18.3218,19.5098286 L18.3218,19.2149714 Z" id="Fill-24"></path>
                        <path d="M1.93608333,22.7072 C1.93608333,22.9060571 1.95125,23.2306286 2.24758333,23.2306286 C2.55558333,23.2306286 2.56025,22.9003429 2.56025,22.6672 L2.56025,22.0523429 C2.56025,21.8580571 2.56841667,21.4306286 2.24758333,21.4306286 C1.90691667,21.4306286 1.93608333,21.8512 1.93608333,22.0386286 L1.93608333,22.7072 Z M1.48925,22.1357714 C1.50908333,21.5209143 1.55458333,21.0660571 2.24758333,21.0660571 C2.94058333,21.0660571 2.98491667,21.5209143 3.00241667,22.1357714 L3.00241667,22.4832 C3.00241667,23.1254857 2.95808333,23.5940571 2.24758333,23.5940571 C1.53591667,23.5940571 1.48925,23.1254857 1.48925,22.4832 L1.48925,22.1357714 Z" id="Fill-25"></path>
                        <path d="M3.89118333,22.1737143 L4.12101667,22.1737143 C4.31118333,22.1737143 4.43835,22.0902857 4.43835,21.7954286 C4.43835,21.5188571 4.33218333,21.4777143 4.08718333,21.4777143 L3.89118333,21.4777143 L3.89118333,22.1737143 Z M3.45718333,23.536 L3.45718333,21.1245714 L4.34268333,21.1245714 C4.75568333,21.1245714 4.88401667,21.4731429 4.88401667,21.8091429 C4.88401667,22.0148571 4.83268333,22.2457143 4.66585,22.3828571 C4.53051667,22.4948571 4.34968333,22.5291429 4.18168333,22.5268571 L3.89118333,22.5268571 L3.89118333,23.536 L3.45718333,23.536 Z" id="Fill-26"></path>
                        <path d="M5.6252,22.1737143 L5.85503333,22.1737143 C6.04403333,22.1737143 6.17236667,22.0902857 6.17236667,21.7954286 C6.17236667,21.5188571 6.0662,21.4777143 5.82236667,21.4777143 L5.6252,21.4777143 L5.6252,22.1737143 Z M5.19236667,23.536 L5.19236667,21.1245714 L6.07553333,21.1245714 C6.49086667,21.1245714 6.61686667,21.4731429 6.61686667,21.8091429 C6.61686667,22.0148571 6.56553333,22.2457143 6.4022,22.3828571 C6.26453333,22.4948571 6.08253333,22.5291429 5.91686667,22.5268571 L5.6252,22.5268571 L5.6252,23.536 L5.19236667,23.536 Z" id="Fill-27"></path>
                        <path d="M7.46515,22.7072 C7.46515,22.9060571 7.48031667,23.2306286 7.77781667,23.2306286 C8.08465,23.2306286 8.08931667,22.9003429 8.08931667,22.6672 L8.08931667,22.0523429 C8.08931667,21.8580571 8.09865,21.4306286 7.77781667,21.4306286 C7.43715,21.4306286 7.46515,21.8512 7.46515,22.0386286 L7.46515,22.7072 Z M7.01831667,22.1357714 C7.03931667,21.5209143 7.08598333,21.0660571 7.77781667,21.0660571 C8.46965,21.0660571 8.51515,21.5209143 8.53498333,22.1357714 L8.53498333,22.4832 C8.53498333,23.1254857 8.48831667,23.5940571 7.77781667,23.5940571 C7.06498333,23.5940571 7.01831667,23.1254857 7.01831667,22.4832 L7.01831667,22.1357714 Z" id="Fill-28"></path>
                        <path d="M9.37125,22.1446857 L9.70958333,22.1446857 C9.85308333,22.1344 9.96508333,22.0384 9.96508333,21.7949714 C9.96508333,21.5264 9.85658333,21.4806857 9.69208333,21.4772571 L9.37125,21.4772571 L9.37125,22.1446857 Z M9.37125,22.4989714 L9.37125,23.5389714 L8.93725,23.5389714 L8.93725,21.1241143 L9.75625,21.1241143 C10.1319167,21.1241143 10.4165833,21.2601143 10.4165833,21.7024 C10.4165833,21.9664 10.3500833,22.2429714 10.06075,22.2864 L10.06075,22.2909714 C10.31625,22.3275429 10.39325,22.4989714 10.39325,22.7286857 C10.39325,22.8304 10.3815833,23.4212571 10.48775,23.4944 L10.48775,23.5389714 L10.0094167,23.5389714 C9.95808333,23.3824 9.96858333,23.0864 9.96508333,22.9264 C9.96158333,22.7778286 9.96508333,22.5732571 9.81691667,22.5298286 C9.69908333,22.4955429 9.57191667,22.4989714 9.44825,22.4989714 L9.37125,22.4989714 Z" id="Fill-29"></path>
                        <polygon id="Fill-30" points="10.6643833 21.1235429 10.6643833 21.4778286 11.1707167 21.4778286 11.1707167 23.5361143 11.6047167 23.5361143 11.6047167 21.4778286 12.1063833 21.4778286 12.1063833 21.1235429"></polygon>
                        <path d="M13.3474833,21.1235429 L13.7814833,21.1235429 L13.7814833,22.8069714 C13.7814833,23.3406857 13.61465,23.5932571 13.0488167,23.5932571 C12.4759833,23.5932571 12.3103167,23.3406857 12.3103167,22.8069714 L12.3103167,21.1235429 L12.74315,21.1235429 L12.74315,22.7681143 C12.74315,23.0001143 12.75715,23.2321143 13.0523167,23.2321143 C13.3334833,23.2321143 13.3474833,23.0001143 13.3474833,22.7681143 L13.3474833,21.1235429 Z" id="Fill-31"></path>
                        <path d="M15.1464833,21.1235429 L15.5793167,21.1235429 L15.5793167,23.5361143 L15.1278167,23.5361143 L14.7894833,22.6789714 C14.6763167,22.3921143 14.5864833,22.0995429 14.4814833,21.7189714 L14.47565,21.7189714 C14.49315,21.9201143 14.51065,22.1624 14.5223167,22.4058286 C14.5339833,22.6492571 14.5433167,22.8904 14.5433167,23.0846857 L14.5433167,23.5361143 L14.1104833,23.5361143 L14.1104833,21.1235429 L14.55965,21.1235429 L14.89565,22.0035429 C15.00765,22.2835429 15.1009833,22.5692571 15.20365,22.9612571 L15.2118167,22.9612571 C15.1954833,22.7429714 15.1803167,22.5086857 15.1698167,22.2766857 C15.1569833,22.0446857 15.1464833,21.8138286 15.1464833,21.5966857 L15.1464833,21.1235429 Z" id="Fill-32"></path>
                        <polygon id="Fill-33" points="15.8876667 23.5384 16.3193333 23.5384 16.3193333 21.1246857 15.8876667 21.1246857"></polygon>
                        <polygon id="Fill-34" points="16.5866167 21.1235429 16.5866167 21.4778286 17.09295 21.4778286 17.09295 23.5361143 17.52695 23.5361143 17.52695 21.4778286 18.0286167 21.4778286 18.0286167 21.1235429"></polygon>
                        <path d="M18.8333833,21.7574857 C18.8788833,21.8763429 18.91855,21.9997714 18.9348833,22.1277714 L18.9418833,22.1277714 C18.9722167,21.9403429 19.0317167,21.8054857 19.0853833,21.6717714 L19.2918833,21.1232 L19.7643833,21.1232 L19.1507167,22.5117714 L19.1507167,23.5369143 L18.7178833,23.5369143 L18.7178833,22.5117714 L18.1158833,21.1232 L18.58955,21.1232 L18.8333833,21.7574857 Z" id="Fill-35"></path>
                    </g>
                </g>
            </g>
        </g>
    </g>
</svg>