<?xml version="1.0" encoding="UTF-8"?>
<svg width="44px" height="44px" viewBox="0 0 44 44" version="1.1" xmlns="http://www.w3.org/2000/svg" xmlns:xlink="http://www.w3.org/1999/xlink">
    <!-- Generator: Sketch 54.1 (76490) - https://sketchapp.com -->
    <title>Facebook</title>
    <desc>Created with Sketch.</desc>
    <g id="Symbols" stroke="none" stroke-width="1" fill="none" fill-rule="evenodd">
        <g id="Footer/Desktop/NOMHBRnPRICING" transform="translate(-767.000000, -106.000000)" fill="#FFFFFF">
            <g id="Footer">
                <g id="Social-Media" transform="translate(684.000000, 106.000000)">
                    <g id="Icons/Social-Media/Facebook" transform="translate(83.000000, 0.000000)">
                        <path d="M28.0770606,13.2258883 L25.2777297,13.2258883 C25.2777297,13.2258883 24.089981,13.2639594 24.089981,14.6395939 L24.089981,17.357868 L28.0669089,17.357868 L27.7445925,21.9771574 L24.089981,21.9771574 L24.089981,34.9441624 L18.6689739,34.9441624 L18.6689739,21.9543147 L15.9229394,21.9543147 L15.9229394,17.3807107 L18.6689739,17.3807107 L18.6689739,13.8604061 C18.6689739,13.8604061 18.4177193,12.0329949 20.1561977,10.4111675 C20.1561977,10.4111675 21.2551191,9.10406091 23.4758032,9.08121827 C23.4758032,9.08121827 24.089981,9.05837563 24.1128223,9.05837563 L28.0770606,9.05837563 L28.0770606,13.2258883 Z M22.001269,0 C9.84968564,0 0,9.85025381 0,22 C0,34.1497462 9.84968564,44 22.001269,44 C34.1528523,44 44,34.1497462 44,22 C44,9.85025381 34.1528523,0 22.001269,0 L22.001269,0 Z" id="Fill-1"></path>
                    </g>
                </g>
            </g>
        </g>
    </g>
</svg>