
<svg width="30px" height="23px" viewBox="0 0 30 23" version="1.1" xmlns="http://www.w3.org/2000/svg" xmlns:xlink="http://www.w3.org/1999/xlink">
    <g id="Symbols" stroke="none" stroke-width="1" fill="none" fill-rule="evenodd">
        <g id="FiltersLink" fill="#0F2D4F">
            <g id="text-and-icon">
                <g id="Icons/Filter/Color1">
                    <g id="Group-9">
                        <path d="M12.91625,1.89473684 C13.95625,1.89473684 14.8025,2.74989474 14.8025,3.80084211 C14.8025,4.85178947 13.95625,5.70694737 12.91625,5.70694737 C11.87625,5.70694737 11.03,4.85178947 11.03,3.80084211 C11.03,2.74989474 11.87625,1.89473684 12.91625,1.89473684 M0.9375,4.74821053 L9.2875,4.74821053 C9.7075,6.384 11.1675,7.60168421 12.91625,7.60168421 C14.665,7.60168421 16.125,6.384 16.54375,4.74821053 L29.0625,4.74821053 C29.58,4.74821053 30,4.32378947 30,3.80084211 C30,3.27789474 29.58,2.85347368 29.0625,2.85347368 L16.54375,2.85347368 C16.125,1.21642105 14.665,0 12.91625,0 C11.1675,0 9.7075,1.21642105 9.2875,2.85347368 L0.9375,2.85347368 C0.42,2.85347368 0,3.27789474 0,3.80084211 C0,4.32378947 0.42,4.74821053 0.9375,4.74821053" id="Fill-1"></path>
                        <path d="M23.4265,13.2853895 C22.3865,13.2853895 21.54025,12.4302316 21.54025,11.3792842 C21.54025,10.3283368 22.3865,9.47317895 23.4265,9.47317895 C24.4665,9.47317895 25.31275,10.3283368 25.31275,11.3792842 C25.31275,12.4302316 24.4665,13.2853895 23.4265,13.2853895 M29.06275,10.4319158 L27.054,10.4319158 C26.63525,8.79612632 25.174,7.57844211 23.4265,7.57844211 C21.679,7.57844211 20.21775,8.79612632 19.799,10.4319158 L0.93775,10.4319158 C0.42025,10.4319158 0.00025,10.8563368 0.00025,11.3792842 C0.00025,11.9022316 0.42025,12.3266526 0.93775,12.3266526 L19.799,12.3266526 C20.21775,13.9624421 21.679,15.1801263 23.4265,15.1801263 C25.174,15.1801263 26.63525,13.9624421 27.054,12.3266526 L29.06275,12.3266526 C29.58025,12.3266526 30.00025,11.9022316 30.00025,11.3792842 C30.00025,10.8563368 29.58025,10.4319158 29.06275,10.4319158" id="Fill-3"></path>
                        <path d="M7.2705,20.8643368 C6.2305,20.8643368 5.38425,20.0091789 5.38425,18.9582316 C5.38425,17.9072842 6.2305,17.0521263 7.2705,17.0521263 C8.30925,17.0521263 9.1555,17.9072842 9.1555,18.9582316 C9.1555,20.0091789 8.30925,20.8643368 7.2705,20.8643368 M29.063,18.0108632 L10.898,18.0108632 C10.478,16.3750737 9.018,15.1573895 7.2705,15.1573895 C5.52175,15.1573895 4.06175,16.3750737 3.64175,18.0108632 L0.938,18.0108632 C0.4205,18.0108632 0.0005,18.4352842 0.0005,18.9582316 C0.0005,19.4811789 0.4205,19.9056 0.938,19.9056 L3.64175,19.9056 C4.06175,21.5413895 5.52175,22.7590737 7.2705,22.7590737 C9.018,22.7590737 10.478,21.5413895 10.898,19.9056 L29.063,19.9056 C29.5805,19.9056 30.0005,19.4811789 30.0005,18.9582316 C30.0005,18.4352842 29.5805,18.0108632 29.063,18.0108632" id="Fill-6"></path>
                    </g>
                </g>
            </g>
        </g>
    </g>
</svg>
