
<svg width="54px" height="38px" viewBox="0 0 54 38" version="1.1" xmlns="http://www.w3.org/2000/svg" xmlns:xlink="http://www.w3.org/1999/xlink">
    <g id="Desktop" stroke="none" stroke-width="1" fill="none" fill-rule="evenodd" stroke-linecap="round" stroke-linejoin="round">
        <g id="My-Time-Tour---3" transform="translate(-232.000000, -461.000000)" stroke="#6295BA" stroke-width="2">
            <g id="Photo-ID" transform="translate(97.000000, 437.000000)">
                <g id="photo-id" transform="translate(37.000000, 25.000000)">
                    <g id="Group-14" transform="translate(99.000000, 0.000000)">
                        <polyline id="Stroke-1" points="13.6256844 1.07142857e-05 51.8272209 1.07142857e-05 51.8272209 35.9464393 -2.15946844e-05 35.9464393 -2.15946844e-05 1.07142857e-05 14.9003106 1.07142857e-05"></polyline>
                        <polygon id="Stroke-3" points="5.15033223 24.2142857 23.6893688 24.2142857 23.6893688 5.81785714 5.15033223 5.81785714"></polygon>
                        <path d="M28.699314,9.199275 L46.6768887,9.199275" id="Stroke-4"></path>
                        <path d="M28.699314,15.96 L46.6768887,15.96" id="Stroke-5"></path>
                        <path d="M28.699314,22.7206714 L46.6768887,22.7206714" id="Stroke-6"></path>
                        <path d="M28.699314,29.4706714 L46.6768887,29.4706714" id="Stroke-7"></path>
                        <path d="M5.15035382,29.4706714 L23.6893904,29.4706714" id="Stroke-8"></path>
                        <path d="M7.29901412,24.2142429 C7.29901412,20.3035286 10.4950274,17.1428143 14.42526,17.1428143 C18.3554925,17.1428143 21.5515058,20.31435 21.5515058,24.2142429" id="Stroke-9"></path>
                        <path d="M14.42526,8.75355 C16.756838,8.75355 18.6470208,10.6291929 18.6470208,12.9428357 C18.6470208,15.2564786 16.756838,17.1321214 14.42526,17.1321214 C12.0936819,17.1321214 10.2034992,15.2564786 10.2034992,12.9428357 C10.2034992,10.6291929 12.0936819,8.75355 14.42526,8.75355 Z" id="Stroke-11"></path>
                    </g>
                </g>
            </g>
        </g>
    </g>
</svg>
