<?xml version="1.0" encoding="UTF-8"?>
<svg width="36px" height="32px" viewBox="0 0 36 32" version="1.1" xmlns="http://www.w3.org/2000/svg" xmlns:xlink="http://www.w3.org/1999/xlink">
    <!-- Generator: Sketch 54.1 (76490) - https://sketchapp.com -->
    <title>Icons/Heart/OutlineColor</title>
    <desc>Created with Sketch.</desc>
    <g id="Desktop" stroke="none" stroke-width="1" fill="none" fill-rule="evenodd">
        <g id="FMH---Community-Microsite" transform="translate(-685.000000, -686.000000)" fill="#6295BA" stroke="#6295BA" stroke-width="0.5">
            <g id="Header" transform="translate(0.000000, 110.000000)">
                <g id="Icons/Heart/OutlineColor" transform="translate(686.000000, 577.000000)">
                    <path d="M8.9623431,1.86602871 C5.05020921,1.86602871 1.84937238,5.09569378 1.84937238,9.0430622 C1.84937238,14.2822967 5.12133891,17.7272727 17,27.5598086 C28.8786611,17.7272727 32.1506276,14.2822967 32.1506276,9.0430622 C32.1506276,5.09569378 28.9497908,1.86602871 25.0376569,1.86602871 C21.4811715,1.86602871 19.5599582,4.01913876 18.0669456,5.74162679 L17,6.96172249 L15.9330544,5.74162679 C14.4393305,4.01913876 12.5188285,1.86602871 8.9623431,1.86602871 L8.9623431,1.86602871 Z M17,30 L16.4309623,29.4976077 C3.48535565,18.8755981 0,15.1435407 0,9.0430622 C0,4.01913876 4.05439331,0 8.9623431,0 C13.0878661,0 15.4351464,2.36842105 17,4.16267943 C18.5648536,2.36842105 20.9121339,0 25.0376569,0 C30.0167364,0 34,4.09090909 34,9.0430622 C34,15.1435407 30.5146444,18.8755981 17.5690377,29.4976077 L17,30 Z" id="Fill-1"></path>
                </g>
            </g>
        </g>
    </g>
</svg>