<?xml version="1.0" encoding="UTF-8"?>
<svg width="80px" height="93px" viewBox="0 0 80 93" version="1.1" xmlns="http://www.w3.org/2000/svg" xmlns:xlink="http://www.w3.org/1999/xlink">
    <!-- Generator: Sketch 54.1 (76490) - https://sketchapp.com -->
    <title>Hospitals</title>
    <desc>Created with Sketch.</desc>
    <g id="Desktop" stroke="none" stroke-width="1" fill="none" fill-rule="evenodd" opacity="0.3">
        <g id="FMH---Community-Microsite" transform="translate(-704.000000, -1580.000000)">
            <g id="Area-Amenities" transform="translate(0.000000, 1455.000000)">
                <g id="Hospitals" transform="translate(692.000000, 127.000000)">
                    <text font-family="HelveticaNeue-Bold, Helvetica Neue" font-size="18" font-weight="bold" line-spacing="22" fill="#FFFFFF">
                        <tspan x="11.689" y="87">Hospitals</tspan>
                    </text>
                    <g id="Group-19" transform="translate(23.000000, 0.000000)" stroke="#FFFFFF" stroke-linecap="round" stroke-linejoin="round" stroke-width="2.5">
                        <polygon id="Stroke-1" points="21.5 15.0714286 36.5 15.0714286 36.5 0.0714285714 21.5 0.0714285714"></polygon>
                        <polyline id="Stroke-3" points="21.5 6.5 12.9285714 6.5 12.9285714 57.9285714 45.0714286 57.9285714 45.0714286 6.5 36.5 6.5"></polyline>
                        <polyline id="Stroke-4" points="12.9285714 23.6428571 0.0714285714 23.6428571 0.0714285714 57.9285714 57.9285714 57.9285714 57.9285714 23.6428571 45.0714286 23.6428571"></polyline>
                        <polygon id="Stroke-5" points="23.6428571 57.9285714 34.3571429 57.9285714 34.3571429 42.9285714 23.6428571 42.9285714"></polygon>
                        <polygon id="Stroke-7" points="4.35714286 51.5 12.9285714 51.5 12.9285714 47.2142857 4.35714286 47.2142857"></polygon>
                        <polygon id="Stroke-8" points="4.35714286 42.9285714 12.9285714 42.9285714 12.9285714 38.6428571 4.35714286 38.6428571"></polygon>
                        <polygon id="Stroke-9" points="4.35714286 34.3571429 12.9285714 34.3571429 12.9285714 30.0714286 4.35714286 30.0714286"></polygon>
                        <polygon id="Stroke-10" points="45.0714286 51.5 53.6428571 51.5 53.6428571 47.2142857 45.0714286 47.2142857"></polygon>
                        <polygon id="Stroke-11" points="45.0714286 42.9285714 53.6428571 42.9285714 53.6428571 38.6428571 45.0714286 38.6428571"></polygon>
                        <polygon id="Stroke-12" points="45.0714286 34.3571429 53.6428571 34.3571429 53.6428571 30.0714286 45.0714286 30.0714286"></polygon>
                        <path d="M29,42.9285714 L29,57.9285714" id="Stroke-13"></path>
                        <polygon id="Stroke-15" points="19.3571429 25.7857143 38.6428571 25.7857143 38.6428571 19.3571429 19.3571429 19.3571429"></polygon>
                        <polygon id="Stroke-16" points="19.3571429 36.5 38.6428571 36.5 38.6428571 30.0714286 19.3571429 30.0714286"></polygon>
                        <path d="M25.7857143,7.57142857 L32.2142857,7.57142857" id="Stroke-17"></path>
                        <path d="M29,10.7857143 L29,4.35714286" id="Stroke-18"></path>
                    </g>
                </g>
            </g>
        </g>
    </g>
</svg>