<?xml version="1.0" encoding="UTF-8"?>
<svg width="44px" height="44px" viewBox="0 0 44 44" version="1.1" xmlns="http://www.w3.org/2000/svg" xmlns:xlink="http://www.w3.org/1999/xlink">
    <!-- Generator: Sketch 54.1 (76490) - https://sketchapp.com -->
    <title>Instagram</title>
    <desc>Created with Sketch.</desc>
    <g id="Symbols" stroke="none" stroke-width="1" fill="none" fill-rule="evenodd">
        <g id="Footer/Desktop/NOMHBRnPRICING" transform="translate(-684.000000, -106.000000)">
            <g id="Footer">
                <g id="Social-Media" transform="translate(684.000000, 106.000000)">
                    <g id="Icons/Social-Media/Instagram">
                        <g id="Instagram-Icon">
                            <circle id="Oval" fill="#FFFFFF" cx="22" cy="22" r="22"></circle>
                            <g id="Instagram" transform="translate(8.800000, 8.800000)" fill="#002A4E">
                                <path d="M7.50718222,0.0770488889 C6.14807111,0.138648889 5.21820444,0.354737778 4.40567111,0.67056 C3.56673778,0.997137778 2.85393778,1.43420444 2.14407111,2.14407111 C1.43322667,2.85393778 0.997137778,3.56576 0.67056,4.40664889 C0.354737778,5.21918222 0.138648889,6.14709333 0.0770488889,7.50718222 C0.0144711111,8.86922667 0.000782222222,9.30433778 0.000782222222,12.7734933 C0.000782222222,16.2426489 0.0144711111,16.67776 0.0770488889,18.0398044 C0.138648889,19.3998933 0.354737778,20.3278044 0.67056,21.1403378 C0.997137778,21.9802489 1.43322667,22.6930489 2.14407111,23.4038933 C2.85393778,24.1127822 3.56673778,24.5498489 4.40567111,24.8764267 C5.21820444,25.1922489 6.14807111,25.40736 7.50718222,25.4699378 C8.86922667,25.5325156 9.30433778,25.5471822 12.7734933,25.5471822 C16.2426489,25.5471822 16.67776,25.5325156 18.0398044,25.4699378 C19.3989156,25.40736 20.3287822,25.1922489 21.1413156,24.8764267 C21.9802489,24.5498489 22.6930489,24.1127822 23.4029156,23.4038933 C24.11376,22.6930489 24.5498489,21.9802489 24.8764267,21.1403378 C25.1922489,20.3278044 25.4083378,19.3998933 25.4699378,18.0398044 C25.5325156,16.67776 25.5462044,16.2426489 25.5462044,12.7734933 C25.5462044,9.30433778 25.5325156,8.86922667 25.4699378,7.50718222 C25.4083378,6.14709333 25.1922489,5.21918222 24.8764267,4.40664889 C24.5498489,3.56576 24.11376,2.85393778 23.4029156,2.14407111 C22.6930489,1.43420444 21.9802489,0.997137778 21.1413156,0.67056 C20.3287822,0.354737778 19.3989156,0.138648889 18.0398044,0.0770488889 C16.67776,0.0144711111 16.2426489,-0.000195555556 12.7734933,-0.000195555556 C9.30433778,-0.000195555556 8.86922667,0.0144711111 7.50718222,0.0770488889 Z M17.9351822,2.37580444 C19.1808711,2.43251556 19.8565156,2.64078222 20.3072711,2.81580444 C20.9027378,3.04753778 21.3290489,3.32424889 21.7758933,3.77109333 C22.2227378,4.21793778 22.4994489,4.64424889 22.7311822,5.23971556 C22.9062044,5.69047111 23.1134933,6.36611556 23.1711822,7.61180444 C23.2318044,8.95918222 23.2454933,9.36300444 23.2454933,12.7734933 C23.2454933,16.1839822 23.2318044,16.5887822 23.1711822,17.9351822 C23.1134933,19.1798933 22.9062044,19.8574933 22.7311822,20.3072711 C22.4994489,20.9037156 22.2227378,21.3280711 21.7758933,21.7758933 C21.3290489,22.2227378 20.9027378,22.4994489 20.3072711,22.7311822 C19.8565156,22.9062044 19.1808711,23.1144711 17.9351822,23.1711822 C16.5878044,23.2327822 16.1839822,23.2454933 12.7734933,23.2454933 C9.36300444,23.2454933 8.95918222,23.2327822 7.61180444,23.1711822 C6.36611556,23.1144711 5.69047111,22.9062044 5.23971556,22.7311822 C4.64424889,22.4994489 4.21793778,22.2227378 3.77109333,21.7758933 C3.32424889,21.3280711 3.04753778,20.9037156 2.81580444,20.3072711 C2.64078222,19.8574933 2.43251556,19.1798933 2.37580444,17.9351822 C2.31518222,16.5887822 2.30149333,16.1839822 2.30149333,12.7734933 C2.30149333,9.36300444 2.31518222,8.95918222 2.37580444,7.61180444 C2.43251556,6.36611556 2.64078222,5.69047111 2.81580444,5.23971556 C3.04753778,4.64424889 3.32424889,4.21793778 3.77109333,3.77109333 C4.21793778,3.32424889 4.64424889,3.04753778 5.23971556,2.81580444 C5.69047111,2.64078222 6.36611556,2.43251556 7.61180444,2.37580444 C8.95918222,2.31420444 9.36300444,2.30149333 12.7734933,2.30149333 C16.1839822,2.30149333 16.5878044,2.31420444 17.9351822,2.37580444 Z" id="Fill-1"></path>
                                <path d="M12.7734933,17.0316178 C10.4219378,17.0316178 8.51624889,15.1249511 8.51624889,12.7733956 C8.51624889,10.42184 10.4219378,8.51615111 12.7734933,8.51615111 C15.1250489,8.51615111 17.0307378,10.42184 17.0307378,12.7733956 C17.0307378,15.1249511 15.1250489,17.0316178 12.7734933,17.0316178 M12.7734933,6.21446222 C9.15082667,6.21446222 6.21456,9.15072889 6.21456,12.7733956 C6.21456,16.3960622 9.15082667,19.3333067 12.7734933,19.3333067 C16.39616,19.3333067 19.3324267,16.3960622 19.3324267,12.7733956 C19.3324267,9.15072889 16.39616,6.21446222 12.7734933,6.21446222" id="Fill-4"></path>
                                <path d="M21.1247911,5.95476444 C21.1247911,6.80152 20.4383911,7.48792 19.5926133,7.48792 C18.74488,7.48792 18.0594578,6.80152 18.0594578,5.95476444 C18.0594578,5.10800889 18.74488,4.42258667 19.5926133,4.42258667 C20.4383911,4.42258667 21.1247911,5.10800889 21.1247911,5.95476444" id="Fill-6"></path>
                            </g>
                        </g>
                    </g>
                </g>
            </g>
        </g>
    </g>
</svg>