
<svg width="50px" height="50px" viewBox="0 0 50 50" version="1.1" xmlns="http://www.w3.org/2000/svg" xmlns:xlink="http://www.w3.org/1999/xlink">
    <g id="Symbols" stroke="none" stroke-width="1" fill="none" fill-rule="evenodd">
        <g id="ToggleButtons/Desktop/MapandList">
            <g id="Map-and-List-Toggle-Buttons">
                <g id="Map-&amp;-List">
                    <rect id="Rectangle" stroke="#0F2D4F" fill="#0F2D4F" x="0.5" y="0.5" width="49" height="49"></rect>
                    <g id="Icons/MapList" transform="translate(5.000000, 14.000000)">
                        <g id="Map-and-List-Icon">
                            <path d="M0.514285714,4.15584416 L10.2857143,4.17012987 C10.5696,4.17012987 10.8,3.85012987 10.8,3.45584416 C10.8,3.06155844 10.5696,2.74155844 10.2857143,2.74155844 L0.514285714,2.72727273 C0.2304,2.72727273 0,3.04727273 0,3.44155844 C0,3.83584416 0.2304,4.15584416 0.514285714,4.15584416" id="Fill-1" stroke="#FFFFFF" stroke-width="0.5" fill="#FFFFFF"></path>
                            <path d="M10.2857143,10.0142857 L0.514285714,10 C0.2304,10 0,10.32 0,10.7142857 C0,11.1085714 0.2304,11.4285714 0.514285714,11.4285714 L10.2857143,11.4428571 C10.5696,11.4428571 10.8,11.1228571 10.8,10.7285714 C10.8,10.3342857 10.5696,10.0142857 10.2857143,10.0142857" id="Fill-3" stroke="#FFFFFF" stroke-width="0.5" fill="#FFFFFF"></path>
                            <path d="M10.2857143,17.287013 L0.514285714,17.2727273 C0.2304,17.2727273 0,17.5927273 0,17.987013 C0,18.3812987 0.2304,18.7012987 0.514285714,18.7012987 L10.2857143,18.7155844 C10.5696,18.7155844 10.8,18.3955844 10.8,18.0012987 C10.8,17.607013 10.5696,17.287013 10.2857143,17.287013" id="Fill-5" stroke="#FFFFFF" stroke-width="0.5" fill="#FFFFFF"></path>
                            <g id="Group-3" transform="translate(14.400000, 0.000000)">
                                <polygon id="Clip-2" points="0 -9.09090909e-05 21.375 -9.09090909e-05 21.375 19.7735455 0 19.7735455"></polygon>
                                <path d="M7.875,2.08227273 L13.5,4.92318182 L13.5,17.6895455 L7.875,14.8486364 L7.875,2.08227273 Z M15.075,4.89227273 L15.1317,4.86045455 L19.8,2.16590909 L19.8,14.8795455 L19.7433,14.9113636 L15.075,17.6068182 L15.075,4.89227273 Z M6.3,14.8795455 L6.2433,14.9113636 L1.575,17.605 L1.575,4.89227273 L1.6317,4.86045455 L6.3,2.16590909 L6.3,14.8795455 Z M6.7536,0.0813636364 L6.7203,0.095 L0.3969,3.74136364 C0.1521,3.88227273 0,4.14681818 0,4.43136364 L0,18.9768182 C0,19.2595455 0.1503,19.5231818 0.3924,19.665 C0.6354,19.8068182 0.9369,19.8077273 1.1781,19.6677273 L7.1118,16.2431818 L13.9212,19.6813636 L13.9554,19.6922727 C14.1561,19.7868182 14.3208,19.8040909 14.5584,19.7168182 L14.6268,19.6886364 C14.6331,19.685 14.6466,19.6795455 14.661,19.675 L20.9781,16.0313636 C21.2229,15.8904545 21.375,15.6259091 21.375,15.3404545 L21.375,0.795 C21.375,0.511363636 21.2247,0.248636364 20.9826,0.107727273 L20.9826,0.106818182 C20.7396,-0.035 20.439,-0.0359090909 20.1969,0.105 L14.2632,3.52954545 L7.4403,0.0840909091 C7.4286,0.0813636364 7.4169,0.0768181818 7.4061,0.0713636364 L7.3602,0.0559090909 C7.2747,0.0231818182 7.1919,0.00681818182 7.1073,0.00409090909 L7.0839,0.00136363636 L7.0785,0.00136363636 C6.9957,0.00227272727 6.9075,0.0204545455 6.8112,0.0568181818 C6.7914,0.0640909091 6.7725,0.0731818182 6.7536,0.0813636364 L6.7536,0.0813636364 Z" id="Fill-1" fill="#FFFFFF"></path>
                            </g>
                        </g>
                    </g>
                </g>
            </g>
        </g>
    </g>
</svg>
