
<svg width="48px" height="50px" viewBox="0 0 48 50" version="1.1" xmlns="http://www.w3.org/2000/svg" xmlns:xlink="http://www.w3.org/1999/xlink">
    <g id="Symbols" stroke="none" stroke-width="1" fill="none" fill-rule="evenodd">
        <g id="ToggleButtons/Desktop/List" transform="translate(-52.000000, 0.000000)">
            <g id="Map-and-List-Toggle-Buttons">
                <g id="List" transform="translate(52.000000, 0.000000)">
                    <rect id="Rectangle" stroke="#0F2D4F" fill="#0F2D4F" x="0.5" y="0.5" width="47" height="49"></rect>
                    <g id="Icons/List" transform="translate(12.000000, 14.000000)" fill="#FFFFFF" stroke="#FFFFFF">
                        <g id="Group-15">
                            <path d="M8.68879121,3.55014286 L22.469011,3.56442857 C22.8693626,3.56442857 23.1942857,3.24442857 23.1942857,2.85014286 C23.1942857,2.45585714 22.8693626,2.13585714 22.469011,2.13585714 L8.68879121,2.12157143 C8.28843956,2.12157143 7.96351648,2.44157143 7.96351648,2.83585714 C7.96351648,3.23014286 8.28843956,3.55014286 8.68879121,3.55014286" id="Fill-1" stroke-width="0.5"></path>
                            <path d="M22.4835165,9.27142857 L8.7032967,9.25714286 C8.30294505,9.25714286 7.97802198,9.57714286 7.97802198,9.97142857 C7.97802198,10.3657143 8.30294505,10.6857143 8.7032967,10.6857143 L22.4835165,10.7 C22.8838681,10.7 23.2087912,10.38 23.2087912,9.98571429 C23.2087912,9.59142857 22.8838681,9.27142857 22.4835165,9.27142857" id="Fill-3" stroke-width="0.5"></path>
                            <path d="M22.4835165,16.4142857 L8.7032967,16.4 C8.30294505,16.4 7.97802198,16.72 7.97802198,17.1142857 C7.97802198,17.5085714 8.30294505,17.8285714 8.7032967,17.8285714 L22.4835165,17.8428571 C22.8838681,17.8428571 23.2087912,17.5228571 23.2087912,17.1285714 C23.2087912,16.7342857 22.8838681,16.4142857 22.4835165,16.4142857" id="Fill-5" stroke-width="0.5"></path>
                            <path d="M2.88659341,4.27842857 C2.07138462,4.27842857 1.41791209,3.65271429 1.41791209,2.84985714 C1.41791209,2.047 2.07138462,1.42128571 2.88659341,1.42128571 C3.7018022,1.42128571 4.33714286,2.047 4.33714286,2.84985714 C4.33714286,3.65271429 3.7018022,4.27842857 2.88659341,4.27842857 M2.89384615,-0.000142857143 C1.29534066,-0.000142857143 0,1.27557143 0,2.84985714 C0,4.42414286 1.29534066,5.69985714 2.89384615,5.69985714 C4.49235165,5.69985714 5.78769231,4.42414286 5.78769231,2.84985714 C5.78769231,1.27557143 4.49235165,-0.000142857143 2.89384615,-0.000142857143" id="Fill-7" stroke-width="0.5"></path>
                            <path d="M2.88659341,11.4212857 C2.07138462,11.4212857 1.41791209,10.7955714 1.41791209,9.99271429 C1.41791209,9.18985714 2.07138462,8.56414286 2.88659341,8.56414286 C3.7018022,8.56414286 4.33714286,9.18985714 4.33714286,9.99271429 C4.33714286,10.7955714 3.7018022,11.4212857 2.88659341,11.4212857 M2.89384615,7.14271429 C1.29534066,7.14271429 0,8.41842857 0,9.99271429 C0,11.567 1.29534066,12.8427143 2.89384615,12.8427143 C4.49235165,12.8427143 5.78769231,11.567 5.78769231,9.99271429 C5.78769231,8.41842857 4.49235165,7.14271429 2.89384615,7.14271429" id="Fill-10" stroke-width="0.5"></path>
                            <path d="M2.88659341,18.5501429 C2.07138462,18.5501429 1.41791209,17.9244286 1.41791209,17.1215714 C1.41791209,16.3187143 2.07138462,15.693 2.88659341,15.693 C3.7018022,15.693 4.33714286,16.3187143 4.33714286,17.1215714 C4.33714286,17.9244286 3.7018022,18.5501429 2.88659341,18.5501429 M2.89384615,14.2715714 C1.29534066,14.2715714 0,15.5472857 0,17.1215714 C0,18.6958571 1.29534066,19.9715714 2.89384615,19.9715714 C4.49235165,19.9715714 5.78769231,18.6958571 5.78769231,17.1215714 C5.78769231,15.5472857 4.49235165,14.2715714 2.89384615,14.2715714" id="Fill-12" stroke-width="0.5"></path>
                        </g>
                    </g>
                </g>
            </g>
        </g>
    </g>
</svg>
