
<svg width="21px" height="33px" viewBox="0 0 21 33" version="1.1" xmlns="http://www.w3.org/2000/svg" xmlns:xlink="http://www.w3.org/1999/xlink">
    <g id="Desktop" stroke="none" stroke-width="1" fill="none" fill-rule="evenodd">
        <g id="My-Time-Tour---2" transform="translate(-681.000000, -827.000000)" stroke="#FFFFFF" stroke-width="2">
            <g id="Home" transform="translate(662.000000, 475.000000)">
                <g id="Address" transform="translate(20.000000, 347.000000)">
                    <g id="Pin" transform="translate(0.000000, 6.000000)">
                        <path d="M9.48410042,13.9218906 C7.00376569,13.9218906 5.00041841,11.9375156 5.00041841,9.49220313 C5.00041841,7.04689063 7.01171548,5.05470313 9.48410042,5.05470313 C11.9644351,5.05470313 13.9677824,7.03907813 13.9677824,9.49220313 C13.9677824,11.9375156 11.9644351,13.9218906 9.48410042,13.9218906 M9.48410042,1.5625e-05 C4.24518828,1.5625e-05 0,4.19532812 0,9.37501563 C0,18.3280625 9.48410042,30.0000156 9.48410042,30.0000156 C9.48410042,30.0000156 18.9682008,18.3280625 18.9682008,9.37501563 C18.9682008,4.19532812 14.7230126,1.5625e-05 9.48410042,1.5625e-05" id="Fill-1"></path>
                    </g>
                </g>
            </g>
        </g>
    </g>
</svg>
