<?xml version="1.0" encoding="UTF-8"?>
<svg width="39px" height="27px" viewBox="0 0 39 27" version="1.1" xmlns="http://www.w3.org/2000/svg" xmlns:xlink="http://www.w3.org/1999/xlink">
    <!-- Generator: Sketch 54.1 (76490) - https://sketchapp.com -->
    <title>Path</title>
    <desc>Created with Sketch.</desc>
    <g id="Symbols" stroke="none" stroke-width="1" fill="none" fill-rule="evenodd">
        <g id="Icons/Mail/Color" fill="#6295BA" stroke="#FFFFFF" stroke-width="0.2">
            <path d="M32.7463674,2.59990856 L32.8167058,2.77098962 L19.1703068,16.2747996 L19.029631,16.2748004 L5.38292401,2.77099041 L5.45326155,2.59990856 L32.7463674,2.59990856 Z M0.44343891,1.41977262 L17.2411707,18.0416126 C18.2623924,19.0527277 19.9378128,19.0521803 20.9590957,18.0415914 L35.401116,3.75110071 L37.7564772,1.4201049 C37.2913542,0.613782678 36.4236362,0.1 35.4714581,0.1 L2.72847892,0.1 C1.77572047,0.1 0.908115779,0.613474224 0.44343891,1.41977262 Z M0.1,5.17981616 L0.1,24.2997866 C0.1,25.7287531 1.2834568,26.9 2.72847892,26.9 L35.4714581,26.9 C36.9161566,26.9 38.099937,25.7281592 38.099937,24.2997866 L38.099937,5.17748714 L35.5714581,7.64039376 L35.5417956,24.3656869 C35.540294,24.3671749 35.540294,24.3671749 35.5376743,24.3696977 C35.5366784,24.3706398 35.5366784,24.3706398 35.5355394,24.3716945 C35.5330267,24.373983 35.5330267,24.373983 35.4659136,24.3997866 L33.8024731,24.370867 L26.4163813,17.0618115 C25.922152,16.5730398 25.1214727,16.5730398 24.6272844,17.0617708 C24.1328793,17.5512819 24.1346542,18.3529483 24.6346565,18.835898 L30.0845298,24.2287048 L30.0141922,24.3997866 L8.18574479,24.3997866 L8.11540725,24.2287048 L13.5726731,18.8285829 C14.0657005,18.340718 14.0657005,17.5496334 13.5726731,17.0614863 C13.0787567,16.5727418 12.2778006,16.5727418 11.7838887,17.0614819 C10.9221754,17.9142787 10.0603921,18.7670765 8.82924174,19.9853414 C6.61318582,22.1781817 5.55799673,23.2223426 4.32712485,24.3997866 L2.66337779,24.3708685 C2.66486506,24.372294 2.66486506,24.372294 2.66391192,24.3714168 C2.66209284,24.3697794 2.66209284,24.3697794 2.65814138,24.3659917 L2.62847892,24.2949099 L2.65814138,7.71117081 L0.1,5.17981616 Z M2.79763264,24.2226887 C2.79757147,24.2226255 2.79780974,24.2228448 2.79828233,24.2232797 C2.79841549,24.2233996 2.7985389,24.2235107 2.79862724,24.2236037 Z" id="Fill-1"></path>
        </g>
    </g>
</svg>