<?xml version="1.0" encoding="UTF-8"?>
<svg width="35px" height="24px" viewBox="0 0 35 24" version="1.1" xmlns="http://www.w3.org/2000/svg" xmlns:xlink="http://www.w3.org/1999/xlink">
    <!-- Generator: Sketch 54.1 (76490) - https://sketchapp.com -->
    <title>Icons/Mail</title>
    <desc>Created with Sketch.</desc>
    <g id="Desktop" stroke="none" stroke-width="1" fill="none" fill-rule="evenodd">
        <g id="FMH---Community-Microsite" transform="translate(-769.000000, -690.000000)" fill="#FFFFFF">
            <g id="Header" transform="translate(0.000000, 110.000000)">
                <g id="Filters" transform="translate(744.000000, 567.000000)">
                    <g id="text-and-icon" transform="translate(25.000000, 13.000000)">
                        <g id="Icons/Mail/White">
                            <g id="Mail-Icon">
                                <path d="M7.0235121,21.3654015 L12.2608105,16.3888258 C12.6932298,15.977997 12.6932298,15.3098978 12.2608105,14.899337 C11.8281089,14.4890442 11.1247218,14.4890442 10.6923024,14.899337 L3.88254435,21.3654015 L2.31290726,21.3654015 L2.21806855,21.2753568 L2.21806855,6.63907891 L8.46774193e-05,4.5332129 L8.46774193e-05,21.2314065 C8.46774193e-05,22.4663047 1.05827016,23.4712675 2.35919758,23.4712675 L32.3629476,23.4712675 C33.663875,23.4712675 34.7223427,22.4663047 34.7223427,21.2314065 L34.7223427,4.5332129 L32.5040766,6.6393469 L32.5040766,21.2788407 L32.4278669,21.3485181 L32.3578669,21.3654015 L30.8398831,21.3654015 L24.030125,14.899605 C23.5977056,14.4893122 22.8940363,14.4893122 22.4616169,14.899605 C22.2504879,15.1000615 22.1353266,15.3675156 22.1370202,15.6526571 C22.138996,15.9351186 22.2561331,16.1985529 22.4669798,16.3939176 L27.7031492,21.3654015 L6.82480242,21.3654015" id="Fill-1"></path>
                                <path d="M30.2068629,2.1059732 L17.3610161,14.3024695 L4.51545161,2.1059732 L30.2068629,2.1059732 Z M15.6931532,15.6968218 C16.1362984,16.1175663 16.7287581,16.3493777 17.3610161,16.3493777 L17.3618629,16.3493777 C17.994121,16.3491097 18.5862984,16.1172983 19.0291613,15.6968218 L34.3955726,1.10744218 C33.9693629,0.421655583 33.1999274,0.00010719603 32.3630323,0.00010719603 L2.35928226,0.00010719603 C1.52210484,0.00010719603 0.752387097,0.421655583 0.326741935,1.1069062 L15.6931532,15.6968218 Z" id="Fill-4"></path>
                            </g>
                        </g>
                    </g>
                </g>
            </g>
        </g>
    </g>
</svg>