
<svg width="48px" height="50px" viewBox="0 0 48 50" version="1.1" xmlns="http://www.w3.org/2000/svg" xmlns:xlink="http://www.w3.org/1999/xlink">
    <defs>
        <polygon id="path-1" points="0 -9.09090909e-05 21.7708333 -9.09090909e-05 21.7708333 19.7735455 0 19.7735455"></polygon>
    </defs>
    <g id="Symbols" stroke="none" stroke-width="1" fill="none" fill-rule="evenodd" opacity="0.3">
        <g id="ToggleButtons/Desktop/List" transform="translate(-102.000000, 0.000000)">
            <g id="Map-and-List-Toggle-Buttons">
                <g id="Map" transform="translate(102.000000, 0.000000)">
                    <rect id="Rectangle" stroke="#0F2D4F" fill="#0F2D4F" x="0.5" y="0.5" width="47" height="49"></rect>
                    <g id="Group-3" transform="translate(13.000000, 14.000000)">
                        <mask id="mask-2" fill="white">
                            <use xlink:href="#path-1"></use>
                        </mask>
                        <g id="Clip-2"></g>
                        <path d="M8.02083333,2.08227273 L13.75,4.92318182 L13.75,17.6895455 L8.02083333,14.8486364 L8.02083333,2.08227273 Z M15.3541667,4.89227273 L15.4119167,4.86045455 L20.1666667,2.16590909 L20.1666667,14.8795455 L20.1089167,14.9113636 L15.3541667,17.6068182 L15.3541667,4.89227273 Z M6.41666667,14.8795455 L6.35891667,14.9113636 L1.60416667,17.605 L1.60416667,4.89227273 L1.66191667,4.86045455 L6.41666667,2.16590909 L6.41666667,14.8795455 Z M6.87866667,0.0813636364 L6.84475,0.095 L0.40425,3.74136364 C0.154916667,3.88227273 0,4.14681818 0,4.43136364 L0,18.9768182 C0,19.2595455 0.153083333,19.5231818 0.399666667,19.665 C0.647166667,19.8068182 0.95425,19.8077273 1.19991667,19.6677273 L7.2435,16.2431818 L14.179,19.6813636 L14.2138333,19.6922727 C14.41825,19.7868182 14.586,19.8040909 14.828,19.7168182 L14.8976667,19.6886364 C14.9040833,19.685 14.9178333,19.6795455 14.9325,19.675 L21.3665833,16.0313636 C21.6159167,15.8904545 21.7708333,15.6259091 21.7708333,15.3404545 L21.7708333,0.795 C21.7708333,0.511363636 21.61775,0.248636364 21.3711667,0.107727273 L21.3711667,0.106818182 C21.1236667,-0.035 20.8175,-0.0359090909 20.5709167,0.105 L14.5273333,3.52954545 L7.57808333,0.0840909091 C7.56616667,0.0813636364 7.55425,0.0768181818 7.54325,0.0713636364 L7.4965,0.0559090909 C7.40941667,0.0231818182 7.32508333,0.00681818182 7.23891667,0.00409090909 L7.21508333,0.00136363636 L7.20958333,0.00136363636 C7.12525,0.00227272727 7.03541667,0.0204545455 6.93733333,0.0568181818 C6.91716667,0.0640909091 6.89791667,0.0731818182 6.87866667,0.0813636364 L6.87866667,0.0813636364 Z" id="Fill-1" fill="#FFFFFF" mask="url(#mask-2)"></path>
                    </g>
                </g>
            </g>
        </g>
    </g>
</svg>
