<?xml version="1.0" encoding="UTF-8"?>
<svg width="24px" height="35px" viewBox="0 0 24 35" version="1.1" xmlns="http://www.w3.org/2000/svg" xmlns:xlink="http://www.w3.org/1999/xlink">
    <!-- Generator: Sketch 54.1 (76490) - https://sketchapp.com -->
    <title>Group 6</title>
    <desc>Created with Sketch.</desc>
    <g id="Symbols" stroke="none" stroke-width="1" fill="none" fill-rule="evenodd">
        <g id="Footer/Mobile/Default" transform="translate(-102.000000, -260.000000)" fill="#FFFFFF">
            <g id="Footer">
                <g id="Button" transform="translate(15.000000, 247.000000)">
                    <g id="Group" transform="translate(87.000000, 13.000000)">
                        <g id="Group-6">
                            <path d="M19.0440147,32.9411765 L4.83813235,32.9411765 C3.29401471,32.9411765 2.05872059,31.7058824 2.05872059,30.1617647 L2.05872059,25.8382353 L21.8234265,25.8382353 L21.8234265,30.1617647 C21.8234265,31.7058824 20.5881324,32.9411765 19.0440147,32.9411765 L19.0440147,32.9411765 Z M4.83813235,2.05882353 L19.0440147,2.05882353 C20.5881324,2.05882353 21.8234265,3.29411765 21.8234265,4.83823529 L21.8234265,5.76470588 L2.05872059,5.76470588 L2.05872059,4.83823529 C2.05872059,3.29411765 3.29401471,2.05882353 4.83813235,2.05882353 L4.83813235,2.05882353 Z M2.05872059,23.7794118 L21.8234265,23.7794118 L21.8234265,7.82352941 L2.05872059,7.82352941 L2.05872059,23.7794118 Z M19.0440147,0 L4.83813235,0 C2.16166176,0 -0.000102941176,2.16176471 -0.000102941176,4.83823529 L-0.000102941176,30.1617647 C-0.000102941176,32.8382353 2.16166176,35 4.83813235,35 L19.0440147,35 C21.7204853,35 23.88225,32.8382353 23.88225,30.1617647 L23.88225,4.83823529 C23.88225,2.16176471 21.7204853,0 19.0440147,0 L19.0440147,0 Z" id="Fill-1"></path>
                            <path d="M14.4116618,28.5149118 L9.36754412,28.5149118 C8.80136765,28.5149118 8.33813235,28.9776324 8.33813235,29.5443235 C8.33813235,30.1105 8.80136765,30.5737353 9.36754412,30.5737353 L14.4116618,30.5737353 C14.9783529,30.5737353 15.4410735,30.1105 15.4410735,29.5443235 C15.4410735,28.9776324 14.9783529,28.5149118 14.4116618,28.5149118" id="Fill-4"></path>
                        </g>
                    </g>
                </g>
            </g>
        </g>
    </g>
</svg>