<?xml version="1.0" encoding="UTF-8"?>
<svg width="315px" height="51px" viewBox="0 0 315 51" version="1.1" xmlns="http://www.w3.org/2000/svg" xmlns:xlink="http://www.w3.org/1999/xlink">
    <!-- Generator: Sketch 54.1 (76490) - https://sketchapp.com -->
    <title>Group 54</title>
    <desc>Created with Sketch.</desc>
    <g id="Desktop" stroke="none" stroke-width="1" fill="none" fill-rule="evenodd">
        <g id="CMS---TBB-Home-Design-Detail---Full" transform="translate(-97.000000, -1451.000000)" fill="#FFFFFF">
            <g id="Empower-Features" transform="translate(0.000000, 1098.000000)">
                <g id="Photo-Gallery" transform="translate(0.000000, 249.000000)">
                    <g id="Doppler_NightStand_083_jw_v2-(1)-+-Rectangle-2-+-Buttons/OutlineWhite-+-Logos/MyCommandHorz/White-+-Control-your-home-wi-+-Rectangle-Mask-2">
                        <g id="Doppler_NightStand_083_jw_v2-(1)-+-Rectangle-2-+-Buttons/OutlineWhite-+-Logos/MyCommandHorz/White-+-Control-your-home-wi-+-Rectangle-Mask">
                            <g id="Group-54" transform="translate(96.000000, 104.000000)">
                                <path d="M68.7683,42.7012 C68.4453,41.7502 68.0263,41.3442 67.3543,41.3442 C66.6693,41.3442 66.2913,41.7642 66.2913,42.4482 C66.2913,43.9732 70.6003,44.0862 70.6003,47.2482 C70.6003,48.9832 69.4123,50.1312 67.3833,50.1312 C65.8153,50.1312 64.5983,49.2772 64.0803,47.2912 L65.9833,46.8852 C66.2073,48.1012 66.9073,48.5352 67.4803,48.5352 C68.1513,48.5352 68.6703,48.0882 68.6703,47.3322 C68.6703,45.4292 64.3603,45.4012 64.3603,42.5752 C64.3603,40.8392 65.3953,39.7482 67.3973,39.7482 C69.1183,39.7482 70.1673,40.7692 70.5033,42.1962 L68.7683,42.7012 Z" id="Fill-1"></path>
                                <polygon id="Fill-4" points="75.1971 49.9912 75.1971 39.8882 77.8971 39.8882 79.6461 46.5212 79.6751 46.5212 81.4231 39.8882 84.1231 39.8882 84.1231 49.9912 82.4731 49.9912 82.4731 42.0442 82.4451 42.0442 80.3881 49.9912 78.9321 49.9912 76.8761 42.0442 76.8471 42.0442 76.8471 49.9912"></polygon>
                                <path d="M90.847,46.1572 L92.764,46.1572 L91.826,42.0712 L91.799,42.0712 L90.847,46.1572 Z M88.091,49.9912 L90.596,39.8882 L93.072,39.8882 L95.507,49.9912 L93.66,49.9912 L93.17,47.8632 L90.497,47.8632 L89.951,49.9912 L88.091,49.9912 Z" id="Fill-6"></path>
                                <path d="M101.2913,44.2812 L102.2853,44.2812 C103.1383,44.2812 103.6563,43.8622 103.6563,42.8832 C103.6563,41.9022 103.1383,41.4832 102.2853,41.4832 L101.2913,41.4832 L101.2913,44.2812 Z M103.8943,49.9912 L102.2153,45.8772 L101.2913,45.8772 L101.2913,49.9912 L99.3603,49.9912 L99.3603,39.8882 L102.1593,39.8882 C104.4823,39.8882 105.5863,41.0072 105.5863,42.9102 C105.5863,44.1702 105.1403,45.0792 104.0623,45.4842 L105.9643,49.9912 L103.8943,49.9912 Z" id="Fill-8"></path>
                                <polygon id="Fill-10" points="115.7928 39.8887 115.7928 41.5947 113.5418 41.5947 113.5418 49.9917 111.6088 49.9917 111.6088 41.5947 109.3558 41.5947 109.3558 39.8887"></polygon>
                                <polygon id="Fill-12" points="126.5486 49.9912 126.5486 39.8882 128.4786 39.8882 128.4786 43.9182 131.2076 43.9182 131.2076 39.8882 133.1386 39.8882 133.1386 49.9912 131.2076 49.9912 131.2076 45.6262 128.4786 45.6262 128.4786 49.9912"></polygon>
                                <path d="M139.553,46.9971 C139.553,48.1151 140.043,48.4231 140.812,48.4231 C141.582,48.4231 142.072,48.1151 142.072,46.9971 L142.072,42.8831 C142.072,41.7641 141.582,41.4561 140.812,41.4561 C140.043,41.4561 139.553,41.7641 139.553,42.8831 L139.553,46.9971 Z M137.621,43.1351 C137.621,40.6431 138.937,39.7481 140.812,39.7481 C142.687,39.7481 144.002,40.6431 144.002,43.1351 L144.002,46.7441 C144.002,49.2351 142.687,50.1311 140.812,50.1311 C138.937,50.1311 137.621,49.2351 137.621,46.7441 L137.621,43.1351 Z" id="Fill-14"></path>
                                <polygon id="Fill-17" points="148.4866 49.9912 148.4866 39.8882 151.1866 39.8882 152.9356 46.5212 152.9646 46.5212 154.7126 39.8882 157.4126 39.8882 157.4126 49.9912 155.7626 49.9912 155.7626 42.0442 155.7336 42.0442 153.6776 49.9912 152.2216 49.9912 150.1656 42.0442 150.1366 42.0442 150.1366 49.9912"></polygon>
                                <polygon id="Fill-19" points="162.0652 49.9912 162.0652 39.8882 167.3552 39.8882 167.3552 41.5952 163.9972 41.5952 163.9972 43.9182 166.5582 43.9182 166.5582 45.6262 163.9972 45.6262 163.9972 48.2832 167.4942 48.2832 167.4942 49.9912"></polygon>
                                <path d="M180.6277,46.1572 L182.5457,46.1572 L181.6077,42.0712 L181.5787,42.0712 L180.6277,46.1572 Z M177.8707,49.9912 L180.3757,39.8882 L182.8537,39.8882 L185.2877,49.9912 L183.4407,49.9912 L182.9497,47.8632 L180.2787,47.8632 L179.7317,49.9912 L177.8707,49.9912 Z" id="Fill-21"></path>
                                <path d="M191.1834,39.8887 L191.1834,46.9537 C191.1834,47.9197 191.6044,48.4227 192.5404,48.4227 C193.4794,48.4227 193.9124,47.9197 193.9124,46.9537 L193.9124,39.8887 L195.8444,39.8887 L195.8444,46.9677 C195.8444,49.1927 194.5294,50.1307 192.5404,50.1307 C190.5544,50.1307 189.2524,49.1927 189.2524,46.9677 L189.2524,39.8887 L191.1834,39.8887 Z" id="Fill-23"></path>
                                <polygon id="Fill-26" points="206.3445 39.8887 206.3445 41.5947 204.0915 41.5947 204.0915 49.9917 202.1605 49.9917 202.1605 41.5947 199.9075 41.5947 199.9075 39.8887"></polygon>
                                <path d="M212.0574,46.9971 C212.0574,48.1151 212.5484,48.4231 213.3174,48.4231 C214.0864,48.4231 214.5764,48.1151 214.5764,46.9971 L214.5764,42.8831 C214.5764,41.7641 214.0864,41.4561 213.3174,41.4561 C212.5484,41.4561 212.0574,41.7641 212.0574,42.8831 L212.0574,46.9971 Z M210.1274,43.1351 C210.1274,40.6431 211.4424,39.7481 213.3174,39.7481 C215.1934,39.7481 216.5074,40.6431 216.5074,43.1351 L216.5074,46.7441 C216.5074,49.2351 215.1934,50.1311 213.3174,50.1311 C211.4424,50.1311 210.1274,49.2351 210.1274,46.7441 L210.1274,43.1351 Z" id="Fill-28"></path>
                                <polygon id="Fill-31" points="220.991 49.9912 220.991 39.8882 223.691 39.8882 225.441 46.5212 225.469 46.5212 227.218 39.8882 229.919 39.8882 229.919 49.9912 228.267 49.9912 228.267 42.0442 228.24 42.0442 226.182 49.9912 224.727 49.9912 222.67 42.0442 222.642 42.0442 222.642 49.9912"></polygon>
                                <path d="M236.6414,46.1572 L238.5594,46.1572 L237.6214,42.0712 L237.5924,42.0712 L236.6414,46.1572 Z M233.8844,49.9912 L236.3894,39.8882 L238.8674,39.8882 L241.3014,49.9912 L239.4544,49.9912 L238.9634,47.8632 L236.2924,47.8632 L235.7454,49.9912 L233.8844,49.9912 Z" id="Fill-33"></path>
                                <polygon id="Fill-35" points="250.2351 39.8887 250.2351 41.5947 247.9821 41.5947 247.9821 49.9917 246.0511 49.9917 246.0511 41.5947 243.7981 41.5947 243.7981 39.8887"></polygon>
                                <polygon id="Fill-37" points="254.299 49.9914 256.23 49.9914 256.23 39.8884 254.299 39.8884"></polygon>
                                <path d="M262.6414,46.9971 C262.6414,48.1151 263.1304,48.4231 263.9004,48.4231 C264.6694,48.4231 265.1594,48.1151 265.1594,46.9971 L265.1594,42.8831 C265.1594,41.7641 264.6694,41.4561 263.9004,41.4561 C263.1304,41.4561 262.6414,41.7641 262.6414,42.8831 L262.6414,46.9971 Z M260.7084,43.1351 C260.7084,40.6431 262.0244,39.7481 263.9004,39.7481 C265.7744,39.7481 267.0894,40.6431 267.0894,43.1351 L267.0894,46.7441 C267.0894,49.2351 265.7744,50.1311 263.9004,50.1311 C262.0244,50.1311 260.7084,49.2351 260.7084,46.7441 L260.7084,43.1351 Z" id="Fill-39"></path>
                                <polygon id="Fill-40" points="271.574 49.9912 271.574 39.8882 273.686 39.8882 276.373 45.8772 276.402 45.8772 276.402 39.8882 278.164 39.8882 278.164 49.9912 276.317 49.9912 273.365 43.4702 273.337 43.4702 273.337 49.9912"></polygon>
                                <path d="M24.2054,33.4756 C23.9544,33.4756 23.7494,33.2716 23.7494,33.0206 C23.7494,32.7706 23.9544,32.5666 24.2054,32.5666 C24.4554,32.5666 24.6594,32.7706 24.6594,33.0206 C24.6594,33.2716 24.4554,33.4756 24.2054,33.4756 M46.9404,16.8576 L25.7294,0.2606 C25.3014,-0.0764 24.6894,-0.0884 24.2474,0.2366 L1.5014,16.9096 C1.1874,17.1386 0.9994,17.5096 0.9994,17.8996 L0.9994,48.7616 C0.9994,49.4386 1.5514,49.9906 2.2274,49.9906 L10.8574,49.9906 C11.5344,49.9906 12.0854,49.4386 12.0854,48.7616 C12.0854,48.0846 11.5344,47.5346 10.8574,47.5346 L3.9814,47.5346 C3.6924,47.5346 3.4554,47.2976 3.4554,47.0066 L3.4554,18.7876 C3.4554,18.6206 3.5364,18.4606 3.6704,18.3616 L24.6264,3.0006 C24.8174,2.8646 25.0804,2.8686 25.2634,3.0136 L44.7524,18.2656 C44.8794,18.3646 44.9554,18.5186 44.9554,18.6796 L44.9554,46.5706 C44.9554,46.8616 44.7184,47.0986 44.4274,47.0986 L26.0044,47.0986 C25.7134,47.0986 25.4764,46.8616 25.4764,46.5706 L25.4764,35.6236 C26.4424,35.1506 27.1144,34.1656 27.1144,33.0206 C27.1144,31.4166 25.8094,30.1116 24.2054,30.1116 C22.6014,30.1116 21.2954,31.4166 21.2954,33.0206 C21.2954,34.2026 22.0074,35.2176 23.0224,35.6726 L23.0224,48.3266 C23.0224,49.0026 23.5724,49.5536 24.2484,49.5536 L46.1834,49.5536 C46.8594,49.5536 47.4104,49.0026 47.4104,48.3266 L47.4104,17.8256 C47.4104,17.4526 47.2354,17.0896 46.9404,16.8576" id="Fill-41"></path>
                                <path d="M27.95,29.9726 C28.505,30.5256 29.403,30.5256 29.956,29.9726 C30.508,29.4206 30.508,28.5196 29.956,27.9666 C28.42,26.4336 26.378,25.5876 24.205,25.5876 C22.033,25.5876 19.99,26.4336 18.455,27.9666 C17.903,28.5196 17.903,29.4206 18.456,29.9746 C18.724,30.2416 19.08,30.3866 19.457,30.3866 C19.836,30.3866 20.191,30.2416 20.461,29.9726 C21.459,28.9736 22.787,28.4236 24.205,28.4236 C25.623,28.4236 26.952,28.9736 27.95,29.9726" id="Fill-42"></path>
                                <path d="M31.3421,26.581 C31.8781,27.117 32.8101,27.117 33.3461,26.581 C33.6141,26.312 33.7621,25.957 33.7621,25.579 C33.7621,25.2 33.6141,24.845 33.3461,24.576 C30.9061,22.135 27.6591,20.789 24.2051,20.789 C20.7521,20.789 17.5051,22.135 15.0641,24.576 C14.7961,24.845 14.6491,25.2 14.6491,25.579 C14.6491,25.957 14.7961,26.312 15.0631,26.579 C15.3311,26.849 15.6861,26.996 16.0661,26.996 C16.4461,26.996 16.8021,26.849 17.0691,26.581 C18.9761,24.675 21.5101,23.625 24.2051,23.625 C26.9001,23.625 29.4351,24.675 31.3421,26.581" id="Fill-43"></path>
                                <path d="M34.7342,23.1914 C35.2712,23.7264 36.2012,23.7264 36.7382,23.1904 C37.2912,22.6374 37.2912,21.7374 36.7382,21.1844 C33.3902,17.8364 28.9402,15.9934 24.2052,15.9934 C19.4722,15.9934 15.0222,17.8364 11.6722,21.1844 C11.1202,21.7374 11.1202,22.6374 11.6722,23.1904 C11.9482,23.4664 12.3122,23.6044 12.6742,23.6044 C13.0382,23.6044 13.4012,23.4664 13.6782,23.1904 C16.4902,20.3784 20.2292,18.8294 24.2052,18.8294 C28.1812,18.8294 31.9202,20.3784 34.7342,23.1914" id="Fill-44"></path>
                                <path d="M85.2566,5.4111 L84.2956,5.4111 C83.7936,5.4111 83.4006,5.6591 83.1856,6.1031 L75.0646,22.2161 L66.9526,6.1221 C66.7366,5.6641 66.3396,5.4111 65.8346,5.4111 L64.8706,5.4111 C64.2106,5.4111 63.7306,5.8911 63.7306,6.5531 L63.7306,29.4021 C63.7306,30.0641 64.2106,30.5441 64.8706,30.5441 L65.4306,30.5441 C66.0926,30.5441 66.5726,30.0641 66.5726,29.4021 L66.5726,11.5571 L73.6236,25.5451 C73.8406,26.0031 74.2366,26.2541 74.7406,26.2541 L75.3886,26.2541 C75.8846,26.2541 76.2896,26.0001 76.4976,25.5621 L83.5556,11.5571 L83.5556,29.4021 C83.5556,30.0641 84.0356,30.5441 84.6976,30.5441 L85.2566,30.5441 C85.9186,30.5441 86.3986,30.0641 86.3986,29.4021 L86.3986,6.5531 C86.3986,5.8911 85.9186,5.4111 85.2566,5.4111" id="Fill-45"></path>
                                <path d="M110.9939,5.9639 C110.8119,5.6179 110.4459,5.4109 110.0129,5.4109 L109.3889,5.4109 C108.9479,5.4109 108.5659,5.6159 108.3159,5.9879 L101.5689,16.1229 L94.8189,5.9849 C94.5699,5.6149 94.1889,5.4109 93.7469,5.4109 L93.1229,5.4109 C92.6919,5.4109 92.3249,5.6179 92.1449,5.9609 C91.9629,6.3039 91.9979,6.7199 92.2359,7.0679 L100.1409,18.9369 L100.1409,29.4019 C100.1409,30.0649 100.6209,30.5439 101.2829,30.5439 L101.8419,30.5439 C102.5039,30.5439 102.9839,30.0649 102.9839,29.4019 L102.9839,18.9549 L110.8959,7.0739 C111.1359,6.7209 111.1729,6.3069 110.9939,5.9639" id="Fill-46"></path>
                                <path d="M144.9265,21.9883 L144.2745,21.9883 C143.7725,21.9883 143.3585,22.2573 143.1355,22.7353 C141.7405,26.0103 138.3655,28.1273 134.5355,28.1273 C128.7565,28.1273 124.3985,23.7643 124.3985,17.9783 C124.3985,12.1923 128.7565,7.8283 134.5355,7.8283 C138.3655,7.8283 141.7435,9.9523 143.1475,13.2473 C143.3615,13.7053 143.7725,13.9673 144.2745,13.9673 L144.9045,13.9673 C145.2885,13.9673 145.6235,13.8023 145.8235,13.5143 C146.0255,13.2233 146.0615,12.8583 145.9215,12.4793 C144.1675,8.0383 139.5915,5.0523 134.5355,5.0523 C127.1365,5.0523 121.5555,10.6093 121.5555,17.9783 C121.5555,25.3463 127.1365,30.9023 134.5355,30.9023 C139.6715,30.9023 144.1545,27.9783 145.9545,23.4553 C146.0955,23.1153 146.0655,22.7533 145.8715,22.4633 C145.6685,22.1613 145.3255,21.9883 144.9265,21.9883" id="Fill-47"></path>
                                <path d="M173.9275,17.9775 C173.9275,23.5745 169.4055,28.1265 163.8455,28.1265 C158.2865,28.1265 153.7635,23.5745 153.7635,17.9775 C153.7635,12.3805 158.2865,7.8285 163.8455,7.8285 C169.4055,7.8285 173.9275,12.3805 173.9275,17.9775 M163.8455,5.0525 C156.7185,5.0525 150.9205,10.8515 150.9205,17.9785 C150.9205,25.1045 156.7185,30.9025 163.8455,30.9025 C170.9725,30.9025 176.7715,25.1045 176.7715,17.9785 C176.7715,10.8515 170.9725,5.0525 163.8455,5.0525" id="Fill-48"></path>
                                <path d="M204.9724,5.4111 L204.0104,5.4111 C203.5094,5.4111 203.1154,5.6591 202.9014,6.1031 L194.7804,22.2161 L186.6674,6.1221 C186.4514,5.6641 186.0544,5.4111 185.5494,5.4111 L184.5854,5.4111 C183.9254,5.4111 183.4464,5.8911 183.4464,6.5531 L183.4464,29.4021 C183.4464,30.0641 183.9254,30.5441 184.5854,30.5441 L185.1464,30.5441 C185.8084,30.5441 186.2874,30.0641 186.2874,29.4021 L186.2874,11.5571 L193.3384,25.5451 C193.5564,26.0031 193.9524,26.2541 194.4554,26.2541 L195.1034,26.2541 C195.6004,26.2541 196.0044,26.0001 196.2124,25.5621 L203.2714,11.5571 L203.2714,29.4021 C203.2714,30.0641 203.7504,30.5441 204.4124,30.5441 L204.9724,30.5441 C205.6334,30.5441 206.1144,30.0641 206.1144,29.4021 L206.1144,6.5531 C206.1144,5.8911 205.6334,5.4111 204.9724,5.4111" id="Fill-49"></path>
                                <path d="M235.6492,5.4111 L234.6862,5.4111 C234.1902,5.4111 233.7862,5.6661 233.5782,6.1031 L225.4572,22.2161 L217.3432,6.1221 C217.1282,5.6641 216.7302,5.4111 216.2252,5.4111 L215.2622,5.4111 C214.6012,5.4111 214.1212,5.8911 214.1212,6.5531 L214.1212,29.4021 C214.1212,30.0641 214.6012,30.5441 215.2622,30.5441 L215.8232,30.5441 C216.4842,30.5441 216.9632,30.0641 216.9632,29.4021 L216.9632,11.5571 L224.0142,25.5451 C224.2312,26.0031 224.6292,26.2541 225.1322,26.2541 L225.7792,26.2541 C226.2752,26.2541 226.6812,26.0001 226.8892,25.5621 L233.9472,11.5571 L233.9472,29.4021 C233.9472,30.0641 234.4262,30.5441 235.0882,30.5441 L235.6492,30.5441 C236.3102,30.5441 236.7912,30.0641 236.7912,29.4021 L236.7912,6.5531 C236.7912,5.8911 236.3102,5.4111 235.6492,5.4111" id="Fill-50"></path>
                                <path d="M248.4744,21.5849 L253.0304,9.8809 L257.5864,21.5849 L248.4744,21.5849 Z M254.5514,6.1869 C254.3634,5.7079 253.9284,5.4109 253.4164,5.4109 L252.6434,5.4109 C252.1314,5.4109 251.6974,5.7089 251.5064,6.1899 L242.5374,29.0699 C242.4014,29.4329 242.4384,29.8059 242.6384,30.0929 C242.8374,30.3799 243.1724,30.5439 243.5594,30.5439 L244.1544,30.5439 C244.6634,30.5439 245.0994,30.2459 245.2914,29.7639 L247.4034,24.3389 L258.6574,24.3389 L260.7724,29.7699 C260.9624,30.2479 261.3974,30.5439 261.9064,30.5439 L262.5014,30.5439 C262.8874,30.5439 263.2224,30.3799 263.4214,30.0929 C263.5394,29.9249 263.7074,29.5659 263.5174,29.0589 L254.5514,6.1869 Z" id="Fill-51"></path>
                                <path d="M284.659,5.4111 L284.099,5.4111 C283.437,5.4111 282.958,5.8911 282.958,6.5531 L282.958,24.3901 L272.052,6.0421 C271.821,5.6361 271.43,5.4111 270.95,5.4111 L270.433,5.4111 C269.772,5.4111 269.293,5.8911 269.293,6.5531 L269.293,29.4021 C269.293,30.0641 269.772,30.5441 270.433,30.5441 L270.994,30.5441 C271.655,30.5441 272.136,30.0641 272.136,29.4021 L272.136,11.5661 L283.04,29.9141 C283.268,30.3141 283.67,30.5441 284.143,30.5441 L284.659,30.5441 C285.32,30.5441 285.801,30.0641 285.801,29.4021 L285.801,6.5531 C285.801,5.8911 285.32,5.4111 284.659,5.4111" id="Fill-52"></path>
                                <path d="M312.9959,17.9775 C312.9959,23.5715 309.0959,27.7905 303.9229,27.7905 L296.6629,27.7905 L296.6629,8.1645 L303.9229,8.1645 C309.0959,8.1645 312.9959,12.3825 312.9959,17.9775 M303.9229,5.4115 L294.9619,5.4115 C294.2999,5.4115 293.8199,5.8915 293.8199,6.5525 L293.8199,29.4025 C293.8199,30.0645 294.2999,30.5435 294.9619,30.5435 L303.9229,30.5435 C310.7039,30.5435 315.8169,25.1415 315.8169,17.9775 C315.8169,10.8135 310.7039,5.4115 303.9229,5.4115" id="Fill-53"></path>
                            </g>
                        </g>
                    </g>
                </g>
            </g>
        </g>
    </g>
</svg>