<?xml version="1.0" encoding="UTF-8"?>
<svg width="220px" height="50px" viewBox="0 0 220 50" version="1.1" xmlns="http://www.w3.org/2000/svg" xmlns:xlink="http://www.w3.org/1999/xlink">
    <!-- Generator: Sketch 54.1 (76490) - https://sketchapp.com -->
    <title>Group 29</title>
    <desc>Created with Sketch.</desc>
    <g id="Symbols" stroke="none" stroke-width="1" fill="none" fill-rule="evenodd">
        <g id="Logos/MyStyleHorz/White" fill="#FFFFFF">
            <g id="Group-29">
                <path d="M218.0898,10.9575 C220.0858,8.7505 220.0388,5.3415 217.9118,3.2155 L216.3378,1.6425 C215.2778,0.5825 213.8638,0.0005 212.3578,0.0005 C210.9448,0.0005 209.6278,0.5275 208.5948,1.4635 L208.5758,1.4435 L208.3778,1.6425 L206.7748,3.2445 L172.5218,37.4975 C172.3188,37.7005 172.1738,37.9545 172.1048,38.2305 L169.6138,48.0035 C169.4738,48.5535 169.6298,49.1215 170.0308,49.5215 C170.3358,49.8275 170.7358,49.9915 171.1528,49.9915 C171.2838,49.9915 171.4188,49.9755 171.5508,49.9405 L174.2948,49.2415 L173.6658,46.7735 L172.4778,47.0765 L174.0918,40.7405 L177.9748,44.6235 L179.7758,42.8225 L175.2868,38.3335 L208.5758,5.0455 L210.1778,3.4425 C211.3378,2.2835 213.3778,2.2835 214.5368,3.4425 L216.1118,5.0185 C217.2458,6.1505 217.2958,7.9475 216.2898,9.1575 L211.1938,4.0615 L209.3928,5.8625 L210.6418,7.1105 L179.0548,38.6995 L180.8548,40.5005 L212.4438,8.9115 L214.5088,10.9775 L180.6138,44.8735 C180.5008,44.9875 180.3588,45.0675 180.2028,45.1075 L175.1668,46.3905 L175.7948,48.8575 L181.3218,47.4495 C181.6008,47.3785 181.8558,47.2345 182.0548,47.0325 L216.3088,12.7765 L216.3098,12.7775 L217.9108,11.1775 C217.9128,11.1745 217.9138,11.1725 217.9168,11.1705 L218.1088,10.9775 L218.0898,10.9575 Z" id="Fill-1"></path>
                <path d="M3.0654,45.0512 C3.6944,45.1342 4.1004,45.4982 4.4224,45.9742 L4.4504,45.9742 L4.4504,42.1402 C4.4504,41.0212 3.9614,40.7132 3.1904,40.7132 C2.4214,40.7132 1.9314,41.0212 1.9314,42.1402 L1.9314,46.2542 C1.9314,47.3742 2.4214,47.6822 3.1904,47.6822 C3.4844,47.6822 3.7224,47.6392 3.9184,47.5272 C3.6534,47.1502 3.3864,46.8422 3.0654,46.7302 L3.0654,45.0512 Z M6.9824,49.9902 C6.0454,49.9902 5.4294,49.5562 4.9534,48.9962 C4.4504,49.2772 3.8624,49.3892 3.1904,49.3892 C1.3154,49.3892 0.0004,48.4932 0.0004,46.0022 L0.0004,42.3922 C0.0004,39.9032 1.3154,39.0072 3.1904,39.0072 C5.0654,39.0072 6.3804,39.9032 6.3804,42.3922 L6.3804,46.0022 C6.3804,46.8282 6.2414,47.4712 5.9764,47.9762 C6.2414,48.1712 6.5624,48.2972 6.9824,48.3122 L6.9824,49.9902 Z" id="Fill-4"></path>
                <polygon id="Fill-8" points="22.218 49.2492 24.148 49.2492 24.148 39.1462 22.218 39.1462"></polygon>
                <path d="M30.5605,46.2543 C30.5605,47.3743 31.0515,47.6823 31.8195,47.6823 C32.5895,47.6823 33.0795,47.3743 33.0795,46.2543 L33.0795,45.5833 L35.0105,45.5833 L35.0105,46.0023 C35.0105,48.4933 33.6955,49.3893 31.8195,49.3893 C29.9455,49.3893 28.6305,48.4933 28.6305,46.0023 L28.6305,42.3923 C28.6305,39.9023 29.9455,39.0073 31.8195,39.0073 C33.6955,39.0073 35.0105,39.9023 35.0105,42.3923 L35.0105,42.4203 L33.0795,42.4203 L33.0795,42.1403 C33.0795,41.0213 32.5895,40.7133 31.8195,40.7133 C31.0515,40.7133 30.5605,41.0213 30.5605,42.1403 L30.5605,46.2543 Z" id="Fill-10"></path>
                <polygon id="Fill-11" points="39.3818 49.2485 39.3818 39.1455 41.3138 39.1455 41.3138 43.3155 41.3408 43.3155 43.8458 39.1455 45.9578 39.1455 43.3568 43.2185 46.2518 49.2485 44.0838 49.2485 42.0688 45.0095 41.3138 46.1555 41.3138 49.2485"></polygon>
                <polygon id="Fill-12" points="49.7 46.2122 53.142 46.2122 53.142 44.6742 49.7 44.6742"></polygon>
                <polygon id="Fill-13" points="57.541 49.2485 57.541 39.1455 60.241 39.1455 61.99 45.7785 62.019 45.7785 63.767 39.1455 66.467 39.1455 66.467 49.2485 64.817 49.2485 64.817 41.3015 64.788 41.3015 62.732 49.2485 61.276 49.2485 59.22 41.3015 59.191 41.3015 59.191 49.2485"></polygon>
                <path d="M72.8833,46.2543 C72.8833,47.3743 73.3733,47.6823 74.1423,47.6823 C74.9123,47.6823 75.4023,47.3743 75.4023,46.2543 L75.4023,42.1403 C75.4023,41.0213 74.9123,40.7133 74.1423,40.7133 C73.3733,40.7133 72.8833,41.0213 72.8833,42.1403 L72.8833,46.2543 Z M70.9513,42.3923 C70.9513,39.9023 72.2663,39.0073 74.1423,39.0073 C76.0173,39.0073 77.3323,39.9023 77.3323,42.3923 L77.3323,46.0023 C77.3323,48.4933 76.0173,49.3893 74.1423,49.3893 C72.2663,49.3893 70.9513,48.4933 70.9513,46.0023 L70.9513,42.3923 Z" id="Fill-14"></path>
                <polygon id="Fill-15" points="81.0469 39.1459 82.9499 39.1459 84.7259 46.3669 84.7549 46.3669 86.5169 39.1459 88.4059 39.1459 85.8319 49.2489 83.6349 49.2489"></polygon>
                <polygon id="Fill-16" points="92.2881 49.2485 92.2881 39.1455 97.5781 39.1455 97.5781 40.8535 94.2201 40.8535 94.2201 43.1775 96.7801 43.1775 96.7801 44.8835 94.2201 44.8835 94.2201 47.5425 97.7171 47.5425 97.7171 49.2485"></polygon>
                <polygon id="Fill-17" points="108.8926 49.2485 108.8926 39.1455 110.8226 39.1455 110.8226 43.1775 113.5516 43.1775 113.5516 39.1455 115.4826 39.1455 115.4826 49.2485 113.5516 49.2485 113.5516 44.8835 110.8226 44.8835 110.8226 49.2485"></polygon>
                <path d="M121.897,46.2543 C121.897,47.3743 122.387,47.6823 123.156,47.6823 C123.926,47.6823 124.416,47.3743 124.416,46.2543 L124.416,42.1403 C124.416,41.0213 123.926,40.7133 123.156,40.7133 C122.387,40.7133 121.897,41.0213 121.897,42.1403 L121.897,46.2543 Z M119.965,42.3923 C119.965,39.9023 121.28,39.0073 123.156,39.0073 C125.031,39.0073 126.346,39.9023 126.346,42.3923 L126.346,46.0023 C126.346,48.4933 125.031,49.3893 123.156,49.3893 C121.28,49.3893 119.965,48.4933 119.965,46.0023 L119.965,42.3923 Z" id="Fill-18"></path>
                <polygon id="Fill-19" points="130.8301 49.2485 130.8301 39.1455 133.5301 39.1455 135.2791 45.7785 135.3081 45.7785 137.0571 39.1455 139.7571 39.1455 139.7571 49.2485 138.1061 49.2485 138.1061 41.3015 138.0781 41.3015 136.0211 49.2485 134.5651 49.2485 132.5091 41.3015 132.4801 41.3015 132.4801 49.2485"></polygon>
                <polygon id="Fill-20" points="144.4092 49.2485 144.4092 39.1455 149.6992 39.1455 149.6992 40.8535 146.3412 40.8535 146.3412 43.1775 148.9022 43.1775 148.9022 44.8835 146.3412 44.8835 146.3412 47.5425 149.8382 47.5425 149.8382 49.2485"></polygon>
                <path d="M158.4775,41.9584 C158.1545,41.0074 157.7355,40.6014 157.0635,40.6014 C156.3785,40.6014 155.9995,41.0214 155.9995,41.7074 C155.9995,43.2314 160.3095,43.3434 160.3095,46.5064 C160.3095,48.2404 159.1215,49.3894 157.0925,49.3894 C155.5245,49.3894 154.3075,48.5344 153.7895,46.5484 L155.6925,46.1424 C155.9165,47.3604 156.6165,47.7934 157.1895,47.7934 C157.8605,47.7934 158.3785,47.3454 158.3785,46.5904 C158.3785,44.6874 154.0695,44.6584 154.0695,41.8324 C154.0695,40.0984 155.1045,39.0074 157.1065,39.0074 C158.8275,39.0074 159.8755,40.0274 160.2125,41.4554 L158.4775,41.9584 Z" id="Fill-21"></path>
                <path d="M23.8862,4.6713 L22.9252,4.6713 C22.4232,4.6713 22.0302,4.9193 21.8152,5.3633 L13.6942,21.4763 L5.5822,5.3823 C5.3662,4.9243 4.9692,4.6713 4.4642,4.6713 L3.5002,4.6713 C2.8402,4.6713 2.3602,5.1513 2.3602,5.8133 L2.3602,28.6633 C2.3602,29.3243 2.8402,29.8053 3.5002,29.8053 L4.0612,29.8053 C4.7222,29.8053 5.2022,29.3243 5.2022,28.6633 L5.2022,10.8173 L12.2532,24.8053 C12.4702,25.2633 12.8662,25.5143 13.3702,25.5143 L14.0182,25.5143 C14.5142,25.5143 14.9192,25.2603 15.1272,24.8223 L22.1852,10.8173 L22.1852,28.6633 C22.1852,29.3243 22.6652,29.8053 23.3272,29.8053 L23.8862,29.8053 C24.5482,29.8053 25.0282,29.3243 25.0282,28.6633 L25.0282,5.8133 C25.0282,5.1513 24.5482,4.6713 23.8862,4.6713" id="Fill-22"></path>
                <path d="M49.6235,5.2241 C49.4415,4.8781 49.0755,4.6711 48.6425,4.6711 L48.0185,4.6711 C47.5775,4.6711 47.1955,4.8761 46.9455,5.2481 L40.1985,15.3831 L33.4485,5.2451 C33.1995,4.8751 32.8185,4.6711 32.3765,4.6711 L31.7535,4.6711 C31.3215,4.6711 30.9545,4.8781 30.7745,5.2211 C30.5925,5.5651 30.6275,5.9801 30.8655,6.3281 L38.7705,18.1981 L38.7705,28.6631 C38.7705,29.3251 39.2505,29.8051 39.9125,29.8051 L40.4715,29.8051 C41.1335,29.8051 41.6135,29.3251 41.6135,28.6631 L41.6135,18.2151 L49.5255,6.3341 C49.7665,5.9821 49.8025,5.5671 49.6235,5.2241" id="Fill-23"></path>
                <path d="M69.7368,16.018 L68.7978,15.662 C65.7988,14.542 63.4308,13.66 63.4308,10.977 C63.4308,8.687 65.4538,7.089 68.3488,7.089 C71.1008,7.089 73.2028,8.734 73.3478,10.997 C73.3808,11.626 73.8608,12.084 74.4878,12.084 L75.0588,12.084 C75.3858,12.084 75.6808,11.964 75.8888,11.745 C76.0368,11.588 76.2088,11.314 76.1888,10.891 C75.9958,7.141 72.6258,4.314 68.3508,4.314 C63.8538,4.314 60.5888,7.117 60.5888,10.977 C60.5888,15.581 64.4008,16.985 67.7638,18.222 L68.6078,18.534 C71.6618,19.674 74.0748,20.574 74.0748,23.32 C74.0748,25.715 71.9228,27.387 68.8428,27.387 C65.2248,27.387 62.9708,25.784 62.8138,23.1 C62.7808,22.461 62.3018,21.999 61.6738,21.999 L61.1028,21.999 C60.6858,21.999 60.4228,22.184 60.2718,22.34 C60.1238,22.496 59.9528,22.769 59.9738,23.189 C60.1668,27.426 63.6478,30.163 68.8428,30.163 C73.5208,30.163 76.9178,27.285 76.9178,23.32 C76.9178,18.777 73.1028,17.311 69.7368,16.018" id="Fill-24"></path>
                <path d="M95.9351,4.6713 L81.5971,4.6713 C80.9351,4.6713 80.4561,5.1513 80.4561,5.8133 L80.4561,6.2833 C80.4561,6.9453 80.9351,7.4253 81.5971,7.4253 L87.3451,7.4253 L87.3451,28.6633 C87.3451,29.3243 87.8251,29.8053 88.4861,29.8053 L89.0471,29.8053 C89.7071,29.8053 90.1871,29.3243 90.1871,28.6633 L90.1871,7.4253 L95.9351,7.4253 C96.5971,7.4253 97.0771,6.9453 97.0771,6.2833 L97.0771,5.8133 C97.0771,5.1513 96.5971,4.6713 95.9351,4.6713" id="Fill-25"></path>
                <path d="M118.4619,4.6713 L117.8399,4.6713 C117.3969,4.6713 117.0159,4.8763 116.7649,5.2483 L110.0179,15.3833 L103.2689,5.2443 C103.0199,4.8753 102.6399,4.6713 102.1979,4.6713 L101.5749,4.6713 C101.1399,4.6713 100.7719,4.8793 100.5939,5.2233 C100.4129,5.5663 100.4479,5.9803 100.6869,6.3273 L108.5909,18.1973 L108.5909,28.6633 C108.5909,29.3243 109.0709,29.8053 109.7329,29.8053 L110.2929,29.8053 C110.9549,29.8053 111.4349,29.3243 111.4349,28.6633 L111.4349,18.2153 L119.3469,6.3353 C119.5879,5.9803 119.6239,5.5653 119.4439,5.2233 C119.2619,4.8783 118.8939,4.6713 118.4619,4.6713" id="Fill-26"></path>
                <path d="M138.3257,27.0512 L128.0437,27.0512 L128.0437,5.8132 C128.0437,5.1522 127.5637,4.6712 126.9017,4.6712 L126.3417,4.6712 C125.6807,4.6712 125.2007,5.1522 125.2007,5.8132 L125.2007,28.6632 C125.2007,29.3242 125.6807,29.8052 126.3417,29.8052 L138.3257,29.8052 C138.9877,29.8052 139.4677,29.3242 139.4677,28.6632 L139.4677,28.1932 C139.4677,27.5302 138.9877,27.0512 138.3257,27.0512" id="Fill-27"></path>
                <path d="M158.4976,27.0512 L148.1016,27.0512 L148.1016,18.5132 L157.4896,18.5132 C158.1496,18.5132 158.6296,18.0332 158.6296,17.3722 L158.6296,16.9032 C158.6296,16.2402 158.1496,15.7612 157.4896,15.7612 L148.1016,15.7612 L148.1016,7.4252 L158.3296,7.4252 C158.9906,7.4252 159.4706,6.9462 159.4706,6.2832 L159.4706,5.8132 C159.4706,5.1522 158.9906,4.6712 158.3296,4.6712 L146.4006,4.6712 C145.7386,4.6712 145.2586,5.1522 145.2586,5.8132 L145.2586,28.6632 C145.2586,29.3242 145.7386,29.8052 146.4006,29.8052 L158.4976,29.8052 C159.1596,29.8052 159.6396,29.3242 159.6396,28.6632 L159.6396,28.1932 C159.6396,27.5302 159.1596,27.0512 158.4976,27.0512" id="Fill-28"></path>
                <path d="M12.7954,39.1459 L12.7954,46.2119 C12.7954,47.1779 13.2154,47.6819 14.1534,47.6819 C15.0894,47.6819 15.5244,47.1779 15.5244,46.2119 L15.5244,39.1459 L17.4554,39.1459 L17.4554,46.2269 C17.4554,48.4519 16.1394,49.3889 14.1534,49.3889 C12.1654,49.3889 10.8654,48.4519 10.8654,46.2269 L10.8654,39.1459 L12.7954,39.1459 Z" id="Fill-6"></path>
            </g>
        </g>
    </g>
</svg>