<?xml version="1.0" encoding="UTF-8"?>
<svg width="40px" height="40px" viewBox="0 0 40 40" version="1.1" xmlns="http://www.w3.org/2000/svg" xmlns:xlink="http://www.w3.org/1999/xlink">
    <!-- Generator: Sketch 54.1 (76490) - https://sketchapp.com -->
    <title>Group 6</title>
    <desc>Created with Sketch.</desc>
    <g id="Desktop" stroke="none" stroke-width="1" fill="none" fill-rule="evenodd">
        <g id="My-Time-Tour---1" transform="translate(-521.000000, -447.000000)" fill="#6295BA">
            <g id="Email-Copy" transform="translate(511.000000, 406.000000)">
                <g id="Group-6" transform="translate(10.000000, 41.000000)">
                    <path d="M19.5269,37.2788 C9.7399,37.2788 1.7779,29.3148 1.7779,19.5268 C1.7779,9.7378 9.7399,1.7738 19.5269,1.7738 C29.3139,1.7738 37.2759,9.7378 37.2759,19.5268 C37.2759,29.3148 29.3139,37.2788 19.5269,37.2788 M19.5269,-0.0002 C8.7599,-0.0002 -0.000100000001,8.7588 -0.000100000001,19.5268 C-0.000100000001,30.2938 8.7599,39.0528 19.5269,39.0528 C30.2939,39.0528 39.0529,30.2938 39.0529,19.5268 C39.0529,8.7588 30.2939,-0.0002 19.5269,-0.0002" id="Fill-1"></path>
                    <path d="M18.6328,8.6567 L18.6328,19.5307 C18.6328,20.0217 19.0318,20.4207 19.5238,20.4207 L30.4228,20.4207 C30.8988,20.4207 31.2868,20.0237 31.2868,19.5357 C31.2868,19.0487 30.8988,18.6517 30.4218,18.6517 L20.4138,18.6517 L20.4138,8.6567 C20.4138,8.1657 20.0138,7.7667 19.5238,7.7667 C19.0318,7.7667 18.6328,8.1657 18.6328,8.6567" id="Fill-4"></path>
                </g>
            </g>
        </g>
    </g>
</svg>