<?xml version="1.0" encoding="UTF-8"?>
<svg width="54px" height="50px" viewBox="0 0 54 50" version="1.1" xmlns="http://www.w3.org/2000/svg" xmlns:xlink="http://www.w3.org/1999/xlink">
    <!-- Generator: Sketch 54.1 (76490) - https://sketchapp.com -->
    <title>Group 2</title>
    <desc>Created with Sketch.</desc>
    <g id="Desktop" stroke="none" stroke-width="1" fill="none" fill-rule="evenodd">
        <g id="My-Account---My-Favs---Communities" transform="translate(-469.000000, -141.000000)" fill="#6295BA">
            <g id="my-accounts-nav" transform="translate(146.000000, 140.000000)">
                <g id="my-time" transform="translate(243.000000, 1.000000)">
                    <g id="Group-2" transform="translate(80.000000, 0.000000)">
                        <path d="M24.7842643,10.0959615 C24.0398357,10.0959615 23.4352286,10.7007692 23.4352286,11.4421154 L23.4352286,24.7132692 C23.4352286,25.4555769 24.0398357,26.0603846 24.7842643,26.0603846 L33.61905,26.0623077 C34.3634786,26.0623077 34.96905,25.4594231 34.96905,24.7171154 C34.96905,23.9748077 34.3644429,23.3709615 33.6200143,23.3709615 L26.1342643,23.3680769 L26.1342643,11.4421154 C26.1342643,10.7007692 25.5286929,10.0959615 24.7842643,10.0959615" id="Fill-1"></path>
                        <path d="M52.6557857,20.9461538 C52.3443214,20.7653846 51.9778929,20.7201923 51.6336429,20.8086538 C51.2836071,20.9028846 50.9923929,21.1259615 50.8101429,21.4384615 L49.5440357,23.6230769 C48.9702857,10.5009615 38.0844643,9.59232693e-14 24.7840714,9.59232693e-14 C11.1182143,9.59232693e-14 1.5596413e-12,11.0855769 1.5596413e-12,24.7134615 C1.5596413e-12,38.3413462 11.1182143,49.4278846 24.7840714,49.4278846 C33.2427857,49.4278846 41.0351786,45.1903846 45.6261429,38.0923077 C45.8218929,37.7903846 45.8865,37.4307692 45.8103214,37.0778846 C45.7351071,36.7269231 45.5258571,36.4269231 45.2230714,36.2317308 C44.92125,36.0384615 44.5577143,35.9721154 44.2067143,36.0471154 C43.8537857,36.1221154 43.5529286,36.3307692 43.3571786,36.6317308 C39.26475,42.9596154 32.3228571,46.7355769 24.7840714,46.7355769 C12.6070714,46.7355769 2.7,36.8567308 2.7,24.7134615 C2.7,12.5701923 12.6070714,2.69230769 24.7840714,2.69230769 C36.5435357,2.69230769 46.1863929,11.9057692 46.8315,23.5182692 L45.6261429,21.4365385 C45.252,20.7961538 44.4265714,20.575 43.7833929,20.9442308 C43.13925,21.3182692 42.9165,22.1423077 43.2887143,22.7836538 L47.0484643,29.2788462 C47.2885714,29.6951923 47.7379286,29.9528846 48.2191071,29.9528846 C48.6983571,29.9528846 49.1477143,29.6951923 49.3878214,29.2788462 L53.1495,22.7836538 C53.52075,22.1423077 53.2999286,21.3182692 52.6557857,20.9461538" id="Fill-3"></path>
                    </g>
                </g>
            </g>
        </g>
    </g>
</svg>