<?xml version="1.0" encoding="UTF-8"?>
<svg width="200px" height="50px" viewBox="0 0 200 50" version="1.1" xmlns="http://www.w3.org/2000/svg" xmlns:xlink="http://www.w3.org/1999/xlink">
    <!-- Generator: Sketch 54.1 (76490) - https://sketchapp.com -->
    <title>Logos/MyTimeHorz/White</title>
    <desc>Created with Sketch.</desc>
    <g id="Desktop" stroke="none" stroke-width="1" fill="none" fill-rule="evenodd">
        <g id="FMH---Community-Microsite" transform="translate(-97.000000, -2457.000000)" fill="#FFFFFF">
            <g id="Empower-Features" transform="translate(0.000000, 2068.000000)">
                <g id="Photo-Gallery" transform="translate(0.000000, 272.000000)">
                    <g id="Photo">
                        <g id="Logos/MyTimeHorz/White" transform="translate(97.000000, 117.000000)">
                            <g id="My-Time">
                                <polygon id="Fill-1" points="64.1139768 48.2080769 64.1139768 38.1365385 66.0460232 38.1365385 66.0460232 42.155 68.7780695 42.155 68.7780695 38.1365385 70.7093436 38.1365385 70.7093436 48.2080769 68.7780695 48.2080769 68.7780695 43.8557692 66.0460232 43.8557692 66.0460232 48.2080769"></polygon>
                                <path d="M75.1959073,41.3721538 C75.1959073,38.8906154 76.5132819,37.9975385 78.3897297,37.9975385 C80.2654054,37.9975385 81.5820077,38.8906154 81.5820077,41.3721538 L81.5820077,44.9721538 C81.5820077,47.456 80.2654054,48.3483077 78.3897297,48.3483077 C76.5132819,48.3483077 75.1959073,47.456 75.1959073,44.9721538 L75.1959073,41.3721538 Z M77.1294981,45.2236923 C77.1294981,46.3390769 77.6198456,46.6452308 78.3897297,46.6452308 C79.1596139,46.6452308 79.6499614,46.3390769 79.6499614,45.2236923 L79.6499614,41.1221538 C79.6499614,40.006 79.1596139,39.6983077 78.3897297,39.6983077 C77.6198456,39.6983077 77.1294981,40.006 77.1294981,41.1221538 L77.1294981,45.2236923 Z" id="Fill-2"></path>
                                <polygon id="Fill-4" points="86.0700386 48.2080769 86.0700386 38.1365385 88.7727413 38.1365385 90.5225483 44.7496154 90.5518919 44.7496154 92.3016988 38.1365385 95.0044015 38.1365385 95.0044015 48.2080769 93.3534363 48.2080769 93.3534363 40.285 93.3240927 40.285 91.2661776 48.2080769 89.8082625 48.2080769 87.7503475 40.285 87.7210039 40.285 87.7210039 48.2080769"></polygon>
                                <polygon id="Fill-6" points="99.6604633 48.2080769 99.6604633 38.1365385 104.9539 38.1365385 104.9539 39.8388462 101.594054 39.8388462 101.594054 42.155 104.156216 42.155 104.156216 43.8557692 101.594054 43.8557692 101.594054 46.5073077 105.09444 46.5073077 105.09444 48.2080769"></polygon>
                                <polygon id="Fill-8" points="122.020386 38.1366923 122.020386 39.839 119.76556 39.839 119.76556 48.209 117.833514 48.209 117.833514 39.839 115.578687 39.839 115.578687 38.1366923"></polygon>
                                <path d="M125.806718,41.3721538 C125.806718,38.8906154 127.12332,37.9975385 128.998996,37.9975385 C130.875444,37.9975385 132.192819,38.8906154 132.192819,41.3721538 L132.192819,44.9721538 C132.192819,47.456 130.875444,48.3483077 128.998996,48.3483077 C127.12332,48.3483077 125.806718,47.456 125.806718,44.9721538 L125.806718,41.3721538 Z M127.738764,45.2236923 C127.738764,46.3390769 128.229884,46.6452308 128.998996,46.6452308 C129.76888,46.6452308 130.259228,46.3390769 130.259228,45.2236923 L130.259228,41.1221538 C130.259228,40.006 129.76888,39.6983077 128.998996,39.6983077 C128.229884,39.6983077 127.738764,40.006 127.738764,41.1221538 L127.738764,45.2236923 Z" id="Fill-10"></path>
                                <path d="M138.611351,38.1366923 L138.611351,45.1813077 C138.611351,46.1443846 139.032201,46.6459231 139.970425,46.6459231 C140.908649,46.6459231 141.342625,46.1443846 141.342625,45.1813077 L141.342625,38.1366923 L143.276216,38.1366923 L143.276216,45.1959231 C143.276216,47.4143846 141.959614,48.3474615 139.970425,48.3474615 C137.98278,48.3474615 136.679305,47.4143846 136.679305,45.1959231 L136.679305,38.1366923 L138.611351,38.1366923 Z" id="Fill-12"></path>
                                <path d="M152.468417,48.2080769 L150.788108,44.1073077 L149.862239,44.1073077 L149.862239,48.2080769 L147.931737,48.2080769 L147.931737,38.1365385 L150.731737,38.1365385 C153.056062,38.1365385 154.163398,39.2526923 154.163398,41.1503846 C154.163398,42.4057692 153.715521,43.3126923 152.635985,43.7165385 L154.539459,48.2080769 L152.468417,48.2080769 Z M149.862239,42.5180769 L150.858378,42.5180769 C151.71166,42.5180769 152.230579,42.0996154 152.230579,41.1219231 C152.230579,40.1457692 151.71166,39.7273077 150.858378,39.7273077 L149.862239,39.7273077 L149.862239,42.5180769 Z" id="Fill-14"></path>
                                <path d="M162.795444,40.9402308 C162.473436,39.9917692 162.051815,39.5863846 161.380772,39.5863846 C160.695058,39.5863846 160.31668,40.0048462 160.31668,40.6902308 C160.31668,42.2094615 164.628649,42.321 164.628649,45.4748462 C164.628649,47.2033077 163.439459,48.3494615 161.410116,48.3494615 C159.839459,48.3494615 158.621699,47.4963846 158.103552,45.5163846 L160.008571,45.111 C160.233282,46.3256154 160.932896,46.7579231 161.506641,46.7579231 C162.178456,46.7579231 162.696602,46.311 162.696602,45.5586923 C162.696602,43.661 158.383861,43.6325385 158.383861,40.8156154 C158.383861,39.0856154 159.419382,37.9971538 161.423243,37.9971538 C163.145251,37.9971538 164.195444,39.0156154 164.532124,40.4394615 L162.795444,40.9402308 Z" id="Fill-16"></path>
                                <path d="M25.0084942,10.1784615 C24.2571429,10.1784615 23.6471042,10.7869231 23.6471042,11.5361538 L23.6471042,24.9130769 C23.6471042,25.6607692 24.2571429,26.2707692 25.0084942,26.2707692 L33.9227799,26.2730769 C34.6741313,26.2730769 35.2857143,25.6653846 35.2857143,24.9161538 C35.2857143,24.1684615 34.6764479,23.5592308 33.9243243,23.5592308 L26.3714286,23.5561538 L26.3714286,11.5361538 C26.3714286,10.7869231 25.7590734,10.1784615 25.0084942,10.1784615" id="Fill-18"></path>
                                <path d="M53.1335135,21.1152308 C52.8184556,20.9329231 52.4493436,20.8875385 52.1018533,20.9783077 C51.7481853,21.0713846 51.454749,21.296 51.2709653,21.6121538 L49.992973,23.8144615 C49.4138224,10.5852308 38.4292664,-0.000153846154 25.008417,-0.000153846154 C11.2184556,-0.000153846154 -7.72200772e-05,11.176 -7.72200772e-05,24.9129231 C-7.72200772e-05,38.6513846 11.2184556,49.8267692 25.008417,49.8267692 C33.5443243,49.8267692 41.4061004,45.5544615 46.0400772,38.3998462 C46.2369884,38.0944615 46.3018533,37.7329231 46.2261776,37.3783077 C46.1497297,37.0236923 45.9389189,36.7213846 45.6331274,36.5244615 C45.3281081,36.3290769 44.9613127,36.2629231 44.6068726,36.3375385 C44.2516602,36.4136923 43.9474131,36.6236923 43.7505019,36.9283077 C39.6207722,43.3052308 32.6145946,47.1136923 25.008417,47.1136923 C12.7203861,47.1136923 2.7242471,37.1544615 2.7242471,24.9129231 C2.7242471,12.6721538 12.7203861,2.71369231 25.008417,2.71369231 C36.8740541,2.71369231 46.604556,12.0013846 47.2570656,23.7075385 L46.0400772,21.6098462 C45.662471,20.9636923 44.8292664,20.7413846 44.1798456,21.1136923 C43.5304247,21.4898462 43.3064865,22.3206154 43.6802317,22.9683077 L47.4748263,29.516 C47.7172973,29.9344615 48.1705792,30.196 48.6555212,30.196 C49.1412355,30.196 49.5937452,29.9344615 49.835444,29.516 L53.6323552,22.9683077 C54.0061004,22.3206154 53.7829344,21.4898462 53.1335135,21.1152308" id="Fill-20"></path>
                                <path d="M85.7039382,3.76623077 L84.7371429,3.76623077 C84.260695,3.76623077 83.8707336,4.01007692 83.6668726,4.43007692 L75.456834,20.6485385 L67.2560618,4.44546154 C67.0467954,4.00776923 66.6637838,3.76623077 66.1788417,3.76623077 L65.2105019,3.76623077 C64.5757529,3.76623077 64.1132046,4.22623077 64.1132046,4.85853846 L64.1132046,27.7300769 C64.1132046,28.3746923 64.5649421,28.8246923 65.2105019,28.8246923 L65.7742085,28.8246923 C66.4197683,28.8246923 66.8715058,28.3746923 66.8715058,27.7300769 L66.8715058,9.65853846 L74.0552896,23.8462308 C74.2630116,24.2862308 74.6460232,24.5300769 75.1317375,24.5300769 L75.7827027,24.5300769 C76.2668726,24.5300769 76.649112,24.2923846 76.852973,23.8654615 L84.0429344,9.65853846 L84.0429344,27.7300769 C84.0429344,28.3746923 84.4946718,28.8246923 85.1402317,28.8246923 L85.7039382,28.8246923 C86.3494981,28.8246923 86.8012355,28.3746923 86.8012355,27.7300769 L86.8012355,4.85853846 C86.8012355,4.21623077 86.3494981,3.76623077 85.7039382,3.76623077" id="Fill-23"></path>
                                <path d="M111.421467,4.29276923 C111.244633,3.95815385 110.901776,3.76584615 110.47861,3.76584615 L109.852355,3.76584615 C109.419923,3.76584615 109.060849,3.95815385 108.81529,4.32276923 L101.983629,14.5289231 L95.1519691,4.31738462 C94.9094981,3.96276923 94.5419305,3.76584615 94.1141313,3.76584615 L93.486332,3.76584615 C93.0639382,3.76584615 92.7218533,3.95815385 92.5481081,4.28969231 C92.3712741,4.61584615 92.4060232,5.01276923 92.6369112,5.34507692 L100.597529,17.2412308 L100.597529,27.732 C100.597529,28.3750769 101.050039,28.8250769 101.697143,28.8250769 L102.260077,28.8250769 C102.895598,28.8250769 103.358919,28.3643077 103.358919,27.732 L103.358919,17.2581538 L111.325714,5.352 C111.558147,5.01353846 111.593668,4.61815385 111.421467,4.29276923" id="Fill-25"></path>
                                <path d="M136.550425,4.00130769 L122.26471,4.00130769 C121.719537,4.00130769 121.324942,4.39592308 121.324942,4.93823077 L121.324942,5.40361538 C121.324942,5.94746154 121.719537,6.34207692 122.26471,6.34207692 L128.189807,6.34207692 L128.189807,27.6528462 C128.189807,28.1951538 128.583629,28.5897692 129.127259,28.5897692 L129.68556,28.5897692 C130.229961,28.5897692 130.625328,28.1951538 130.625328,27.6528462 L130.625328,6.34207692 L136.550425,6.34207692 C137.093282,6.34207692 137.487104,5.94746154 137.487104,5.40361538 L137.487104,4.93823077 C137.487104,4.39592308 137.093282,4.00130769 136.550425,4.00130769" id="Fill-27"></path>
                                <path d="M145.203012,4.00130769 L144.660927,4.00130769 C144.12888,4.00130769 143.743552,4.39592308 143.743552,4.93823077 L143.743552,27.6528462 C143.743552,28.1951538 144.12888,28.5897692 144.660927,28.5897692 L145.203012,28.5897692 C145.733514,28.5897692 146.118069,28.1951538 146.118069,27.6528462 L146.118069,4.93823077 C146.118069,4.39592308 145.733514,4.00130769 145.203012,4.00130769" id="Fill-29"></path>
                                <path d="M175.881776,4.00130769 L174.923475,4.00130769 C174.50417,4.00130769 174.172896,4.20746154 173.993745,4.579 L165.714208,20.9474615 L157.441622,4.59053846 C157.25861,4.20976923 156.927336,4.00130769 156.506486,4.00130769 L155.545097,4.00130769 C154.999923,4.00130769 154.605328,4.39592308 154.605328,4.93823077 L154.605328,27.6528462 C154.605328,28.2051538 154.992201,28.5897692 155.545097,28.5897692 L156.104942,28.5897692 C156.657066,28.5897692 157.043938,28.2051538 157.043938,27.6528462 L157.043938,9.08053846 L164.454749,23.7313077 C164.638533,24.1143846 164.970579,24.3259231 165.390656,24.3259231 L166.036988,24.3259231 C166.457838,24.3259231 166.78834,24.1182308 166.965174,23.7466923 L174.382934,9.08130769 L174.382934,27.6528462 C174.382934,28.2051538 174.770579,28.5897692 175.324247,28.5897692 L175.881776,28.5897692 C176.435444,28.5897692 176.822317,28.2051538 176.822317,27.6528462 L176.822317,4.93823077 C176.822317,4.38592308 176.435444,4.00130769 175.881776,4.00130769" id="Fill-31"></path>
                                <path d="M198.291042,26.2474615 L187.74278,26.2474615 L187.74278,17.3666923 L197.286409,17.3666923 C197.830811,17.3666923 198.226178,16.9713077 198.226178,16.429 L198.226178,15.9620769 C198.226178,15.4197692 197.830811,15.0243846 197.286409,15.0243846 L187.74278,15.0243846 L187.74278,6.34207692 L198.123475,6.34207692 C198.667104,6.34207692 199.060927,5.94746154 199.060927,5.40361538 L199.060927,4.93669231 C199.060927,4.39438462 198.667104,4.00130769 198.123475,4.00130769 L186.246255,4.00130769 C185.702625,4.00130769 185.308031,4.39438462 185.308031,4.93669231 L185.308031,27.6520769 C185.308031,28.1951538 185.702625,28.5897692 186.246255,28.5897692 L198.291042,28.5897692 C198.834672,28.5897692 199.229266,28.1951538 199.229266,27.6520769 L199.229266,27.1859231 C199.229266,26.6420769 198.834672,26.2474615 198.291042,26.2474615" id="Fill-33"></path>
                            </g>
                        </g>
                    </g>
                </g>
            </g>
        </g>
    </g>
</svg>