<?xml version="1.0" encoding="UTF-8"?>
<svg width="247px" height="45px" viewBox="0 0 247 45" version="1.1" xmlns="http://www.w3.org/2000/svg" xmlns:xlink="http://www.w3.org/1999/xlink">
    <!-- Generator: Sketch 54.1 (76490) - https://sketchapp.com -->
    <title>Group 35</title>
    <desc>Created with Sketch.</desc>
    <g id="Symbols" stroke="none" stroke-width="1" fill="none" fill-rule="evenodd">
        <g id="Logos/MyVisionHorz/White" transform="translate(0.000000, -1.000000)" fill="#FFFFFF">
            <g id="Group-35" transform="translate(0.000000, 1.000000)">
                <polygon id="Fill-1" points="78.5196 34.6957 76.7626 41.8887 76.7346 41.8887 74.9656 34.6957 73.0696 34.6957 75.6496 44.7577 77.8366 44.7577 80.4016 34.6957"></polygon>
                <polygon id="Fill-2" points="84.38 44.759 86.302 44.759 86.302 34.697 84.38 34.697"></polygon>
                <path d="M95.4485,44.7588 L93.7755,40.6598 L92.8575,40.6598 L92.8575,44.7588 L90.9325,44.7588 L90.9325,34.6958 L93.7205,34.6958 C96.0335,34.6958 97.1355,35.8118 97.1355,37.7068 C97.1355,38.9618 96.6885,39.8658 95.6155,40.2718 L97.5115,44.7588 L95.4485,44.7588 Z M92.8575,39.0718 L93.8455,39.0718 C94.6965,39.0718 95.2115,38.6548 95.2115,37.6788 C95.2115,36.7038 94.6965,36.2848 93.8455,36.2848 L92.8575,36.2848 L92.8575,39.0718 Z" id="Fill-3"></path>
                <polygon id="Fill-5" points="100.8904 34.6953 100.8904 36.3963 103.1344 36.3963 103.1344 44.7583 105.0574 44.7583 105.0574 36.3963 107.3024 36.3963 107.3024 34.6953"></polygon>
                <path d="M113.2722,34.6963 L113.2722,41.7333 C113.2722,42.6963 113.6902,43.1973 114.6252,43.1973 C115.5572,43.1973 115.9902,42.6963 115.9902,41.7333 L115.9902,34.6963 L117.9132,34.6963 L117.9132,41.7493 C117.9132,43.9653 116.6032,44.8993 114.6252,44.8993 C112.6442,44.8993 111.3492,43.9653 111.3492,41.7493 L111.3492,34.6963 L113.2722,34.6963 Z" id="Fill-7"></path>
                <path d="M124.3586,34.6953 L121.8636,44.7583 L123.7176,44.7583 L124.2606,42.6403 L126.9226,42.6403 L127.4106,44.7583 L129.2506,44.7583 L126.8246,34.6953 L124.3586,34.6953 Z M125.5576,36.8713 L125.5846,36.8713 L126.5186,40.9403 L124.6086,40.9403 L125.5576,36.8713 Z" id="Fill-10"></path>
                <polygon id="Fill-12" points="133.0896 34.6953 133.0896 44.7583 138.1066 44.7583 138.1066 43.0593 135.0126 43.0593 135.0126 34.6953"></polygon>
                <path d="M148.7356,34.6963 L151.4116,34.6963 C153.6136,34.6963 154.8396,35.6433 154.9236,38.1803 L154.9236,41.2743 C154.8396,43.8103 153.6136,44.7593 151.4116,44.7593 L148.7356,44.7593 L148.7356,34.6963 Z M150.6586,43.0583 L151.3276,43.0583 C152.3866,43.0583 152.9996,42.5563 152.9996,41.0513 L152.9996,38.4023 C152.9996,36.9813 152.5276,36.3973 151.3276,36.3973 L150.6586,36.3973 L150.6586,43.0583 Z" id="Fill-14"></path>
                <polygon id="Fill-16" points="159.2776 34.6953 159.2776 44.7583 164.6856 44.7583 164.6856 43.0593 161.2016 43.0593 161.2016 40.4103 163.7526 40.4103 163.7526 38.7103 161.2016 38.7103 161.2016 36.3963 164.5466 36.3963 164.5466 34.6953"></polygon>
                <path d="M173.2908,37.4971 C172.9698,36.5501 172.5508,36.1451 171.8828,36.1451 C171.2008,36.1451 170.8238,36.5621 170.8238,37.2461 C170.8238,38.7661 175.1168,38.8771 175.1168,42.0261 C175.1168,43.7551 173.9328,44.8981 171.9118,44.8981 C170.3488,44.8981 169.1378,44.0481 168.6218,42.0691 L170.5178,41.6641 C170.7398,42.8781 171.4368,43.3091 172.0078,43.3091 C172.6768,43.3091 173.1928,42.8631 173.1928,42.1111 C173.1928,40.2161 168.9008,40.1861 168.9008,37.3721 C168.9008,35.6431 169.9318,34.5581 171.9248,34.5581 C173.6398,34.5581 174.6848,35.5741 175.0198,36.9961 L173.2908,37.4971 Z" id="Fill-18"></path>
                <polygon id="Fill-20" points="179.694 44.759 181.617 44.759 181.617 34.696 179.694 34.696"></polygon>
                <path d="M191.0564,43.9229 C190.5404,44.5079 189.9824,44.8989 189.2584,44.8989 C187.3894,44.8989 186.0804,44.0069 186.0804,41.5259 L186.0804,37.9299 C186.0804,35.4489 187.3894,34.5569 189.2584,34.5569 C191.2234,34.5569 192.2834,35.6859 192.3524,37.9719 L190.4304,37.9719 C190.4304,36.6749 189.9554,36.2569 189.2584,36.2569 C188.4924,36.2569 188.0044,36.5639 188.0044,37.6789 L188.0044,41.7769 C188.0044,42.8919 188.4924,43.1969 189.2584,43.1969 C189.9824,43.1969 190.4304,42.6679 190.4304,41.8049 L190.4304,41.1909 L189.0774,41.1909 L189.0774,39.6029 L192.3524,39.6029 L192.3524,44.7589 L191.3484,44.7589 L191.0564,43.9229 Z" id="Fill-22"></path>
                <polygon id="Fill-23" points="201.7117 34.6953 201.7117 40.6613 201.6827 40.6613 199.0067 34.6953 196.9027 34.6953 196.9027 44.7583 198.6577 44.7583 198.6577 38.2633 198.6867 38.2633 201.6267 44.7583 203.4657 44.7583 203.4657 34.6953"></polygon>
                <path d="M94.5119,0.3565 L93.5549,0.3565 C93.0549,0.3565 92.6619,0.6025 92.4489,1.0455 L84.3599,17.0945 L76.2789,1.0645 C76.0639,0.6085 75.6679,0.3565 75.1659,0.3565 L74.2059,0.3565 C73.5479,0.3565 73.0699,0.8345 73.0699,1.4935 L73.0699,24.2535 C73.0699,24.9135 73.5479,25.3905 74.2059,25.3905 L74.7639,25.3905 C75.4229,25.3905 75.9009,24.9135 75.9009,24.2535 L75.9009,6.4775 L82.9239,20.4115 C83.1409,20.8665 83.5359,21.1175 84.0369,21.1175 L84.6819,21.1175 C85.1769,21.1175 85.5799,20.8645 85.7859,20.4285 L92.8179,6.4775 L92.8179,24.2535 C92.8179,24.9135 93.2969,25.3905 93.9549,25.3905 L94.5119,25.3905 C95.1719,25.3905 95.6499,24.9135 95.6499,24.2535 L95.6499,1.4935 C95.6499,0.8345 95.1719,0.3565 94.5119,0.3565" id="Fill-24"></path>
                <path d="M120.1487,0.9063 C119.9687,0.5613 119.6027,0.3563 119.1707,0.3563 L118.5497,0.3563 C118.1097,0.3563 117.7307,0.5603 117.4817,0.9303 L110.7607,11.0263 L104.0367,0.9273 C103.7887,0.5593 103.4097,0.3563 102.9687,0.3563 L102.3487,0.3563 C101.9177,0.3563 101.5537,0.5613 101.3737,0.9033 C101.1917,1.2453 101.2267,1.6593 101.4647,2.0063 L109.3387,13.8293 L109.3387,24.2543 C109.3387,24.9133 109.8167,25.3903 110.4757,25.3903 L111.0327,25.3903 C111.6917,25.3903 112.1697,24.9133 112.1697,24.2543 L112.1697,13.8463 L120.0507,2.0113 C120.2917,1.6613 120.3267,1.2483 120.1487,0.9063" id="Fill-25"></path>
                <path d="M148.8386,0.3565 L148.2446,0.3565 C147.7156,0.3565 147.2906,0.6505 147.1076,1.1425 L139.7486,20.8355 L132.3906,1.1505 C132.2096,0.6525 131.7846,0.3565 131.2536,0.3565 L130.6596,0.3565 C130.2756,0.3565 129.9396,0.5205 129.7376,0.8075 C129.5346,1.0985 129.4976,1.4595 129.6316,1.8265 L138.2346,24.6195 C138.4236,25.0955 138.8566,25.3905 139.3626,25.3905 L140.1346,25.3905 C140.6416,25.3905 141.0746,25.0935 141.2686,24.6045 L149.8676,1.8205 C150.0006,1.4635 149.9606,1.0945 149.7596,0.8115 C149.5596,0.5225 149.2236,0.3565 148.8386,0.3565" id="Fill-26"></path>
                <path d="M157.1633,0.3565 L156.6053,0.3565 C155.9463,0.3565 155.4683,0.8345 155.4683,1.4935 L155.4683,24.2535 C155.4683,24.9135 155.9463,25.3905 156.6053,25.3905 L157.1633,25.3905 C157.8223,25.3905 158.2993,24.9135 158.2993,24.2535 L158.2993,1.4935 C158.2993,0.8345 157.8223,0.3565 157.1633,0.3565" id="Fill-27"></path>
                <path d="M174.4514,11.6563 L173.5154,11.3013 C170.5314,10.1863 168.1724,9.3073 168.1724,6.6363 C168.1724,4.3573 170.1874,2.7633 173.0724,2.7633 C175.8134,2.7633 177.9074,4.4023 178.0524,6.6563 C178.0844,7.2843 178.5624,7.7403 179.1874,7.7403 L179.7544,7.7403 C180.1694,7.7403 180.4334,7.5563 180.5844,7.3993 C180.7304,7.2433 180.9004,6.9693 180.8794,6.5513 C180.6874,2.8153 177.3304,0.0003 173.0724,0.0003 C168.5924,0.0003 165.3414,2.7923 165.3414,6.6363 C165.3414,11.2243 169.1394,12.6213 172.4894,13.8513 L173.3284,14.1633 C176.3714,15.3003 178.7744,16.1973 178.7744,18.9313 C178.7744,21.3173 176.6314,22.9833 173.5624,22.9833 C169.9594,22.9833 167.7154,21.3853 167.5574,18.7133 C167.5244,18.0773 167.0484,17.6163 166.4224,17.6163 L165.8534,17.6163 C165.4374,17.6163 165.1754,17.8003 165.0304,17.9543 C164.8214,18.1713 164.7134,18.4733 164.7304,18.8013 C164.9224,23.0213 168.3894,25.7473 173.5624,25.7473 C178.2224,25.7473 181.6054,22.8813 181.6054,18.9313 C181.6054,14.4063 177.8044,12.9463 174.4514,11.6563" id="Fill-28"></path>
                <path d="M189.7278,0.3565 L189.1698,0.3565 C188.5108,0.3565 188.0318,0.8345 188.0318,1.4935 L188.0318,24.2535 C188.0318,24.9135 188.5108,25.3905 189.1698,25.3905 L189.7278,25.3905 C190.3858,25.3905 190.8638,24.9135 190.8638,24.2535 L190.8638,1.4935 C190.8638,0.8345 190.3858,0.3565 189.7278,0.3565" id="Fill-29"></path>
                <path d="M220.4206,12.8731 C220.4206,18.4481 215.9156,22.9831 210.3786,22.9831 C204.8406,22.9831 200.3356,18.4481 200.3356,12.8731 C200.3356,7.3001 204.8406,2.7641 210.3786,2.7641 C215.9156,2.7641 220.4206,7.3001 220.4206,12.8731 M210.3786,0.0001 C203.2786,0.0001 197.5036,5.7751 197.5036,12.8741 C197.5036,19.9721 203.2786,25.7471 210.3786,25.7471 C217.4766,25.7471 223.2526,19.9721 223.2526,12.8741 C223.2526,5.7751 217.4766,0.0001 210.3786,0.0001" id="Fill-30"></path>
                <path d="M245.2073,0.3565 L244.6493,0.3565 C243.9903,0.3565 243.5123,0.8345 243.5123,1.4935 L243.5123,19.2595 L232.6503,0.9845 C232.4203,0.5805 232.0293,0.3565 231.5513,0.3565 L231.0373,0.3565 C230.3783,0.3565 229.9003,0.8345 229.9003,1.4935 L229.9003,24.2535 C229.9003,24.9135 230.3783,25.3905 231.0373,25.3905 L231.5963,25.3905 C232.2543,25.3905 232.7313,24.9135 232.7313,24.2535 L232.7313,6.4875 L243.5953,24.7625 C243.8253,25.1685 244.2153,25.3905 244.6933,25.3905 L245.2073,25.3905 C245.8663,25.3905 246.3453,24.9135 246.3453,24.2535 L246.3453,1.4935 C246.3453,0.8345 245.8663,0.3565 245.2073,0.3565" id="Fill-31"></path>
                <path d="M55.5603,20.711 C51.8533,16.694 41.7703,7.356 28.2223,7.356 C14.6723,7.356 4.5893,16.694 0.8823,20.711 C-0.2937,21.985 -0.2937,23.981 0.8823,25.255 C4.5893,29.271 14.6723,38.611 28.2223,38.611 C41.7733,38.611 51.8553,29.271 55.5603,25.254 C56.7373,23.981 56.7373,21.985 55.5603,20.711 M13.8263,22.983 C13.8263,27.438 15.8823,31.606 19.3753,34.33 C11.5353,31.736 5.7563,26.384 2.9513,23.345 C2.7693,23.149 2.7693,22.817 2.9513,22.621 C5.7583,19.582 11.5353,14.23 19.3753,11.637 C15.8823,14.362 13.8263,18.527 13.8263,22.983 M37.0683,34.33 C40.5603,31.606 42.6163,27.438 42.6163,22.983 C42.6163,18.527 40.5603,14.362 37.0683,11.637 C44.9083,14.23 50.6863,19.582 53.4913,22.621 C53.6743,22.817 53.6743,23.149 53.4913,23.345 C50.6863,26.384 44.9083,31.736 37.0683,34.33 M39.8013,22.983 C39.8013,29.368 34.6063,34.562 28.2223,34.562 C21.8363,34.562 16.6423,29.368 16.6423,22.983 C16.6423,16.598 21.8363,11.404 28.2223,11.404 C34.6063,11.404 39.8013,16.598 39.8013,22.983" id="Fill-32"></path>
                <path d="M31.7102,17.167 C30.3752,16.926 29.1532,17.281 28.2212,18.148 C27.2892,17.281 26.0742,16.925 24.7292,17.167 C22.5452,17.575 21.1272,19.31 21.1142,21.586 C21.0912,26.273 26.9682,29.299 27.6362,29.628 C27.8162,29.716 28.0182,29.764 28.2212,29.764 C28.4232,29.764 28.6262,29.716 28.8022,29.629 C28.8662,29.598 30.4072,28.84 31.9692,27.53 C34.1762,25.684 35.3382,23.627 35.3282,21.586 C35.3152,19.311 33.8972,17.575 31.7102,17.167 M28.2212,21.886 C28.8082,21.886 29.3312,21.491 29.4872,20.94 C29.5032,20.892 29.8742,19.732 30.8762,19.732 C30.9892,19.732 31.1082,19.744 31.2272,19.766 C32.1612,19.94 32.6792,20.592 32.6842,21.599 C32.6962,24.051 29.4592,26.2 28.2202,26.931 C26.9812,26.201 23.7462,24.057 23.7582,21.599 C23.7632,20.592 24.2812,19.94 25.2122,19.767 C25.3342,19.744 25.4532,19.732 25.5662,19.732 C26.5772,19.732 26.9382,20.887 26.9502,20.929 C27.1122,21.492 27.6352,21.886 28.2212,21.886" id="Fill-33"></path>
            </g>
        </g>
    </g>
</svg>