<?xml version="1.0" encoding="UTF-8"?>
<svg width="255px" height="58px" viewBox="0 0 255 58" version="1.1" xmlns="http://www.w3.org/2000/svg" xmlns:xlink="http://www.w3.org/1999/xlink">
    <!-- Generator: Sketch 54.1 (76490) - https://sketchapp.com -->
    <title>24418_BRP_Empower Logos-03</title>
    <desc>Created with Sketch.</desc>
    <g id="Symbols" stroke="none" stroke-width="1" fill="none" fill-rule="evenodd">
        <g id="Artboard" transform="translate(-27.000000, -10.000000)">
            <g id="24418_BRP_Empower-Logos-03" transform="translate(27.000000, 10.000000)">
                <path d="M252.944923,12.7247755 C255.263151,10.1633221 255.195712,6.19890994 252.72695,3.7307864 L250.900066,1.90513366 C249.670502,0.676189982 248.030883,0 246.282277,0 C244.64326,0 243.104198,0.600321827 241.906547,1.68656112 L241.895106,1.67512069 L200.064646,43.5049676 C199.829812,43.7397976 199.661816,44.0348404 199.58113,44.3551726 L196.690872,55.6938489 C196.528897,56.3309006 196.709538,56.9908331 197.17499,57.4556761 C197.528444,57.8097275 197.992692,58 198.47681,58 C198.629151,58 198.785104,57.9807319 198.938047,57.9409914 L202.122148,57.1305269 L201.39296,54.2674072 L200.014066,54.6178458 L201.886712,47.2682689 L206.391902,51.7721879 L208.481317,49.6834051 L203.272832,44.4749961 L243.753903,3.99451856 C245.09968,2.64936413 247.466078,2.64936413 248.811253,3.99451856 L250.638738,5.82137555 C251.953806,7.13702569 252.012213,9.22159356 250.844669,10.6251544 L244.932888,4.71285751 L242.843472,6.80164028 L244.292214,8.25036076 L207.644949,44.8994965 L209.732558,46.9882793 L246.382232,10.3397457 L248.779339,12.7362159 L209.453166,52.0624137 C209.321901,52.1942798 209.156915,52.2876097 208.975672,52.3339735 L203.133738,53.8218323 L203.862324,56.684952 L210.275686,55.0513781 C210.599033,54.9682845 210.89408,54.8020971 211.125903,54.5672671 L250.868153,14.8243966 L250.868755,14.8249987 L252.726348,12.9674332 C252.730563,12.9626161 252.734175,12.957197 252.738993,12.9529821 L252.955762,12.7356138 L252.944923,12.7247755" id="Fill-1" fill="#D37B31"></path>
                <path d="M5.73150842,53.2457002 L5.69999363,53.2457002 C5.3301408,52.6824324 4.86514897,52.252457 4.14447111,52.1535627 L4.14447111,54.1406634 C4.51254008,54.2733415 4.8181741,54.6375921 5.12202425,55.0841523 C4.897853,55.2168305 4.62492302,55.2665848 4.28836883,55.2665848 C3.40714392,55.2665848 2.84582387,54.9029484 2.84582387,53.5773956 L2.84582387,48.708231 C2.84582387,47.3832924 3.40714392,47.0190418 4.28836883,47.0190418 C5.17018837,47.0190418 5.73150842,47.3832924 5.73150842,48.708231 L5.73150842,53.2457002 Z M7.94289537,53.2800983 L7.94289537,49.0061425 C7.94289537,46.0595823 6.43613158,45 4.28836883,45 C2.14001147,45 0.632653061,46.0595823 0.632653061,49.0061425 L0.632653061,53.2800983 C0.632653061,56.227887 2.14001147,57.2874693 4.28836883,57.2874693 C5.05780543,57.2874693 5.73150842,57.1554054 6.30769394,56.8237101 C6.85295929,57.485258 7.55936631,58 8.63265306,58 L8.63265306,56.0128993 C8.15160653,55.995086 7.78353756,55.8458231 7.4796874,55.6148649 C7.78353756,55.0178133 7.94289537,54.2567568 7.94289537,53.2800983 L7.94289537,53.2800983 Z" id="Fill-2" fill="#152339"></path>
                <path d="M18.2894224,53.2776652 C18.2894224,54.4104175 17.7614236,54.9995946 16.6247772,54.9995946 C15.4856105,54.9995946 14.9765138,54.4104175 14.9765138,53.2776652 L14.9765138,45 L12.6326531,45 L12.6326531,53.2952979 C12.6326531,55.9012971 14.2109786,57 16.6247772,57 C19.0360554,57 20.6326531,55.9012971 20.6326531,53.2952979 L20.6326531,45 L18.2894224,45 L18.2894224,53.2776652" id="Fill-3" fill="#152339"></path>
                <polygon id="Fill-4" fill="#152339" points="25.6326531 57 27.6326531 57 27.6326531 45 25.6326531 45"></polygon>
                <path d="M37.1312297,45 C35.0753533,45 33.6326531,46.034793 33.6326531,48.9124175 L33.6326531,53.0863827 C33.6326531,55.965207 35.0753533,57 37.1312297,57 C39.1888141,57 40.6326531,55.965207 40.6326531,53.0863827 L40.6326531,52.6010798 L38.5130109,52.6010798 L38.5130109,53.3767247 C38.5130109,54.6712657 37.9755567,55.0263947 37.1312297,55.0263947 C36.2886108,55.0263947 35.7500178,54.6712657 35.7500178,53.3767247 L35.7500178,48.6214757 C35.7500178,47.3275345 36.2886108,46.9718056 37.1312297,46.9718056 C37.9755567,46.9718056 38.5130109,47.3275345 38.5130109,48.6214757 L38.5130109,48.9454109 L40.6326531,48.9454109 L40.6326531,48.9124175 C40.6326531,46.034793 39.1888141,45 37.1312297,45" id="Fill-5" fill="#152339"></path>
                <polyline id="Fill-6" fill="#152339" points="53.2900031 45 50.8304171 45 47.9139644 49.9535063 47.8819354 49.9535063 47.8819354 45 45.6326531 45 45.6326531 57 47.8819354 57 47.8819354 53.3269458 48.760618 51.9638839 51.107196 57 53.6326531 57 50.2605425 49.836373 53.2900031 45"></polyline>
                <polygon id="Fill-7" fill="#152339" points="57.6326531 53 61.6326531 53 61.6326531 51 57.6326531 51"></polygon>
                <polyline id="Fill-8" fill="#152339" points="71.6489321 52.8781403 71.616374 52.8781403 69.6576531 45 66.6326531 45 66.6326531 57 68.4809089 57 68.4809089 47.5596712 68.513467 47.5596712 70.8169554 57 72.4483507 57 74.7518391 47.5596712 74.7838159 47.5596712 74.7838159 57 76.6326531 57 76.6326531 45 73.6076531 45 71.6489321 52.8781403"></polyline>
                <path d="M87.5151161,53.3767247 C87.5151161,54.6712657 86.9781875,55.0263947 86.1337918,55.0263947 C85.2893962,55.0263947 84.7518982,54.6712657 84.7518982,53.3767247 L84.7518982,48.6214757 C84.7518982,47.3275345 85.2893962,46.9718056 86.1337918,46.9718056 C86.9781875,46.9718056 87.5151161,47.3275345 87.5151161,48.6214757 L87.5151161,53.3767247 Z M86.1337918,45 C84.0760401,45 82.6326531,46.034793 82.6326531,48.9124175 L82.6326531,53.0863827 C82.6326531,55.965207 84.0760401,57 86.1337918,57 C88.1898354,57 89.6326531,55.965207 89.6326531,53.0863827 L89.6326531,48.9124175 C89.6326531,46.034793 88.1898354,45 86.1337918,45 L86.1337918,45 Z" id="Fill-9" fill="#152339"></path>
                <polyline id="Fill-10" fill="#152339" points="98.1666117 53.5766247 98.1317009 53.5766247 95.9596155 45 93.6326531 45 96.7974743 57 99.4843351 57 102.632653 45 100.322194 45 98.1666117 53.5766247"></polyline>
                <polyline id="Fill-11" fill="#152339" points="109.766866 51.814693 112.597379 51.814693 112.597379 49.7876702 109.766866 49.7876702 109.766866 47.0288723 113.478366 47.0288723 113.478366 45 107.632653 45 107.632653 57 113.632653 57 113.632653 54.9729771 109.766866 54.9729771 109.766866 51.814693"></polyline>
                <polyline id="Fill-12" fill="#152339" points="132.288792 49.7876702 128.976514 49.7876702 128.976514 45 126.632653 45 126.632653 57 128.976514 57 128.976514 51.814693 132.288792 51.814693 132.288792 57 134.632653 57 134.632653 45 132.288792 45 132.288792 49.7876702"></polyline>
                <path d="M144.514719,53.3767247 C144.514719,54.6712657 143.977834,55.0263947 143.132938,55.0263947 C142.28918,55.0263947 141.752295,54.6712657 141.752295,53.3767247 L141.752295,48.6214757 C141.752295,47.3275345 142.28918,46.9718056 143.132938,46.9718056 C143.977834,46.9718056 144.514719,47.3275345 144.514719,48.6214757 L144.514719,53.3767247 Z M143.132938,45 C141.075353,45 139.632653,46.034793 139.632653,48.9124175 L139.632653,53.0863827 C139.632653,55.965207 141.075353,57 143.132938,57 C145.189953,57 146.632653,55.965207 146.632653,53.0863827 L146.632653,48.9124175 C146.632653,46.034793 145.189953,45 143.132938,45 L143.132938,45 Z" id="Fill-13" fill="#152339"></path>
                <polyline id="Fill-14" fill="#152339" points="156.648351 52.8781403 156.616955 52.8781403 154.657653 45 151.632653 45 151.632653 57 153.48149 57 153.48149 47.5596712 153.513467 47.5596712 155.816955 57 157.447769 57 159.751839 47.5596712 159.783816 47.5596712 159.783816 57 161.632653 57 161.632653 45 158.607653 45 156.648351 52.8781403"></polyline>
                <polyline id="Fill-15" fill="#152339" points="169.767644 51.814693 172.597854 51.814693 172.597854 49.7876702 169.767644 49.7876702 169.767644 47.0288723 173.478925 47.0288723 173.478925 45 167.632653 45 167.632653 57 173.632653 57 173.632653 54.9729771 169.767644 54.9729771 169.767644 51.814693"></polyline>
                <path d="M181.345597,48.1205759 C181.345597,47.3275345 181.809854,46.8422316 182.649848,46.8422316 C183.47392,46.8422316 183.989125,47.3119376 184.38524,48.4115177 L186.514201,47.8296341 C186.100891,46.179964 184.814471,45 182.702069,45 C180.246409,45 178.976547,46.2609478 178.976547,48.2657469 C178.976547,51.5326935 184.26424,51.5656869 184.26424,53.7654469 C184.26424,54.6382723 183.628036,55.1559688 182.8046,55.1559688 C182.101527,55.1559688 181.242429,54.655069 180.96795,53.2471506 L178.632653,53.7162567 C179.268221,56.0125975 180.761613,57 182.685511,57 C185.174923,57 186.632653,55.6730654 186.632653,53.6676665 C186.632653,50.0125975 181.345597,49.8830234 181.345597,48.1205759" id="Fill-16" fill="#152339"></path>
                <path d="M27.3236646,5 L26.2206379,5 C25.6468021,5 25.1932099,5.28564644 24.9479605,5.7976542 L15.6326531,24.3898239 L6.32806036,5.81981126 C6.07983471,5.29103599 5.62505198,5 5.04645406,5 L3.9410463,5 C3.18327351,5 2.63265306,5.55392653 2.63265306,6.31744688 L2.63265306,32.6825531 C2.63265306,33.4454746 3.18327351,34 3.9410463,34 L4.58393288,34 C5.34230094,34 5.89351665,33.4454746 5.89351665,32.6825531 L5.89351665,12.0902596 L13.9796012,28.2307803 C14.2296126,28.7589568 14.6849906,29.0493939 15.2612075,29.0493939 L16.0040986,29.0493939 C16.5725771,29.0493939 17.0380746,28.7553637 17.2755854,28.2517397 L25.3723847,12.0902596 L25.3723847,32.6825531 C25.3723847,33.4454746 25.9230052,34 26.6819685,34 L27.3236646,34 C28.0820326,34 28.6326531,33.4454746 28.6326531,32.6825531 L28.6326531,6.31744688 C28.6326531,5.55392653 28.0820326,5 27.3236646,5" id="Fill-17" fill="#152339"></path>
                <path d="M57.5025158,5.63776406 C57.2936433,5.23833812 56.8705119,5 56.3707739,5 L55.651989,5 C55.1426752,5 54.7033846,5.23594276 54.4143146,5.66590951 L46.6339626,17.3600471 L38.8500197,5.66051996 C38.5627451,5.23474508 38.124053,5 37.6135422,5 L36.8947574,5 C36.3974133,5 35.9754789,5.23714044 35.7654094,5.63417102 C35.5559383,6.03060276 35.5966356,6.50907552 35.8713418,6.91029797 L44.9875204,20.6069548 L44.9875204,32.6825531 C44.9875204,33.4454746 45.5411224,34 46.3041954,34 L46.9493661,34 C47.7118406,34 48.2654426,33.4454746 48.2654426,32.6825531 L48.2654426,20.6279142 L57.39,6.91748405 C57.6676987,6.51147087 57.7095929,6.03359696 57.5025158,5.63776406" id="Fill-18" fill="#152339"></path>
                <path d="M81.1576491,18.5839624 L80.0489647,18.1701735 C76.5103627,16.8721892 73.7153754,15.8470527 73.7153754,12.7336974 C73.7153754,10.076293 76.1018033,8.22116929 79.5197364,8.22116929 C82.7679979,8.22116929 85.2475307,10.1305011 85.4190399,12.755983 C85.4576294,13.4877931 86.0242223,14.0190331 86.7647744,14.0190331 L87.4397856,14.0190331 C87.8244562,14.0190331 88.1735999,13.8792965 88.418613,13.6239158 C88.5925723,13.443222 88.7959332,13.1239961 88.7720445,12.6337135 C88.5441823,8.28140058 84.5670067,5 79.521574,5 C74.2139771,5 70.3611458,8.25309187 70.3611458,12.7336974 C70.3611458,18.0780196 74.8595867,19.7060713 78.8287993,21.1419852 L79.8247777,21.503373 C83.4295333,22.8266544 86.2771983,23.8710649 86.2771983,27.0585047 C86.2771983,29.8381786 83.7376373,31.7788307 80.1022551,31.7788307 C75.8322888,31.7788307 73.1720588,29.9176839 72.9864614,26.803124 C72.9472593,26.0622792 72.382504,25.5262207 71.6419519,25.5262207 L70.9675532,25.5262207 C70.4750769,25.5262207 70.1639102,25.7400418 69.9862757,25.9207356 C69.8123164,26.1020318 69.6101805,26.4194507 69.6346819,26.9061195 C69.8619315,31.8234019 73.9701891,35 80.1022551,35 C85.6242383,35 89.6326531,31.6601751 89.6326531,27.0585047 C89.6326531,21.7858577 85.1299244,20.0849261 81.1576491,18.5839624" id="Fill-19" fill="#D37B31"></path>
                <path d="M111.327423,5 L94.9372901,5 C94.1814431,5 93.6326531,5.55392653 93.6326531,6.31744688 L93.6326531,6.85999546 C93.6326531,7.62351581 94.1814431,8.17744234 94.9372901,8.17744234 L101.507938,8.17744234 L101.507938,32.6825531 C101.507938,33.4460735 102.056728,34 102.813168,34 L103.453918,34 C104.208578,34 104.757368,33.4460735 104.757368,32.6825531 L104.757368,8.17744234 L111.327423,8.17744234 C112.084456,8.17744234 112.632653,7.62351581 112.632653,6.85999546 L112.632653,6.31744688 C112.632653,5.55392653 112.084456,5 111.327423,5" id="Fill-20" fill="#D37B31"></path>
                <path d="M137.36908,5 L136.652122,5 C136.141633,5 135.701164,5.2365416 135.412705,5.66590951 L127.632687,17.3600471 L119.849078,5.66051996 C119.562414,5.23474508 119.123741,5 118.615047,5 L117.895695,5 C117.394183,5 116.969872,5.2395358 116.765797,5.6353687 C116.555736,6.03180044 116.596431,6.50967436 116.872323,6.91029797 L125.986914,20.606356 L125.986914,32.6825531 C125.986914,33.4460735 126.540492,34 127.302934,34 L127.949274,34 C128.712912,34 129.265892,33.4460735 129.265892,32.6825531 L129.265892,20.6273153 L138.390058,6.91987941 C138.668343,6.50967436 138.709637,6.03000392 138.501372,5.6353687 C138.291312,5.23833812 137.8676,5 137.36908,5" id="Fill-21" fill="#D37B31"></path>
                <path d="M160.272158,30.8225577 L148.019667,30.8225577 L148.019667,6.31744688 C148.019667,5.55392653 147.448259,5 146.659172,5 L145.991293,5 C145.204679,5 144.632653,5.55392653 144.632653,6.31744688 L144.632653,32.6825531 C144.632653,33.4460735 145.204679,34 145.991293,34 L160.272158,34 C161.060627,34 161.632653,33.4460735 161.632653,32.6825531 L161.632653,32.1400045 C161.632653,31.3764842 161.060627,30.8225577 160.272158,30.8225577" id="Fill-22" fill="#D37B31"></path>
                <path d="M184.283476,30.8225577 L171.993018,30.8225577 L171.993018,20.9710492 L183.092592,20.9710492 C183.873017,20.9710492 184.439929,20.4171227 184.439929,19.6553988 L184.439929,19.1128503 C184.439929,18.3487311 183.873017,17.7954034 183.092592,17.7954034 L171.993018,17.7954034 L171.993018,8.17744234 L184.084689,8.17744234 C184.86634,8.17744234 185.433866,7.62351581 185.433866,6.85999546 L185.433866,6.31744688 C185.433866,5.55392653 184.86634,5 184.084689,5 L169.982444,5 C169.200179,5 168.632653,5.55392653 168.632653,6.31744688 L168.632653,32.6825531 C168.632653,33.4460735 169.200179,34 169.982444,34 L184.283476,34 C185.065127,34 185.632653,33.4460735 185.632653,32.6825531 L185.632653,32.1400045 C185.632653,31.3764842 185.065127,30.8225577 184.283476,30.8225577" id="Fill-23" fill="#D37B31"></path>
            </g>
        </g>
    </g>
</svg>