
<svg width="34px" height="40px" viewBox="0 0 34 40" version="1.1" xmlns="http://www.w3.org/2000/svg" xmlns:xlink="http://www.w3.org/1999/xlink">
    <g id="Desktop" stroke="none" stroke-width="1" fill="none" fill-rule="evenodd">
        <g id="My-Time-Tour-Confirmation" transform="translate(-510.000000, -288.000000)" fill="#6295BA">
            <g id="Request-More-Info" transform="translate(0.000000, 110.000000)">
                <g id="pin-code" transform="translate(510.000000, 173.000000)">
                    <g id="pin-code-icon" transform="translate(0.000000, 5.000000)">
                        <path d="M10.9285714,8.8 C11.5988571,8.8 12.1428571,9.3384 12.1428571,10 C12.1428571,10.6616 11.5988571,11.2 10.9285714,11.2 C10.2599048,11.2 9.71428571,10.6616 9.71428571,10 C9.71428571,9.3384 10.2599048,8.8 10.9285714,8.8 M10.9285714,12.8 C12.4909524,12.8 13.7619048,11.544 13.7619048,10 C13.7619048,8.456 12.4909524,7.2 10.9285714,7.2 C9.36619048,7.2 8.0952381,8.456 8.0952381,10 C8.0952381,11.544 9.36619048,12.8 10.9285714,12.8" id="Fill-1"></path>
                        <path d="M2.83333333,11.2 C2.16466667,11.2 1.61904762,10.6616 1.61904762,10 C1.61904762,9.3384 2.16466667,8.8 2.83333333,8.8 C3.50361905,8.8 4.04761905,9.3384 4.04761905,10 C4.04761905,10.6616 3.50361905,11.2 2.83333333,11.2 M2.83333333,7.2 C1.27095238,7.2 0,8.456 0,10 C0,11.544 1.27095238,12.8 2.83333333,12.8 C4.39571429,12.8 5.66666667,11.544 5.66666667,10 C5.66666667,8.456 4.39571429,7.2 2.83333333,7.2" id="Fill-3"></path>
                        <path d="M10.9285714,1.6 C11.5988571,1.6 12.1428571,2.1384 12.1428571,2.8 C12.1428571,3.4616 11.5988571,4 10.9285714,4 C10.2599048,4 9.71428571,3.4616 9.71428571,2.8 C9.71428571,2.1384 10.2599048,1.6 10.9285714,1.6 M10.9285714,5.6 C12.4909524,5.6 13.7619048,4.344 13.7619048,2.8 C13.7619048,1.256 12.4909524,0 10.9285714,0 C9.36619048,0 8.0952381,1.256 8.0952381,2.8 C8.0952381,4.344 9.36619048,5.6 10.9285714,5.6" id="Fill-5"></path>
                        <path d="M19.0238095,1.6 C19.6940952,1.6 20.2380952,2.1384 20.2380952,2.8 C20.2380952,3.4616 19.6940952,4 19.0238095,4 C18.3551429,4 17.8095238,3.4616 17.8095238,2.8 C17.8095238,2.1384 18.3551429,1.6 19.0238095,1.6 M19.0238095,5.6 C20.5861905,5.6 21.8571429,4.344 21.8571429,2.8 C21.8571429,1.256 20.5861905,0 19.0238095,0 C17.4614286,0 16.1904762,1.256 16.1904762,2.8 C16.1904762,4.344 17.4614286,5.6 19.0238095,5.6" id="Fill-7"></path>
                        <path d="M2.83333333,4 C2.16466667,4 1.61904762,3.4616 1.61904762,2.8 C1.61904762,2.1384 2.16466667,1.6 2.83333333,1.6 C3.50361905,1.6 4.04761905,2.1384 4.04761905,2.8 C4.04761905,3.4616 3.50361905,4 2.83333333,4 M2.83333333,0 C1.27095238,0 0,1.256 0,2.8 C0,4.344 1.27095238,5.6 2.83333333,5.6 C4.39571429,5.6 5.66666667,4.344 5.66666667,2.8 C5.66666667,1.256 4.39571429,0 2.83333333,0" id="Fill-9"></path>
                        <path d="M10.9285714,16 C11.5988571,16 12.1428571,16.5384 12.1428571,17.2 C12.1428571,17.8616 11.5988571,18.4 10.9285714,18.4 C10.2599048,18.4 9.71428571,17.8616 9.71428571,17.2 C9.71428571,16.5384 10.2599048,16 10.9285714,16 M10.9285714,20 C12.4909524,20 13.7619048,18.744 13.7619048,17.2 C13.7619048,15.656 12.4909524,14.4 10.9285714,14.4 C9.36619048,14.4 8.0952381,15.656 8.0952381,17.2 C8.0952381,18.744 9.36619048,20 10.9285714,20" id="Fill-11"></path>
                        <path d="M2.83333333,18.4 C2.16466667,18.4 1.61904762,17.8616 1.61904762,17.2 C1.61904762,16.5384 2.16466667,16 2.83333333,16 C3.50361905,16 4.04761905,16.5384 4.04761905,17.2 C4.04761905,17.8616 3.50361905,18.4 2.83333333,18.4 M2.83333333,14.4 C1.27095238,14.4 0,15.656 0,17.2 C0,18.744 1.27095238,20 2.83333333,20 C4.39571429,20 5.66666667,18.744 5.66666667,17.2 C5.66666667,15.656 4.39571429,14.4 2.83333333,14.4" id="Fill-13"></path>
                        <path d="M2.83333333,25.6 C2.16466667,25.6 1.61904762,25.0616 1.61904762,24.4 C1.61904762,23.7384 2.16466667,23.2 2.83333333,23.2 C3.50361905,23.2 4.04761905,23.7384 4.04761905,24.4 C4.04761905,25.0616 3.50361905,25.6 2.83333333,25.6 M2.83333333,21.6 C1.27095238,21.6 0,22.856 0,24.4 C0,25.944 1.27095238,27.2 2.83333333,27.2 C4.39571429,27.2 5.66666667,25.944 5.66666667,24.4 C5.66666667,22.856 4.39571429,21.6 2.83333333,21.6" id="Fill-15"></path>
                        <path d="M25.0952381,38.4 C20.7189524,38.4 17.6937619,36.808 16.1054762,33.6688 C14.9575714,31.4 13.1312857,28.3872 11.3535714,26.5224 C11.4345238,25.9208 11.7599524,25.4568 12.258619,25.2528 C13.0074286,24.9504 13.9829048,25.2872 14.8717619,26.1656 C15.6084286,26.8928 16.6996667,27.812 17.6937619,27.4072 C18.1163333,27.2344 18.6190476,26.7808 18.6190476,25.5592 L18.6190476,12.8 C18.6190476,11.6944 19.2294286,11.2 19.8333333,11.2 C20.4388571,11.2 21.047619,11.6944 21.047619,12.8 L21.047619,24.4264 C21.047619,24.8688 21.4094762,25.2264 21.8571429,25.2264 C22.3048095,25.2264 22.6666667,24.8688 22.6666667,24.4264 L22.6666667,21.6 L23.4761905,21.6 C24.9673333,21.6 25.0871429,22.2856 25.0952381,22.4 L25.0952381,24.4264 C25.0952381,24.8688 25.4570952,25.2264 25.9047619,25.2264 C26.3524286,25.2264 26.7142857,24.8688 26.7142857,24.4264 L26.7142857,22.4 L27.5238095,22.4 C29.0149524,22.4 29.1347619,23.0856 29.1428571,23.2 L29.1428571,24.4264 C29.1428571,24.8688 29.5047143,25.2264 29.952381,25.2264 C30.4000476,25.2264 30.7619048,24.8688 30.7619048,24.4264 L30.7619048,23.2 C32.147,23.2 32.3809524,24.1984 32.3809524,27.2 L32.3809524,28.852 C32.3809524,35.7232 30.3385238,38.4 25.0952381,38.4 M30.7619048,21.6 C30.5465714,21.6 30.3539048,21.6856 30.2098095,21.8208 C29.7354286,21.2656 28.9137619,20.8 27.5238095,20.8 L25.9476667,20.8 C25.449,20.3488 24.6759048,20 23.4761905,20 L22.6666667,20 L22.6666667,12.8 C22.6666667,10.6992 21.2419048,9.6 19.8333333,9.6 C18.426381,9.6 17,10.6992 17,12.8 L17,25.6 C17,25.6904 16.9951429,25.764 16.9886667,25.8224 C16.8073333,25.7224 16.4924286,25.5056 16.0164286,25.0344 C14.6491429,23.6824 13.0106667,23.2128 11.6385238,23.7752 C10.4509524,24.2608 9.71428571,25.4304 9.71428571,26.8264 C9.71428571,27.0392 9.79928571,27.2424 9.95147619,27.392 C11.6717143,29.0912 13.5101429,32.1176 14.6564286,34.384 C16.5434286,38.1112 20.0543333,40 25.0952381,40 C31.3374762,40 34,36.6664 34,28.852 L34,27.2 C34,24.8368 34,21.6 30.7619048,21.6" id="Fill-17"></path>
                    </g>
                </g>
            </g>
        </g>
    </g>
</svg>
