<?xml version="1.0" encoding="UTF-8"?>
<svg width="24px" height="38px" viewBox="0 0 24 38" version="1.1" xmlns="http://www.w3.org/2000/svg" xmlns:xlink="http://www.w3.org/1999/xlink">
    <!-- Generator: Sketch 54.1 (76490) - https://sketchapp.com -->
    <title>Pin</title>
    <desc>Created with Sketch.</desc>
    <g id="Desktop" stroke="none" stroke-width="1" fill="none" fill-rule="evenodd">
        <g id="FMH---Community-Microsite" transform="translate(-26.000000, -5146.000000)" stroke="#FFFFFF" stroke-width="2">
            <g id="Sales-Center" transform="translate(0.000000, 5012.000000)">
                <g id="content" transform="translate(20.000000, 80.000000)">
                    <g id="Address" transform="translate(7.000000, 41.000000)">
                        <g id="Pin" transform="translate(0.000000, 14.000000)">
                            <path d="M10.98159,16.2422057 C8.10962343,16.2422057 5.78995816,13.9271016 5.78995816,11.074237 C5.78995816,8.2213724 8.11882845,5.89715365 10.98159,5.89715365 C13.8535565,5.89715365 16.1732218,8.21225781 16.1732218,11.074237 C16.1732218,13.9271016 13.8535565,16.2422057 10.98159,16.2422057 M10.98159,1.82291667e-05 C4.91548117,1.82291667e-05 0,4.89454948 0,10.9375182 C0,21.3827396 10.98159,35.0000182 10.98159,35.0000182 C10.98159,35.0000182 21.9631799,21.3827396 21.9631799,10.9375182 C21.9631799,4.89454948 17.0476987,1.82291667e-05 10.98159,1.82291667e-05" id="Fill-1"></path>
                        </g>
                    </g>
                </g>
            </g>
        </g>
    </g>
</svg>