<?xml version="1.0" encoding="UTF-8"?>
<svg width="92px" height="89px" viewBox="0 0 92 89" version="1.1" xmlns="http://www.w3.org/2000/svg" xmlns:xlink="http://www.w3.org/1999/xlink">
    <!-- Generator: Sketch 54.1 (76490) - https://sketchapp.com -->
    <title>Recreation</title>
    <desc>Created with Sketch.</desc>
    <g id="Desktop" stroke="none" stroke-width="1" fill="none" fill-rule="evenodd">
        <g id="FMH---Community-Microsite" transform="translate(-367.000000, -1581.000000)" fill="#FFFFFF">
            <g id="Area-Amenities" transform="translate(0.000000, 1455.000000)">
                <g id="Recreation" transform="translate(361.000000, 126.000000)">
                    <text font-family="HelveticaNeue-Bold, Helvetica Neue" font-size="18" font-weight="bold" line-spacing="22">
                        <tspan x="5.011" y="88">Recreation</tspan>
                    </text>
                    <path d="M56.1331854,32.7904871 L55.1799616,33.0297879 L55.1799616,43.4317557 L54.7173279,43.4192081 C53.8425624,43.3959054 52.9578769,43.3833578 52.0623696,43.3833578 L50.9089418,43.3950091 L50.9089418,33.0208253 L49.9602271,32.779732 C47.5081783,32.1532478 45.9525387,30.700414 45.2058317,28.3378784 C42.6581901,20.2885873 50.2695514,4.94375791 51.8955329,3.06430535 C52.2066608,2.67622573 52.601658,2.53282448 52.7657893,2.51310681 C53.0182989,2.50324798 53.4268234,2.57584486 53.9787372,3.16827125 C55.3350746,4.5744997 63.3089675,20.0376352 60.9570208,28.1738633 C60.2409757,30.6457422 58.6636924,32.1559366 56.1331854,32.7904871 M82.5393784,50.1805768 C83.1111323,50.3580358 83.7694609,50.0210429 83.949825,49.4411641 C84.1328944,48.8505302 83.799221,48.2213573 83.2058234,48.0394169 C80.8854404,47.326892 77.1356726,46.287233 72.4435029,45.3802201 L72.0791676,45.3094157 L72.0791676,34.6654584 L72.3316772,34.5426711 C74.0144734,33.7243877 75.1255157,32.3504245 75.6305349,30.4566318 C77.3052148,24.1962713 71.5777556,13.9878952 70.2899566,12.6524711 C69.6153952,11.9282948 68.7839171,11.5330451 67.9452244,11.5330451 C67.3473177,11.5330451 66.4355777,11.8055075 65.7700345,12.5655341 C66.1145297,13.5989193 66.4247558,14.6233419 66.6953018,15.6253581 C67.070459,15.0141103 67.3996233,14.5328199 67.6259801,14.2702164 L67.9109553,13.9403935 L68.2644687,14.1967232 C68.313167,14.2361586 68.3762944,14.2908303 68.4511455,14.3714935 C69.5017659,15.5052596 74.5690927,24.8514357 73.1766826,29.8633092 C72.7861945,31.2686414 71.8960981,32.1568328 70.4585969,32.5798665 L69.5540714,32.8460551 L69.5540714,44.8594943 L69.0310158,44.7752461 C67.9785918,44.6049571 66.8891932,44.4472158 65.7691326,44.3002295 L65.7979909,43.8556856 L65.7411762,43.8556856 L65.7411762,33.6553758 C65.0485784,34.7326777 64.2026712,35.6907773 63.2160801,36.5144382 L63.2160801,43.9937093 L62.7191772,43.9435189 C61.2248614,43.7893626 59.6800436,43.6638865 58.1289131,43.5715719 L57.7050577,43.5464767 L57.7050577,34.9441945 L57.9936401,34.8339548 C60.6900821,33.8023621 62.5523405,31.7391767 63.3829168,28.8666705 C66.1127261,19.4263874 57.6175812,3.31525752 55.8157447,1.44656005 C54.9445865,0.511763192 53.8813407,0 52.8198985,0 C52.0371187,0 50.8160543,0.382702072 49.9512089,1.46269269 C48.0474667,3.6639018 39.8733698,19.8503173 42.7961686,29.090735 C43.6619158,31.82701 45.4944142,33.8068434 48.0970668,34.8160297 L48.3838456,34.9280619 L48.3838456,43.4568509 L47.9518738,43.4738798 C45.765862,43.5635056 43.5681265,43.721247 41.4199912,43.9417264 L40.9221865,43.9937093 L40.9221865,38.5713498 L41.3352201,38.537292 C42.3696077,38.450355 43.4021916,38.1303909 44.4113283,37.5854662 C43.5879666,37.0826656 42.8331432,36.496513 42.15768,35.835971 C41.3920347,36.0752719 40.6426223,36.1164997 39.9247735,35.9614471 L38.3970903,35.6334168 L38.3970903,43.8556856 L38.3276502,43.8556856 L38.3565084,44.3002295 C37.2175097,44.4490083 36.1100747,44.6103347 35.0396143,44.7833124 L34.5165586,44.8684569 L34.5165586,35.4855342 L33.0465919,35.7311089 C30.3122735,36.1908891 28.6466119,34.9594309 28.104618,32.0725846 L27.8926903,30.9441961 L26.7428698,31.0535395 C25.9303299,31.1610905 23.6027323,30.8850431 22.8307744,28.3522186 C21.7323575,24.7465735 23.8813947,23.4371409 24.3241884,23.211284 L25.7680023,22.5372981 L24.7985457,21.2986699 C23.714558,19.9112628 23.6054378,18.0766231 24.5072578,16.389866 C25.3306195,14.8527839 27.1568052,13.2807478 29.7675742,13.4617918 L30.8677947,13.535285 L31.0887406,12.4597756 C31.3890467,10.9997717 32.1123064,10.0013406 33.3036107,9.40891416 C35.3633677,8.382699 38.0354605,8.88908465 39.2348812,9.44924576 C39.8436097,9.73425573 40.4297927,10.0264358 41.0141721,10.3347484 C41.3081655,9.54156031 41.6165879,8.75374972 41.936734,7.98386429 C41.4091693,7.70960941 40.8698809,7.44162834 40.3098507,7.17902481 C38.2167263,6.20120757 34.7492282,5.88034729 32.1709247,7.16468468 C30.6666888,7.91485244 29.5935229,9.10149774 28.982089,10.6923553 L28.8819869,10.9504775 L28.60603,10.9782615 C25.9186062,11.2453463 23.5531322,12.8290338 22.2779587,15.2121833 C21.2065964,17.2153194 21.0893598,19.4819553 21.9578125,21.4331085 L22.0840673,21.716326 L21.8613178,21.9332204 C20.8188138,22.9531617 19.2433342,25.238619 20.4147984,29.0790836 C21.4717315,32.5484975 24.3828067,33.3300343 25.5849328,33.5048045 L25.8608897,33.5442399 L25.9474645,33.8077397 C26.8583027,36.5547698 28.8540305,38.1554862 31.567607,38.3168126 L31.9914625,38.3410115 L31.9914625,45.3192746 L31.6271272,45.3900789 C26.9511902,46.2979881 23.2239679,47.3313733 20.9198177,48.0394169 C20.6321371,48.1281465 20.3958602,48.3226344 20.2560781,48.5870304 C20.1153942,48.8514265 20.0865359,49.1543616 20.1758161,49.4411641 C20.2659981,49.7279666 20.4616931,49.9627861 20.7286318,50.1026023 C20.9946687,50.240626 21.2976803,50.26841 21.584459,50.1805768 C27.1252415,48.4785833 38.4521014,45.6240022 52.0623696,45.6240022 C53.348365,45.6240022 54.7038006,45.654475 56.2062328,45.717213 L56.3369967,45.7234868 L56.4443133,45.7978762 C56.5588444,45.8767469 56.7374048,46.033592 56.8573469,46.179682 L57.1107583,46.4915798 L56.8284886,46.7765897 C56.2882984,47.3206182 54.0698211,48.67576 45.134588,49.4931471 C33.4641346,50.5605901 28.1451999,52.9724198 25.5064745,58.3938831 C25.3757106,58.6636566 25.3576741,58.967488 25.4559725,59.2498092 C25.5551727,59.5321304 25.7580823,59.7588837 26.0295301,59.8897373 C26.5706221,60.1505483 27.2740418,59.9049737 27.5355696,59.3690115 C29.4284899,55.4810453 33.0673338,52.8451511 45.3411048,51.7239327 C56.8789905,50.6699335 58.8115909,48.6650049 59.2056863,47.0365045 C59.2525809,46.8429128 59.2697155,46.6376698 59.2588937,46.3876139 L59.23725,45.883917 L59.7440729,45.9233523 C60.750504,46.0004305 61.7343897,46.0918488 62.7011408,46.1949184 L62.8535484,46.2101548 L62.9644723,46.315017 C63.446946,46.7703159 64.2477622,47.6961502 64.1873403,48.7761408 C64.1206056,49.9475498 63.031207,51.1852817 61.036381,52.3557944 C56.4839934,55.0248501 56.3270767,57.9072151 56.4704661,59.023056 C56.5480226,59.6298225 57.1116601,60.0654038 57.7357196,59.9919107 C58.3471536,59.9139363 58.7845363,59.3519826 58.7069798,58.7398386 C58.5221067,57.3120999 59.7891639,55.6871846 62.1816925,54.2845411 C64.9087963,52.6856173 66.3417884,50.8644215 66.4400868,48.8711442 C66.4662395,48.3360783 66.3949958,47.8117675 66.2218463,47.267739 L66.0045077,46.5874793 L66.7151419,46.6887565 C73.6140653,47.6755363 79.1277931,49.1319552 82.5393784,50.1805768" id="Fill-1"></path>
                </g>
            </g>
        </g>
    </g>
</svg>