<?xml version="1.0" encoding="UTF-8"?>
<svg width="35px" height="32px" viewBox="0 0 35 32" version="1.1" xmlns="http://www.w3.org/2000/svg" xmlns:xlink="http://www.w3.org/1999/xlink">
    <!-- Generator: Sketch 54.1 (76490) - https://sketchapp.com -->
    <title>List Icon</title>
    <desc>Created with Sketch.</desc>
    <defs>
        <filter x="-3.2%" y="-24.0%" width="106.4%" height="148.0%" filterUnits="objectBoundingBox" id="filter-1">
            <feOffset dx="0" dy="-2" in="SourceAlpha" result="shadowOffsetOuter1"></feOffset>
            <feGaussianBlur stdDeviation="2" in="shadowOffsetOuter1" result="shadowBlurOuter1"></feGaussianBlur>
            <feColorMatrix values="0 0 0 0 0   0 0 0 0 0   0 0 0 0 0  0 0 0 0.2 0" type="matrix" in="shadowBlurOuter1" result="shadowMatrixOuter1"></feColorMatrix>
            <feMerge>
                <feMergeNode in="shadowMatrixOuter1"></feMergeNode>
                <feMergeNode in="SourceGraphic"></feMergeNode>
            </feMerge>
        </filter>
    </defs>
    <g id="Symbols" stroke="none" stroke-width="1" fill="none" fill-rule="evenodd">
        <g id="ToggleButtons/ListSelected" transform="translate(-33.000000, -7.000000)" fill="#FFFFFF" stroke="#FFFFFF">
            <g id="Map-and-Filter-Buttons" filter="url(#filter-1)">
                <g id="List">
                    <g id="Icons/List" transform="translate(38.000000, 14.000000)">
                        <g id="Group-15">
                            <path d="M9.41285714,3.90515714 L24.3414286,3.92087143 C24.7751429,3.92087143 25.1271429,3.56887143 25.1271429,3.13515714 C25.1271429,2.70144286 24.7751429,2.34944286 24.3414286,2.34944286 L9.41285714,2.33372857 C8.97914286,2.33372857 8.62714286,2.68572857 8.62714286,3.11944286 C8.62714286,3.55315714 8.97914286,3.90515714 9.41285714,3.90515714" id="Fill-1" stroke-width="0.5"></path>
                            <path d="M24.3571429,10.1985714 L9.42857143,10.1828571 C8.99485714,10.1828571 8.64285714,10.5348571 8.64285714,10.9685714 C8.64285714,11.4022857 8.99485714,11.7542857 9.42857143,11.7542857 L24.3571429,11.77 C24.7908571,11.77 25.1428571,11.418 25.1428571,10.9842857 C25.1428571,10.5505714 24.7908571,10.1985714 24.3571429,10.1985714" id="Fill-3" stroke-width="0.5"></path>
                            <path d="M24.3571429,18.0557143 L9.42857143,18.04 C8.99485714,18.04 8.64285714,18.392 8.64285714,18.8257143 C8.64285714,19.2594286 8.99485714,19.6114286 9.42857143,19.6114286 L24.3571429,19.6271429 C24.7908571,19.6271429 25.1428571,19.2751429 25.1428571,18.8414286 C25.1428571,18.4077143 24.7908571,18.0557143 24.3571429,18.0557143" id="Fill-5" stroke-width="0.5"></path>
                            <path d="M3.12714286,4.70627143 C2.244,4.70627143 1.53607143,4.01798571 1.53607143,3.13484286 C1.53607143,2.2517 2.244,1.56341429 3.12714286,1.56341429 C4.01028571,1.56341429 4.69857143,2.2517 4.69857143,3.13484286 C4.69857143,4.01798571 4.01028571,4.70627143 3.12714286,4.70627143 M3.135,-0.000157142857 C1.40328571,-0.000157142857 0,1.40312857 0,3.13484286 C0,4.86655714 1.40328571,6.26984286 3.135,6.26984286 C4.86671429,6.26984286 6.27,4.86655714 6.27,3.13484286 C6.27,1.40312857 4.86671429,-0.000157142857 3.135,-0.000157142857" id="Fill-7" stroke-width="0.5"></path>
                            <path d="M3.12714286,12.5634143 C2.244,12.5634143 1.53607143,11.8751286 1.53607143,10.9919857 C1.53607143,10.1088429 2.244,9.42055714 3.12714286,9.42055714 C4.01028571,9.42055714 4.69857143,10.1088429 4.69857143,10.9919857 C4.69857143,11.8751286 4.01028571,12.5634143 3.12714286,12.5634143 M3.135,7.85698571 C1.40328571,7.85698571 0,9.26027143 0,10.9919857 C0,12.7237 1.40328571,14.1269857 3.135,14.1269857 C4.86671429,14.1269857 6.27,12.7237 6.27,10.9919857 C6.27,9.26027143 4.86671429,7.85698571 3.135,7.85698571" id="Fill-10" stroke-width="0.5"></path>
                            <path d="M3.12714286,20.4051571 C2.244,20.4051571 1.53607143,19.7168714 1.53607143,18.8337286 C1.53607143,17.9505857 2.244,17.2623 3.12714286,17.2623 C4.01028571,17.2623 4.69857143,17.9505857 4.69857143,18.8337286 C4.69857143,19.7168714 4.01028571,20.4051571 3.12714286,20.4051571 M3.135,15.6987286 C1.40328571,15.6987286 0,17.1020143 0,18.8337286 C0,20.5654429 1.40328571,21.9687286 3.135,21.9687286 C4.86671429,21.9687286 6.27,20.5654429 6.27,18.8337286 C6.27,17.1020143 4.86671429,15.6987286 3.135,15.6987286" id="Fill-12" stroke-width="0.5"></path>
                        </g>
                    </g>
                </g>
            </g>
        </g>
    </g>
</svg>