<?xml version="1.0" encoding="UTF-8"?>
<svg width="40px" height="68px" viewBox="0 0 40 68" version="1.1" xmlns="http://www.w3.org/2000/svg" xmlns:xlink="http://www.w3.org/1999/xlink">
    <!-- Generator: Sketch 55 (78076) - https://sketchapp.com -->
    <title>Fill 1</title>
    <desc>Created with Sketch.</desc>
    <g id="Symbols" stroke="none" stroke-width="1" fill="none" fill-rule="evenodd">
        <polygon id="Fill-1" fill="#DEE3E8" points="8.0263044 0 7.4015748 0 6.77814312 0.384336428 5.89166739 1.0374862 5.01211387 1.93501173 3.88855239 2.83831342 2.75244441 4.25569284 1.50428312 5.92855603 0.12459981 7.85823592 0 8.12038447 0.505754088 8.76153761 16.5458164 68 39.7503677 64.0011239 39.7503677 63.6163431 39.8754002 63.3599707 40 62.8467816 40 62.3282607 39.8754002 61.8155159 39.2511032 60.1417641 39.1200138 58.4635691 38.8703816 57.5655992 38.6207493 57.0524101 38.2404603 56.6618532 37.8662283 56.6618532 36.9918664 56.9186699 36.242537 57.0524101 35.7376482 56.9186699 35.4875833 56.796482 35.3569265 56.2775168 34.9822618 54.2136524 35.1133512 53.4440909 35.862248 53.0593101 36.1118802 52.6687532 36.3615125 52.2839725 36.3615125 51.9054122 36.4921692 51.6428193 36.6115774 50.8674817 36.4921692 49.7131394 36.4921692 48.8093934 36.242537 47.9060918 36.1118802 47.3929026 35.7376482 46.7526381 35.4875833 46.3611926 34.7321969 46.1052645 34.1022757 46.7526381 33.7336679 47.2649386 33.3594358 47.5208667 33.2283465 47.6488307 31.8495284 46.1052645 30.8440772 44.938037 29.970148 44.0471763 29.5954833 43.6561751 27.960976 43.0092458 26.9559574 42.624465 26.2070607 42.1112759 25.7017392 41.5985311 25.3275071 40.9578223 25.3275071 40.3104487 24.82781 38.7593291 23.823224 37.6058755 22.9436705 36.836314 22.4495976 36.4457571 22.0693086 36.060532 21.9442762 35.9263475 21.1953794 34.9004136 20.8146578 34.2597048 20.5710825 33.6056664 20.5710825 33.3497383 20.5710825 32.1962847 20.5710825 31.2983149 20.4395604 30.6509412 20.4395604 30.3945688 17.931124 27.4331789 15.9215194 24.9845338 14.2986934 22.7927053 13.169075 20.9914338 11.5341352 20.2160961 10.9098382 19.8313154 10.7848057 19.574943 10.5351735 18.4148246 10.5351735 17.5110786 10.5351735 16.3571807 9.91130916 14.4217246 9.53058752 13.6521631 9.28052263 13.1331979 8.53162585 12.1077083 7.77104785 11.8508916 8.0263044 11.203518 8.53162585 10.4344008 9.64956304 8.37631254 9.91130916 7.85823592 12.6637536 1.41604647 10.9098382 0.646484975 9.53058752 0.262148546 8.53162585 0"></polygon>
    </g>
</svg>