<?xml version="1.0" encoding="UTF-8"?>
<svg width="116px" height="57px" viewBox="0 0 116 57" version="1.1" xmlns="http://www.w3.org/2000/svg" xmlns:xlink="http://www.w3.org/1999/xlink">
    <!-- Generator: Sketch 55 (78076) - https://sketchapp.com -->
    <title>Fill 1</title>
    <desc>Created with Sketch.</desc>
    <g id="Symbols" stroke="none" stroke-width="1" fill="none" fill-rule="evenodd">
        <polygon id="Fill-1" fill="#DEE3E8" points="88.7065647 0 74.5481341 2.99070625 70.9656979 3.67110309 69.1771565 4.01621897 67.4666882 4.44135524 60.4749147 5.98096545 46.3164842 8.88673385 39.2354844 10.252445 32.2432648 11.702647 28.1464388 12.3875142 26.1000335 12.7277126 25.0775 12.9025058 24.5675716 12.9878907 24.1388392 13.1582134 16.1231938 14.6978236 0 17.5995686 2.98863518 33.9259637 3.75642756 33.4118662 4.69107314 32.5602525 5.63330295 31.1909651 6.14680035 30.4207129 6.65271352 29.5655229 7.5944972 28.7997412 8.52869664 28.115321 9.30139647 27.4300067 9.98486999 26.8341006 10.4095872 26.1496804 10.8378735 25.5457276 11.0926146 25.0392298 11.1773796 24.5282616 11.2625907 23.5845575 11.6873079 23.3297439 12.1160404 23.3297439 12.7102876 23.5845575 13.3977763 23.8438414 14.3315296 24.4357241 14.9266691 23.1549508 15.1854253 22.5590447 15.5249314 22.1339085 15.9536639 21.3636563 16.1231938 21.0194345 16.3788272 20.8491118 16.5519262 19.5687855 16.8075596 18.6282107 16.9730744 17.8584056 17.1466196 17.3478844 17.4018068 17.0036626 17.7413129 16.9147014 17.8300931 17.0036626 18.1660302 17.2589232 18.5983316 17.6889769 19.2822513 18.3729501 19.8764985 18.9684091 20.7299481 19.3989098 21.6637014 19.6497 22.9458835 19.7386612 23.2898509 19.6497 23.7145681 19.6497 24.3088153 19.6497 24.8227589 19.4834007 25.250599 19.4834007 25.4174522 19.2241167 25.6753162 18.8839183 25.8457385 18.3729501 25.9305035 18.0287283 26.1000335 17.7734677 26.529212 17.3478844 26.9534831 17.0036626 27.2122394 16.6634642 27.2929892 16.488671 27.2929892 15.893212 27.5481764 15.4636053 27.9804779 15.2087918 28.5747251 15.2087918 29.2590909 15.2087918 29.5981509 15.4636053 30.1076331 15.4636053 32.4132409 12.4728991 32.9262921 12.5578369 33.8609377 12.8175679 35.0538935 13.2431512 36.5908166 14.0129564 37.2742901 13.9275715 37.6178114 13.7536724 37.7837723 13.6723109 38.0420825 13.6723109 38.7264483 13.2431512 39.4906716 12.7277126 39.9185118 12.7277126 40.2624792 12.9878907 40.4324553 13.4170503 40.5136512 14.0129564 40.4324553 14.3576252 40.4324553 14.7832085 40.1777142 15.4636053 40.1777142 15.8078271 40.4324553 16.0635348 40.6871964 16.2374338 41.1966786 16.3232658 41.625411 16.3232658 41.9649171 16.5780793 42.1393546 16.9147014 42.3088846 17.4328222 42.3088846 17.7734677 42.5636257 18.1176895 42.8188129 18.2839889 43.3323103 18.4543116 43.7565814 18.5432728 44.1005488 18.8839183 44.2700788 19.2241167 44.3512747 19.7386612 44.1853138 20.678342 44.1853138 20.7637269 44.2700788 21.0194345 44.3512747 21.4445708 44.610031 22.2183993 44.9539985 22.1339085 49.3858692 22.4741069 52.5404653 24.1844869 51.776242 24.8608604 51.3475095 25.5457276 51.0923223 26.1496804 51.0080034 26.8341006 51.0923223 26.9194855 51.4322745 27.1711698 51.9417568 27.5194149 52.7104414 27.9445512 53.0579779 28.0299361 53.4786799 28.2811733 53.9074123 28.71078 54.5056747 29.3102623 55.5286543 29.1399396 56.7216101 28.7997412 57.0655775 28.884679 57.6602708 29.1399396 58.4285093 29.5655229 59.5367001 30.2544136 59.7066762 30.3393514 59.9609712 30.5096741 60.4749147 30.8498726 60.8996319 31.016619 61.4131293 31.2754559 61.7570968 31.3608408 62.1809217 31.5351869 62.8608262 31.6205717 63.3703084 31.5351869 63.8838058 31.3608408 64.2277732 31.016619 64.5712945 30.6764205 65.5907051 30.7649347 65.9302112 30.8498726 66.3589436 31.1055802 66.7836608 31.7014862 66.9576521 32.64072 66.872441 32.9858358 66.6136847 33.3260343 66.1889675 33.6702561 65.7642502 34.1812243 65.5907051 35.1217991 65.2467377 36.1468648 65.3323949 36.7463472 65.7642502 37.7714129 65.5907051 38.0311439 65.2467377 38.5376417 64.6524905 39.0557625 63.9685708 39.7410768 63.2895586 40.4214737 62.7751689 40.7665895 62.2661328 41.1921729 62.0113917 41.7062703 61.9226116 42.3017293 62.0921415 43.4975648 61.3283644 46.5767852 61.3283644 47.343014 61.4131293 48.0283283 61.4978943 48.6278107 61.7570968 49.1428022 61.9226116 49.4780832 62.2661328 49.7382612 62.6056389 49.9041136 63.0348175 49.9935218 63.2043475 49.9041136 63.4595347 49.7382612 64.1425621 49.2196933 64.5712945 48.9680091 65.4247441 48.793663 65.5050478 48.5388495 65.5907051 48.3685267 65.8499075 48.198204 66.0194375 47.8580056 66.3589436 47.5982746 67.1271821 46.9174307 69.5130936 49.3976158 69.857061 49.8236461 70.1970132 50.3337202 70.4553234 50.677942 70.7912604 51.1035254 70.9656979 51.2778715 71.1383508 51.5291087 71.2195467 51.6180699 71.3939841 51.7888397 71.3939841 50.7633269 71.9882314 50.7633269 72.4981597 50.8482648 73.2704134 51.2778715 74.289824 51.7034548 75.5711138 52.4732599 75.911066 52.388322 76.2505721 52.2135289 77.0192567 51.7034548 77.2735517 51.7888397 77.9614865 52.0441002 78.980451 52.4732599 80.3469519 53.0691659 80.9420914 53.3244265 82.1354932 53.7544802 82.3085923 53.9243559 82.3938034 54.0048233 82.5673486 54.1831928 82.9925119 54.5238383 83.3360332 54.6977373 83.501548 54.6977373 83.5867591 54.6977373 83.7603043 54.7790989 83.6715241 54.0048233 83.7603043 53.9243559 84.3549976 54.0048233 85.2927661 54.5238383 85.8071558 54.7790989 86.4901832 55.2046822 87.1700876 55.6338418 88.0271063 56.2337712 88.1078561 55.9789577 87.3436328 55.0343594 86.8256741 54.4389004 86.4901832 54.0048233 86.401403 53.7544802 86.4901832 53.5837104 86.6601593 53.4947492 86.7453704 53.3244265 86.8256741 53.1581271 86.7453704 52.9878044 86.6601593 52.8134583 86.6601593 52.7285205 86.4901832 52.4732599 86.401403 52.2993608 86.2314269 51.7888397 85.8914747 51.1933807 85.7174834 50.8482648 85.4672036 50.5930042 84.949691 50.1633975 84.6137539 49.8236461 84.3549976 49.3976158 84.3549976 49.053394 84.1850215 48.7127485 84.0154915 48.5388495 83.7603043 48.3685267 83.416783 48.3685267 82.6530058 48.5388495 82.4785684 48.4574879 82.3085923 48.3685267 82.0542973 48.198204 81.8798599 48.0283283 81.5403538 47.6872358 81.2004015 47.4279518 81.0308715 47.2576291 80.9420914 47.1767146 80.7756843 47.0028156 80.4326091 46.6621701 80.1738528 46.4078036 79.8379158 46.2325634 78.980451 46.1476256 78.2157815 45.4667817 77.7874952 45.2074977 76.9340456 44.5226305 76.5097745 44.008086 76.1658071 43.412627 75.826301 42.6419278 75.4827797 41.7876319 74.8885325 39.7410768 74.9724052 39.9069291 75.3168188 40.5068586 75.6563249 41.2726403 76.2505721 42.4765225 76.5945395 43.2423042 77.1080369 43.8377632 77.5327541 44.2673699 78.0422363 44.6929532 81.0308715 45.8034038 81.2856126 45.892812 81.8798599 46.1476256 82.4785684 46.4842477 83.416783 47.0877534 83.416783 47.0028156 83.501548 47.0028156 83.6715241 47.0028156 83.6715241 46.9174307 83.7603043 46.9174307 83.9302804 46.9174307 84.0154915 46.7430846 84.0154915 46.6621701 84.0998104 46.6621701 83.9302804 45.5481432 83.7603043 45.1230069 83.5867591 44.8672993 83.247253 44.5226305 82.9068547 44.3518607 82.4785684 44.181985 82.0542973 44.181985 81.7103299 43.9271715 81.5403538 43.7564017 81.4511274 43.6719109 81.2856126 43.4975648 80.9420914 43.0724285 80.6869041 42.7317831 80.262633 42.2167915 79.9231269 41.7062703 79.5787134 41.1921729 79.3199571 40.4214737 79.1544423 39.396408 78.980451 38.2010196 77.5327541 35.2107604 77.9614865 34.5263401 78.3014388 33.8405788 78.4665074 33.0663033 78.4665074 32.64072 78.5557338 32.305439 78.2157815 30.2544136 77.443974 28.71078 77.7874952 28.115321 77.9614865 27.7746755 78.0422363 27.6043528 78.2157815 27.5194149 78.3014388 27.0044234 78.4665074 26.6602016 78.5557338 26.404941 79.0692312 25.7200737 78.895686 25.1201443 78.7216947 24.695008 77.7027302 24.3548096 76.5097745 24.1844869 77.1080369 23.7548802 77.7027302 23.4142347 77.9614865 23.0695659 78.1270013 22.8992432 78.0422363 21.8741775 76.8488345 21.5339791 76.0846112 21.2787185 75.5711138 20.9385201 75.4827797 20.5938512 75.4827797 20.4239755 75.4827797 20.3345673 75.5711138 20.3345673 75.7410899 20.1642445 76.0846112 19.8280695 76.5945395 18.9684091 77.1892328 18.7985334 77.443974 18.6282107 77.443974 18.5432728 77.5327541 18.5432728 77.7027302 18.5432728 77.9614865 18.199051 78.1270013 17.8584056 77.1080369 15.5489902 77.1080369 15.2937297 77.3663471 15.1234069 77.617073 14.864123 78.1270013 14.6978236 78.2157815 14.3576252 78.3857576 14.0129564 78.3857576 13.5878201 78.4665074 13.2431512 78.6445139 13.1582134 78.895686 13.3280891 79.0692312 13.4984118 79.3199571 13.8426336 79.5787134 13.9275715 80.0038767 13.4984118 80.3469519 13.3280891 80.6021391 13.1582134 80.7756843 13.1582134 81.4511274 12.8175679 81.8798599 12.6472452 82.4785684 12.5578369 82.4785684 12.1286773 82.6530058 11.8769931 83.416783 11.107188 83.6715241 10.8523744 83.8459615 10.5966668 83.6715241 9.65251559 83.9302804 8.96764833 84.1850215 8.5429591 84.3549976 8.11737579 84.4402088 8.02752049 84.2697865 7.17635387 84.3549976 6.91751696 84.6137539 6.66583271 84.78373 6.41101918 85.1232361 6.23220266 85.8914747 5.63674366 86.2314269 6.15173523 86.401403 6.74719423 86.2314269 7.43161445 86.2314269 8.02752049 86.401403 8.02752049 87.3436328 6.91751696 87.6791237 6.41101918 88.1078561 6.06187993 88.7065647 5.46642092 88.8765408 5.21116035 89.1312819 5.1262225 88.7913297 5.89602761 88.4478084 6.5768715 88.1078561 7.09141602 87.9383262 7.51744637 88.1926211 7.60193718 88.2778323 7.69134544 88.4478084 7.94660602 87.853115 8.11737579 87.4239365 8.28278107 87.0844304 8.37218933 86.9996654 8.6274499 87.1700876 9.22737932 86.5713791 9.82686169 86.1426467 10.3369358 85.8914747 10.7629662 85.8071558 11.1925728 85.8071558 11.44381 85.9771319 11.7884789 86.2314269 11.9623779 86.6601593 12.2176385 86.1426467 12.3875142 85.8071558 12.4728991 85.2927661 12.2176385 84.6940576 12.2176385 84.1850215 12.3875142 83.5867591 12.5578369 83.0768308 12.9878907 82.9068547 13.3280891 82.6530058 13.9275715 82.4785684 14.2682169 82.3938034 14.7832085 81.6295801 15.893212 81.9976386 16.0751578 82.3085923 17.2589232 82.2242734 17.9433434 82.1354932 18.6282107 81.8798599 19.1387318 81.7103299 19.3989098 81.6295801 19.7386612 81.7103299 19.908984 81.9690862 20.5084663 82.3938034 21.3636563 83.0768308 22.4741069 83.247253 22.3851457 83.5867591 22.2183993 84.2697865 21.7002784 84.78373 20.8491118 85.0384712 20.3345673 85.3784234 19.8280695 85.4672036 19.908984 85.3784234 20.3345673 85.3784234 21.1088428 85.4672036 21.619811 85.9771319 22.1339085 85.8914747 22.3851457 85.6331645 22.8992432 85.2084473 23.4996196 84.6940576 24.4357241 84.2697865 24.8608604 84.1850215 25.7200737 84.4402088 26.1496804 85.2084473 26.7491628 85.3784234 26.9194855 85.4672036 27.1711698 85.6331645 27.6043528 85.7174834 28.115321 85.8071558 28.884679 85.3784234 29.3952002 84.949691 29.5655229 84.3549976 29.739869 84.0154915 30.0805145 83.7603043 30.4207129 83.416783 30.5910356 83.1620419 30.7649347 83.0768308 31.1909651 83.0768308 31.7908945 83.247253 32.3863535 83.9302804 33.0663033 84.6137539 33.5853182 85.1232361 33.8405788 85.6331645 33.9259637 85.6331645 34.3560174 86.2314269 35.1217991 86.5713791 35.4655739 86.9149004 35.7212815 87.1700876 35.8911572 87.5131628 35.9760951 87.5983739 35.8911572 87.853115 35.802196 88.4478084 35.2952512 88.2778323 35.6358966 88.3630434 35.9760951 88.4478084 36.0614799 88.7065647 36.2362731 88.9613058 36.3207639 89.3855769 36.4870633 89.3855769 36.9166699 89.0460708 37.0869927 88.8765408 37.1719305 88.7913297 37.3458296 88.4478084 37.4316615 88.2778323 37.4316615 88.1926211 37.4316615 88.1926211 37.5161523 87.2588678 37.1719305 86.6601593 37.0869927 86.3202071 37.0869927 86.1426467 37.2613388 86.0659121 37.7714129 86.3202071 38.3713423 86.2314269 38.3713423 86.0659121 38.6266029 85.8071558 38.8823105 85.4672036 39.3114701 84.78373 40.1666601 84.6137539 41.1921729 84.6137539 42.1314066 84.6940576 42.9870436 84.8640337 43.4975648 85.1232361 43.9271715 85.3784234 44.008086 86.3202071 44.441716 86.5713791 44.6929532 87.1700876 45.3778205 88.1926211 45.7220423 89.3052732 46.3183954 90.4973367 47.0877534 91.7759497 48.0283283 91.9454796 47.8580056 92.3701969 47.5133367 92.8841404 46.8324928 93.6519328 46.0586644 94.3313911 46.3183954 94.5905935 46.6621701 94.9300996 47.2576291 95.0188798 47.1767146 95.2740671 47.0877534 95.6135732 46.8324928 96.1275167 46.6621701 96.5517878 46.8324928 96.806975 47.0028156 97.2357074 47.343014 97.5747674 47.5982746 97.8299547 47.9429434 98.0034998 48.1132661 98.0846958 48.4574879 98.0034998 48.6278107 97.8299547 48.793663 97.4900024 49.053394 97.06127 49.3976158 96.4670228 49.6528764 96.2122817 49.9935218 95.9570945 50.7633269 96.0423056 51.1933807 96.2974928 51.3637034 98.6874195 50.5035959 99.0229104 50.5930042 99.0229104 51.2778715 98.6874195 51.6180699 98.5981932 52.2135289 98.5981932 52.6400063 98.8573956 52.9878044 99.1116906 53.1581271 99.7103991 53.243512 99.9646941 53.1581271 100.474176 52.9878044 100.474176 53.0691659 100.13467 53.4138348 99.8799291 53.9243559 99.540423 54.4389004 99.2816667 55.1233207 99.0229104 55.4644132 99.7911489 57 100.304646 56.8337006 100.474176 56.7407161 100.733379 56.4899259 101.158096 56.3191561 101.582813 55.9789577 102.181522 55.6338418 102.775769 55.2046822 103.628772 54.8685071 104.312692 54.9494216 104.825743 55.2046822 107.980339 53.7544802 111.652448 52.5586448 111.563222 52.0441002 111.733198 51.1933807 112.335922 50.5930042 112.586201 50.2492294 112.844958 50.0784597 113.010919 49.9041136 113.100591 49.8236461 112.844958 48.6278107 112.671413 47.6872358 112.586201 46.9174307 112.586201 46.3183954 112.930615 45.7220423 113.18491 45.2074977 113.35444 44.6929532 113.439651 44.2673699 113.270121 43.5833967 113.270121 43.0724285 113.439651 43.0724285 115.061785 43.8377632 115.231761 42.9021058 114.972113 41.5323713 115.142535 40.4214737 114.717818 39.7410768 114.633053 38.9712717 114.633053 38.6266029 114.891809 38.3713423 115.142535 37.946206 115.660494 37.6015372 116 37.0869927 100.215866 39.7410768 89.3052732 0.42558331 88.9613058 0"></polygon>
    </g>
</svg>