<?xml version="1.0" encoding="UTF-8"?>
<svg width="150px" height="85px" viewBox="0 0 150 85" version="1.1" xmlns="http://www.w3.org/2000/svg" xmlns:xlink="http://www.w3.org/1999/xlink">
    <!-- Generator: Sketch 55 (78076) - https://sketchapp.com -->
    <title>Fill 1</title>
    <desc>Created with Sketch.</desc>
    <g id="Symbols" stroke="none" stroke-width="1" fill="none" fill-rule="evenodd">
        <polygon id="Fill-1" fill="#DEE3E8" points="88.0823884 0 88.0156231 0.193184349 87.952196 0.898001022 87.952196 1.34672317 88.0823884 1.98417585 88.2737824 2.69121943 88.6593522 3.65046045 88.6593522 3.97224879 88.4651763 4.22722986 88.3377658 4.35472039 88.2737824 4.35472039 88.2737824 4.41763057 88.2737824 4.54623456 87.952196 4.86690944 87.952196 5.11910688 88.1463719 5.57116939 88.0823884 5.76268356 87.952196 6.14459844 87.7641403 6.59443404 87.5705209 7.16730636 88.3377658 7.5525616 88.2737824 7.6199256 88.1463719 7.87434994 87.888769 8.19335464 87.6345043 8.64207679 87.2517164 9.09135566 86.803276 9.66812507 86.2936339 10.3055778 85.7144447 11.0733046 85.8440807 11.331626 86.2936339 11.5832667 85.9052823 12.2274001 85.6504612 12.8036128 85.0106268 13.6988302 84.6283953 14.0200618 84.2461638 14.2755996 83.8611504 14.4025334 83.539564 14.5339211 83.1539942 14.5940476 82.8991732 14.852369 82.7083357 15.3010912 82.5809251 16.0059079 82.4507327 16.387266 82.3867493 16.9645921 82.2593388 17.5396914 82.1959117 18.3085317 80.6642038 17.5396914 79.0629486 16.9645921 78.8682164 17.4105307 78.6773788 17.9867433 78.4865412 18.3085317 78.3557924 18.7544702 78.0403263 19.7170516 78.0403263 20.0354995 78.1682931 20.5488021 78.2957037 21.1216744 78.5499683 21.9567652 78.4865412 21.9567652 78.4865412 22.0196754 78.3557924 22.144939 78.2311638 22.144939 78.1682931 22.144939 78.1682931 22.2111896 77.9101339 22.3386801 77.5279023 22.3386801 77.3370648 22.4672841 77.1456708 22.5942179 77.1456708 22.9154495 77.0154784 23.110304 76.8880679 23.5562425 76.6972304 24.0684316 76.5030545 24.7732483 76.630465 25.410701 76.5698198 25.6049988 76.4396274 25.9869136 76.1842501 26.4356358 75.8632201 27.0151888 75.4170051 27.525151 75.0325481 27.9716462 74.7143 28.165944 74.455028 28.2906509 74.3315121 28.2266273 74.2641904 28.2266273 74.1367799 28.2266273 74.0093694 28.165944 73.9464987 28.165944 73.8185318 28.165944 73.2393426 28.0351131 72.6000645 27.9115197 72.0898661 27.6520848 71.7710617 27.3948768 71.4500317 27.0151888 71.3226212 26.6934005 71.1918724 26.0537209 71.0683566 25.7965129 71.0043731 25.7341595 70.552038 25.5409751 69.9789689 25.4763948 69.2751511 25.2859941 68.6993001 25.1551632 68.2536415 25.0916962 67.9320551 25.0916962 67.8046446 25.9223333 67.6738959 27.0151888 67.7406612 27.3948768 67.8046446 27.7161084 67.9982641 28.165944 67.9320551 28.2266273 67.8686281 28.484392 67.6738959 28.80284 67.4836147 29.3801661 67.161472 29.9563788 66.8432239 30.7241056 66.3975653 31.5558561 65.9513503 32.5813477 65.9513503 32.645928 66.0759789 32.8363287 66.2028331 33.0913098 66.4609924 33.4776785 66.3975653 33.9859705 66.2668165 34.5026133 66.0153338 34.9485519 65.693191 35.458514 64.7957537 36.5480292 65.0566949 37.701568 64.9904859 38.0211294 64.7957537 38.4692949 64.4802875 39.0460643 64.0947177 39.8132344 63.9044366 40.2625133 63.7102607 40.836499 63.3920126 41.4756219 63.0064429 42.2478026 62.3660521 43.2059301 61.9209498 44.4847326 61.6627906 44.7419406 61.3445425 45.1917762 60.8315622 45.6377147 60.2557112 46.2144841 60.3191383 46.8541637 60.5772976 47.6859141 60.5099759 47.8735312 60.3859036 48.2621268 60.1255188 48.6484955 59.8734797 49.2208111 59.9374631 49.351642 60.2557112 49.6038395 60.7047081 49.9289682 61.4713966 50.3749067 61.3445425 50.757935 61.0863832 51.2706808 60.5772976 51.7828698 60.0003338 52.2961723 60.0643173 52.5505967 60.2557112 52.9965352 60.1917278 52.9965352 60.0003338 53.1919464 59.7427309 53.3823472 59.4244828 53.7676024 58.9788243 54.0860504 58.4664003 54.5993529 57.8260095 55.1126554 57.1194098 55.8158019 56.867927 55.3637394 56.7371783 55.1126554 56.6097678 54.9183576 55.9087318 55.4299899 55.2666719 56.0073161 54.5016524 56.5172782 54.1138571 56.7783833 53.9224632 56.9019767 53.7956091 57.0934909 52.1309268 58.1200959 51.2384969 58.6322849 50.3443978 59.2068274 49.958828 59.2697376 49.7006688 59.591526 49.3184372 60.0385779 49.0641726 60.6164608 48.9306419 60.6164608 48.8060133 60.6804844 48.4849834 60.805748 47.9720031 60.9360222 47.3994904 61.0668531 46.8865101 61.0668531 46.4402951 61.2583673 45.5456397 61.8941498 45.0966428 62.2164948 44.7756129 62.4720326 44.4540265 62.6000799 44.2665272 62.6635468 43.880401 62.2164948 43.5593711 61.8941498 42.9223185 61.3819607 42.2824841 61.0668531 41.6420933 60.9994891 41.320507 61.0668531 41.0662423 61.2583673 40.8114213 61.5768153 40.553262 62.0249807 38.8312729 62.9853351 37.9304973 63.7525053 37.2294613 64.3259343 36.5890705 64.6477227 36.14063 64.7779968 34.9883717 64.2017841 34.4787297 63.942906 34.1599252 63.8165289 33.7749118 63.6255715 33.5840742 63.5582075 33.325915 63.4969675 32.3644942 63.6884816 31.473177 62.8567312 30.8327862 62.2782916 30.3843458 61.8941498 30.2569352 61.767216 30.0021142 60.805748 29.8741474 60.3598095 29.2955145 60.0385779 28.9772664 59.7858238 28.7825342 59.5280591 28.7246709 59.3371016 28.8498559 59.0782235 28.9160649 58.9518464 29.0406935 58.8878227 29.1041205 58.6322849 29.1041205 58.5053511 29.1041205 58.4391006 29.1714422 58.4391006 29.1041205 58.2475864 28.9160649 58.1200959 28.5944785 57.989265 28.2100215 57.989265 27.9546441 57.9252414 26.9937797 58.9518464 26.2894055 59.9099739 25.649571 60.7450648 25.2039124 61.5127916 23.9242436 64.07151 23.5414557 64.5831423 23.2838528 64.7779968 23.0935716 65.0335346 22.5166079 65.4187899 21.8767735 65.7372378 20.9181346 66.2466433 20.0874626 66.826753 19.3202177 67.2726915 18.6826087 67.7854373 18.0399924 68.104442 17.5275685 68.4891405 17.0813536 68.7446783 16.7603236 69.0664667 16.3747538 69.3181074 16.1232711 69.8347503 15.7354758 70.5378968 15.4806547 71.4976945 15.3526879 71.625185 15.2892608 71.625185 15.2892608 71.6892087 15.2892608 71.8155857 15.1624067 72.2013977 14.7768369 72.7776104 14.5220159 72.9056577 14.3951617 72.9691246 14.3272837 73.0960584 13.8176416 73.2875725 13.9456085 73.9923892 14.3272837 74.9510735 14.264413 75.0178808 14.0702371 75.2093949 13.7514327 75.4009091 13.3692012 75.7221407 12.7933502 76.0411454 12.2174992 76.4258439 11.4519234 76.8756795 10.6184695 77.385085 9.65704875 77.9618544 9.08676155 78.7930481 8.7651752 79.1788601 8.63498281 79.2389866 8.57155574 79.3659204 8.44637075 79.6247986 8.18654233 79.7517324 8.06191372 79.8185397 7.99514839 79.9465869 7.54615154 80.3285018 6.39667509 80.9687381 5.43803621 81.6100879 4.54338077 82.1211635 3.83678102 82.634466 2.94268196 82.634466 2.23775134 82.6990464 1.72866569 82.8270936 1.41041762 83.0174943 1.21624178 83.081518 0.897437324 83.4033063 0.45177874 83.722311 0 84.2985237 1.53782812 85 4.92895056 84.1676928 9.27481723 84.1676928 11.4519234 83.4667732 31.4058553 80.9047145 32.7534022 80.1381011 37.1020508 79.4338412 39.1489646 79.4338412 42.3486931 79.4338412 70.6193597 75.9799054 75.3507962 75.0178808 80.1517799 74.1198797 89.7448452 72.3249912 99.2110563 70.4710895 108.679493 68.6171878 118.018294 66.633012 127.356538 64.6477227 136.567372 62.6000799 141.173623 61.5768153 143.473133 61.0668531 144.625947 60.805748 145.205136 60.6804844 145.841633 60.6164608 145.90506 60.3598095 145.90506 60.1042717 145.781544 59.8470638 145.586812 59.6555496 145.268564 59.3371016 145.138371 59.1422471 145.010961 58.8237991 145.459401 58.6963086 145.781544 58.5654777 145.972938 58.3099399 145.972938 58.1841195 145.972938 58.1200959 146.033027 58.1200959 146.096454 57.989265 145.586812 57.2883454 145.268564 56.8390665 145.074388 56.4565949 145.010961 56.2617404 144.692713 55.4299899 144.434553 54.8537772 144.243716 54.4078387 144.116305 54.2129842 144.116305 53.8956497 144.243716 53.5064973 144.243716 53.4491544 144.179732 53.0638992 144.179732 52.805021 144.052878 52.4231061 143.922129 52.2288083 143.861484 52.1658982 143.539898 52.1046582 143.090901 52.2961723 142.772653 52.3590825 142.196246 52.2961723 141.940868 52.1658982 141.814014 52.1046582 141.620395 51.9103604 141.556411 51.7828698 142.454405 50.0564587 143.090901 48.8361126 143.473133 47.7488243 143.603881 46.9181873 143.221093 45.0642856 143.34906 43.8461664 143.221093 43.3985577 143.221093 43.2059301 143.281739 43.014416 143.34906 42.6926276 143.473133 42.2478026 143.603881 41.6704764 143.861484 41.0302401 144.116305 40.2625133 144.434553 39.4307628 144.56252 39.1729981 144.692713 38.8539934 145.138371 38.0834829 145.332547 37.5735207 145.586812 36.9973081 146.163219 35.7173922 148.97849 27.3948768 149.105345 27.1398957 149.169328 27.0151888 148.850524 25.8622067 148.914507 25.410701 149.105345 25.1551632 149.424149 24.9647624 150 24.9647624 149.939355 24.133012 147.185285 25.0276726 144.819567 26.1138474 144.88355 26.3727256 144.75614 26.6934005 144.56252 27.0764288 144.179732 27.4589004 143.734074 27.9115197 144.179732 27.9115197 144.501319 27.9716462 144.692713 28.0351131 144.819567 28.2266273 144.75614 28.6759062 144.56252 29.2549025 144.692713 30.2753835 144.56252 30.4056577 144.309925 30.6611955 143.797501 30.9156198 143.158223 31.1728278 143.281739 31.3003183 143.281739 31.4278089 143.34906 31.686687 143.221093 32.1320688 142.96349 32.8363287 142.454405 33.5405887 141.877997 34.5026133 141.814014 34.9485519 141.620395 35.6528118 141.362235 36.5480292 141.173623 37.0635586 141.043431 37.701568 141.043431 37.8925254 141.173623 38.2137571 141.30159 38.5967854 141.556411 39.1729981 141.492984 39.3606152 141.429001 39.6863006 141.238163 40.0080889 141.043431 40.4534707 141.043431 40.8994092 141.362235 42.6297174 141.173623 43.9101901 141.238163 44.4847326 141.556411 45.3153696 142.068835 46.1504604 142.836636 47.2366353 141.68716 49.798694 140.983342 50.5664208 140.533789 51.1426335 140.215541 51.4644219 140.149332 51.5913557 139.190693 51.3970579 139.127266 51.3970579 139.127266 51.4644219 139.127266 51.5913557 138.995961 51.7828698 138.872445 51.7828698 138.550858 51.9103604 138.168627 51.7188462 137.910468 51.6525957 137.656759 51.5913557 137.398044 51.5913557 137.273972 51.7828698 137.207206 51.9777244 137.207206 52.4231061 137.273972 53.0638992 137.465365 53.7676024 137.783057 54.3438151 138.359465 54.9851649 138.296594 54.9851649 138.101862 55.1126554 137.844259 55.1126554 137.526011 55.2395892 137.079796 55.3036128 136.567372 55.4299899 135.927537 55.5546968 135.226501 55.6855277 134.968898 55.6226175 134.778061 55.4299899 134.65065 55.1126554 134.65065 54.6633765 134.519902 54.0860504 134.459256 53.7676024 134.20221 53.4491544 133.497279 52.7421108 132.921428 52.2961723 132.409561 52.0384076 132.0902 51.9777244 131.514349 51.9103604 131.196101 51.7828698 131.001925 51.5913557 130.94128 51.3970579 130.874515 51.0797233 130.874515 50.8882092 130.807749 50.6955816 130.488945 50.4355899 130.301445 50.310883 130.171253 50.1833925 129.213171 48.8361126 129.084647 48.9663868 129.020664 48.9663868 129.020664 49.0309671 129.020664 49.1567875 128.891028 49.4162224 128.63565 49.6038395 128.381386 49.6717602 126.716704 48.9023631 126.270489 49.0309671 125.948346 49.0938773 125.242303 48.9663868 124.796644 48.7754293 125.312406 48.7091788 125.690743 48.6484955 126.143078 48.5176646 126.525866 48.3261505 126.906985 48.0683858 127.101717 48.0683858 127.422747 48.1346363 127.802197 48.2621268 128.381386 48.5176646 128.444813 48.4569814 128.63565 48.3261505 128.891028 48.1346363 129.275485 47.9403385 130.043843 48.0683858 130.807749 48.6484955 131.450366 49.4791326 132.0902 50.757935 132.60318 50.629331 134.074243 51.9777244 134.20221 52.0384076 134.459256 52.3590825 134.778061 52.6780872 135.287703 53.2576403 135.736143 52.9352952 135.800127 52.805021 135.927537 52.7421108 136.18514 52.1658982 136.311994 51.7828698 136.697564 51.1426335 136.886176 50.8882092 137.273972 50.629331 137.526011 50.2479729 137.844259 49.6038395 137.844259 48.8361126 136.949047 48.8361126 136.697564 48.7091788 136.439961 48.3261505 136.18514 48.0077025 135.927537 47.8735312 135.545306 47.7488243 135.160292 47.7488243 134.968898 47.6859141 134.838706 47.55564 134.778061 47.175952 134.714077 46.8541637 134.583329 46.6626495 134.392491 46.5323753 134.20221 46.5323753 133.752657 46.6626495 133.431627 46.7906968 133.179588 46.8541637 133.048839 46.9181873 132.15474 46.596399 131.76917 46.3447582 131.578889 46.2144841 131.450366 46.1504604 131.068134 45.8949226 130.683121 45.6377147 129.789022 44.9969216 129.148631 44.4847326 128.63565 44.0354537 128.381386 43.7832563 128.444813 43.7832563 128.763617 43.9101901 129.213171 44.0354537 129.84911 44.2965588 130.619694 44.5509831 131.578889 44.9367951 132.666607 45.3827336 133.840564 45.7284612 134.778061 45.5068838 134.838706 45.4462005 134.968898 45.3153696 135.032882 45.0642856 134.392491 44.5509831 133.944051 44.3561286 133.688673 44.2291948 133.625246 44.1651711 133.240233 43.9714301 133.048839 43.7203461 132.921428 43.3985577 132.921428 42.9481654 132.985412 42.181552 133.179588 41.7350568 133.431627 41.7350568 133.752657 41.9894811 134.007478 42.3752931 134.583329 42.6297174 134.65065 42.6297174 134.778061 42.5022269 134.838706 42.4365331 134.968898 42.757208 135.032882 42.8852552 135.160292 43.0767694 135.545306 43.5889585 135.800127 43.9101901 136.121157 43.9714301 136.245785 43.9714301 136.311994 43.8461664 136.439961 43.7832563 136.567372 43.4586843 136.567372 43.2699538 136.630799 43.14302 136.439961 42.3112695 136.567372 41.4756219 136.439961 41.0302401 136.18514 40.7090085 135.672716 40.4534707 135.096309 40.2625133 134.392491 40.0080889 133.944051 39.8744744 133.625246 39.7503242 133.561819 39.6217202 134.007478 39.2370217 134.325726 38.9185737 134.519902 38.5967854 134.65065 38.4052712 131.450366 37.7650349 130.361534 38.0211294 129.84911 37.9582193 129.466879 37.8925254 129.084647 37.701568 128.827044 37.5067135 128.381386 36.8698175 128.251193 36.4205386 128.251193 35.9718165 128.126008 35.5247645 127.932945 35.2669998 127.611359 35.0159158 127.231909 34.8856417 126.588737 34.6301039 126.143078 34.5026133 125.821492 34.3723392 125.758065 34.3723392 125.242303 33.9859705 124.927393 33.7348865 124.73266 33.5405887 124.672572 33.4776785 124.092826 33.2221407 123.710595 32.9671596 123.455774 32.7088382 123.389565 32.5813477 123.26438 32.3864931 123.198171 32.2628997 123.07076 32.1320688 123.006777 32.0697153 122.879923 31.9405546 122.812601 31.8743041 122.494353 31.6226634 121.917945 31.1728278 121.603036 30.7881293 121.278111 30.4056577 121.214684 30.1506766 121.278111 30.2753835 121.603036 30.5325915 122.561118 30.9156198 123.07076 31.2374081 123.838005 31.686687 124.990263 32.5150971 126.270489 33.6034989 127.289216 34.180825 128.702972 34.8856417 128.954455 35.3332504 129.213171 35.7173922 129.403452 36.5480292 129.597628 36.8698175 129.789022 37.0635586 130.171253 37.1888222 130.749886 36.803567 130.807749 36.5480292 130.94128 36.356515 131.068134 35.7836427 131.386938 35.8432125 131.578889 35.9111332 131.899362 36.1026474 132.60318 36.5480292 133.431627 37.1888222 134.519902 36.8698175 133.880067 36.6153932 133.625246 36.4205386 133.497279 36.2958318 133.240233 35.9111332 133.179588 35.5247645 133.367087 35.20743 133.561819 35.140066 134.007478 35.140066 134.074243 35.0760424 133.497279 34.3083155 133.179588 33.7348865 132.985412 33.2221407 132.921428 32.9003524 132.921428 32.323583 133.116161 32.0045783 133.367087 31.7473703 133.819422 31.686687 133.944051 31.5558561 134.007478 31.4951728 134.13767 31.4951728 134.392491 31.3615583 134.459256 31.2374081 134.583329 31.1728278 134.65065 31.045894 134.583329 30.5325915 134.459256 30.1506766 134.20221 29.8261046 133.944051 29.6312501 133.431627 29.5076566 133.048839 29.4464166 132.409561 29.3128021 130.807749 28.80284 130.10727 28.5484156 129.597628 28.3569015 129.466879 28.1013637 129.275485 27.9716462 128.827044 27.8435989 128.381386 27.7773484 128.251193 27.6520848 128.189992 27.5897313 128.059799 27.4589004 127.995816 27.3948768 127.868962 27.2646026 127.802197 27.2044761 127.678124 27.0764288 127.422747 26.6299336 126.65272 26.1812114 126.203723 25.9869136 125.690743 25.6049988 125.312406 25.410701 124.990263 25.2859941 124.862853 25.2859941 124.350429 25.349461 124.226357 25.6684657 124.092826 26.3081452 124.032181 26.563683 124.032181 26.7540838 123.965416 26.8214478 123.389565 26.2424514 122.94335 25.8622067 122.625102 25.6049988 122.494353 25.5409751 121.278111 25.7341595 121.154039 25.6684657 121.087273 25.6684657 120.959307 25.6684657 120.641058 25.5409751 120.065207 25.2859941 119.871032 25.1551632 119.746403 25.0916962 119.425373 24.9647624 118.912393 24.133012 118.594145 23.8140073 118.336542 23.6803927 117.890883 23.361388 117.635506 23.04294 117.44133 22.6599117 117.377903 22.2111896 117.123082 21.5737369 116.864923 21.1879249 116.610658 20.9335006 116.483804 20.86725 116.095452 21.3131885 115.843413 21.7652511 114.948758 22.2746565 114.242158 22.5942179 113.668532 22.9154495 113.218979 23.110304 112.965271 23.1737709 112.576919 23.110304 112.260897 22.9154495 112.006632 22.6599117 111.8119 22.3386801 111.49087 21.826491 111.366241 21.4434627 111.236049 21.0615478 111.236049 20.8032264 111.430225 20.3539475 111.618837 20.0354995 111.684489 19.7170516 111.752367 19.5255374 111.557635 17.9867433 111.939867 17.346507 112.19747 16.7062707 112.130704 16.1328417 112.19747 15.8143937 112.388864 15.6200959 112.771095 15.5532886 112.901844 15.5532886 112.901844 15.6200959 113.282963 15.3010912 113.668532 15.0433265 114.177618 14.5339211 114.690598 14.0200618 115.136813 13.632023 115.394416 13.252335 115.525165 13.0580372 115.20024 12.2903103 115.136813 11.8410315 115.394416 11.0733046 115.525165 10.3696014 115.843413 9.98712978 116.161661 9.72936507 116.356393 9.47382727 116.419264 9.21661929 116.289072 8.51124589 115.970824 8.06586411 115.649237 7.87434994 115.394416 7.81143976 114.629953 7.74407577 114.37235 7.99905684 114.114747 8.25737827 113.729178 8.38765245 113.346946 8.45056262 112.83786 8.38765245 112.519612 8.25737827 112.260897 8.19335464 111.875883 7.99905684 111.557635 7.87434994 111.172622 7.6199256 110.981228 7.49299179 110.853817 7.42841143 110.023145 6.91343874 109.446182 6.59443404 109.001079 6.4034766 108.743476 6.33945297 107.848821 6.59443404 107.080463 6.72192457 106.632023 6.2726457 106.310993 5.95085736 105.99497 5.76268356 105.734586 5.69865992 105.158178 5.37965522 104.77539 5.11910688 104.521682 4.93093307 104.457699 4.86690944 104.521682 4.35472039 104.711963 3.90265788 105.034106 3.38935538 105.607175 2.8827336 103.241457 1.60114751 99.9170997 1.34672317 99.6594968 1.41019007 99.6594968 1.4742137 99.5315299 2.43289799 99.5315299 3.33145574 99.4041194 4.03293205 99.4041194 4.73663527 99.2772653 5.18535742 99.2110563 5.31340468 99.2110563 5.50436212 99.0858713 5.69865992 99.0196624 5.69865992 99.0196624 5.76268356 99.0196624 5.82559373 97.933613 5.37965522 97.1635862 5.05786688 96.6539442 4.86690944 96.5265337 4.80344254 95.5651129 4.22722986 94.8607386 3.71448408 94.2882259 3.2652052 93.8392291 2.8827336 92.6229873 2.11222311 91.6649048 1.5354537 90.7068223 1.02215119 90.0024481 0.706486855 89.2991866 0.321788339 88.8501897 0.130274172 88.4651763 0"></polygon>
    </g>
</svg>