<?xml version="1.0" encoding="UTF-8"?>
<svg width="127px" height="92px" viewBox="0 0 127 92" version="1.1" xmlns="http://www.w3.org/2000/svg" xmlns:xlink="http://www.w3.org/1999/xlink">
    <!-- Generator: Sketch 54.1 (76490) - https://sketchapp.com -->
    <title>Hospitals</title>
    <desc>Created with Sketch.</desc>
    <g id="Desktop" stroke="none" stroke-width="1" fill="none" fill-rule="evenodd">
        <g id="FMH---Community-Microsite" transform="translate(-845.000000, -1581.000000)" fill="#FFFFFF">
            <g id="Area-Amenities" transform="translate(0.000000, 1455.000000)">
                <g id="Hospitals" transform="translate(841.000000, 126.000000)">
                    <text id="Transportation" font-family="HelveticaNeue-Bold, Helvetica Neue" font-size="18" font-weight="bold" line-spacing="22">
                        <tspan x="4.505" y="88">Transportation</tspan>
                    </text>
                    <g id="Group-9" transform="translate(45.000000, 0.000000)">
                        <path d="M11.5251833,40.7591304 C10.0890722,40.7591304 8.92016481,39.5904348 8.92016481,38.1547826 C8.92016481,36.7182609 10.0890722,35.5495652 11.5251833,35.5495652 C12.9630352,35.5495652 14.132813,36.7182609 14.132813,38.1547826 C14.132813,39.5904348 12.9630352,40.7591304 11.5251833,40.7591304 M11.5251833,33.113913 C8.74522037,33.113913 6.48312778,35.3756522 6.48312778,38.1547826 C6.48312778,40.933913 8.74522037,43.1947826 11.5251833,43.1947826 C14.306887,43.1947826 16.56985,40.933913 16.56985,38.1547826 C16.56985,35.3756522 14.306887,33.113913 11.5251833,33.113913" id="Fill-1"></path>
                        <path d="M34.8479759,40.7591304 C33.4109944,40.7591304 32.2412167,39.5904348 32.2412167,38.1547826 C32.2412167,36.7182609 33.4109944,35.5495652 34.8479759,35.5495652 C36.2866981,35.5495652 37.4573463,36.7182609 37.4573463,38.1547826 C37.4573463,39.5904348 36.2866981,40.7591304 34.8479759,40.7591304 M34.8479759,33.113913 C32.0671426,33.113913 29.8041796,35.3756522 29.8041796,38.1547826 C29.8041796,40.933913 32.0671426,43.1947826 34.8479759,43.1947826 C37.63055,43.1947826 39.8943833,40.933913 39.8943833,38.1547826 C39.8943833,35.3756522 37.63055,33.113913 34.8479759,33.113913" id="Fill-3"></path>
                        <polygon id="Fill-5" points="17.5162037 7.96043478 28.8588704 7.96043478 28.8588704 5.52478261 17.5162037 5.52478261"></polygon>
                        <path d="M8.46435185,27.8847826 L37.9098519,27.8847826 L37.9098519,13.0595652 L8.46435185,13.0595652 L8.46435185,27.8847826 Z M6.02731481,29.1021739 C6.02731481,29.7743478 6.57390741,30.3204348 7.24583333,30.3204348 L39.1283704,30.3204348 C39.8002963,30.3204348 40.3468889,29.7743478 40.3468889,29.1021739 L40.3468889,11.8421739 C40.3468889,11.17 39.8002963,10.623913 39.1283704,10.623913 L7.24583333,10.623913 C6.57390741,10.623913 6.02731481,11.17 6.02731481,11.8421739 L6.02731481,29.1021739 Z" id="Fill-7"></path>
                        <path d="M8.72746481,48.8127826 C5.63939074,48.8127826 3.12750185,46.3014783 3.12750185,43.2153913 L3.12750185,8.03365217 C3.12750185,4.94669565 5.63939074,2.4353913 8.72746481,2.4353913 L37.6455204,2.4353913 C40.7335944,2.4353913 43.2463537,4.94669565 43.2463537,8.03365217 L43.2463537,43.2153913 C43.2463537,46.3014783 40.7335944,48.8127826 37.6455204,48.8127826 L8.72746481,48.8127826 Z M33.3154278,51.2484348 L42.7337056,59.7275652 L46.3735944,59.7275652 L36.9901315,51.2797391 L38.0432796,51.2275652 C42.3272426,51.0162609 45.6833907,47.4962609 45.6833907,43.2153913 L45.6833907,8.03365217 C45.6833907,3.60408696 42.0774463,-0.000260869565 37.6455204,-0.000260869565 L8.72746481,-0.000260869565 C4.29553889,-0.000260869565 0.690464815,3.60408696 0.690464815,8.03365217 L0.690464815,43.2153913 C0.690464815,47.4971304 4.04661296,51.0171304 8.33057593,51.2275652 L9.38372407,51.2797391 L0.000261111111,59.7275652 L3.64015,59.7275652 L13.0584278,51.2484348 L33.3154278,51.2484348 Z" id="Fill-8"></path>
                    </g>
                </g>
            </g>
        </g>
    </g>
</svg>