<svg height="50" viewBox="0 0 56 50" width="56" xmlns="http://www.w3.org/2000/svg"><path d="m14.7615063 3.11004785c-6.44351467 0-11.7154812 5.38277512-11.7154812 11.96172245 0 8.7320575 5.38912134 14.4736842 24.9539749 30.8612441 19.5648536-16.3875599 24.9539749-22.1291866 24.9539749-30.8612441 0-6.57894733-5.2719665-11.96172245-11.7154812-11.96172245-5.8577406 0-9.022092 3.58851674-11.4811715 6.45933014l-1.7573222 2.03349281-1.7573222-2.03349281c-2.460251-2.8708134-5.6234309-6.45933014-11.4811715-6.45933014zm13.2384937 46.88995215-.9372385-.8373206c-21.32217573-17.7033493-27.0627615-23.923445-27.0627615-34.0909091 0-8.37320571 6.67782427-15.0717703 14.7615063-15.0717703 6.7949791 0 10.6610878 3.94736842 13.2384937 6.93779904 2.5774059-2.99043062 6.4435146-6.93779904 13.2384937-6.93779904 8.2008368 0 14.7615063 6.81818182 14.7615063 15.0717703 0 10.1674641-5.7405858 16.3875598-27.0627615 34.0909091z" fill="#fff" fill-rule="evenodd"/></svg>