
<svg width="31px" height="40px" viewBox="0 0 31 40" version="1.1" xmlns="http://www.w3.org/2000/svg" xmlns:xlink="http://www.w3.org/1999/xlink">
    <g id="Desktop" stroke="none" stroke-width="1" fill="none" fill-rule="evenodd">
        <g id="My-Time-Tour---3" transform="translate(-315.000000, -462.000000)" fill="#6295BA">
            <g id="Photo-ID" transform="translate(97.000000, 437.000000)">
                <g id="photo-id" transform="translate(37.000000, 25.000000)">
                    <g id="Group-8" transform="translate(181.000000, 0.000000)">
                        <polygon id="Fill-1" points="12.51625 37.7601739 14.1489167 38.321913 14.7051944 36.6749565 13.0725278 36.1132174"></polygon>
                        <polygon id="Fill-5" points="19.4903889 24.1965217 24.0611667 24.1965217 24.0611667 22.4573913 19.4903889 22.4573913"></polygon>
                        <path d="M28.8437778,26.0878261 L16.5936111,26.0878261 C16.7847778,24.9504348 16.6607778,23.9521739 16.5247222,23.3469565 L19.6815556,20.7173913 L28.9660556,20.7173913 L28.9660556,25.9626087 C28.9660556,26.0321739 28.9109444,26.0878261 28.8437778,26.0878261 L28.8437778,26.0878261 Z M16.5264444,31.1417391 L15.9770556,31.1991304 L15.3053889,33.1886957 L5.37677778,29.7678261 L5.87105556,28.3052174 L6.69772222,21.2113043 C6.87511111,18.5747826 9.06922222,16.3852174 10.8930556,15.3121739 C11.5096111,14.9504348 12.2536111,14.6008696 12.8632778,14.3347826 L12.8632778,18.22 L9.71677778,20.8269565 L10.8086667,22.1713043 L17.0086667,17.033913 C17.4202778,16.6913043 17.9541667,16.6165217 18.4467222,16.8269565 C18.9341111,17.0391304 19.2492778,17.486087 19.2871667,18.02 C19.3198889,18.473913 19.1321667,18.9173913 18.7877222,19.206087 L14.5269444,22.7608696 L14.7370556,23.34 C14.7749444,23.4443478 15.6463889,25.926087 13.8346111,28.1017391 L15.1538333,29.22 C15.5361667,28.7608696 15.8117222,28.2930435 16.0356111,27.8269565 L20.6098333,27.8269565 C19.3526111,29.8495652 17.4547222,31.0443478 16.5264444,31.1417391 L16.5264444,31.1417391 Z M22.8866111,10.8113043 C22.8866111,11.126087 22.7608889,11.4356522 22.5387222,11.6617391 C22.1374444,12.0686957 21.4141111,12.0704348 21.0093889,11.6582609 C20.7872222,11.4321739 20.6666667,11.1330435 20.6666667,10.8147826 L20.6666667,9.82521739 C20.6666667,9.27565217 21.1643889,8.82869565 21.7757778,8.82869565 C22.3888889,8.82869565 22.8866111,9.27565217 22.8866111,9.82521739 L22.8866111,10.8113043 Z M19.1235556,15.2286957 C18.972,15.1626087 18.8101111,15.1382609 18.6499444,15.0982609 L20.367,14.766087 C20.9405,14.6652174 21.3693333,14.2373913 21.5191667,13.6947826 C21.6035556,13.7034783 21.6896667,13.7208696 21.7757778,13.7208696 C21.9187222,13.7208696 22.0616667,13.7 22.2046111,13.6773913 C22.3492778,14.2252174 22.7746667,14.6617391 23.3292222,14.7608696 L25.0996667,15.1347826 C25.2253889,15.1521739 25.3218333,15.2617391 25.3218333,15.3904348 L25.3218333,17.3243478 L27.0440556,17.3243478 L27.0440556,15.3904348 C27.0440556,14.3956522 26.3069444,13.5452174 25.3907222,13.4217391 L23.8596667,13.0982609 L23.8596667,12.7626087 C24.3384444,12.2234783 24.6088333,11.54 24.6088333,10.8113043 L24.6088333,9.82521739 C24.6088333,8.3173913 23.3395556,7.08956522 21.7757778,7.08956522 C20.2137222,7.08956522 18.9444444,8.3173913 18.9444444,9.82521739 L18.9444444,10.8147826 C18.9444444,11.5956522 19.2441111,12.3278261 19.7866111,12.8843478 C19.8107222,12.9086957 19.84,12.926087 19.8658333,12.9486957 L19.8658333,13.0930435 L18.2211111,13.4113043 C17.2704444,13.5417391 16.5608889,14.353913 16.523,15.313913 C16.3128889,15.42 16.1045,15.5347826 15.9150556,15.6895652 L14.5855,16.7921739 L14.5855,5.85304348 L28.9660556,5.85304348 L28.9660556,18.9782609 L20.8733333,18.9782609 C20.9732222,18.6286957 21.0317778,18.2669565 21.0059444,17.8947826 C20.9198333,16.7156522 20.1999444,15.6947826 19.1235556,15.2286957 L19.1235556,15.2286957 Z M14.7095,1.74 L28.8437778,1.74 C28.9109444,1.74 28.9660556,1.79565217 28.9660556,1.86347826 L28.9660556,4.11391304 L14.5855,4.11391304 L14.5855,1.86347826 C14.5855,1.79565217 14.6406111,1.74 14.7095,1.74 L14.7095,1.74 Z M28.8437778,0.000869565217 L14.7095,0.000869565217 C13.6916667,0.000869565217 12.8632778,0.835652174 12.8632778,1.86347826 L12.8632778,12.4478261 C12.1812778,12.726087 10.9912222,13.2426087 10.0250556,13.8095652 C7.83783333,15.0965217 5.20111111,17.7765217 4.98238889,21.0513043 L4.21083333,27.8321739 L3.74583333,29.206087 L1.674,28.4930435 L0,33.4478261 L1.63094444,34.0095652 L2.74694444,30.7 L16.9156667,35.5817391 L15.7979444,38.8895652 L17.4288889,39.4530435 L19.1028889,34.4965217 L16.9363333,33.7504348 L17.2704444,32.7591304 C18.941,32.2947826 21.2849444,30.5469565 22.5921111,27.8269565 L28.8437778,27.8269565 C29.8616111,27.8269565 30.6882778,26.9904348 30.6882778,25.9626087 L30.6882778,1.86347826 C30.6882778,0.835652174 29.8616111,0.000869565217 28.8437778,0.000869565217 L28.8437778,0.000869565217 Z" id="Fill-2"></path>
                    </g>
                </g>
            </g>
        </g>
    </g>
</svg>
