<?xml version="1.0" encoding="UTF-8"?>
<svg width="44px" height="44px" viewBox="0 0 44 44" version="1.1" xmlns="http://www.w3.org/2000/svg" xmlns:xlink="http://www.w3.org/1999/xlink">
    <!-- Generator: Sketch 54.1 (76490) - https://sketchapp.com -->
    <title>YouTube</title>
    <desc>Created with Sketch.</desc>
    <g id="Symbols" stroke="none" stroke-width="1" fill="none" fill-rule="evenodd">
        <g id="Footer/Desktop/NOMHBRnPRICING" transform="translate(-933.000000, -106.000000)">
            <g id="Footer">
                <g id="Social-Media" transform="translate(684.000000, 106.000000)">
                    <g id="Icons/Social-Media/YouTube" transform="translate(249.000000, 0.000000)">
                        <g id="YouTube-Icon">
                            <circle id="Oval" fill="#FFFFFF" cx="22" cy="22" r="22"></circle>
                            <path d="M19.0470483,25.6517705 L19.0455706,17.7416618 L26.7735629,21.7105348 L19.0470483,25.6517705 Z M36.0140517,16.3714296 C36.0140517,16.3714296 35.7347534,14.431722 34.8769086,13.5771452 C33.7892707,12.4556494 32.5708502,12.4505583 32.0115147,12.3843741 C28.0097166,12.1 22.0055416,12.1 22.0055416,12.1 L21.9929806,12.1 C21.9929806,12.1 15.9895445,12.1 11.9877464,12.3843741 C11.4284109,12.4505583 10.2099904,12.4556494 9.12161366,13.5771452 C8.26450771,14.431722 7.98520939,16.3714296 7.98520939,16.3714296 C7.98520939,16.3714296 7.7,18.6493315 7.7,20.9272333 L7.7,23.0633118 C7.7,25.3412136 7.98520939,27.6198428 7.98520939,27.6198428 C7.98520939,27.6198428 8.26450771,29.5595504 9.12161366,30.4141272 C10.2099904,31.535623 11.6397318,31.4999853 12.2759113,31.6170805 C14.5642364,31.8330885 21.9996306,31.9 21.9996306,31.9 C21.9996306,31.9 28.0097166,31.8912724 32.0115147,31.6068983 C32.5708502,31.5407141 33.7892707,31.535623 34.8769086,30.4141272 C35.7347534,29.5595504 36.0140517,27.6198428 36.0140517,27.6198428 C36.0140517,27.6198428 36.3,25.3412136 36.3,23.0633118 L36.3,20.9272333 C36.3,18.6493315 36.0140517,16.3714296 36.0140517,16.3714296 L36.0140517,16.3714296 Z" id="Fill-1" fill="#002A4E"></path>
                        </g>
                    </g>
                </g>
            </g>
        </g>
    </g>
</svg>